G04 #@! TF.GenerationSoftware,KiCad,Pcbnew,(5.1.0)-1*
G04 #@! TF.CreationDate,2020-08-07T11:47:51-07:00*
G04 #@! TF.ProjectId,MAX7_Proto,4d415837-5f50-4726-9f74-6f2e6b696361,rev?*
G04 #@! TF.SameCoordinates,Original*
G04 #@! TF.FileFunction,Copper,L1,Top*
G04 #@! TF.FilePolarity,Positive*
%FSLAX46Y46*%
G04 Gerber Fmt 4.6, Leading zero omitted, Abs format (unit mm)*
G04 Created by KiCad (PCBNEW (5.1.0)-1) date 2020-08-07 11:47:51*
%MOMM*%
%LPD*%
G04 APERTURE LIST*
%ADD10R,1.600000X1.600000*%
%ADD11C,1.600000*%
%ADD12O,1.700000X1.700000*%
%ADD13R,1.700000X1.700000*%
%ADD14R,1.727200X1.727200*%
%ADD15O,1.727200X1.727200*%
%ADD16C,0.100000*%
%ADD17C,0.950000*%
%ADD18C,0.550000*%
%ADD19C,0.800000*%
%ADD20C,0.500000*%
%ADD21C,0.250000*%
%ADD22C,0.254000*%
G04 APERTURE END LIST*
D10*
X133350000Y-88900000D03*
D11*
X133350000Y-81280000D03*
X140970000Y-81280000D03*
X140970000Y-88900000D03*
D12*
X128270000Y-125730000D03*
X128270000Y-123190000D03*
X128270000Y-120650000D03*
X128270000Y-118110000D03*
X128270000Y-115570000D03*
X128270000Y-113030000D03*
X128270000Y-110490000D03*
X128270000Y-107950000D03*
X128270000Y-105410000D03*
X128270000Y-102870000D03*
X128270000Y-100330000D03*
X128270000Y-97790000D03*
X128270000Y-95250000D03*
X128270000Y-92710000D03*
X128270000Y-90170000D03*
X128270000Y-87630000D03*
X128270000Y-85090000D03*
X128270000Y-82550000D03*
X128270000Y-80010000D03*
D13*
X128270000Y-77470000D03*
D14*
X135890000Y-116840000D03*
D15*
X138430000Y-116840000D03*
X135890000Y-119380000D03*
X138430000Y-119380000D03*
X135890000Y-121920000D03*
X138430000Y-121920000D03*
X135890000Y-124460000D03*
X138430000Y-124460000D03*
X135890000Y-127000000D03*
X138430000Y-127000000D03*
D13*
X146050000Y-77470000D03*
D12*
X146050000Y-80010000D03*
X146050000Y-82550000D03*
X146050000Y-85090000D03*
X146050000Y-87630000D03*
X146050000Y-90170000D03*
X146050000Y-92710000D03*
X146050000Y-95250000D03*
X146050000Y-97790000D03*
X146050000Y-100330000D03*
X146050000Y-102870000D03*
X146050000Y-105410000D03*
X146050000Y-107950000D03*
X146050000Y-110490000D03*
X146050000Y-113030000D03*
X146050000Y-115570000D03*
X146050000Y-118110000D03*
X146050000Y-120650000D03*
X146050000Y-123190000D03*
X146050000Y-125730000D03*
D16*
G36*
X134055779Y-76996144D02*
G01*
X134078834Y-76999563D01*
X134101443Y-77005227D01*
X134123387Y-77013079D01*
X134144457Y-77023044D01*
X134164448Y-77035026D01*
X134183168Y-77048910D01*
X134200438Y-77064562D01*
X134216090Y-77081832D01*
X134229974Y-77100552D01*
X134241956Y-77120543D01*
X134251921Y-77141613D01*
X134259773Y-77163557D01*
X134265437Y-77186166D01*
X134268856Y-77209221D01*
X134270000Y-77232500D01*
X134270000Y-77707500D01*
X134268856Y-77730779D01*
X134265437Y-77753834D01*
X134259773Y-77776443D01*
X134251921Y-77798387D01*
X134241956Y-77819457D01*
X134229974Y-77839448D01*
X134216090Y-77858168D01*
X134200438Y-77875438D01*
X134183168Y-77891090D01*
X134164448Y-77904974D01*
X134144457Y-77916956D01*
X134123387Y-77926921D01*
X134101443Y-77934773D01*
X134078834Y-77940437D01*
X134055779Y-77943856D01*
X134032500Y-77945000D01*
X133457500Y-77945000D01*
X133434221Y-77943856D01*
X133411166Y-77940437D01*
X133388557Y-77934773D01*
X133366613Y-77926921D01*
X133345543Y-77916956D01*
X133325552Y-77904974D01*
X133306832Y-77891090D01*
X133289562Y-77875438D01*
X133273910Y-77858168D01*
X133260026Y-77839448D01*
X133248044Y-77819457D01*
X133238079Y-77798387D01*
X133230227Y-77776443D01*
X133224563Y-77753834D01*
X133221144Y-77730779D01*
X133220000Y-77707500D01*
X133220000Y-77232500D01*
X133221144Y-77209221D01*
X133224563Y-77186166D01*
X133230227Y-77163557D01*
X133238079Y-77141613D01*
X133248044Y-77120543D01*
X133260026Y-77100552D01*
X133273910Y-77081832D01*
X133289562Y-77064562D01*
X133306832Y-77048910D01*
X133325552Y-77035026D01*
X133345543Y-77023044D01*
X133366613Y-77013079D01*
X133388557Y-77005227D01*
X133411166Y-76999563D01*
X133434221Y-76996144D01*
X133457500Y-76995000D01*
X134032500Y-76995000D01*
X134055779Y-76996144D01*
X134055779Y-76996144D01*
G37*
D17*
X133745000Y-77470000D03*
D16*
G36*
X135805779Y-76996144D02*
G01*
X135828834Y-76999563D01*
X135851443Y-77005227D01*
X135873387Y-77013079D01*
X135894457Y-77023044D01*
X135914448Y-77035026D01*
X135933168Y-77048910D01*
X135950438Y-77064562D01*
X135966090Y-77081832D01*
X135979974Y-77100552D01*
X135991956Y-77120543D01*
X136001921Y-77141613D01*
X136009773Y-77163557D01*
X136015437Y-77186166D01*
X136018856Y-77209221D01*
X136020000Y-77232500D01*
X136020000Y-77707500D01*
X136018856Y-77730779D01*
X136015437Y-77753834D01*
X136009773Y-77776443D01*
X136001921Y-77798387D01*
X135991956Y-77819457D01*
X135979974Y-77839448D01*
X135966090Y-77858168D01*
X135950438Y-77875438D01*
X135933168Y-77891090D01*
X135914448Y-77904974D01*
X135894457Y-77916956D01*
X135873387Y-77926921D01*
X135851443Y-77934773D01*
X135828834Y-77940437D01*
X135805779Y-77943856D01*
X135782500Y-77945000D01*
X135207500Y-77945000D01*
X135184221Y-77943856D01*
X135161166Y-77940437D01*
X135138557Y-77934773D01*
X135116613Y-77926921D01*
X135095543Y-77916956D01*
X135075552Y-77904974D01*
X135056832Y-77891090D01*
X135039562Y-77875438D01*
X135023910Y-77858168D01*
X135010026Y-77839448D01*
X134998044Y-77819457D01*
X134988079Y-77798387D01*
X134980227Y-77776443D01*
X134974563Y-77753834D01*
X134971144Y-77730779D01*
X134970000Y-77707500D01*
X134970000Y-77232500D01*
X134971144Y-77209221D01*
X134974563Y-77186166D01*
X134980227Y-77163557D01*
X134988079Y-77141613D01*
X134998044Y-77120543D01*
X135010026Y-77100552D01*
X135023910Y-77081832D01*
X135039562Y-77064562D01*
X135056832Y-77048910D01*
X135075552Y-77035026D01*
X135095543Y-77023044D01*
X135116613Y-77013079D01*
X135138557Y-77005227D01*
X135161166Y-76999563D01*
X135184221Y-76996144D01*
X135207500Y-76995000D01*
X135782500Y-76995000D01*
X135805779Y-76996144D01*
X135805779Y-76996144D01*
G37*
D17*
X135495000Y-77470000D03*
D16*
G36*
X140885779Y-76996144D02*
G01*
X140908834Y-76999563D01*
X140931443Y-77005227D01*
X140953387Y-77013079D01*
X140974457Y-77023044D01*
X140994448Y-77035026D01*
X141013168Y-77048910D01*
X141030438Y-77064562D01*
X141046090Y-77081832D01*
X141059974Y-77100552D01*
X141071956Y-77120543D01*
X141081921Y-77141613D01*
X141089773Y-77163557D01*
X141095437Y-77186166D01*
X141098856Y-77209221D01*
X141100000Y-77232500D01*
X141100000Y-77707500D01*
X141098856Y-77730779D01*
X141095437Y-77753834D01*
X141089773Y-77776443D01*
X141081921Y-77798387D01*
X141071956Y-77819457D01*
X141059974Y-77839448D01*
X141046090Y-77858168D01*
X141030438Y-77875438D01*
X141013168Y-77891090D01*
X140994448Y-77904974D01*
X140974457Y-77916956D01*
X140953387Y-77926921D01*
X140931443Y-77934773D01*
X140908834Y-77940437D01*
X140885779Y-77943856D01*
X140862500Y-77945000D01*
X140287500Y-77945000D01*
X140264221Y-77943856D01*
X140241166Y-77940437D01*
X140218557Y-77934773D01*
X140196613Y-77926921D01*
X140175543Y-77916956D01*
X140155552Y-77904974D01*
X140136832Y-77891090D01*
X140119562Y-77875438D01*
X140103910Y-77858168D01*
X140090026Y-77839448D01*
X140078044Y-77819457D01*
X140068079Y-77798387D01*
X140060227Y-77776443D01*
X140054563Y-77753834D01*
X140051144Y-77730779D01*
X140050000Y-77707500D01*
X140050000Y-77232500D01*
X140051144Y-77209221D01*
X140054563Y-77186166D01*
X140060227Y-77163557D01*
X140068079Y-77141613D01*
X140078044Y-77120543D01*
X140090026Y-77100552D01*
X140103910Y-77081832D01*
X140119562Y-77064562D01*
X140136832Y-77048910D01*
X140155552Y-77035026D01*
X140175543Y-77023044D01*
X140196613Y-77013079D01*
X140218557Y-77005227D01*
X140241166Y-76999563D01*
X140264221Y-76996144D01*
X140287500Y-76995000D01*
X140862500Y-76995000D01*
X140885779Y-76996144D01*
X140885779Y-76996144D01*
G37*
D17*
X140575000Y-77470000D03*
D16*
G36*
X139135779Y-76996144D02*
G01*
X139158834Y-76999563D01*
X139181443Y-77005227D01*
X139203387Y-77013079D01*
X139224457Y-77023044D01*
X139244448Y-77035026D01*
X139263168Y-77048910D01*
X139280438Y-77064562D01*
X139296090Y-77081832D01*
X139309974Y-77100552D01*
X139321956Y-77120543D01*
X139331921Y-77141613D01*
X139339773Y-77163557D01*
X139345437Y-77186166D01*
X139348856Y-77209221D01*
X139350000Y-77232500D01*
X139350000Y-77707500D01*
X139348856Y-77730779D01*
X139345437Y-77753834D01*
X139339773Y-77776443D01*
X139331921Y-77798387D01*
X139321956Y-77819457D01*
X139309974Y-77839448D01*
X139296090Y-77858168D01*
X139280438Y-77875438D01*
X139263168Y-77891090D01*
X139244448Y-77904974D01*
X139224457Y-77916956D01*
X139203387Y-77926921D01*
X139181443Y-77934773D01*
X139158834Y-77940437D01*
X139135779Y-77943856D01*
X139112500Y-77945000D01*
X138537500Y-77945000D01*
X138514221Y-77943856D01*
X138491166Y-77940437D01*
X138468557Y-77934773D01*
X138446613Y-77926921D01*
X138425543Y-77916956D01*
X138405552Y-77904974D01*
X138386832Y-77891090D01*
X138369562Y-77875438D01*
X138353910Y-77858168D01*
X138340026Y-77839448D01*
X138328044Y-77819457D01*
X138318079Y-77798387D01*
X138310227Y-77776443D01*
X138304563Y-77753834D01*
X138301144Y-77730779D01*
X138300000Y-77707500D01*
X138300000Y-77232500D01*
X138301144Y-77209221D01*
X138304563Y-77186166D01*
X138310227Y-77163557D01*
X138318079Y-77141613D01*
X138328044Y-77120543D01*
X138340026Y-77100552D01*
X138353910Y-77081832D01*
X138369562Y-77064562D01*
X138386832Y-77048910D01*
X138405552Y-77035026D01*
X138425543Y-77023044D01*
X138446613Y-77013079D01*
X138468557Y-77005227D01*
X138491166Y-76999563D01*
X138514221Y-76996144D01*
X138537500Y-76995000D01*
X139112500Y-76995000D01*
X139135779Y-76996144D01*
X139135779Y-76996144D01*
G37*
D17*
X138825000Y-77470000D03*
D18*
X135957918Y-94741064D03*
D16*
G36*
X135233134Y-94405188D02*
G01*
X135622042Y-94016280D01*
X136682702Y-95076940D01*
X136293794Y-95465848D01*
X135233134Y-94405188D01*
X135233134Y-94405188D01*
G37*
D18*
X135392233Y-95306750D03*
D16*
G36*
X134667449Y-94970874D02*
G01*
X135056357Y-94581966D01*
X136117017Y-95642626D01*
X135728109Y-96031534D01*
X134667449Y-94970874D01*
X134667449Y-94970874D01*
G37*
D18*
X134826548Y-95872435D03*
D16*
G36*
X134101764Y-95536559D02*
G01*
X134490672Y-95147651D01*
X135551332Y-96208311D01*
X135162424Y-96597219D01*
X134101764Y-95536559D01*
X134101764Y-95536559D01*
G37*
D18*
X134260862Y-96438120D03*
D16*
G36*
X133536078Y-96102244D02*
G01*
X133924986Y-95713336D01*
X134985646Y-96773996D01*
X134596738Y-97162904D01*
X133536078Y-96102244D01*
X133536078Y-96102244D01*
G37*
D18*
X133695177Y-97003806D03*
D16*
G36*
X132970393Y-96667930D02*
G01*
X133359301Y-96279022D01*
X134419961Y-97339682D01*
X134031053Y-97728590D01*
X132970393Y-96667930D01*
X132970393Y-96667930D01*
G37*
D18*
X133129491Y-97569491D03*
D16*
G36*
X132404707Y-97233615D02*
G01*
X132793615Y-96844707D01*
X133854275Y-97905367D01*
X133465367Y-98294275D01*
X132404707Y-97233615D01*
X132404707Y-97233615D01*
G37*
D18*
X132563806Y-98135177D03*
D16*
G36*
X131839022Y-97799301D02*
G01*
X132227930Y-97410393D01*
X133288590Y-98471053D01*
X132899682Y-98859961D01*
X131839022Y-97799301D01*
X131839022Y-97799301D01*
G37*
D18*
X131998120Y-98700862D03*
D16*
G36*
X131273336Y-98364986D02*
G01*
X131662244Y-97976078D01*
X132722904Y-99036738D01*
X132333996Y-99425646D01*
X131273336Y-98364986D01*
X131273336Y-98364986D01*
G37*
D18*
X131432435Y-99266548D03*
D16*
G36*
X130707651Y-98930672D02*
G01*
X131096559Y-98541764D01*
X132157219Y-99602424D01*
X131768311Y-99991332D01*
X130707651Y-98930672D01*
X130707651Y-98930672D01*
G37*
D18*
X130866750Y-99832233D03*
D16*
G36*
X130141966Y-99496357D02*
G01*
X130530874Y-99107449D01*
X131591534Y-100168109D01*
X131202626Y-100557017D01*
X130141966Y-99496357D01*
X130141966Y-99496357D01*
G37*
D18*
X130301064Y-100397918D03*
D16*
G36*
X129576280Y-100062042D02*
G01*
X129965188Y-99673134D01*
X131025848Y-100733794D01*
X130636940Y-101122702D01*
X129576280Y-100062042D01*
X129576280Y-100062042D01*
G37*
D18*
X130301064Y-102802082D03*
D16*
G36*
X129965188Y-103526866D02*
G01*
X129576280Y-103137958D01*
X130636940Y-102077298D01*
X131025848Y-102466206D01*
X129965188Y-103526866D01*
X129965188Y-103526866D01*
G37*
D18*
X130866750Y-103367767D03*
D16*
G36*
X130530874Y-104092551D02*
G01*
X130141966Y-103703643D01*
X131202626Y-102642983D01*
X131591534Y-103031891D01*
X130530874Y-104092551D01*
X130530874Y-104092551D01*
G37*
D18*
X131432435Y-103933452D03*
D16*
G36*
X131096559Y-104658236D02*
G01*
X130707651Y-104269328D01*
X131768311Y-103208668D01*
X132157219Y-103597576D01*
X131096559Y-104658236D01*
X131096559Y-104658236D01*
G37*
D18*
X131998120Y-104499138D03*
D16*
G36*
X131662244Y-105223922D02*
G01*
X131273336Y-104835014D01*
X132333996Y-103774354D01*
X132722904Y-104163262D01*
X131662244Y-105223922D01*
X131662244Y-105223922D01*
G37*
D18*
X132563806Y-105064823D03*
D16*
G36*
X132227930Y-105789607D02*
G01*
X131839022Y-105400699D01*
X132899682Y-104340039D01*
X133288590Y-104728947D01*
X132227930Y-105789607D01*
X132227930Y-105789607D01*
G37*
D18*
X133129491Y-105630509D03*
D16*
G36*
X132793615Y-106355293D02*
G01*
X132404707Y-105966385D01*
X133465367Y-104905725D01*
X133854275Y-105294633D01*
X132793615Y-106355293D01*
X132793615Y-106355293D01*
G37*
D18*
X133695177Y-106196194D03*
D16*
G36*
X133359301Y-106920978D02*
G01*
X132970393Y-106532070D01*
X134031053Y-105471410D01*
X134419961Y-105860318D01*
X133359301Y-106920978D01*
X133359301Y-106920978D01*
G37*
D18*
X134260862Y-106761880D03*
D16*
G36*
X133924986Y-107486664D02*
G01*
X133536078Y-107097756D01*
X134596738Y-106037096D01*
X134985646Y-106426004D01*
X133924986Y-107486664D01*
X133924986Y-107486664D01*
G37*
D18*
X134826548Y-107327565D03*
D16*
G36*
X134490672Y-108052349D02*
G01*
X134101764Y-107663441D01*
X135162424Y-106602781D01*
X135551332Y-106991689D01*
X134490672Y-108052349D01*
X134490672Y-108052349D01*
G37*
D18*
X135392233Y-107893250D03*
D16*
G36*
X135056357Y-108618034D02*
G01*
X134667449Y-108229126D01*
X135728109Y-107168466D01*
X136117017Y-107557374D01*
X135056357Y-108618034D01*
X135056357Y-108618034D01*
G37*
D18*
X135957918Y-108458936D03*
D16*
G36*
X135622042Y-109183720D02*
G01*
X135233134Y-108794812D01*
X136293794Y-107734152D01*
X136682702Y-108123060D01*
X135622042Y-109183720D01*
X135622042Y-109183720D01*
G37*
D18*
X138362082Y-108458936D03*
D16*
G36*
X137637298Y-108123060D02*
G01*
X138026206Y-107734152D01*
X139086866Y-108794812D01*
X138697958Y-109183720D01*
X137637298Y-108123060D01*
X137637298Y-108123060D01*
G37*
D18*
X138927767Y-107893250D03*
D16*
G36*
X138202983Y-107557374D02*
G01*
X138591891Y-107168466D01*
X139652551Y-108229126D01*
X139263643Y-108618034D01*
X138202983Y-107557374D01*
X138202983Y-107557374D01*
G37*
D18*
X139493452Y-107327565D03*
D16*
G36*
X138768668Y-106991689D02*
G01*
X139157576Y-106602781D01*
X140218236Y-107663441D01*
X139829328Y-108052349D01*
X138768668Y-106991689D01*
X138768668Y-106991689D01*
G37*
D18*
X140059138Y-106761880D03*
D16*
G36*
X139334354Y-106426004D02*
G01*
X139723262Y-106037096D01*
X140783922Y-107097756D01*
X140395014Y-107486664D01*
X139334354Y-106426004D01*
X139334354Y-106426004D01*
G37*
D18*
X140624823Y-106196194D03*
D16*
G36*
X139900039Y-105860318D02*
G01*
X140288947Y-105471410D01*
X141349607Y-106532070D01*
X140960699Y-106920978D01*
X139900039Y-105860318D01*
X139900039Y-105860318D01*
G37*
D18*
X141190509Y-105630509D03*
D16*
G36*
X140465725Y-105294633D02*
G01*
X140854633Y-104905725D01*
X141915293Y-105966385D01*
X141526385Y-106355293D01*
X140465725Y-105294633D01*
X140465725Y-105294633D01*
G37*
D18*
X141756194Y-105064823D03*
D16*
G36*
X141031410Y-104728947D02*
G01*
X141420318Y-104340039D01*
X142480978Y-105400699D01*
X142092070Y-105789607D01*
X141031410Y-104728947D01*
X141031410Y-104728947D01*
G37*
D18*
X142321880Y-104499138D03*
D16*
G36*
X141597096Y-104163262D02*
G01*
X141986004Y-103774354D01*
X143046664Y-104835014D01*
X142657756Y-105223922D01*
X141597096Y-104163262D01*
X141597096Y-104163262D01*
G37*
D18*
X142887565Y-103933452D03*
D16*
G36*
X142162781Y-103597576D02*
G01*
X142551689Y-103208668D01*
X143612349Y-104269328D01*
X143223441Y-104658236D01*
X142162781Y-103597576D01*
X142162781Y-103597576D01*
G37*
D18*
X143453250Y-103367767D03*
D16*
G36*
X142728466Y-103031891D02*
G01*
X143117374Y-102642983D01*
X144178034Y-103703643D01*
X143789126Y-104092551D01*
X142728466Y-103031891D01*
X142728466Y-103031891D01*
G37*
D18*
X144018936Y-102802082D03*
D16*
G36*
X143294152Y-102466206D02*
G01*
X143683060Y-102077298D01*
X144743720Y-103137958D01*
X144354812Y-103526866D01*
X143294152Y-102466206D01*
X143294152Y-102466206D01*
G37*
D18*
X144018936Y-100397918D03*
D16*
G36*
X143683060Y-101122702D02*
G01*
X143294152Y-100733794D01*
X144354812Y-99673134D01*
X144743720Y-100062042D01*
X143683060Y-101122702D01*
X143683060Y-101122702D01*
G37*
D18*
X143453250Y-99832233D03*
D16*
G36*
X143117374Y-100557017D02*
G01*
X142728466Y-100168109D01*
X143789126Y-99107449D01*
X144178034Y-99496357D01*
X143117374Y-100557017D01*
X143117374Y-100557017D01*
G37*
D18*
X142887565Y-99266548D03*
D16*
G36*
X142551689Y-99991332D02*
G01*
X142162781Y-99602424D01*
X143223441Y-98541764D01*
X143612349Y-98930672D01*
X142551689Y-99991332D01*
X142551689Y-99991332D01*
G37*
D18*
X142321880Y-98700862D03*
D16*
G36*
X141986004Y-99425646D02*
G01*
X141597096Y-99036738D01*
X142657756Y-97976078D01*
X143046664Y-98364986D01*
X141986004Y-99425646D01*
X141986004Y-99425646D01*
G37*
D18*
X141756194Y-98135177D03*
D16*
G36*
X141420318Y-98859961D02*
G01*
X141031410Y-98471053D01*
X142092070Y-97410393D01*
X142480978Y-97799301D01*
X141420318Y-98859961D01*
X141420318Y-98859961D01*
G37*
D18*
X141190509Y-97569491D03*
D16*
G36*
X140854633Y-98294275D02*
G01*
X140465725Y-97905367D01*
X141526385Y-96844707D01*
X141915293Y-97233615D01*
X140854633Y-98294275D01*
X140854633Y-98294275D01*
G37*
D18*
X140624823Y-97003806D03*
D16*
G36*
X140288947Y-97728590D02*
G01*
X139900039Y-97339682D01*
X140960699Y-96279022D01*
X141349607Y-96667930D01*
X140288947Y-97728590D01*
X140288947Y-97728590D01*
G37*
D18*
X140059138Y-96438120D03*
D16*
G36*
X139723262Y-97162904D02*
G01*
X139334354Y-96773996D01*
X140395014Y-95713336D01*
X140783922Y-96102244D01*
X139723262Y-97162904D01*
X139723262Y-97162904D01*
G37*
D18*
X139493452Y-95872435D03*
D16*
G36*
X139157576Y-96597219D02*
G01*
X138768668Y-96208311D01*
X139829328Y-95147651D01*
X140218236Y-95536559D01*
X139157576Y-96597219D01*
X139157576Y-96597219D01*
G37*
D18*
X138927767Y-95306750D03*
D16*
G36*
X138591891Y-96031534D02*
G01*
X138202983Y-95642626D01*
X139263643Y-94581966D01*
X139652551Y-94970874D01*
X138591891Y-96031534D01*
X138591891Y-96031534D01*
G37*
D18*
X138362082Y-94741064D03*
D16*
G36*
X138026206Y-95465848D02*
G01*
X137637298Y-95076940D01*
X138697958Y-94016280D01*
X139086866Y-94405188D01*
X138026206Y-95465848D01*
X138026206Y-95465848D01*
G37*
D19*
X140970000Y-99695000D03*
X133350000Y-103505000D03*
X139065000Y-105410000D03*
X135255000Y-97790000D03*
X140970000Y-85090000D03*
X137160000Y-85090000D03*
X137160000Y-80645000D03*
X131445010Y-82550000D03*
X132080000Y-85090000D03*
X132400000Y-100200000D03*
X134400000Y-104865000D03*
X141000000Y-103800000D03*
X139200000Y-97800000D03*
X140024230Y-114286540D03*
X140652500Y-78740000D03*
X131196815Y-96768185D03*
X133350000Y-92075000D03*
D20*
X142887565Y-99266548D02*
X141514113Y-100640000D01*
X140025000Y-100640000D02*
X140010000Y-100640000D01*
X140970000Y-99695000D02*
X140025000Y-100640000D01*
X141514113Y-100640000D02*
X140010000Y-100640000D01*
X140010000Y-100640000D02*
X137160000Y-100640000D01*
X132563806Y-105064823D02*
X133350000Y-104278629D01*
X133350000Y-104278629D02*
X133350000Y-103505000D01*
X133350000Y-103505000D02*
X137160000Y-103505000D01*
X137160000Y-103505000D02*
X137160000Y-100640000D01*
X139065000Y-105410000D02*
X137160000Y-105410000D01*
X137160000Y-105410000D02*
X137160000Y-103505000D01*
X135255000Y-97432258D02*
X134260862Y-96438120D01*
X135255000Y-97790000D02*
X135255000Y-97432258D01*
X135255000Y-97790000D02*
X137160000Y-97790000D01*
X137160000Y-100640000D02*
X137160000Y-97790000D01*
X137160000Y-92710000D02*
X140970000Y-88900000D01*
X137160000Y-97790000D02*
X137160000Y-92710000D01*
X137160000Y-115570000D02*
X138430000Y-116840000D01*
X137714517Y-106680000D02*
X137160000Y-106680000D01*
X138927767Y-107893250D02*
X137714517Y-106680000D01*
X137160000Y-105410000D02*
X137160000Y-106680000D01*
X137160000Y-106680000D02*
X137160000Y-115570000D01*
D21*
X129540000Y-124460000D02*
X130810000Y-125730000D01*
X138919130Y-125730000D02*
X139700000Y-125730000D01*
X138430000Y-125730000D02*
X138919130Y-125730000D01*
X143510000Y-125730000D02*
X139700000Y-125730000D01*
X144780000Y-124460000D02*
X143510000Y-125730000D01*
D20*
X138430000Y-127000000D02*
X139700000Y-125730000D01*
X140970000Y-88900000D02*
X140170001Y-88100001D01*
X140170001Y-88100001D02*
X139700000Y-87630000D01*
X139700000Y-87630000D02*
X139700000Y-85090000D01*
X139700000Y-85090000D02*
X140970000Y-85090000D01*
X139700000Y-85090000D02*
X137160000Y-85090000D01*
X135255000Y-82550000D02*
X132010695Y-82550000D01*
X132010695Y-82550000D02*
X131445010Y-82550000D01*
X137160000Y-80645000D02*
X135255000Y-82550000D01*
X133745000Y-77470000D02*
X133745000Y-78182500D01*
X136207500Y-80645000D02*
X137160000Y-80645000D01*
X133745000Y-78182500D02*
X136207500Y-80645000D01*
D21*
X137160000Y-125730000D02*
X138430000Y-125730000D01*
X130810000Y-125730000D02*
X137160000Y-125730000D01*
X143510000Y-123190000D02*
X144780000Y-124460000D01*
X129540000Y-124460000D02*
X130810000Y-123190000D01*
X130810000Y-123190000D02*
X134620000Y-123190000D01*
X134620000Y-118110000D02*
X137160000Y-118110000D01*
X137160000Y-120650000D02*
X134620000Y-120650000D01*
X134620000Y-120650000D02*
X134620000Y-118110000D01*
X134620000Y-123190000D02*
X134620000Y-120650000D01*
X137160000Y-120650000D02*
X137160000Y-118110000D01*
X137160000Y-125730000D02*
X137160000Y-120650000D01*
X137160000Y-120650000D02*
X139700000Y-120650000D01*
X139700000Y-120650000D02*
X139700000Y-123190000D01*
X134620000Y-123190000D02*
X139700000Y-123190000D01*
X139700000Y-123190000D02*
X143510000Y-123190000D01*
D20*
X138430000Y-127000000D02*
X137160000Y-125730000D01*
X138430000Y-116840000D02*
X137160000Y-118110000D01*
X128270000Y-125730000D02*
X129540000Y-124460000D01*
X146050000Y-125730000D02*
X144780000Y-124460000D01*
X137160000Y-85090000D02*
X132080000Y-85090000D01*
X131432435Y-99266548D02*
X131466548Y-99266548D01*
X131466548Y-99266548D02*
X132400000Y-100200000D01*
X133129491Y-105630509D02*
X133895000Y-104865000D01*
X133895000Y-104865000D02*
X134400000Y-104865000D01*
X141756194Y-105064823D02*
X141000000Y-104308629D01*
X141000000Y-104308629D02*
X141000000Y-103800000D01*
X140059138Y-96438120D02*
X139200000Y-97297258D01*
X139200000Y-97297258D02*
X139200000Y-97800000D01*
X140024230Y-117189900D02*
X140024230Y-114286540D01*
X138430000Y-119380000D02*
X140024230Y-117785770D01*
X140024230Y-117785770D02*
X140024230Y-117189900D01*
D21*
X140652500Y-77547500D02*
X140575000Y-77470000D01*
X140652500Y-78740000D02*
X140652500Y-77547500D01*
X135495000Y-77470000D02*
X138825000Y-77470000D01*
X133350000Y-118110000D02*
X133350000Y-111066854D01*
X128270000Y-123190000D02*
X133350000Y-118110000D01*
X133350000Y-111066854D02*
X135957918Y-108458936D01*
X132715000Y-116205000D02*
X132715000Y-110570483D01*
X128270000Y-120650000D02*
X132715000Y-116205000D01*
X132715000Y-110570483D02*
X135392233Y-107893250D01*
X132080000Y-114300000D02*
X132080000Y-110074113D01*
X128270000Y-118110000D02*
X132080000Y-114300000D01*
X132080000Y-110074113D02*
X134826548Y-107327565D01*
X128270000Y-115570000D02*
X131445000Y-112395000D01*
X131445000Y-109577742D02*
X134260862Y-106761880D01*
X131445000Y-112395000D02*
X131445000Y-109577742D01*
X128270000Y-113030000D02*
X130810000Y-110490000D01*
X130810000Y-109081371D02*
X133695177Y-106196194D01*
X130810000Y-110490000D02*
X130810000Y-109081371D01*
X128270000Y-110490000D02*
X130175000Y-108585000D01*
X130175000Y-106322258D02*
X131998120Y-104499138D01*
X130175000Y-108585000D02*
X130175000Y-106322258D01*
X129540000Y-106680000D02*
X128270000Y-107950000D01*
X131432435Y-103933452D02*
X129540000Y-105825887D01*
X129540000Y-105825887D02*
X129540000Y-106680000D01*
X128824517Y-105410000D02*
X128270000Y-105410000D01*
X130866750Y-103367767D02*
X128824517Y-105410000D01*
X129119999Y-103719999D02*
X128270000Y-102870000D01*
X129383147Y-103719999D02*
X129119999Y-103719999D01*
X130301064Y-102802082D02*
X129383147Y-103719999D01*
X129119999Y-99480001D02*
X128270000Y-100330000D01*
X129383147Y-99480001D02*
X129119999Y-99480001D01*
X130301064Y-100397918D02*
X129383147Y-99480001D01*
X128824517Y-97790000D02*
X128270000Y-97790000D01*
X130866750Y-99832233D02*
X128824517Y-97790000D01*
X128547258Y-95250000D02*
X128270000Y-95250000D01*
X131998120Y-98700862D02*
X128547258Y-95250000D01*
X128270000Y-92710000D02*
X129540000Y-93980000D01*
X129540000Y-93980000D02*
X129540000Y-95111371D01*
X129540000Y-95111371D02*
X131196815Y-96768185D01*
X131196815Y-96768185D02*
X132563806Y-98135177D01*
X130175000Y-94615000D02*
X133129491Y-97569491D01*
X129540000Y-92710000D02*
X130175000Y-93345000D01*
X129540000Y-91440000D02*
X129540000Y-92710000D01*
X130175000Y-93345000D02*
X130175000Y-94615000D01*
X128270000Y-90170000D02*
X129540000Y-91440000D01*
X130175000Y-89535000D02*
X128270000Y-87630000D01*
X130175000Y-92075000D02*
X130175000Y-89535000D01*
X130810000Y-92710000D02*
X130175000Y-92075000D01*
X133695177Y-97003806D02*
X130810000Y-94118629D01*
X130810000Y-94118629D02*
X130810000Y-92710000D01*
X129540000Y-86360000D02*
X128270000Y-85090000D01*
X130810000Y-87630000D02*
X129540000Y-86360000D01*
X134826548Y-95872435D02*
X130810000Y-91855887D01*
X130810000Y-91855887D02*
X130810000Y-87630000D01*
X131445000Y-91359517D02*
X135392233Y-95306750D01*
X131445000Y-86995000D02*
X131445000Y-91359517D01*
X130175000Y-85725000D02*
X131445000Y-86995000D01*
X128270000Y-82550000D02*
X130175000Y-84455000D01*
X130175000Y-84455000D02*
X130175000Y-85725000D01*
X133350000Y-92133146D02*
X133350000Y-92075000D01*
X135957918Y-94741064D02*
X133350000Y-92133146D01*
X132080000Y-90805000D02*
X133350000Y-92075000D01*
X128270000Y-80010000D02*
X129540000Y-81280000D01*
X129540000Y-81280000D02*
X129540000Y-82550000D01*
X129540000Y-82550000D02*
X130810000Y-83820000D01*
X130810000Y-83820000D02*
X130810000Y-85090000D01*
X130810000Y-85090000D02*
X132080000Y-86360000D01*
X132080000Y-86360000D02*
X132080000Y-90805000D01*
X146050000Y-123190000D02*
X140970000Y-118110000D01*
X140970000Y-111066854D02*
X138362082Y-108458936D01*
X140970000Y-118110000D02*
X140970000Y-111066854D01*
X146050000Y-120650000D02*
X141605000Y-116205000D01*
X141605000Y-109439113D02*
X139493452Y-107327565D01*
X141605000Y-116205000D02*
X141605000Y-109439113D01*
X146050000Y-118110000D02*
X142240000Y-114300000D01*
X142240000Y-108942742D02*
X140059138Y-106761880D01*
X142240000Y-114300000D02*
X142240000Y-108942742D01*
X146050000Y-115570000D02*
X142875000Y-112395000D01*
X142875000Y-108446371D02*
X140624823Y-106196194D01*
X142875000Y-112395000D02*
X142875000Y-108446371D01*
X146050000Y-113030000D02*
X143510000Y-110490000D01*
X143510000Y-107950000D02*
X141190509Y-105630509D01*
X143510000Y-110490000D02*
X143510000Y-107950000D01*
X144145000Y-106322258D02*
X142321880Y-104499138D01*
X146050000Y-110490000D02*
X144145000Y-108585000D01*
X144145000Y-108585000D02*
X144145000Y-106322258D01*
X146050000Y-107950000D02*
X144780000Y-106680000D01*
X144780000Y-105825887D02*
X142887565Y-103933452D01*
X144780000Y-106680000D02*
X144780000Y-105825887D01*
X145495483Y-105410000D02*
X146050000Y-105410000D01*
X143453250Y-103367767D02*
X145495483Y-105410000D01*
X145385927Y-103534073D02*
X145415000Y-103505000D01*
X144750927Y-103534073D02*
X145385927Y-103534073D01*
X146050000Y-102870000D02*
X145415000Y-103505000D01*
X144750927Y-103534073D02*
X144018936Y-102802082D01*
X145200001Y-99480001D02*
X146050000Y-100330000D01*
X144936853Y-99480001D02*
X145200001Y-99480001D01*
X144018936Y-100397918D02*
X144936853Y-99480001D01*
X145495483Y-97790000D02*
X146050000Y-97790000D01*
X143453250Y-99832233D02*
X145495483Y-97790000D01*
X145772742Y-95250000D02*
X146050000Y-95250000D01*
X142321880Y-98700862D02*
X145772742Y-95250000D01*
X144780000Y-95111371D02*
X141756194Y-98135177D01*
X146050000Y-92710000D02*
X144780000Y-93980000D01*
X144780000Y-93980000D02*
X144780000Y-95111371D01*
X144145000Y-94615000D02*
X141190509Y-97569491D01*
X144145000Y-93345000D02*
X144780000Y-92710000D01*
X144145000Y-93345000D02*
X144145000Y-94615000D01*
X144780000Y-92710000D02*
X144780000Y-91440000D01*
X146050000Y-90170000D02*
X144780000Y-91440000D01*
X143510000Y-94118629D02*
X140624823Y-97003806D01*
X143510000Y-92710000D02*
X144145000Y-92075000D01*
X143510000Y-92710000D02*
X143510000Y-94118629D01*
X144145000Y-92075000D02*
X144145000Y-89535000D01*
X146050000Y-87630000D02*
X144145000Y-89535000D01*
X143510000Y-91855887D02*
X143510000Y-87630000D01*
X139493452Y-95872435D02*
X143510000Y-91855887D01*
X146050000Y-85090000D02*
X143510000Y-87630000D01*
X138927767Y-95306750D02*
X142875000Y-91359517D01*
X146050000Y-82550000D02*
X142875000Y-85725000D01*
X142875000Y-91359517D02*
X142875000Y-85725000D01*
X138362082Y-94741064D02*
X142240000Y-90863146D01*
X142240000Y-85090000D02*
X144145000Y-83185000D01*
X142240000Y-90863146D02*
X142240000Y-85090000D01*
X144145000Y-83185000D02*
X144145000Y-81915000D01*
X146050000Y-80010000D02*
X144145000Y-81915000D01*
D22*
G36*
X140441134Y-118463376D02*
G01*
X140520236Y-118559764D01*
X140544387Y-118579584D01*
X144752832Y-122788029D01*
X144711650Y-122923786D01*
X144685430Y-123190000D01*
X144711650Y-123456214D01*
X144789302Y-123712198D01*
X144915402Y-123948114D01*
X145085103Y-124154897D01*
X145291886Y-124324598D01*
X145412940Y-124389303D01*
X145168645Y-124534822D01*
X144952412Y-124729731D01*
X144778359Y-124963080D01*
X144653175Y-125225901D01*
X144608524Y-125373110D01*
X144729845Y-125603000D01*
X145923000Y-125603000D01*
X145923000Y-125583000D01*
X146177000Y-125583000D01*
X146177000Y-125603000D01*
X146197000Y-125603000D01*
X146197000Y-125857000D01*
X146177000Y-125857000D01*
X146177000Y-127050814D01*
X146406891Y-127171481D01*
X146681252Y-127074157D01*
X146787001Y-127011165D01*
X146787001Y-127737000D01*
X139730793Y-127737000D01*
X139839222Y-127509814D01*
X139884958Y-127359026D01*
X139763817Y-127127000D01*
X138557000Y-127127000D01*
X138557000Y-127147000D01*
X138303000Y-127147000D01*
X138303000Y-127127000D01*
X138283000Y-127127000D01*
X138283000Y-126873000D01*
X138303000Y-126873000D01*
X138303000Y-126853000D01*
X138557000Y-126853000D01*
X138557000Y-126873000D01*
X139763817Y-126873000D01*
X139884958Y-126640974D01*
X139839222Y-126490186D01*
X139712684Y-126225056D01*
X139609460Y-126086890D01*
X144608524Y-126086890D01*
X144653175Y-126234099D01*
X144778359Y-126496920D01*
X144952412Y-126730269D01*
X145168645Y-126925178D01*
X145418748Y-127074157D01*
X145693109Y-127171481D01*
X145923000Y-127050814D01*
X145923000Y-125857000D01*
X144729845Y-125857000D01*
X144608524Y-126086890D01*
X139609460Y-126086890D01*
X139536854Y-125989707D01*
X139318488Y-125793183D01*
X139094555Y-125660028D01*
X139195707Y-125605961D01*
X139404560Y-125434560D01*
X139575961Y-125225707D01*
X139703324Y-124987428D01*
X139781754Y-124728881D01*
X139808236Y-124460000D01*
X139781754Y-124191119D01*
X139703324Y-123932572D01*
X139575961Y-123694293D01*
X139404560Y-123485440D01*
X139195707Y-123314039D01*
X138963647Y-123190000D01*
X139195707Y-123065961D01*
X139404560Y-122894560D01*
X139575961Y-122685707D01*
X139703324Y-122447428D01*
X139781754Y-122188881D01*
X139808236Y-121920000D01*
X139781754Y-121651119D01*
X139703324Y-121392572D01*
X139575961Y-121154293D01*
X139404560Y-120945440D01*
X139195707Y-120774039D01*
X138963647Y-120650000D01*
X139195707Y-120525961D01*
X139404560Y-120354560D01*
X139575961Y-120145707D01*
X139703324Y-119907428D01*
X139781754Y-119648881D01*
X139808236Y-119380000D01*
X139781754Y-119111119D01*
X139779217Y-119102756D01*
X140433284Y-118448690D01*
X140441134Y-118463376D01*
X140441134Y-118463376D01*
G37*
X140441134Y-118463376D02*
X140520236Y-118559764D01*
X140544387Y-118579584D01*
X144752832Y-122788029D01*
X144711650Y-122923786D01*
X144685430Y-123190000D01*
X144711650Y-123456214D01*
X144789302Y-123712198D01*
X144915402Y-123948114D01*
X145085103Y-124154897D01*
X145291886Y-124324598D01*
X145412940Y-124389303D01*
X145168645Y-124534822D01*
X144952412Y-124729731D01*
X144778359Y-124963080D01*
X144653175Y-125225901D01*
X144608524Y-125373110D01*
X144729845Y-125603000D01*
X145923000Y-125603000D01*
X145923000Y-125583000D01*
X146177000Y-125583000D01*
X146177000Y-125603000D01*
X146197000Y-125603000D01*
X146197000Y-125857000D01*
X146177000Y-125857000D01*
X146177000Y-127050814D01*
X146406891Y-127171481D01*
X146681252Y-127074157D01*
X146787001Y-127011165D01*
X146787001Y-127737000D01*
X139730793Y-127737000D01*
X139839222Y-127509814D01*
X139884958Y-127359026D01*
X139763817Y-127127000D01*
X138557000Y-127127000D01*
X138557000Y-127147000D01*
X138303000Y-127147000D01*
X138303000Y-127127000D01*
X138283000Y-127127000D01*
X138283000Y-126873000D01*
X138303000Y-126873000D01*
X138303000Y-126853000D01*
X138557000Y-126853000D01*
X138557000Y-126873000D01*
X139763817Y-126873000D01*
X139884958Y-126640974D01*
X139839222Y-126490186D01*
X139712684Y-126225056D01*
X139609460Y-126086890D01*
X144608524Y-126086890D01*
X144653175Y-126234099D01*
X144778359Y-126496920D01*
X144952412Y-126730269D01*
X145168645Y-126925178D01*
X145418748Y-127074157D01*
X145693109Y-127171481D01*
X145923000Y-127050814D01*
X145923000Y-125857000D01*
X144729845Y-125857000D01*
X144608524Y-126086890D01*
X139609460Y-126086890D01*
X139536854Y-125989707D01*
X139318488Y-125793183D01*
X139094555Y-125660028D01*
X139195707Y-125605961D01*
X139404560Y-125434560D01*
X139575961Y-125225707D01*
X139703324Y-124987428D01*
X139781754Y-124728881D01*
X139808236Y-124460000D01*
X139781754Y-124191119D01*
X139703324Y-123932572D01*
X139575961Y-123694293D01*
X139404560Y-123485440D01*
X139195707Y-123314039D01*
X138963647Y-123190000D01*
X139195707Y-123065961D01*
X139404560Y-122894560D01*
X139575961Y-122685707D01*
X139703324Y-122447428D01*
X139781754Y-122188881D01*
X139808236Y-121920000D01*
X139781754Y-121651119D01*
X139703324Y-121392572D01*
X139575961Y-121154293D01*
X139404560Y-120945440D01*
X139195707Y-120774039D01*
X138963647Y-120650000D01*
X139195707Y-120525961D01*
X139404560Y-120354560D01*
X139575961Y-120145707D01*
X139703324Y-119907428D01*
X139781754Y-119648881D01*
X139808236Y-119380000D01*
X139781754Y-119111119D01*
X139779217Y-119102756D01*
X140433284Y-118448690D01*
X140441134Y-118463376D01*
G36*
X137165697Y-108318403D02*
G01*
X137212869Y-108406655D01*
X137276350Y-108484008D01*
X138337010Y-109544668D01*
X138414363Y-109608149D01*
X138502615Y-109655321D01*
X138598373Y-109684369D01*
X138697958Y-109694177D01*
X138701752Y-109693803D01*
X140337001Y-111329053D01*
X140337001Y-113433282D01*
X140289084Y-113413434D01*
X140113660Y-113378540D01*
X139934800Y-113378540D01*
X139759376Y-113413434D01*
X139594131Y-113481881D01*
X139445414Y-113581251D01*
X139318941Y-113707724D01*
X139219571Y-113856441D01*
X139151124Y-114021686D01*
X139116230Y-114197110D01*
X139116230Y-114375970D01*
X139151124Y-114551394D01*
X139219571Y-114716639D01*
X139266231Y-114786470D01*
X139266231Y-115602110D01*
X139065978Y-115483036D01*
X138789027Y-115385037D01*
X138557000Y-115505536D01*
X138557000Y-116713000D01*
X138577000Y-116713000D01*
X138577000Y-116967000D01*
X138557000Y-116967000D01*
X138557000Y-116987000D01*
X138303000Y-116987000D01*
X138303000Y-116967000D01*
X138283000Y-116967000D01*
X138283000Y-116713000D01*
X138303000Y-116713000D01*
X138303000Y-115505536D01*
X138070973Y-115385037D01*
X137794022Y-115483036D01*
X137541512Y-115633183D01*
X137323146Y-115829707D01*
X137258174Y-115916672D01*
X137254249Y-115876815D01*
X137225201Y-115781057D01*
X137178029Y-115692805D01*
X137114548Y-115615452D01*
X137037195Y-115551971D01*
X136948943Y-115504799D01*
X136853185Y-115475751D01*
X136753600Y-115465943D01*
X135026400Y-115465943D01*
X134926815Y-115475751D01*
X134831057Y-115504799D01*
X134742805Y-115551971D01*
X134665452Y-115615452D01*
X134601971Y-115692805D01*
X134554799Y-115781057D01*
X134525751Y-115876815D01*
X134515943Y-115976400D01*
X134515943Y-117703600D01*
X134525751Y-117803185D01*
X134554799Y-117898943D01*
X134601971Y-117987195D01*
X134665452Y-118064548D01*
X134742805Y-118128029D01*
X134831057Y-118175201D01*
X134926815Y-118204249D01*
X135026400Y-118214057D01*
X135161677Y-118214057D01*
X135124293Y-118234039D01*
X134915440Y-118405440D01*
X134744039Y-118614293D01*
X134616676Y-118852572D01*
X134538246Y-119111119D01*
X134511764Y-119380000D01*
X134538246Y-119648881D01*
X134616676Y-119907428D01*
X134744039Y-120145707D01*
X134915440Y-120354560D01*
X135124293Y-120525961D01*
X135356353Y-120650000D01*
X135124293Y-120774039D01*
X134915440Y-120945440D01*
X134744039Y-121154293D01*
X134616676Y-121392572D01*
X134538246Y-121651119D01*
X134511764Y-121920000D01*
X134538246Y-122188881D01*
X134616676Y-122447428D01*
X134744039Y-122685707D01*
X134915440Y-122894560D01*
X135124293Y-123065961D01*
X135356353Y-123190000D01*
X135124293Y-123314039D01*
X134915440Y-123485440D01*
X134744039Y-123694293D01*
X134616676Y-123932572D01*
X134538246Y-124191119D01*
X134511764Y-124460000D01*
X134538246Y-124728881D01*
X134616676Y-124987428D01*
X134744039Y-125225707D01*
X134915440Y-125434560D01*
X135124293Y-125605961D01*
X135356353Y-125730000D01*
X135124293Y-125854039D01*
X134915440Y-126025440D01*
X134744039Y-126234293D01*
X134616676Y-126472572D01*
X134538246Y-126731119D01*
X134511764Y-127000000D01*
X134538246Y-127268881D01*
X134616676Y-127527428D01*
X134728695Y-127737000D01*
X127533000Y-127737000D01*
X127533000Y-127011166D01*
X127638748Y-127074157D01*
X127913109Y-127171481D01*
X128143000Y-127050814D01*
X128143000Y-125857000D01*
X128397000Y-125857000D01*
X128397000Y-127050814D01*
X128626891Y-127171481D01*
X128901252Y-127074157D01*
X129151355Y-126925178D01*
X129367588Y-126730269D01*
X129541641Y-126496920D01*
X129666825Y-126234099D01*
X129711476Y-126086890D01*
X129590155Y-125857000D01*
X128397000Y-125857000D01*
X128143000Y-125857000D01*
X128123000Y-125857000D01*
X128123000Y-125603000D01*
X128143000Y-125603000D01*
X128143000Y-125583000D01*
X128397000Y-125583000D01*
X128397000Y-125603000D01*
X129590155Y-125603000D01*
X129711476Y-125373110D01*
X129666825Y-125225901D01*
X129541641Y-124963080D01*
X129367588Y-124729731D01*
X129151355Y-124534822D01*
X128907060Y-124389303D01*
X129028114Y-124324598D01*
X129234897Y-124154897D01*
X129404598Y-123948114D01*
X129530698Y-123712198D01*
X129608350Y-123456214D01*
X129634570Y-123190000D01*
X129608350Y-122923786D01*
X129567168Y-122788029D01*
X133775616Y-118579581D01*
X133799764Y-118559764D01*
X133878866Y-118463377D01*
X133937645Y-118353410D01*
X133973840Y-118234090D01*
X133983000Y-118141088D01*
X133983000Y-118141087D01*
X133986062Y-118110000D01*
X133983000Y-118078912D01*
X133983000Y-111329051D01*
X135618248Y-109693803D01*
X135622042Y-109694177D01*
X135721627Y-109684369D01*
X135817385Y-109655321D01*
X135905637Y-109608149D01*
X135982990Y-109544668D01*
X137043650Y-108484008D01*
X137107131Y-108406655D01*
X137154303Y-108318403D01*
X137160000Y-108299623D01*
X137165697Y-108318403D01*
X137165697Y-108318403D01*
G37*
X137165697Y-108318403D02*
X137212869Y-108406655D01*
X137276350Y-108484008D01*
X138337010Y-109544668D01*
X138414363Y-109608149D01*
X138502615Y-109655321D01*
X138598373Y-109684369D01*
X138697958Y-109694177D01*
X138701752Y-109693803D01*
X140337001Y-111329053D01*
X140337001Y-113433282D01*
X140289084Y-113413434D01*
X140113660Y-113378540D01*
X139934800Y-113378540D01*
X139759376Y-113413434D01*
X139594131Y-113481881D01*
X139445414Y-113581251D01*
X139318941Y-113707724D01*
X139219571Y-113856441D01*
X139151124Y-114021686D01*
X139116230Y-114197110D01*
X139116230Y-114375970D01*
X139151124Y-114551394D01*
X139219571Y-114716639D01*
X139266231Y-114786470D01*
X139266231Y-115602110D01*
X139065978Y-115483036D01*
X138789027Y-115385037D01*
X138557000Y-115505536D01*
X138557000Y-116713000D01*
X138577000Y-116713000D01*
X138577000Y-116967000D01*
X138557000Y-116967000D01*
X138557000Y-116987000D01*
X138303000Y-116987000D01*
X138303000Y-116967000D01*
X138283000Y-116967000D01*
X138283000Y-116713000D01*
X138303000Y-116713000D01*
X138303000Y-115505536D01*
X138070973Y-115385037D01*
X137794022Y-115483036D01*
X137541512Y-115633183D01*
X137323146Y-115829707D01*
X137258174Y-115916672D01*
X137254249Y-115876815D01*
X137225201Y-115781057D01*
X137178029Y-115692805D01*
X137114548Y-115615452D01*
X137037195Y-115551971D01*
X136948943Y-115504799D01*
X136853185Y-115475751D01*
X136753600Y-115465943D01*
X135026400Y-115465943D01*
X134926815Y-115475751D01*
X134831057Y-115504799D01*
X134742805Y-115551971D01*
X134665452Y-115615452D01*
X134601971Y-115692805D01*
X134554799Y-115781057D01*
X134525751Y-115876815D01*
X134515943Y-115976400D01*
X134515943Y-117703600D01*
X134525751Y-117803185D01*
X134554799Y-117898943D01*
X134601971Y-117987195D01*
X134665452Y-118064548D01*
X134742805Y-118128029D01*
X134831057Y-118175201D01*
X134926815Y-118204249D01*
X135026400Y-118214057D01*
X135161677Y-118214057D01*
X135124293Y-118234039D01*
X134915440Y-118405440D01*
X134744039Y-118614293D01*
X134616676Y-118852572D01*
X134538246Y-119111119D01*
X134511764Y-119380000D01*
X134538246Y-119648881D01*
X134616676Y-119907428D01*
X134744039Y-120145707D01*
X134915440Y-120354560D01*
X135124293Y-120525961D01*
X135356353Y-120650000D01*
X135124293Y-120774039D01*
X134915440Y-120945440D01*
X134744039Y-121154293D01*
X134616676Y-121392572D01*
X134538246Y-121651119D01*
X134511764Y-121920000D01*
X134538246Y-122188881D01*
X134616676Y-122447428D01*
X134744039Y-122685707D01*
X134915440Y-122894560D01*
X135124293Y-123065961D01*
X135356353Y-123190000D01*
X135124293Y-123314039D01*
X134915440Y-123485440D01*
X134744039Y-123694293D01*
X134616676Y-123932572D01*
X134538246Y-124191119D01*
X134511764Y-124460000D01*
X134538246Y-124728881D01*
X134616676Y-124987428D01*
X134744039Y-125225707D01*
X134915440Y-125434560D01*
X135124293Y-125605961D01*
X135356353Y-125730000D01*
X135124293Y-125854039D01*
X134915440Y-126025440D01*
X134744039Y-126234293D01*
X134616676Y-126472572D01*
X134538246Y-126731119D01*
X134511764Y-127000000D01*
X134538246Y-127268881D01*
X134616676Y-127527428D01*
X134728695Y-127737000D01*
X127533000Y-127737000D01*
X127533000Y-127011166D01*
X127638748Y-127074157D01*
X127913109Y-127171481D01*
X128143000Y-127050814D01*
X128143000Y-125857000D01*
X128397000Y-125857000D01*
X128397000Y-127050814D01*
X128626891Y-127171481D01*
X128901252Y-127074157D01*
X129151355Y-126925178D01*
X129367588Y-126730269D01*
X129541641Y-126496920D01*
X129666825Y-126234099D01*
X129711476Y-126086890D01*
X129590155Y-125857000D01*
X128397000Y-125857000D01*
X128143000Y-125857000D01*
X128123000Y-125857000D01*
X128123000Y-125603000D01*
X128143000Y-125603000D01*
X128143000Y-125583000D01*
X128397000Y-125583000D01*
X128397000Y-125603000D01*
X129590155Y-125603000D01*
X129711476Y-125373110D01*
X129666825Y-125225901D01*
X129541641Y-124963080D01*
X129367588Y-124729731D01*
X129151355Y-124534822D01*
X128907060Y-124389303D01*
X129028114Y-124324598D01*
X129234897Y-124154897D01*
X129404598Y-123948114D01*
X129530698Y-123712198D01*
X129608350Y-123456214D01*
X129634570Y-123190000D01*
X129608350Y-122923786D01*
X129567168Y-122788029D01*
X133775616Y-118579581D01*
X133799764Y-118559764D01*
X133878866Y-118463377D01*
X133937645Y-118353410D01*
X133973840Y-118234090D01*
X133983000Y-118141088D01*
X133983000Y-118141087D01*
X133986062Y-118110000D01*
X133983000Y-118078912D01*
X133983000Y-111329051D01*
X135618248Y-109693803D01*
X135622042Y-109694177D01*
X135721627Y-109684369D01*
X135817385Y-109655321D01*
X135905637Y-109608149D01*
X135982990Y-109544668D01*
X137043650Y-108484008D01*
X137107131Y-108406655D01*
X137154303Y-108318403D01*
X137160000Y-108299623D01*
X137165697Y-108318403D01*
G36*
X137284039Y-125225707D02*
G01*
X137455440Y-125434560D01*
X137664293Y-125605961D01*
X137765445Y-125660028D01*
X137541512Y-125793183D01*
X137323146Y-125989707D01*
X137147316Y-126225056D01*
X137092460Y-126339994D01*
X137035961Y-126234293D01*
X136864560Y-126025440D01*
X136655707Y-125854039D01*
X136423647Y-125730000D01*
X136655707Y-125605961D01*
X136864560Y-125434560D01*
X137035961Y-125225707D01*
X137160000Y-124993647D01*
X137284039Y-125225707D01*
X137284039Y-125225707D01*
G37*
X137284039Y-125225707D02*
X137455440Y-125434560D01*
X137664293Y-125605961D01*
X137765445Y-125660028D01*
X137541512Y-125793183D01*
X137323146Y-125989707D01*
X137147316Y-126225056D01*
X137092460Y-126339994D01*
X137035961Y-126234293D01*
X136864560Y-126025440D01*
X136655707Y-125854039D01*
X136423647Y-125730000D01*
X136655707Y-125605961D01*
X136864560Y-125434560D01*
X137035961Y-125225707D01*
X137160000Y-124993647D01*
X137284039Y-125225707D01*
G36*
X137284039Y-120145707D02*
G01*
X137455440Y-120354560D01*
X137664293Y-120525961D01*
X137896353Y-120650000D01*
X137664293Y-120774039D01*
X137455440Y-120945440D01*
X137284039Y-121154293D01*
X137160000Y-121386353D01*
X137035961Y-121154293D01*
X136864560Y-120945440D01*
X136655707Y-120774039D01*
X136423647Y-120650000D01*
X136655707Y-120525961D01*
X136864560Y-120354560D01*
X137035961Y-120145707D01*
X137160000Y-119913647D01*
X137284039Y-120145707D01*
X137284039Y-120145707D01*
G37*
X137284039Y-120145707D02*
X137455440Y-120354560D01*
X137664293Y-120525961D01*
X137896353Y-120650000D01*
X137664293Y-120774039D01*
X137455440Y-120945440D01*
X137284039Y-121154293D01*
X137160000Y-121386353D01*
X137035961Y-121154293D01*
X136864560Y-120945440D01*
X136655707Y-120774039D01*
X136423647Y-120650000D01*
X136655707Y-120525961D01*
X136864560Y-120354560D01*
X137035961Y-120145707D01*
X137160000Y-119913647D01*
X137284039Y-120145707D01*
G36*
X137323146Y-117850293D02*
G01*
X137541512Y-118046817D01*
X137765445Y-118179972D01*
X137664293Y-118234039D01*
X137455440Y-118405440D01*
X137284039Y-118614293D01*
X137160000Y-118846353D01*
X137035961Y-118614293D01*
X136864560Y-118405440D01*
X136655707Y-118234039D01*
X136618323Y-118214057D01*
X136753600Y-118214057D01*
X136853185Y-118204249D01*
X136948943Y-118175201D01*
X137037195Y-118128029D01*
X137114548Y-118064548D01*
X137178029Y-117987195D01*
X137225201Y-117898943D01*
X137254249Y-117803185D01*
X137258174Y-117763328D01*
X137323146Y-117850293D01*
X137323146Y-117850293D01*
G37*
X137323146Y-117850293D02*
X137541512Y-118046817D01*
X137765445Y-118179972D01*
X137664293Y-118234039D01*
X137455440Y-118405440D01*
X137284039Y-118614293D01*
X137160000Y-118846353D01*
X137035961Y-118614293D01*
X136864560Y-118405440D01*
X136655707Y-118234039D01*
X136618323Y-118214057D01*
X136753600Y-118214057D01*
X136853185Y-118204249D01*
X136948943Y-118175201D01*
X137037195Y-118128029D01*
X137114548Y-118064548D01*
X137178029Y-117987195D01*
X137225201Y-117898943D01*
X137254249Y-117803185D01*
X137258174Y-117763328D01*
X137323146Y-117850293D01*
G36*
X133483575Y-95424659D02*
G01*
X133483575Y-95481228D01*
X133597032Y-95594685D01*
X133601115Y-95636144D01*
X133630163Y-95731902D01*
X133677335Y-95820154D01*
X133740816Y-95897507D01*
X134801476Y-96958167D01*
X134878829Y-97021648D01*
X134967081Y-97068820D01*
X135062839Y-97097868D01*
X135104298Y-97101951D01*
X135217754Y-97215407D01*
X135442261Y-97215407D01*
X135517962Y-97125814D01*
X135576371Y-97015204D01*
X135612077Y-96895325D01*
X135614742Y-96866797D01*
X135912280Y-96569259D01*
X135975761Y-96491906D01*
X135988281Y-96468483D01*
X136011704Y-96455963D01*
X136089057Y-96392482D01*
X136477965Y-96003574D01*
X136541446Y-95926221D01*
X136553967Y-95902797D01*
X136577389Y-95890277D01*
X136654742Y-95826796D01*
X137043650Y-95437888D01*
X137107131Y-95360535D01*
X137154303Y-95272283D01*
X137160000Y-95253503D01*
X137165697Y-95272283D01*
X137212869Y-95360535D01*
X137276350Y-95437888D01*
X137665258Y-95826796D01*
X137742611Y-95890277D01*
X137766033Y-95902797D01*
X137778554Y-95926221D01*
X137842035Y-96003574D01*
X138230943Y-96392482D01*
X138308296Y-96455963D01*
X138331719Y-96468483D01*
X138344239Y-96491906D01*
X138407720Y-96569259D01*
X138632445Y-96793984D01*
X138566697Y-96874099D01*
X138496311Y-97005782D01*
X138457130Y-97134944D01*
X138452968Y-97148665D01*
X138438333Y-97297258D01*
X138439046Y-97304493D01*
X138395341Y-97369901D01*
X138326894Y-97535146D01*
X138292000Y-97710570D01*
X138292000Y-97889430D01*
X138326894Y-98064854D01*
X138395341Y-98230099D01*
X138494711Y-98378816D01*
X138621184Y-98505289D01*
X138769901Y-98604659D01*
X138935146Y-98673106D01*
X139110570Y-98708000D01*
X139289430Y-98708000D01*
X139464854Y-98673106D01*
X139630099Y-98604659D01*
X139778816Y-98505289D01*
X139905289Y-98378816D01*
X140004659Y-98230099D01*
X140030255Y-98168306D01*
X140041296Y-98188962D01*
X140104777Y-98266315D01*
X140493685Y-98655223D01*
X140571038Y-98718704D01*
X140594460Y-98731224D01*
X140606981Y-98754648D01*
X140670462Y-98832001D01*
X141059370Y-99220909D01*
X141136723Y-99284390D01*
X141160147Y-99296911D01*
X141172667Y-99320333D01*
X141236148Y-99397686D01*
X141533685Y-99695223D01*
X141536350Y-99723753D01*
X141572056Y-99843632D01*
X141630465Y-99954242D01*
X141706166Y-100043835D01*
X141930673Y-100043835D01*
X142044130Y-99930378D01*
X142085589Y-99926295D01*
X142181347Y-99897247D01*
X142269599Y-99850075D01*
X142346952Y-99786594D01*
X143407612Y-98725934D01*
X143471093Y-98648581D01*
X143518265Y-98560329D01*
X143547313Y-98464571D01*
X143551396Y-98423112D01*
X143664852Y-98309656D01*
X143664852Y-98253087D01*
X145049714Y-96868225D01*
X144915402Y-97031886D01*
X144789302Y-97267802D01*
X144711650Y-97523786D01*
X144694732Y-97695554D01*
X143901025Y-98489261D01*
X143844457Y-98489261D01*
X143731001Y-98602717D01*
X143689541Y-98606800D01*
X143593783Y-98635848D01*
X143505531Y-98683020D01*
X143428178Y-98746501D01*
X142367518Y-99807161D01*
X142304037Y-99884514D01*
X142256865Y-99972766D01*
X142227817Y-100068524D01*
X142223734Y-100109984D01*
X142110278Y-100223440D01*
X142110278Y-100447947D01*
X142199871Y-100523648D01*
X142310481Y-100582057D01*
X142430360Y-100617763D01*
X142458889Y-100620428D01*
X142756426Y-100917965D01*
X142833779Y-100981446D01*
X142857203Y-100993967D01*
X142869723Y-101017389D01*
X142933204Y-101094742D01*
X143322112Y-101483650D01*
X143399465Y-101547131D01*
X143487717Y-101594303D01*
X143506497Y-101600000D01*
X143487717Y-101605697D01*
X143399465Y-101652869D01*
X143322112Y-101716350D01*
X142933204Y-102105258D01*
X142869723Y-102182611D01*
X142857203Y-102206033D01*
X142833779Y-102218554D01*
X142756426Y-102282035D01*
X142367518Y-102670943D01*
X142304037Y-102748296D01*
X142291517Y-102771719D01*
X142268094Y-102784239D01*
X142190741Y-102847720D01*
X141801833Y-103236628D01*
X141754305Y-103294542D01*
X141705289Y-103221184D01*
X141578816Y-103094711D01*
X141430099Y-102995341D01*
X141264854Y-102926894D01*
X141089430Y-102892000D01*
X140910570Y-102892000D01*
X140735146Y-102926894D01*
X140569901Y-102995341D01*
X140421184Y-103094711D01*
X140294711Y-103221184D01*
X140195341Y-103369901D01*
X140126894Y-103535146D01*
X140092000Y-103710570D01*
X140092000Y-103889430D01*
X140126894Y-104064854D01*
X140195341Y-104230099D01*
X140239551Y-104296263D01*
X140238333Y-104308629D01*
X140242000Y-104345860D01*
X140252968Y-104457222D01*
X140296311Y-104600105D01*
X140345789Y-104692673D01*
X140104777Y-104933685D01*
X140041296Y-105011038D01*
X140028776Y-105034460D01*
X140005352Y-105046981D01*
X139927999Y-105110462D01*
X139539091Y-105499370D01*
X139475610Y-105576723D01*
X139463089Y-105600147D01*
X139439667Y-105612667D01*
X139362314Y-105676148D01*
X138973406Y-106065056D01*
X138909925Y-106142409D01*
X138897405Y-106165831D01*
X138873981Y-106178352D01*
X138796628Y-106241833D01*
X138499091Y-106539370D01*
X138470562Y-106542035D01*
X138350683Y-106577741D01*
X138240073Y-106636150D01*
X138150480Y-106711851D01*
X138150480Y-106936358D01*
X138263936Y-107049814D01*
X138268019Y-107091274D01*
X138297067Y-107187032D01*
X138344239Y-107275284D01*
X138407720Y-107352637D01*
X139468380Y-108413297D01*
X139545733Y-108476778D01*
X139633985Y-108523950D01*
X139729743Y-108552998D01*
X139771203Y-108557081D01*
X139884659Y-108670537D01*
X139941227Y-108670537D01*
X140972001Y-109701311D01*
X140972001Y-110173657D01*
X139705054Y-108906711D01*
X139705054Y-108850142D01*
X139591598Y-108736686D01*
X139587515Y-108695227D01*
X139558467Y-108599469D01*
X139511295Y-108511217D01*
X139447814Y-108433864D01*
X138387154Y-107373204D01*
X138309801Y-107309723D01*
X138221549Y-107262551D01*
X138125791Y-107233503D01*
X138084332Y-107229420D01*
X137970875Y-107115963D01*
X137746368Y-107115963D01*
X137670667Y-107205556D01*
X137612258Y-107316166D01*
X137576552Y-107436045D01*
X137573887Y-107464575D01*
X137276350Y-107762112D01*
X137212869Y-107839465D01*
X137165697Y-107927717D01*
X137160000Y-107946497D01*
X137154303Y-107927717D01*
X137107131Y-107839465D01*
X137043650Y-107762112D01*
X136654742Y-107373204D01*
X136577389Y-107309723D01*
X136553967Y-107297203D01*
X136541446Y-107273779D01*
X136477965Y-107196426D01*
X136089057Y-106807518D01*
X136011704Y-106744037D01*
X135988281Y-106731517D01*
X135975761Y-106708094D01*
X135912280Y-106630741D01*
X135523372Y-106241833D01*
X135446019Y-106178352D01*
X135422595Y-106165831D01*
X135410075Y-106142409D01*
X135346594Y-106065056D01*
X134957686Y-105676148D01*
X134896068Y-105625580D01*
X134978816Y-105570289D01*
X135105289Y-105443816D01*
X135204659Y-105295099D01*
X135273106Y-105129854D01*
X135308000Y-104954430D01*
X135308000Y-104775570D01*
X135273106Y-104600146D01*
X135204659Y-104434901D01*
X135105289Y-104286184D01*
X134978816Y-104159711D01*
X134830099Y-104060341D01*
X134664854Y-103991894D01*
X134489430Y-103957000D01*
X134310570Y-103957000D01*
X134135146Y-103991894D01*
X133969901Y-104060341D01*
X133904201Y-104104240D01*
X133894999Y-104103334D01*
X133857775Y-104107000D01*
X133857768Y-104107000D01*
X133746406Y-104117968D01*
X133603523Y-104161311D01*
X133471840Y-104231697D01*
X133356420Y-104326420D01*
X133332685Y-104355341D01*
X133235390Y-104452636D01*
X133181772Y-104481296D01*
X133104419Y-104544777D01*
X132043759Y-105605437D01*
X131980278Y-105682790D01*
X131933106Y-105771042D01*
X131904058Y-105866800D01*
X131899975Y-105908259D01*
X131786519Y-106021715D01*
X131786519Y-106246222D01*
X131876112Y-106321923D01*
X131986722Y-106380332D01*
X132106601Y-106416038D01*
X132135129Y-106418703D01*
X132356300Y-106639874D01*
X130808000Y-108188174D01*
X130808000Y-106584455D01*
X131550346Y-105842110D01*
X131606914Y-105842110D01*
X131720370Y-105728654D01*
X131761829Y-105724571D01*
X131857587Y-105695523D01*
X131945839Y-105648351D01*
X132023192Y-105584870D01*
X133083852Y-104524210D01*
X133147333Y-104446857D01*
X133194505Y-104358605D01*
X133223553Y-104262847D01*
X133227636Y-104221388D01*
X133341093Y-104107931D01*
X133341093Y-103883424D01*
X133251500Y-103807723D01*
X133140890Y-103749314D01*
X133021011Y-103713608D01*
X132992481Y-103710943D01*
X132694944Y-103413406D01*
X132617591Y-103349925D01*
X132594169Y-103337405D01*
X132581648Y-103313981D01*
X132518167Y-103236628D01*
X132129259Y-102847720D01*
X132051906Y-102784239D01*
X132028483Y-102771719D01*
X132015963Y-102748296D01*
X131952482Y-102670943D01*
X131563574Y-102282035D01*
X131486221Y-102218554D01*
X131462797Y-102206033D01*
X131450277Y-102182611D01*
X131386796Y-102105258D01*
X130997888Y-101716350D01*
X130920535Y-101652869D01*
X130832283Y-101605697D01*
X130813503Y-101600000D01*
X130832283Y-101594303D01*
X130920535Y-101547131D01*
X130997888Y-101483650D01*
X131386796Y-101094742D01*
X131450277Y-101017389D01*
X131462797Y-100993967D01*
X131486221Y-100981446D01*
X131563574Y-100917965D01*
X131698717Y-100782822D01*
X131821184Y-100905289D01*
X131969901Y-101004659D01*
X132135146Y-101073106D01*
X132310570Y-101108000D01*
X132489430Y-101108000D01*
X132664854Y-101073106D01*
X132830099Y-101004659D01*
X132978816Y-100905289D01*
X133105289Y-100778816D01*
X133204659Y-100630099D01*
X133273106Y-100464854D01*
X133308000Y-100289430D01*
X133308000Y-100110570D01*
X133273106Y-99935146D01*
X133204659Y-99769901D01*
X133105289Y-99621184D01*
X132982822Y-99498717D01*
X133083852Y-99397686D01*
X133147333Y-99320333D01*
X133159853Y-99296911D01*
X133183277Y-99284390D01*
X133260630Y-99220909D01*
X133649538Y-98832001D01*
X133713019Y-98754648D01*
X133725540Y-98731224D01*
X133748962Y-98718704D01*
X133826315Y-98655223D01*
X134215223Y-98266315D01*
X134278704Y-98188962D01*
X134291224Y-98165540D01*
X134314648Y-98153019D01*
X134392001Y-98089538D01*
X134689539Y-97792000D01*
X134718067Y-97789335D01*
X134837946Y-97753629D01*
X134948556Y-97695220D01*
X135038149Y-97619519D01*
X135038149Y-97395012D01*
X134924693Y-97281556D01*
X134920610Y-97240097D01*
X134891562Y-97144339D01*
X134844390Y-97056087D01*
X134780909Y-96978734D01*
X133720249Y-95918074D01*
X133642896Y-95854593D01*
X133554644Y-95807421D01*
X133458886Y-95778373D01*
X133417427Y-95774290D01*
X133303970Y-95660833D01*
X133247401Y-95660833D01*
X131443000Y-93856432D01*
X131443000Y-93384084D01*
X133483575Y-95424659D01*
X133483575Y-95424659D01*
G37*
X133483575Y-95424659D02*
X133483575Y-95481228D01*
X133597032Y-95594685D01*
X133601115Y-95636144D01*
X133630163Y-95731902D01*
X133677335Y-95820154D01*
X133740816Y-95897507D01*
X134801476Y-96958167D01*
X134878829Y-97021648D01*
X134967081Y-97068820D01*
X135062839Y-97097868D01*
X135104298Y-97101951D01*
X135217754Y-97215407D01*
X135442261Y-97215407D01*
X135517962Y-97125814D01*
X135576371Y-97015204D01*
X135612077Y-96895325D01*
X135614742Y-96866797D01*
X135912280Y-96569259D01*
X135975761Y-96491906D01*
X135988281Y-96468483D01*
X136011704Y-96455963D01*
X136089057Y-96392482D01*
X136477965Y-96003574D01*
X136541446Y-95926221D01*
X136553967Y-95902797D01*
X136577389Y-95890277D01*
X136654742Y-95826796D01*
X137043650Y-95437888D01*
X137107131Y-95360535D01*
X137154303Y-95272283D01*
X137160000Y-95253503D01*
X137165697Y-95272283D01*
X137212869Y-95360535D01*
X137276350Y-95437888D01*
X137665258Y-95826796D01*
X137742611Y-95890277D01*
X137766033Y-95902797D01*
X137778554Y-95926221D01*
X137842035Y-96003574D01*
X138230943Y-96392482D01*
X138308296Y-96455963D01*
X138331719Y-96468483D01*
X138344239Y-96491906D01*
X138407720Y-96569259D01*
X138632445Y-96793984D01*
X138566697Y-96874099D01*
X138496311Y-97005782D01*
X138457130Y-97134944D01*
X138452968Y-97148665D01*
X138438333Y-97297258D01*
X138439046Y-97304493D01*
X138395341Y-97369901D01*
X138326894Y-97535146D01*
X138292000Y-97710570D01*
X138292000Y-97889430D01*
X138326894Y-98064854D01*
X138395341Y-98230099D01*
X138494711Y-98378816D01*
X138621184Y-98505289D01*
X138769901Y-98604659D01*
X138935146Y-98673106D01*
X139110570Y-98708000D01*
X139289430Y-98708000D01*
X139464854Y-98673106D01*
X139630099Y-98604659D01*
X139778816Y-98505289D01*
X139905289Y-98378816D01*
X140004659Y-98230099D01*
X140030255Y-98168306D01*
X140041296Y-98188962D01*
X140104777Y-98266315D01*
X140493685Y-98655223D01*
X140571038Y-98718704D01*
X140594460Y-98731224D01*
X140606981Y-98754648D01*
X140670462Y-98832001D01*
X141059370Y-99220909D01*
X141136723Y-99284390D01*
X141160147Y-99296911D01*
X141172667Y-99320333D01*
X141236148Y-99397686D01*
X141533685Y-99695223D01*
X141536350Y-99723753D01*
X141572056Y-99843632D01*
X141630465Y-99954242D01*
X141706166Y-100043835D01*
X141930673Y-100043835D01*
X142044130Y-99930378D01*
X142085589Y-99926295D01*
X142181347Y-99897247D01*
X142269599Y-99850075D01*
X142346952Y-99786594D01*
X143407612Y-98725934D01*
X143471093Y-98648581D01*
X143518265Y-98560329D01*
X143547313Y-98464571D01*
X143551396Y-98423112D01*
X143664852Y-98309656D01*
X143664852Y-98253087D01*
X145049714Y-96868225D01*
X144915402Y-97031886D01*
X144789302Y-97267802D01*
X144711650Y-97523786D01*
X144694732Y-97695554D01*
X143901025Y-98489261D01*
X143844457Y-98489261D01*
X143731001Y-98602717D01*
X143689541Y-98606800D01*
X143593783Y-98635848D01*
X143505531Y-98683020D01*
X143428178Y-98746501D01*
X142367518Y-99807161D01*
X142304037Y-99884514D01*
X142256865Y-99972766D01*
X142227817Y-100068524D01*
X142223734Y-100109984D01*
X142110278Y-100223440D01*
X142110278Y-100447947D01*
X142199871Y-100523648D01*
X142310481Y-100582057D01*
X142430360Y-100617763D01*
X142458889Y-100620428D01*
X142756426Y-100917965D01*
X142833779Y-100981446D01*
X142857203Y-100993967D01*
X142869723Y-101017389D01*
X142933204Y-101094742D01*
X143322112Y-101483650D01*
X143399465Y-101547131D01*
X143487717Y-101594303D01*
X143506497Y-101600000D01*
X143487717Y-101605697D01*
X143399465Y-101652869D01*
X143322112Y-101716350D01*
X142933204Y-102105258D01*
X142869723Y-102182611D01*
X142857203Y-102206033D01*
X142833779Y-102218554D01*
X142756426Y-102282035D01*
X142367518Y-102670943D01*
X142304037Y-102748296D01*
X142291517Y-102771719D01*
X142268094Y-102784239D01*
X142190741Y-102847720D01*
X141801833Y-103236628D01*
X141754305Y-103294542D01*
X141705289Y-103221184D01*
X141578816Y-103094711D01*
X141430099Y-102995341D01*
X141264854Y-102926894D01*
X141089430Y-102892000D01*
X140910570Y-102892000D01*
X140735146Y-102926894D01*
X140569901Y-102995341D01*
X140421184Y-103094711D01*
X140294711Y-103221184D01*
X140195341Y-103369901D01*
X140126894Y-103535146D01*
X140092000Y-103710570D01*
X140092000Y-103889430D01*
X140126894Y-104064854D01*
X140195341Y-104230099D01*
X140239551Y-104296263D01*
X140238333Y-104308629D01*
X140242000Y-104345860D01*
X140252968Y-104457222D01*
X140296311Y-104600105D01*
X140345789Y-104692673D01*
X140104777Y-104933685D01*
X140041296Y-105011038D01*
X140028776Y-105034460D01*
X140005352Y-105046981D01*
X139927999Y-105110462D01*
X139539091Y-105499370D01*
X139475610Y-105576723D01*
X139463089Y-105600147D01*
X139439667Y-105612667D01*
X139362314Y-105676148D01*
X138973406Y-106065056D01*
X138909925Y-106142409D01*
X138897405Y-106165831D01*
X138873981Y-106178352D01*
X138796628Y-106241833D01*
X138499091Y-106539370D01*
X138470562Y-106542035D01*
X138350683Y-106577741D01*
X138240073Y-106636150D01*
X138150480Y-106711851D01*
X138150480Y-106936358D01*
X138263936Y-107049814D01*
X138268019Y-107091274D01*
X138297067Y-107187032D01*
X138344239Y-107275284D01*
X138407720Y-107352637D01*
X139468380Y-108413297D01*
X139545733Y-108476778D01*
X139633985Y-108523950D01*
X139729743Y-108552998D01*
X139771203Y-108557081D01*
X139884659Y-108670537D01*
X139941227Y-108670537D01*
X140972001Y-109701311D01*
X140972001Y-110173657D01*
X139705054Y-108906711D01*
X139705054Y-108850142D01*
X139591598Y-108736686D01*
X139587515Y-108695227D01*
X139558467Y-108599469D01*
X139511295Y-108511217D01*
X139447814Y-108433864D01*
X138387154Y-107373204D01*
X138309801Y-107309723D01*
X138221549Y-107262551D01*
X138125791Y-107233503D01*
X138084332Y-107229420D01*
X137970875Y-107115963D01*
X137746368Y-107115963D01*
X137670667Y-107205556D01*
X137612258Y-107316166D01*
X137576552Y-107436045D01*
X137573887Y-107464575D01*
X137276350Y-107762112D01*
X137212869Y-107839465D01*
X137165697Y-107927717D01*
X137160000Y-107946497D01*
X137154303Y-107927717D01*
X137107131Y-107839465D01*
X137043650Y-107762112D01*
X136654742Y-107373204D01*
X136577389Y-107309723D01*
X136553967Y-107297203D01*
X136541446Y-107273779D01*
X136477965Y-107196426D01*
X136089057Y-106807518D01*
X136011704Y-106744037D01*
X135988281Y-106731517D01*
X135975761Y-106708094D01*
X135912280Y-106630741D01*
X135523372Y-106241833D01*
X135446019Y-106178352D01*
X135422595Y-106165831D01*
X135410075Y-106142409D01*
X135346594Y-106065056D01*
X134957686Y-105676148D01*
X134896068Y-105625580D01*
X134978816Y-105570289D01*
X135105289Y-105443816D01*
X135204659Y-105295099D01*
X135273106Y-105129854D01*
X135308000Y-104954430D01*
X135308000Y-104775570D01*
X135273106Y-104600146D01*
X135204659Y-104434901D01*
X135105289Y-104286184D01*
X134978816Y-104159711D01*
X134830099Y-104060341D01*
X134664854Y-103991894D01*
X134489430Y-103957000D01*
X134310570Y-103957000D01*
X134135146Y-103991894D01*
X133969901Y-104060341D01*
X133904201Y-104104240D01*
X133894999Y-104103334D01*
X133857775Y-104107000D01*
X133857768Y-104107000D01*
X133746406Y-104117968D01*
X133603523Y-104161311D01*
X133471840Y-104231697D01*
X133356420Y-104326420D01*
X133332685Y-104355341D01*
X133235390Y-104452636D01*
X133181772Y-104481296D01*
X133104419Y-104544777D01*
X132043759Y-105605437D01*
X131980278Y-105682790D01*
X131933106Y-105771042D01*
X131904058Y-105866800D01*
X131899975Y-105908259D01*
X131786519Y-106021715D01*
X131786519Y-106246222D01*
X131876112Y-106321923D01*
X131986722Y-106380332D01*
X132106601Y-106416038D01*
X132135129Y-106418703D01*
X132356300Y-106639874D01*
X130808000Y-108188174D01*
X130808000Y-106584455D01*
X131550346Y-105842110D01*
X131606914Y-105842110D01*
X131720370Y-105728654D01*
X131761829Y-105724571D01*
X131857587Y-105695523D01*
X131945839Y-105648351D01*
X132023192Y-105584870D01*
X133083852Y-104524210D01*
X133147333Y-104446857D01*
X133194505Y-104358605D01*
X133223553Y-104262847D01*
X133227636Y-104221388D01*
X133341093Y-104107931D01*
X133341093Y-103883424D01*
X133251500Y-103807723D01*
X133140890Y-103749314D01*
X133021011Y-103713608D01*
X132992481Y-103710943D01*
X132694944Y-103413406D01*
X132617591Y-103349925D01*
X132594169Y-103337405D01*
X132581648Y-103313981D01*
X132518167Y-103236628D01*
X132129259Y-102847720D01*
X132051906Y-102784239D01*
X132028483Y-102771719D01*
X132015963Y-102748296D01*
X131952482Y-102670943D01*
X131563574Y-102282035D01*
X131486221Y-102218554D01*
X131462797Y-102206033D01*
X131450277Y-102182611D01*
X131386796Y-102105258D01*
X130997888Y-101716350D01*
X130920535Y-101652869D01*
X130832283Y-101605697D01*
X130813503Y-101600000D01*
X130832283Y-101594303D01*
X130920535Y-101547131D01*
X130997888Y-101483650D01*
X131386796Y-101094742D01*
X131450277Y-101017389D01*
X131462797Y-100993967D01*
X131486221Y-100981446D01*
X131563574Y-100917965D01*
X131698717Y-100782822D01*
X131821184Y-100905289D01*
X131969901Y-101004659D01*
X132135146Y-101073106D01*
X132310570Y-101108000D01*
X132489430Y-101108000D01*
X132664854Y-101073106D01*
X132830099Y-101004659D01*
X132978816Y-100905289D01*
X133105289Y-100778816D01*
X133204659Y-100630099D01*
X133273106Y-100464854D01*
X133308000Y-100289430D01*
X133308000Y-100110570D01*
X133273106Y-99935146D01*
X133204659Y-99769901D01*
X133105289Y-99621184D01*
X132982822Y-99498717D01*
X133083852Y-99397686D01*
X133147333Y-99320333D01*
X133159853Y-99296911D01*
X133183277Y-99284390D01*
X133260630Y-99220909D01*
X133649538Y-98832001D01*
X133713019Y-98754648D01*
X133725540Y-98731224D01*
X133748962Y-98718704D01*
X133826315Y-98655223D01*
X134215223Y-98266315D01*
X134278704Y-98188962D01*
X134291224Y-98165540D01*
X134314648Y-98153019D01*
X134392001Y-98089538D01*
X134689539Y-97792000D01*
X134718067Y-97789335D01*
X134837946Y-97753629D01*
X134948556Y-97695220D01*
X135038149Y-97619519D01*
X135038149Y-97395012D01*
X134924693Y-97281556D01*
X134920610Y-97240097D01*
X134891562Y-97144339D01*
X134844390Y-97056087D01*
X134780909Y-96978734D01*
X133720249Y-95918074D01*
X133642896Y-95854593D01*
X133554644Y-95807421D01*
X133458886Y-95778373D01*
X133417427Y-95774290D01*
X133303970Y-95660833D01*
X133247401Y-95660833D01*
X131443000Y-93856432D01*
X131443000Y-93384084D01*
X133483575Y-95424659D01*
G36*
X132630498Y-76750820D02*
G01*
X132594188Y-76870518D01*
X132581928Y-76995000D01*
X132585000Y-77184250D01*
X132743750Y-77343000D01*
X133618000Y-77343000D01*
X133618000Y-77323000D01*
X133872000Y-77323000D01*
X133872000Y-77343000D01*
X133892000Y-77343000D01*
X133892000Y-77597000D01*
X133872000Y-77597000D01*
X133872000Y-78421250D01*
X134030750Y-78580000D01*
X134270000Y-78583072D01*
X134394482Y-78570812D01*
X134514180Y-78534502D01*
X134624494Y-78475537D01*
X134721185Y-78396185D01*
X134782416Y-78321574D01*
X134791957Y-78329404D01*
X134921269Y-78398522D01*
X135061581Y-78441085D01*
X135207500Y-78455457D01*
X135782500Y-78455457D01*
X135928419Y-78441085D01*
X136068731Y-78398522D01*
X136198043Y-78329404D01*
X136311385Y-78236385D01*
X136404404Y-78123043D01*
X136415117Y-78103000D01*
X137904883Y-78103000D01*
X137915596Y-78123043D01*
X138008615Y-78236385D01*
X138121957Y-78329404D01*
X138251269Y-78398522D01*
X138391581Y-78441085D01*
X138537500Y-78455457D01*
X139112500Y-78455457D01*
X139258419Y-78441085D01*
X139398731Y-78398522D01*
X139528043Y-78329404D01*
X139641385Y-78236385D01*
X139700000Y-78164964D01*
X139758615Y-78236385D01*
X139847966Y-78309714D01*
X139847841Y-78309901D01*
X139779394Y-78475146D01*
X139744500Y-78650570D01*
X139744500Y-78829430D01*
X139779394Y-79004854D01*
X139847841Y-79170099D01*
X139947211Y-79318816D01*
X140073684Y-79445289D01*
X140222401Y-79544659D01*
X140387646Y-79613106D01*
X140563070Y-79648000D01*
X140741930Y-79648000D01*
X140917354Y-79613106D01*
X141082599Y-79544659D01*
X141231316Y-79445289D01*
X141357789Y-79318816D01*
X141457159Y-79170099D01*
X141525606Y-79004854D01*
X141560500Y-78829430D01*
X141560500Y-78650570D01*
X141525606Y-78475146D01*
X141457159Y-78309901D01*
X141400564Y-78225201D01*
X141484404Y-78123043D01*
X141553522Y-77993731D01*
X141596085Y-77853419D01*
X141610457Y-77707500D01*
X141610457Y-77232500D01*
X141596085Y-77086581D01*
X141553522Y-76946269D01*
X141484404Y-76816957D01*
X141415501Y-76733000D01*
X144689543Y-76733000D01*
X144689543Y-78320000D01*
X144699351Y-78419585D01*
X144728399Y-78515343D01*
X144775571Y-78603595D01*
X144839052Y-78680948D01*
X144916405Y-78744429D01*
X145004657Y-78791601D01*
X145100415Y-78820649D01*
X145200000Y-78830457D01*
X145375972Y-78830457D01*
X145291886Y-78875402D01*
X145085103Y-79045103D01*
X144915402Y-79251886D01*
X144789302Y-79487802D01*
X144711650Y-79743786D01*
X144685430Y-80010000D01*
X144711650Y-80276214D01*
X144752832Y-80411971D01*
X143719383Y-81445420D01*
X143695237Y-81465236D01*
X143675421Y-81489382D01*
X143675419Y-81489384D01*
X143616134Y-81561624D01*
X143557356Y-81671590D01*
X143521160Y-81790911D01*
X143508938Y-81915000D01*
X143512001Y-81946098D01*
X143512000Y-82922803D01*
X141814384Y-84620419D01*
X141790237Y-84640236D01*
X141770421Y-84664382D01*
X141770419Y-84664384D01*
X141711134Y-84736624D01*
X141652356Y-84846590D01*
X141616160Y-84965911D01*
X141603938Y-85090000D01*
X141607001Y-85121098D01*
X141607001Y-87613876D01*
X141456004Y-87542429D01*
X141181816Y-87473700D01*
X140899488Y-87459783D01*
X140619870Y-87501213D01*
X140353708Y-87596397D01*
X140228486Y-87663329D01*
X140156903Y-87907298D01*
X140970000Y-88720395D01*
X140984143Y-88706253D01*
X141163748Y-88885858D01*
X141149605Y-88900000D01*
X141163748Y-88914143D01*
X140984143Y-89093748D01*
X140970000Y-89079605D01*
X140156903Y-89892702D01*
X140228486Y-90136671D01*
X140483996Y-90257571D01*
X140758184Y-90326300D01*
X141040512Y-90340217D01*
X141320130Y-90298787D01*
X141586292Y-90203603D01*
X141607000Y-90192534D01*
X141607000Y-90600949D01*
X138701752Y-93506197D01*
X138697958Y-93505823D01*
X138598373Y-93515631D01*
X138502615Y-93544679D01*
X138414363Y-93591851D01*
X138337010Y-93655332D01*
X137276350Y-94715992D01*
X137212869Y-94793345D01*
X137165697Y-94881597D01*
X137160000Y-94900377D01*
X137154303Y-94881597D01*
X137107131Y-94793345D01*
X137043650Y-94715992D01*
X135982990Y-93655332D01*
X135905637Y-93591851D01*
X135817385Y-93544679D01*
X135721627Y-93515631D01*
X135622042Y-93505823D01*
X135618248Y-93506197D01*
X134258000Y-92145949D01*
X134258000Y-91985570D01*
X134223106Y-91810146D01*
X134154659Y-91644901D01*
X134055289Y-91496184D01*
X133928816Y-91369711D01*
X133780099Y-91270341D01*
X133614854Y-91201894D01*
X133439430Y-91167000D01*
X133337197Y-91167000D01*
X132713000Y-90542803D01*
X132713000Y-90210457D01*
X134150000Y-90210457D01*
X134249585Y-90200649D01*
X134345343Y-90171601D01*
X134433595Y-90124429D01*
X134510948Y-90060948D01*
X134574429Y-89983595D01*
X134621601Y-89895343D01*
X134650649Y-89799585D01*
X134660457Y-89700000D01*
X134660457Y-88970512D01*
X139529783Y-88970512D01*
X139571213Y-89250130D01*
X139666397Y-89516292D01*
X139733329Y-89641514D01*
X139977298Y-89713097D01*
X140790395Y-88900000D01*
X139977298Y-88086903D01*
X139733329Y-88158486D01*
X139612429Y-88413996D01*
X139543700Y-88688184D01*
X139529783Y-88970512D01*
X134660457Y-88970512D01*
X134660457Y-88100000D01*
X134650649Y-88000415D01*
X134621601Y-87904657D01*
X134574429Y-87816405D01*
X134510948Y-87739052D01*
X134433595Y-87675571D01*
X134345343Y-87628399D01*
X134249585Y-87599351D01*
X134150000Y-87589543D01*
X132713000Y-87589543D01*
X132713000Y-86391085D01*
X132716062Y-86359999D01*
X132711398Y-86312645D01*
X132703840Y-86235910D01*
X132667645Y-86116590D01*
X132608866Y-86006623D01*
X132529764Y-85910236D01*
X132505614Y-85890417D01*
X131443000Y-84827803D01*
X131443000Y-83851085D01*
X131446062Y-83819999D01*
X131441398Y-83772645D01*
X131433840Y-83695910D01*
X131397645Y-83576590D01*
X131338866Y-83466623D01*
X131259764Y-83370236D01*
X131235614Y-83350417D01*
X130173000Y-82287803D01*
X130173000Y-81311085D01*
X130176062Y-81279999D01*
X130173000Y-81248912D01*
X130163840Y-81155910D01*
X130162404Y-81151173D01*
X132042000Y-81151173D01*
X132042000Y-81408827D01*
X132092266Y-81661530D01*
X132190865Y-81899570D01*
X132334010Y-82113801D01*
X132516199Y-82295990D01*
X132730430Y-82439135D01*
X132968470Y-82537734D01*
X133221173Y-82588000D01*
X133478827Y-82588000D01*
X133731530Y-82537734D01*
X133969570Y-82439135D01*
X134183801Y-82295990D01*
X134365990Y-82113801D01*
X134509135Y-81899570D01*
X134607734Y-81661530D01*
X134658000Y-81408827D01*
X134658000Y-81151173D01*
X139662000Y-81151173D01*
X139662000Y-81408827D01*
X139712266Y-81661530D01*
X139810865Y-81899570D01*
X139954010Y-82113801D01*
X140136199Y-82295990D01*
X140350430Y-82439135D01*
X140588470Y-82537734D01*
X140841173Y-82588000D01*
X141098827Y-82588000D01*
X141351530Y-82537734D01*
X141589570Y-82439135D01*
X141803801Y-82295990D01*
X141985990Y-82113801D01*
X142129135Y-81899570D01*
X142227734Y-81661530D01*
X142278000Y-81408827D01*
X142278000Y-81151173D01*
X142227734Y-80898470D01*
X142129135Y-80660430D01*
X141985990Y-80446199D01*
X141803801Y-80264010D01*
X141589570Y-80120865D01*
X141351530Y-80022266D01*
X141098827Y-79972000D01*
X140841173Y-79972000D01*
X140588470Y-80022266D01*
X140350430Y-80120865D01*
X140136199Y-80264010D01*
X139954010Y-80446199D01*
X139810865Y-80660430D01*
X139712266Y-80898470D01*
X139662000Y-81151173D01*
X134658000Y-81151173D01*
X134607734Y-80898470D01*
X134509135Y-80660430D01*
X134365990Y-80446199D01*
X134183801Y-80264010D01*
X133969570Y-80120865D01*
X133731530Y-80022266D01*
X133478827Y-79972000D01*
X133221173Y-79972000D01*
X132968470Y-80022266D01*
X132730430Y-80120865D01*
X132516199Y-80264010D01*
X132334010Y-80446199D01*
X132190865Y-80660430D01*
X132092266Y-80898470D01*
X132042000Y-81151173D01*
X130162404Y-81151173D01*
X130127645Y-81036590D01*
X130068866Y-80926623D01*
X129989764Y-80830236D01*
X129965614Y-80810417D01*
X129567168Y-80411971D01*
X129608350Y-80276214D01*
X129634570Y-80010000D01*
X129608350Y-79743786D01*
X129530698Y-79487802D01*
X129404598Y-79251886D01*
X129234897Y-79045103D01*
X129028114Y-78875402D01*
X128944028Y-78830457D01*
X129120000Y-78830457D01*
X129219585Y-78820649D01*
X129315343Y-78791601D01*
X129403595Y-78744429D01*
X129480948Y-78680948D01*
X129544429Y-78603595D01*
X129591601Y-78515343D01*
X129620649Y-78419585D01*
X129630457Y-78320000D01*
X129630457Y-77945000D01*
X132581928Y-77945000D01*
X132594188Y-78069482D01*
X132630498Y-78189180D01*
X132689463Y-78299494D01*
X132768815Y-78396185D01*
X132865506Y-78475537D01*
X132975820Y-78534502D01*
X133095518Y-78570812D01*
X133220000Y-78583072D01*
X133459250Y-78580000D01*
X133618000Y-78421250D01*
X133618000Y-77597000D01*
X132743750Y-77597000D01*
X132585000Y-77755750D01*
X132581928Y-77945000D01*
X129630457Y-77945000D01*
X129630457Y-76733000D01*
X132640023Y-76733000D01*
X132630498Y-76750820D01*
X132630498Y-76750820D01*
G37*
X132630498Y-76750820D02*
X132594188Y-76870518D01*
X132581928Y-76995000D01*
X132585000Y-77184250D01*
X132743750Y-77343000D01*
X133618000Y-77343000D01*
X133618000Y-77323000D01*
X133872000Y-77323000D01*
X133872000Y-77343000D01*
X133892000Y-77343000D01*
X133892000Y-77597000D01*
X133872000Y-77597000D01*
X133872000Y-78421250D01*
X134030750Y-78580000D01*
X134270000Y-78583072D01*
X134394482Y-78570812D01*
X134514180Y-78534502D01*
X134624494Y-78475537D01*
X134721185Y-78396185D01*
X134782416Y-78321574D01*
X134791957Y-78329404D01*
X134921269Y-78398522D01*
X135061581Y-78441085D01*
X135207500Y-78455457D01*
X135782500Y-78455457D01*
X135928419Y-78441085D01*
X136068731Y-78398522D01*
X136198043Y-78329404D01*
X136311385Y-78236385D01*
X136404404Y-78123043D01*
X136415117Y-78103000D01*
X137904883Y-78103000D01*
X137915596Y-78123043D01*
X138008615Y-78236385D01*
X138121957Y-78329404D01*
X138251269Y-78398522D01*
X138391581Y-78441085D01*
X138537500Y-78455457D01*
X139112500Y-78455457D01*
X139258419Y-78441085D01*
X139398731Y-78398522D01*
X139528043Y-78329404D01*
X139641385Y-78236385D01*
X139700000Y-78164964D01*
X139758615Y-78236385D01*
X139847966Y-78309714D01*
X139847841Y-78309901D01*
X139779394Y-78475146D01*
X139744500Y-78650570D01*
X139744500Y-78829430D01*
X139779394Y-79004854D01*
X139847841Y-79170099D01*
X139947211Y-79318816D01*
X140073684Y-79445289D01*
X140222401Y-79544659D01*
X140387646Y-79613106D01*
X140563070Y-79648000D01*
X140741930Y-79648000D01*
X140917354Y-79613106D01*
X141082599Y-79544659D01*
X141231316Y-79445289D01*
X141357789Y-79318816D01*
X141457159Y-79170099D01*
X141525606Y-79004854D01*
X141560500Y-78829430D01*
X141560500Y-78650570D01*
X141525606Y-78475146D01*
X141457159Y-78309901D01*
X141400564Y-78225201D01*
X141484404Y-78123043D01*
X141553522Y-77993731D01*
X141596085Y-77853419D01*
X141610457Y-77707500D01*
X141610457Y-77232500D01*
X141596085Y-77086581D01*
X141553522Y-76946269D01*
X141484404Y-76816957D01*
X141415501Y-76733000D01*
X144689543Y-76733000D01*
X144689543Y-78320000D01*
X144699351Y-78419585D01*
X144728399Y-78515343D01*
X144775571Y-78603595D01*
X144839052Y-78680948D01*
X144916405Y-78744429D01*
X145004657Y-78791601D01*
X145100415Y-78820649D01*
X145200000Y-78830457D01*
X145375972Y-78830457D01*
X145291886Y-78875402D01*
X145085103Y-79045103D01*
X144915402Y-79251886D01*
X144789302Y-79487802D01*
X144711650Y-79743786D01*
X144685430Y-80010000D01*
X144711650Y-80276214D01*
X144752832Y-80411971D01*
X143719383Y-81445420D01*
X143695237Y-81465236D01*
X143675421Y-81489382D01*
X143675419Y-81489384D01*
X143616134Y-81561624D01*
X143557356Y-81671590D01*
X143521160Y-81790911D01*
X143508938Y-81915000D01*
X143512001Y-81946098D01*
X143512000Y-82922803D01*
X141814384Y-84620419D01*
X141790237Y-84640236D01*
X141770421Y-84664382D01*
X141770419Y-84664384D01*
X141711134Y-84736624D01*
X141652356Y-84846590D01*
X141616160Y-84965911D01*
X141603938Y-85090000D01*
X141607001Y-85121098D01*
X141607001Y-87613876D01*
X141456004Y-87542429D01*
X141181816Y-87473700D01*
X140899488Y-87459783D01*
X140619870Y-87501213D01*
X140353708Y-87596397D01*
X140228486Y-87663329D01*
X140156903Y-87907298D01*
X140970000Y-88720395D01*
X140984143Y-88706253D01*
X141163748Y-88885858D01*
X141149605Y-88900000D01*
X141163748Y-88914143D01*
X140984143Y-89093748D01*
X140970000Y-89079605D01*
X140156903Y-89892702D01*
X140228486Y-90136671D01*
X140483996Y-90257571D01*
X140758184Y-90326300D01*
X141040512Y-90340217D01*
X141320130Y-90298787D01*
X141586292Y-90203603D01*
X141607000Y-90192534D01*
X141607000Y-90600949D01*
X138701752Y-93506197D01*
X138697958Y-93505823D01*
X138598373Y-93515631D01*
X138502615Y-93544679D01*
X138414363Y-93591851D01*
X138337010Y-93655332D01*
X137276350Y-94715992D01*
X137212869Y-94793345D01*
X137165697Y-94881597D01*
X137160000Y-94900377D01*
X137154303Y-94881597D01*
X137107131Y-94793345D01*
X137043650Y-94715992D01*
X135982990Y-93655332D01*
X135905637Y-93591851D01*
X135817385Y-93544679D01*
X135721627Y-93515631D01*
X135622042Y-93505823D01*
X135618248Y-93506197D01*
X134258000Y-92145949D01*
X134258000Y-91985570D01*
X134223106Y-91810146D01*
X134154659Y-91644901D01*
X134055289Y-91496184D01*
X133928816Y-91369711D01*
X133780099Y-91270341D01*
X133614854Y-91201894D01*
X133439430Y-91167000D01*
X133337197Y-91167000D01*
X132713000Y-90542803D01*
X132713000Y-90210457D01*
X134150000Y-90210457D01*
X134249585Y-90200649D01*
X134345343Y-90171601D01*
X134433595Y-90124429D01*
X134510948Y-90060948D01*
X134574429Y-89983595D01*
X134621601Y-89895343D01*
X134650649Y-89799585D01*
X134660457Y-89700000D01*
X134660457Y-88970512D01*
X139529783Y-88970512D01*
X139571213Y-89250130D01*
X139666397Y-89516292D01*
X139733329Y-89641514D01*
X139977298Y-89713097D01*
X140790395Y-88900000D01*
X139977298Y-88086903D01*
X139733329Y-88158486D01*
X139612429Y-88413996D01*
X139543700Y-88688184D01*
X139529783Y-88970512D01*
X134660457Y-88970512D01*
X134660457Y-88100000D01*
X134650649Y-88000415D01*
X134621601Y-87904657D01*
X134574429Y-87816405D01*
X134510948Y-87739052D01*
X134433595Y-87675571D01*
X134345343Y-87628399D01*
X134249585Y-87599351D01*
X134150000Y-87589543D01*
X132713000Y-87589543D01*
X132713000Y-86391085D01*
X132716062Y-86359999D01*
X132711398Y-86312645D01*
X132703840Y-86235910D01*
X132667645Y-86116590D01*
X132608866Y-86006623D01*
X132529764Y-85910236D01*
X132505614Y-85890417D01*
X131443000Y-84827803D01*
X131443000Y-83851085D01*
X131446062Y-83819999D01*
X131441398Y-83772645D01*
X131433840Y-83695910D01*
X131397645Y-83576590D01*
X131338866Y-83466623D01*
X131259764Y-83370236D01*
X131235614Y-83350417D01*
X130173000Y-82287803D01*
X130173000Y-81311085D01*
X130176062Y-81279999D01*
X130173000Y-81248912D01*
X130163840Y-81155910D01*
X130162404Y-81151173D01*
X132042000Y-81151173D01*
X132042000Y-81408827D01*
X132092266Y-81661530D01*
X132190865Y-81899570D01*
X132334010Y-82113801D01*
X132516199Y-82295990D01*
X132730430Y-82439135D01*
X132968470Y-82537734D01*
X133221173Y-82588000D01*
X133478827Y-82588000D01*
X133731530Y-82537734D01*
X133969570Y-82439135D01*
X134183801Y-82295990D01*
X134365990Y-82113801D01*
X134509135Y-81899570D01*
X134607734Y-81661530D01*
X134658000Y-81408827D01*
X134658000Y-81151173D01*
X139662000Y-81151173D01*
X139662000Y-81408827D01*
X139712266Y-81661530D01*
X139810865Y-81899570D01*
X139954010Y-82113801D01*
X140136199Y-82295990D01*
X140350430Y-82439135D01*
X140588470Y-82537734D01*
X140841173Y-82588000D01*
X141098827Y-82588000D01*
X141351530Y-82537734D01*
X141589570Y-82439135D01*
X141803801Y-82295990D01*
X141985990Y-82113801D01*
X142129135Y-81899570D01*
X142227734Y-81661530D01*
X142278000Y-81408827D01*
X142278000Y-81151173D01*
X142227734Y-80898470D01*
X142129135Y-80660430D01*
X141985990Y-80446199D01*
X141803801Y-80264010D01*
X141589570Y-80120865D01*
X141351530Y-80022266D01*
X141098827Y-79972000D01*
X140841173Y-79972000D01*
X140588470Y-80022266D01*
X140350430Y-80120865D01*
X140136199Y-80264010D01*
X139954010Y-80446199D01*
X139810865Y-80660430D01*
X139712266Y-80898470D01*
X139662000Y-81151173D01*
X134658000Y-81151173D01*
X134607734Y-80898470D01*
X134509135Y-80660430D01*
X134365990Y-80446199D01*
X134183801Y-80264010D01*
X133969570Y-80120865D01*
X133731530Y-80022266D01*
X133478827Y-79972000D01*
X133221173Y-79972000D01*
X132968470Y-80022266D01*
X132730430Y-80120865D01*
X132516199Y-80264010D01*
X132334010Y-80446199D01*
X132190865Y-80660430D01*
X132092266Y-80898470D01*
X132042000Y-81151173D01*
X130162404Y-81151173D01*
X130127645Y-81036590D01*
X130068866Y-80926623D01*
X129989764Y-80830236D01*
X129965614Y-80810417D01*
X129567168Y-80411971D01*
X129608350Y-80276214D01*
X129634570Y-80010000D01*
X129608350Y-79743786D01*
X129530698Y-79487802D01*
X129404598Y-79251886D01*
X129234897Y-79045103D01*
X129028114Y-78875402D01*
X128944028Y-78830457D01*
X129120000Y-78830457D01*
X129219585Y-78820649D01*
X129315343Y-78791601D01*
X129403595Y-78744429D01*
X129480948Y-78680948D01*
X129544429Y-78603595D01*
X129591601Y-78515343D01*
X129620649Y-78419585D01*
X129630457Y-78320000D01*
X129630457Y-77945000D01*
X132581928Y-77945000D01*
X132594188Y-78069482D01*
X132630498Y-78189180D01*
X132689463Y-78299494D01*
X132768815Y-78396185D01*
X132865506Y-78475537D01*
X132975820Y-78534502D01*
X133095518Y-78570812D01*
X133220000Y-78583072D01*
X133459250Y-78580000D01*
X133618000Y-78421250D01*
X133618000Y-77597000D01*
X132743750Y-77597000D01*
X132585000Y-77755750D01*
X132581928Y-77945000D01*
X129630457Y-77945000D01*
X129630457Y-76733000D01*
X132640023Y-76733000D01*
X132630498Y-76750820D01*
M02*
