G04 #@! TF.GenerationSoftware,KiCad,Pcbnew,(5.1.0)-1*
G04 #@! TF.CreationDate,2020-08-07T11:47:51-07:00*
G04 #@! TF.ProjectId,MAX7_Proto,4d415837-5f50-4726-9f74-6f2e6b696361,rev?*
G04 #@! TF.SameCoordinates,Original*
G04 #@! TF.FileFunction,Legend,Bot*
G04 #@! TF.FilePolarity,Positive*
%FSLAX46Y46*%
G04 Gerber Fmt 4.6, Leading zero omitted, Abs format (unit mm)*
G04 Created by KiCad (PCBNEW (5.1.0)-1) date 2020-08-07 11:47:51*
%MOMM*%
%LPD*%
G04 APERTURE LIST*
%ADD10C,0.120000*%
%ADD11C,0.150000*%
G04 APERTURE END LIST*
D10*
X139065000Y-83502500D02*
X139382500Y-83502500D01*
X139065000Y-83502500D02*
X139065000Y-83185000D01*
X139700000Y-82867500D02*
X139065000Y-83502500D01*
X143510000Y-80010000D02*
X143510000Y-82550000D01*
X143510000Y-80010000D02*
X143510000Y-77470000D01*
X140335000Y-80010000D02*
X143510000Y-80010000D01*
X139700000Y-82867500D02*
X139700000Y-80645000D01*
X139700000Y-80645000D02*
X140335000Y-80010000D01*
X137331267Y-98300000D02*
X136988733Y-98300000D01*
X137331267Y-97280000D02*
X136988733Y-97280000D01*
X141480000Y-101771267D02*
X141480000Y-101428733D01*
X140460000Y-101771267D02*
X140460000Y-101428733D01*
X137920000Y-81451267D02*
X137920000Y-81108733D01*
X138940000Y-81451267D02*
X138940000Y-81108733D01*
X132251267Y-83310000D02*
X131908733Y-83310000D01*
X132251267Y-84330000D02*
X131908733Y-84330000D01*
X132840000Y-101428733D02*
X132840000Y-101771267D01*
X133860000Y-101428733D02*
X133860000Y-101771267D01*
X136988733Y-104900000D02*
X137331267Y-104900000D01*
X136988733Y-105920000D02*
X137331267Y-105920000D01*
X136400000Y-81451267D02*
X136400000Y-81108733D01*
X135380000Y-81451267D02*
X135380000Y-81108733D01*
X130312500Y-85425000D02*
X134397500Y-85425000D01*
X134397500Y-85425000D02*
X134397500Y-87295000D01*
X134397500Y-87295000D02*
X130312500Y-87295000D01*
X140035000Y-87575000D02*
X140035000Y-83490000D01*
X141905000Y-87575000D02*
X140035000Y-87575000D01*
X141905000Y-83490000D02*
X141905000Y-87575000D01*
X136460000Y-89900000D02*
X137860000Y-89900000D01*
X138560000Y-89200000D02*
X138560000Y-88600000D01*
X137860000Y-87900000D02*
X136460000Y-87900000D01*
X135760000Y-88600000D02*
X135760000Y-89200000D01*
X135760000Y-89200000D02*
G75*
G03X136460000Y-89900000I700000J0D01*
G01*
X136460000Y-87900000D02*
G75*
G03X135760000Y-88600000I0J-700000D01*
G01*
X138560000Y-88600000D02*
G75*
G03X137860000Y-87900000I-700000J0D01*
G01*
X137860000Y-89900000D02*
G75*
G03X138560000Y-89200000I0J700000D01*
G01*
X143590000Y-96250000D02*
G75*
G03X144290000Y-95550000I0J700000D01*
G01*
X144290000Y-94950000D02*
G75*
G03X143590000Y-94250000I-700000J0D01*
G01*
X142190000Y-94250000D02*
G75*
G03X141490000Y-94950000I0J-700000D01*
G01*
X141490000Y-95550000D02*
G75*
G03X142190000Y-96250000I700000J0D01*
G01*
X141490000Y-94950000D02*
X141490000Y-95550000D01*
X143590000Y-94250000D02*
X142190000Y-94250000D01*
X144290000Y-95550000D02*
X144290000Y-94950000D01*
X142190000Y-96250000D02*
X143590000Y-96250000D01*
X142068733Y-117350000D02*
X142411267Y-117350000D01*
X142068733Y-116330000D02*
X142411267Y-116330000D01*
X142068733Y-114810000D02*
X142411267Y-114810000D01*
X142068733Y-113790000D02*
X142411267Y-113790000D01*
X132251267Y-114810000D02*
X131908733Y-114810000D01*
X132251267Y-113790000D02*
X131908733Y-113790000D01*
X132251267Y-116330000D02*
X131908733Y-116330000D01*
X132251267Y-117350000D02*
X131908733Y-117350000D01*
X136260000Y-83480000D02*
X138060000Y-83480000D01*
X138060000Y-86700000D02*
X135610000Y-86700000D01*
D11*
X137326666Y-96717142D02*
X137374285Y-96764761D01*
X137517142Y-96812380D01*
X137612380Y-96812380D01*
X137755238Y-96764761D01*
X137850476Y-96669523D01*
X137898095Y-96574285D01*
X137945714Y-96383809D01*
X137945714Y-96240952D01*
X137898095Y-96050476D01*
X137850476Y-95955238D01*
X137755238Y-95860000D01*
X137612380Y-95812380D01*
X137517142Y-95812380D01*
X137374285Y-95860000D01*
X137326666Y-95907619D01*
X136469523Y-95812380D02*
X136660000Y-95812380D01*
X136755238Y-95860000D01*
X136802857Y-95907619D01*
X136898095Y-96050476D01*
X136945714Y-96240952D01*
X136945714Y-96621904D01*
X136898095Y-96717142D01*
X136850476Y-96764761D01*
X136755238Y-96812380D01*
X136564761Y-96812380D01*
X136469523Y-96764761D01*
X136421904Y-96717142D01*
X136374285Y-96621904D01*
X136374285Y-96383809D01*
X136421904Y-96288571D01*
X136469523Y-96240952D01*
X136564761Y-96193333D01*
X136755238Y-96193333D01*
X136850476Y-96240952D01*
X136898095Y-96288571D01*
X136945714Y-96383809D01*
X138707619Y-99829880D02*
X139279047Y-99829880D01*
X138993333Y-99829880D02*
X138993333Y-98829880D01*
X139088571Y-98972738D01*
X139183809Y-99067976D01*
X139279047Y-99115595D01*
X138088571Y-98829880D02*
X137993333Y-98829880D01*
X137898095Y-98877500D01*
X137850476Y-98925119D01*
X137802857Y-99020357D01*
X137755238Y-99210833D01*
X137755238Y-99448928D01*
X137802857Y-99639404D01*
X137850476Y-99734642D01*
X137898095Y-99782261D01*
X137993333Y-99829880D01*
X138088571Y-99829880D01*
X138183809Y-99782261D01*
X138231428Y-99734642D01*
X138279047Y-99639404D01*
X138326666Y-99448928D01*
X138326666Y-99210833D01*
X138279047Y-99020357D01*
X138231428Y-98925119D01*
X138183809Y-98877500D01*
X138088571Y-98829880D01*
X137136190Y-98829880D02*
X137040952Y-98829880D01*
X136945714Y-98877500D01*
X136898095Y-98925119D01*
X136850476Y-99020357D01*
X136802857Y-99210833D01*
X136802857Y-99448928D01*
X136850476Y-99639404D01*
X136898095Y-99734642D01*
X136945714Y-99782261D01*
X137040952Y-99829880D01*
X137136190Y-99829880D01*
X137231428Y-99782261D01*
X137279047Y-99734642D01*
X137326666Y-99639404D01*
X137374285Y-99448928D01*
X137374285Y-99210833D01*
X137326666Y-99020357D01*
X137279047Y-98925119D01*
X137231428Y-98877500D01*
X137136190Y-98829880D01*
X136374285Y-99163214D02*
X136374285Y-99829880D01*
X136374285Y-99258452D02*
X136326666Y-99210833D01*
X136231428Y-99163214D01*
X136088571Y-99163214D01*
X135993333Y-99210833D01*
X135945714Y-99306071D01*
X135945714Y-99829880D01*
X135136190Y-99306071D02*
X135469523Y-99306071D01*
X135469523Y-99829880D02*
X135469523Y-98829880D01*
X134993333Y-98829880D01*
X139739642Y-101433333D02*
X139787261Y-101385714D01*
X139834880Y-101242857D01*
X139834880Y-101147619D01*
X139787261Y-101004761D01*
X139692023Y-100909523D01*
X139596785Y-100861904D01*
X139406309Y-100814285D01*
X139263452Y-100814285D01*
X139072976Y-100861904D01*
X138977738Y-100909523D01*
X138882500Y-101004761D01*
X138834880Y-101147619D01*
X138834880Y-101242857D01*
X138882500Y-101385714D01*
X138930119Y-101433333D01*
X138834880Y-102338095D02*
X138834880Y-101861904D01*
X139311071Y-101814285D01*
X139263452Y-101861904D01*
X139215833Y-101957142D01*
X139215833Y-102195238D01*
X139263452Y-102290476D01*
X139311071Y-102338095D01*
X139406309Y-102385714D01*
X139644404Y-102385714D01*
X139739642Y-102338095D01*
X139787261Y-102290476D01*
X139834880Y-102195238D01*
X139834880Y-101957142D01*
X139787261Y-101861904D01*
X139739642Y-101814285D01*
X143009880Y-100052380D02*
X143009880Y-99480952D01*
X143009880Y-99766666D02*
X142009880Y-99766666D01*
X142152738Y-99671428D01*
X142247976Y-99576190D01*
X142295595Y-99480952D01*
X142009880Y-100671428D02*
X142009880Y-100766666D01*
X142057500Y-100861904D01*
X142105119Y-100909523D01*
X142200357Y-100957142D01*
X142390833Y-101004761D01*
X142628928Y-101004761D01*
X142819404Y-100957142D01*
X142914642Y-100909523D01*
X142962261Y-100861904D01*
X143009880Y-100766666D01*
X143009880Y-100671428D01*
X142962261Y-100576190D01*
X142914642Y-100528571D01*
X142819404Y-100480952D01*
X142628928Y-100433333D01*
X142390833Y-100433333D01*
X142200357Y-100480952D01*
X142105119Y-100528571D01*
X142057500Y-100576190D01*
X142009880Y-100671428D01*
X142009880Y-101623809D02*
X142009880Y-101719047D01*
X142057500Y-101814285D01*
X142105119Y-101861904D01*
X142200357Y-101909523D01*
X142390833Y-101957142D01*
X142628928Y-101957142D01*
X142819404Y-101909523D01*
X142914642Y-101861904D01*
X142962261Y-101814285D01*
X143009880Y-101719047D01*
X143009880Y-101623809D01*
X142962261Y-101528571D01*
X142914642Y-101480952D01*
X142819404Y-101433333D01*
X142628928Y-101385714D01*
X142390833Y-101385714D01*
X142200357Y-101433333D01*
X142105119Y-101480952D01*
X142057500Y-101528571D01*
X142009880Y-101623809D01*
X142343214Y-102385714D02*
X143009880Y-102385714D01*
X142438452Y-102385714D02*
X142390833Y-102433333D01*
X142343214Y-102528571D01*
X142343214Y-102671428D01*
X142390833Y-102766666D01*
X142486071Y-102814285D01*
X143009880Y-102814285D01*
X142486071Y-103623809D02*
X142486071Y-103290476D01*
X143009880Y-103290476D02*
X142009880Y-103290476D01*
X142009880Y-103766666D01*
X139866666Y-77827142D02*
X139914285Y-77874761D01*
X140057142Y-77922380D01*
X140152380Y-77922380D01*
X140295238Y-77874761D01*
X140390476Y-77779523D01*
X140438095Y-77684285D01*
X140485714Y-77493809D01*
X140485714Y-77350952D01*
X140438095Y-77160476D01*
X140390476Y-77065238D01*
X140295238Y-76970000D01*
X140152380Y-76922380D01*
X140057142Y-76922380D01*
X139914285Y-76970000D01*
X139866666Y-77017619D01*
X138914285Y-77922380D02*
X139485714Y-77922380D01*
X139200000Y-77922380D02*
X139200000Y-76922380D01*
X139295238Y-77065238D01*
X139390476Y-77160476D01*
X139485714Y-77208095D01*
X140771428Y-79509880D02*
X141342857Y-79509880D01*
X141057142Y-79509880D02*
X141057142Y-78509880D01*
X141152380Y-78652738D01*
X141247619Y-78747976D01*
X141342857Y-78795595D01*
X140152380Y-78509880D02*
X140057142Y-78509880D01*
X139961904Y-78557500D01*
X139914285Y-78605119D01*
X139866666Y-78700357D01*
X139819047Y-78890833D01*
X139819047Y-79128928D01*
X139866666Y-79319404D01*
X139914285Y-79414642D01*
X139961904Y-79462261D01*
X140057142Y-79509880D01*
X140152380Y-79509880D01*
X140247619Y-79462261D01*
X140295238Y-79414642D01*
X140342857Y-79319404D01*
X140390476Y-79128928D01*
X140390476Y-78890833D01*
X140342857Y-78700357D01*
X140295238Y-78605119D01*
X140247619Y-78557500D01*
X140152380Y-78509880D01*
X139390476Y-78843214D02*
X139390476Y-79509880D01*
X139390476Y-78938452D02*
X139342857Y-78890833D01*
X139247619Y-78843214D01*
X139104761Y-78843214D01*
X139009523Y-78890833D01*
X138961904Y-78986071D01*
X138961904Y-79509880D01*
X138152380Y-78986071D02*
X138485714Y-78986071D01*
X138485714Y-79509880D02*
X138485714Y-78509880D01*
X138009523Y-78509880D01*
X130214642Y-81113333D02*
X130262261Y-81065714D01*
X130309880Y-80922857D01*
X130309880Y-80827619D01*
X130262261Y-80684761D01*
X130167023Y-80589523D01*
X130071785Y-80541904D01*
X129881309Y-80494285D01*
X129738452Y-80494285D01*
X129547976Y-80541904D01*
X129452738Y-80589523D01*
X129357500Y-80684761D01*
X129309880Y-80827619D01*
X129309880Y-80922857D01*
X129357500Y-81065714D01*
X129405119Y-81113333D01*
X129405119Y-81494285D02*
X129357500Y-81541904D01*
X129309880Y-81637142D01*
X129309880Y-81875238D01*
X129357500Y-81970476D01*
X129405119Y-82018095D01*
X129500357Y-82065714D01*
X129595595Y-82065714D01*
X129738452Y-82018095D01*
X130309880Y-81446666D01*
X130309880Y-82065714D01*
X131579880Y-78779880D02*
X131579880Y-78208452D01*
X131579880Y-78494166D02*
X130579880Y-78494166D01*
X130722738Y-78398928D01*
X130817976Y-78303690D01*
X130865595Y-78208452D01*
X130579880Y-79398928D02*
X130579880Y-79494166D01*
X130627500Y-79589404D01*
X130675119Y-79637023D01*
X130770357Y-79684642D01*
X130960833Y-79732261D01*
X131198928Y-79732261D01*
X131389404Y-79684642D01*
X131484642Y-79637023D01*
X131532261Y-79589404D01*
X131579880Y-79494166D01*
X131579880Y-79398928D01*
X131532261Y-79303690D01*
X131484642Y-79256071D01*
X131389404Y-79208452D01*
X131198928Y-79160833D01*
X130960833Y-79160833D01*
X130770357Y-79208452D01*
X130675119Y-79256071D01*
X130627500Y-79303690D01*
X130579880Y-79398928D01*
X130579880Y-80351309D02*
X130579880Y-80446547D01*
X130627500Y-80541785D01*
X130675119Y-80589404D01*
X130770357Y-80637023D01*
X130960833Y-80684642D01*
X131198928Y-80684642D01*
X131389404Y-80637023D01*
X131484642Y-80589404D01*
X131532261Y-80541785D01*
X131579880Y-80446547D01*
X131579880Y-80351309D01*
X131532261Y-80256071D01*
X131484642Y-80208452D01*
X131389404Y-80160833D01*
X131198928Y-80113214D01*
X130960833Y-80113214D01*
X130770357Y-80160833D01*
X130675119Y-80208452D01*
X130627500Y-80256071D01*
X130579880Y-80351309D01*
X130913214Y-81113214D02*
X131579880Y-81113214D01*
X131008452Y-81113214D02*
X130960833Y-81160833D01*
X130913214Y-81256071D01*
X130913214Y-81398928D01*
X130960833Y-81494166D01*
X131056071Y-81541785D01*
X131579880Y-81541785D01*
X131056071Y-82351309D02*
X131056071Y-82017976D01*
X131579880Y-82017976D02*
X130579880Y-82017976D01*
X130579880Y-82494166D01*
X132277142Y-101433333D02*
X132324761Y-101385714D01*
X132372380Y-101242857D01*
X132372380Y-101147619D01*
X132324761Y-101004761D01*
X132229523Y-100909523D01*
X132134285Y-100861904D01*
X131943809Y-100814285D01*
X131800952Y-100814285D01*
X131610476Y-100861904D01*
X131515238Y-100909523D01*
X131420000Y-101004761D01*
X131372380Y-101147619D01*
X131372380Y-101242857D01*
X131420000Y-101385714D01*
X131467619Y-101433333D01*
X131372380Y-101766666D02*
X131372380Y-102385714D01*
X131753333Y-102052380D01*
X131753333Y-102195238D01*
X131800952Y-102290476D01*
X131848571Y-102338095D01*
X131943809Y-102385714D01*
X132181904Y-102385714D01*
X132277142Y-102338095D01*
X132324761Y-102290476D01*
X132372380Y-102195238D01*
X132372380Y-101909523D01*
X132324761Y-101814285D01*
X132277142Y-101766666D01*
X135232380Y-100687380D02*
X135232380Y-100115952D01*
X135232380Y-100401666D02*
X134232380Y-100401666D01*
X134375238Y-100306428D01*
X134470476Y-100211190D01*
X134518095Y-100115952D01*
X134232380Y-101306428D02*
X134232380Y-101401666D01*
X134280000Y-101496904D01*
X134327619Y-101544523D01*
X134422857Y-101592142D01*
X134613333Y-101639761D01*
X134851428Y-101639761D01*
X135041904Y-101592142D01*
X135137142Y-101544523D01*
X135184761Y-101496904D01*
X135232380Y-101401666D01*
X135232380Y-101306428D01*
X135184761Y-101211190D01*
X135137142Y-101163571D01*
X135041904Y-101115952D01*
X134851428Y-101068333D01*
X134613333Y-101068333D01*
X134422857Y-101115952D01*
X134327619Y-101163571D01*
X134280000Y-101211190D01*
X134232380Y-101306428D01*
X134232380Y-102258809D02*
X134232380Y-102354047D01*
X134280000Y-102449285D01*
X134327619Y-102496904D01*
X134422857Y-102544523D01*
X134613333Y-102592142D01*
X134851428Y-102592142D01*
X135041904Y-102544523D01*
X135137142Y-102496904D01*
X135184761Y-102449285D01*
X135232380Y-102354047D01*
X135232380Y-102258809D01*
X135184761Y-102163571D01*
X135137142Y-102115952D01*
X135041904Y-102068333D01*
X134851428Y-102020714D01*
X134613333Y-102020714D01*
X134422857Y-102068333D01*
X134327619Y-102115952D01*
X134280000Y-102163571D01*
X134232380Y-102258809D01*
X134565714Y-103020714D02*
X135232380Y-103020714D01*
X134660952Y-103020714D02*
X134613333Y-103068333D01*
X134565714Y-103163571D01*
X134565714Y-103306428D01*
X134613333Y-103401666D01*
X134708571Y-103449285D01*
X135232380Y-103449285D01*
X134708571Y-104258809D02*
X134708571Y-103925476D01*
X135232380Y-103925476D02*
X134232380Y-103925476D01*
X134232380Y-104401666D01*
X137326666Y-104179642D02*
X137374285Y-104227261D01*
X137517142Y-104274880D01*
X137612380Y-104274880D01*
X137755238Y-104227261D01*
X137850476Y-104132023D01*
X137898095Y-104036785D01*
X137945714Y-103846309D01*
X137945714Y-103703452D01*
X137898095Y-103512976D01*
X137850476Y-103417738D01*
X137755238Y-103322500D01*
X137612380Y-103274880D01*
X137517142Y-103274880D01*
X137374285Y-103322500D01*
X137326666Y-103370119D01*
X136469523Y-103608214D02*
X136469523Y-104274880D01*
X136707619Y-103227261D02*
X136945714Y-103941547D01*
X136326666Y-103941547D01*
X138707619Y-107449880D02*
X139279047Y-107449880D01*
X138993333Y-107449880D02*
X138993333Y-106449880D01*
X139088571Y-106592738D01*
X139183809Y-106687976D01*
X139279047Y-106735595D01*
X138088571Y-106449880D02*
X137993333Y-106449880D01*
X137898095Y-106497500D01*
X137850476Y-106545119D01*
X137802857Y-106640357D01*
X137755238Y-106830833D01*
X137755238Y-107068928D01*
X137802857Y-107259404D01*
X137850476Y-107354642D01*
X137898095Y-107402261D01*
X137993333Y-107449880D01*
X138088571Y-107449880D01*
X138183809Y-107402261D01*
X138231428Y-107354642D01*
X138279047Y-107259404D01*
X138326666Y-107068928D01*
X138326666Y-106830833D01*
X138279047Y-106640357D01*
X138231428Y-106545119D01*
X138183809Y-106497500D01*
X138088571Y-106449880D01*
X137136190Y-106449880D02*
X137040952Y-106449880D01*
X136945714Y-106497500D01*
X136898095Y-106545119D01*
X136850476Y-106640357D01*
X136802857Y-106830833D01*
X136802857Y-107068928D01*
X136850476Y-107259404D01*
X136898095Y-107354642D01*
X136945714Y-107402261D01*
X137040952Y-107449880D01*
X137136190Y-107449880D01*
X137231428Y-107402261D01*
X137279047Y-107354642D01*
X137326666Y-107259404D01*
X137374285Y-107068928D01*
X137374285Y-106830833D01*
X137326666Y-106640357D01*
X137279047Y-106545119D01*
X137231428Y-106497500D01*
X137136190Y-106449880D01*
X136374285Y-106783214D02*
X136374285Y-107449880D01*
X136374285Y-106878452D02*
X136326666Y-106830833D01*
X136231428Y-106783214D01*
X136088571Y-106783214D01*
X135993333Y-106830833D01*
X135945714Y-106926071D01*
X135945714Y-107449880D01*
X135136190Y-106926071D02*
X135469523Y-106926071D01*
X135469523Y-107449880D02*
X135469523Y-106449880D01*
X134993333Y-106449880D01*
X135104166Y-78144642D02*
X135151785Y-78192261D01*
X135294642Y-78239880D01*
X135389880Y-78239880D01*
X135532738Y-78192261D01*
X135627976Y-78097023D01*
X135675595Y-78001785D01*
X135723214Y-77811309D01*
X135723214Y-77668452D01*
X135675595Y-77477976D01*
X135627976Y-77382738D01*
X135532738Y-77287500D01*
X135389880Y-77239880D01*
X135294642Y-77239880D01*
X135151785Y-77287500D01*
X135104166Y-77335119D01*
X134770833Y-77239880D02*
X134104166Y-77239880D01*
X134532738Y-78239880D01*
X136485119Y-79509880D02*
X137056547Y-79509880D01*
X136770833Y-79509880D02*
X136770833Y-78509880D01*
X136866071Y-78652738D01*
X136961309Y-78747976D01*
X137056547Y-78795595D01*
X135866071Y-78509880D02*
X135770833Y-78509880D01*
X135675595Y-78557500D01*
X135627976Y-78605119D01*
X135580357Y-78700357D01*
X135532738Y-78890833D01*
X135532738Y-79128928D01*
X135580357Y-79319404D01*
X135627976Y-79414642D01*
X135675595Y-79462261D01*
X135770833Y-79509880D01*
X135866071Y-79509880D01*
X135961309Y-79462261D01*
X136008928Y-79414642D01*
X136056547Y-79319404D01*
X136104166Y-79128928D01*
X136104166Y-78890833D01*
X136056547Y-78700357D01*
X136008928Y-78605119D01*
X135961309Y-78557500D01*
X135866071Y-78509880D01*
X134913690Y-78509880D02*
X134818452Y-78509880D01*
X134723214Y-78557500D01*
X134675595Y-78605119D01*
X134627976Y-78700357D01*
X134580357Y-78890833D01*
X134580357Y-79128928D01*
X134627976Y-79319404D01*
X134675595Y-79414642D01*
X134723214Y-79462261D01*
X134818452Y-79509880D01*
X134913690Y-79509880D01*
X135008928Y-79462261D01*
X135056547Y-79414642D01*
X135104166Y-79319404D01*
X135151785Y-79128928D01*
X135151785Y-78890833D01*
X135104166Y-78700357D01*
X135056547Y-78605119D01*
X135008928Y-78557500D01*
X134913690Y-78509880D01*
X134151785Y-78843214D02*
X134151785Y-79509880D01*
X134151785Y-78938452D02*
X134104166Y-78890833D01*
X134008928Y-78843214D01*
X133866071Y-78843214D01*
X133770833Y-78890833D01*
X133723214Y-78986071D01*
X133723214Y-79509880D01*
X132913690Y-78986071D02*
X133247023Y-78986071D01*
X133247023Y-79509880D02*
X133247023Y-78509880D01*
X132770833Y-78509880D01*
X130976666Y-88622142D02*
X131024285Y-88669761D01*
X131167142Y-88717380D01*
X131262380Y-88717380D01*
X131405238Y-88669761D01*
X131500476Y-88574523D01*
X131548095Y-88479285D01*
X131595714Y-88288809D01*
X131595714Y-88145952D01*
X131548095Y-87955476D01*
X131500476Y-87860238D01*
X131405238Y-87765000D01*
X131262380Y-87717380D01*
X131167142Y-87717380D01*
X131024285Y-87765000D01*
X130976666Y-87812619D01*
X130405238Y-88145952D02*
X130500476Y-88098333D01*
X130548095Y-88050714D01*
X130595714Y-87955476D01*
X130595714Y-87907857D01*
X130548095Y-87812619D01*
X130500476Y-87765000D01*
X130405238Y-87717380D01*
X130214761Y-87717380D01*
X130119523Y-87765000D01*
X130071904Y-87812619D01*
X130024285Y-87907857D01*
X130024285Y-87955476D01*
X130071904Y-88050714D01*
X130119523Y-88098333D01*
X130214761Y-88145952D01*
X130405238Y-88145952D01*
X130500476Y-88193571D01*
X130548095Y-88241190D01*
X130595714Y-88336428D01*
X130595714Y-88526904D01*
X130548095Y-88622142D01*
X130500476Y-88669761D01*
X130405238Y-88717380D01*
X130214761Y-88717380D01*
X130119523Y-88669761D01*
X130071904Y-88622142D01*
X130024285Y-88526904D01*
X130024285Y-88336428D01*
X130071904Y-88241190D01*
X130119523Y-88193571D01*
X130214761Y-88145952D01*
X131881428Y-89987380D02*
X132452857Y-89987380D01*
X132167142Y-89987380D02*
X132167142Y-88987380D01*
X132262380Y-89130238D01*
X132357619Y-89225476D01*
X132452857Y-89273095D01*
X131262380Y-88987380D02*
X131167142Y-88987380D01*
X131071904Y-89035000D01*
X131024285Y-89082619D01*
X130976666Y-89177857D01*
X130929047Y-89368333D01*
X130929047Y-89606428D01*
X130976666Y-89796904D01*
X131024285Y-89892142D01*
X131071904Y-89939761D01*
X131167142Y-89987380D01*
X131262380Y-89987380D01*
X131357619Y-89939761D01*
X131405238Y-89892142D01*
X131452857Y-89796904D01*
X131500476Y-89606428D01*
X131500476Y-89368333D01*
X131452857Y-89177857D01*
X131405238Y-89082619D01*
X131357619Y-89035000D01*
X131262380Y-88987380D01*
X130071904Y-89320714D02*
X130071904Y-89987380D01*
X130500476Y-89320714D02*
X130500476Y-89844523D01*
X130452857Y-89939761D01*
X130357619Y-89987380D01*
X130214761Y-89987380D01*
X130119523Y-89939761D01*
X130071904Y-89892142D01*
X129262380Y-89463571D02*
X129595714Y-89463571D01*
X129595714Y-89987380D02*
X129595714Y-88987380D01*
X129119523Y-88987380D01*
X143232142Y-83018333D02*
X143279761Y-82970714D01*
X143327380Y-82827857D01*
X143327380Y-82732619D01*
X143279761Y-82589761D01*
X143184523Y-82494523D01*
X143089285Y-82446904D01*
X142898809Y-82399285D01*
X142755952Y-82399285D01*
X142565476Y-82446904D01*
X142470238Y-82494523D01*
X142375000Y-82589761D01*
X142327380Y-82732619D01*
X142327380Y-82827857D01*
X142375000Y-82970714D01*
X142422619Y-83018333D01*
X143327380Y-83494523D02*
X143327380Y-83685000D01*
X143279761Y-83780238D01*
X143232142Y-83827857D01*
X143089285Y-83923095D01*
X142898809Y-83970714D01*
X142517857Y-83970714D01*
X142422619Y-83923095D01*
X142375000Y-83875476D01*
X142327380Y-83780238D01*
X142327380Y-83589761D01*
X142375000Y-83494523D01*
X142422619Y-83446904D01*
X142517857Y-83399285D01*
X142755952Y-83399285D01*
X142851190Y-83446904D01*
X142898809Y-83494523D01*
X142946428Y-83589761D01*
X142946428Y-83780238D01*
X142898809Y-83875476D01*
X142851190Y-83923095D01*
X142755952Y-83970714D01*
X143327380Y-85288571D02*
X143327380Y-84717142D01*
X143327380Y-85002857D02*
X142327380Y-85002857D01*
X142470238Y-84907619D01*
X142565476Y-84812380D01*
X142613095Y-84717142D01*
X142327380Y-85907619D02*
X142327380Y-86002857D01*
X142375000Y-86098095D01*
X142422619Y-86145714D01*
X142517857Y-86193333D01*
X142708333Y-86240952D01*
X142946428Y-86240952D01*
X143136904Y-86193333D01*
X143232142Y-86145714D01*
X143279761Y-86098095D01*
X143327380Y-86002857D01*
X143327380Y-85907619D01*
X143279761Y-85812380D01*
X143232142Y-85764761D01*
X143136904Y-85717142D01*
X142946428Y-85669523D01*
X142708333Y-85669523D01*
X142517857Y-85717142D01*
X142422619Y-85764761D01*
X142375000Y-85812380D01*
X142327380Y-85907619D01*
X142660714Y-87098095D02*
X143327380Y-87098095D01*
X142660714Y-86669523D02*
X143184523Y-86669523D01*
X143279761Y-86717142D01*
X143327380Y-86812380D01*
X143327380Y-86955238D01*
X143279761Y-87050476D01*
X143232142Y-87098095D01*
X142803571Y-87907619D02*
X142803571Y-87574285D01*
X143327380Y-87574285D02*
X142327380Y-87574285D01*
X142327380Y-88050476D01*
X142755833Y-90574880D02*
X142755833Y-91289166D01*
X142803452Y-91432023D01*
X142898690Y-91527261D01*
X143041547Y-91574880D01*
X143136785Y-91574880D01*
X142279642Y-91574880D02*
X142279642Y-90574880D01*
X141898690Y-90574880D01*
X141803452Y-90622500D01*
X141755833Y-90670119D01*
X141708214Y-90765357D01*
X141708214Y-90908214D01*
X141755833Y-91003452D01*
X141803452Y-91051071D01*
X141898690Y-91098690D01*
X142279642Y-91098690D01*
X140755833Y-91574880D02*
X141327261Y-91574880D01*
X141041547Y-91574880D02*
X141041547Y-90574880D01*
X141136785Y-90717738D01*
X141232023Y-90812976D01*
X141327261Y-90860595D01*
X139159761Y-91574880D02*
X139635952Y-91574880D01*
X139635952Y-90574880D01*
X138826428Y-91574880D02*
X138826428Y-90574880D01*
X138588333Y-90574880D01*
X138445476Y-90622500D01*
X138350238Y-90717738D01*
X138302619Y-90812976D01*
X138255000Y-91003452D01*
X138255000Y-91146309D01*
X138302619Y-91336785D01*
X138350238Y-91432023D01*
X138445476Y-91527261D01*
X138588333Y-91574880D01*
X138826428Y-91574880D01*
X137635952Y-90574880D02*
X137445476Y-90574880D01*
X137350238Y-90622500D01*
X137255000Y-90717738D01*
X137207380Y-90908214D01*
X137207380Y-91241547D01*
X137255000Y-91432023D01*
X137350238Y-91527261D01*
X137445476Y-91574880D01*
X137635952Y-91574880D01*
X137731190Y-91527261D01*
X137826428Y-91432023D01*
X137874047Y-91241547D01*
X137874047Y-90908214D01*
X137826428Y-90717738D01*
X137731190Y-90622500D01*
X137635952Y-90574880D01*
X137016904Y-91670119D02*
X136255000Y-91670119D01*
X135683571Y-91051071D02*
X135540714Y-91098690D01*
X135493095Y-91146309D01*
X135445476Y-91241547D01*
X135445476Y-91384404D01*
X135493095Y-91479642D01*
X135540714Y-91527261D01*
X135635952Y-91574880D01*
X136016904Y-91574880D01*
X136016904Y-90574880D01*
X135683571Y-90574880D01*
X135588333Y-90622500D01*
X135540714Y-90670119D01*
X135493095Y-90765357D01*
X135493095Y-90860595D01*
X135540714Y-90955833D01*
X135588333Y-91003452D01*
X135683571Y-91051071D01*
X136016904Y-91051071D01*
X134826428Y-91098690D02*
X134826428Y-91574880D01*
X135159761Y-90574880D02*
X134826428Y-91098690D01*
X134493095Y-90574880D01*
X134159761Y-91574880D02*
X134159761Y-90574880D01*
X133778809Y-90574880D01*
X133683571Y-90622500D01*
X133635952Y-90670119D01*
X133588333Y-90765357D01*
X133588333Y-90908214D01*
X133635952Y-91003452D01*
X133683571Y-91051071D01*
X133778809Y-91098690D01*
X134159761Y-91098690D01*
X133207380Y-91289166D02*
X132731190Y-91289166D01*
X133302619Y-91574880D02*
X132969285Y-90574880D01*
X132635952Y-91574880D01*
X132350238Y-91527261D02*
X132207380Y-91574880D01*
X131969285Y-91574880D01*
X131874047Y-91527261D01*
X131826428Y-91479642D01*
X131778809Y-91384404D01*
X131778809Y-91289166D01*
X131826428Y-91193928D01*
X131874047Y-91146309D01*
X131969285Y-91098690D01*
X132159761Y-91051071D01*
X132255000Y-91003452D01*
X132302619Y-90955833D01*
X132350238Y-90860595D01*
X132350238Y-90765357D01*
X132302619Y-90670119D01*
X132255000Y-90622500D01*
X132159761Y-90574880D01*
X131921666Y-90574880D01*
X131778809Y-90622500D01*
X131397857Y-91527261D02*
X131255000Y-91574880D01*
X131016904Y-91574880D01*
X130921666Y-91527261D01*
X130874047Y-91479642D01*
X130826428Y-91384404D01*
X130826428Y-91289166D01*
X130874047Y-91193928D01*
X130921666Y-91146309D01*
X131016904Y-91098690D01*
X131207380Y-91051071D01*
X131302619Y-91003452D01*
X131350238Y-90955833D01*
X131397857Y-90860595D01*
X131397857Y-90765357D01*
X131350238Y-90670119D01*
X131302619Y-90622500D01*
X131207380Y-90574880D01*
X130969285Y-90574880D01*
X130826428Y-90622500D01*
X143708333Y-92479880D02*
X143708333Y-93194166D01*
X143755952Y-93337023D01*
X143851190Y-93432261D01*
X143994047Y-93479880D01*
X144089285Y-93479880D01*
X143232142Y-93479880D02*
X143232142Y-92479880D01*
X142851190Y-92479880D01*
X142755952Y-92527500D01*
X142708333Y-92575119D01*
X142660714Y-92670357D01*
X142660714Y-92813214D01*
X142708333Y-92908452D01*
X142755952Y-92956071D01*
X142851190Y-93003690D01*
X143232142Y-93003690D01*
X142279761Y-92575119D02*
X142232142Y-92527500D01*
X142136904Y-92479880D01*
X141898809Y-92479880D01*
X141803571Y-92527500D01*
X141755952Y-92575119D01*
X141708333Y-92670357D01*
X141708333Y-92765595D01*
X141755952Y-92908452D01*
X142327380Y-93479880D01*
X141708333Y-93479880D01*
X143470238Y-97829642D02*
X143517857Y-97877261D01*
X143660714Y-97924880D01*
X143755952Y-97924880D01*
X143898809Y-97877261D01*
X143994047Y-97782023D01*
X144041666Y-97686785D01*
X144089285Y-97496309D01*
X144089285Y-97353452D01*
X144041666Y-97162976D01*
X143994047Y-97067738D01*
X143898809Y-96972500D01*
X143755952Y-96924880D01*
X143660714Y-96924880D01*
X143517857Y-96972500D01*
X143470238Y-97020119D01*
X142565476Y-97924880D02*
X143041666Y-97924880D01*
X143041666Y-96924880D01*
X142232142Y-97924880D02*
X142232142Y-96924880D01*
X141660714Y-97924880D02*
X142089285Y-97353452D01*
X141660714Y-96924880D02*
X142232142Y-97496309D01*
X143994166Y-118879880D02*
X144327500Y-118403690D01*
X144565595Y-118879880D02*
X144565595Y-117879880D01*
X144184642Y-117879880D01*
X144089404Y-117927500D01*
X144041785Y-117975119D01*
X143994166Y-118070357D01*
X143994166Y-118213214D01*
X144041785Y-118308452D01*
X144089404Y-118356071D01*
X144184642Y-118403690D01*
X144565595Y-118403690D01*
X143613214Y-117975119D02*
X143565595Y-117927500D01*
X143470357Y-117879880D01*
X143232261Y-117879880D01*
X143137023Y-117927500D01*
X143089404Y-117975119D01*
X143041785Y-118070357D01*
X143041785Y-118165595D01*
X143089404Y-118308452D01*
X143660833Y-118879880D01*
X143041785Y-118879880D01*
X141565238Y-118879880D02*
X142136666Y-118879880D01*
X141850952Y-118879880D02*
X141850952Y-117879880D01*
X141946190Y-118022738D01*
X142041428Y-118117976D01*
X142136666Y-118165595D01*
X140946190Y-117879880D02*
X140850952Y-117879880D01*
X140755714Y-117927500D01*
X140708095Y-117975119D01*
X140660476Y-118070357D01*
X140612857Y-118260833D01*
X140612857Y-118498928D01*
X140660476Y-118689404D01*
X140708095Y-118784642D01*
X140755714Y-118832261D01*
X140850952Y-118879880D01*
X140946190Y-118879880D01*
X141041428Y-118832261D01*
X141089047Y-118784642D01*
X141136666Y-118689404D01*
X141184285Y-118498928D01*
X141184285Y-118260833D01*
X141136666Y-118070357D01*
X141089047Y-117975119D01*
X141041428Y-117927500D01*
X140946190Y-117879880D01*
X140184285Y-118879880D02*
X140184285Y-117879880D01*
X140089047Y-118498928D02*
X139803333Y-118879880D01*
X139803333Y-118213214D02*
X140184285Y-118594166D01*
X143994166Y-113164880D02*
X144327500Y-112688690D01*
X144565595Y-113164880D02*
X144565595Y-112164880D01*
X144184642Y-112164880D01*
X144089404Y-112212500D01*
X144041785Y-112260119D01*
X143994166Y-112355357D01*
X143994166Y-112498214D01*
X144041785Y-112593452D01*
X144089404Y-112641071D01*
X144184642Y-112688690D01*
X144565595Y-112688690D01*
X143660833Y-112164880D02*
X143041785Y-112164880D01*
X143375119Y-112545833D01*
X143232261Y-112545833D01*
X143137023Y-112593452D01*
X143089404Y-112641071D01*
X143041785Y-112736309D01*
X143041785Y-112974404D01*
X143089404Y-113069642D01*
X143137023Y-113117261D01*
X143232261Y-113164880D01*
X143517976Y-113164880D01*
X143613214Y-113117261D01*
X143660833Y-113069642D01*
X141247738Y-113164880D02*
X141819166Y-113164880D01*
X141533452Y-113164880D02*
X141533452Y-112164880D01*
X141628690Y-112307738D01*
X141723928Y-112402976D01*
X141819166Y-112450595D01*
X140628690Y-112164880D02*
X140533452Y-112164880D01*
X140438214Y-112212500D01*
X140390595Y-112260119D01*
X140342976Y-112355357D01*
X140295357Y-112545833D01*
X140295357Y-112783928D01*
X140342976Y-112974404D01*
X140390595Y-113069642D01*
X140438214Y-113117261D01*
X140533452Y-113164880D01*
X140628690Y-113164880D01*
X140723928Y-113117261D01*
X140771547Y-113069642D01*
X140819166Y-112974404D01*
X140866785Y-112783928D01*
X140866785Y-112545833D01*
X140819166Y-112355357D01*
X140771547Y-112260119D01*
X140723928Y-112212500D01*
X140628690Y-112164880D01*
X139866785Y-113164880D02*
X139866785Y-112164880D01*
X139771547Y-112783928D02*
X139485833Y-113164880D01*
X139485833Y-112498214D02*
X139866785Y-112879166D01*
X133834166Y-113164880D02*
X134167500Y-112688690D01*
X134405595Y-113164880D02*
X134405595Y-112164880D01*
X134024642Y-112164880D01*
X133929404Y-112212500D01*
X133881785Y-112260119D01*
X133834166Y-112355357D01*
X133834166Y-112498214D01*
X133881785Y-112593452D01*
X133929404Y-112641071D01*
X134024642Y-112688690D01*
X134405595Y-112688690D01*
X132977023Y-112498214D02*
X132977023Y-113164880D01*
X133215119Y-112117261D02*
X133453214Y-112831547D01*
X132834166Y-112831547D01*
X131405238Y-113164880D02*
X131976666Y-113164880D01*
X131690952Y-113164880D02*
X131690952Y-112164880D01*
X131786190Y-112307738D01*
X131881428Y-112402976D01*
X131976666Y-112450595D01*
X130786190Y-112164880D02*
X130690952Y-112164880D01*
X130595714Y-112212500D01*
X130548095Y-112260119D01*
X130500476Y-112355357D01*
X130452857Y-112545833D01*
X130452857Y-112783928D01*
X130500476Y-112974404D01*
X130548095Y-113069642D01*
X130595714Y-113117261D01*
X130690952Y-113164880D01*
X130786190Y-113164880D01*
X130881428Y-113117261D01*
X130929047Y-113069642D01*
X130976666Y-112974404D01*
X131024285Y-112783928D01*
X131024285Y-112545833D01*
X130976666Y-112355357D01*
X130929047Y-112260119D01*
X130881428Y-112212500D01*
X130786190Y-112164880D01*
X130024285Y-113164880D02*
X130024285Y-112164880D01*
X129929047Y-112783928D02*
X129643333Y-113164880D01*
X129643333Y-112498214D02*
X130024285Y-112879166D01*
X133834166Y-118879880D02*
X134167500Y-118403690D01*
X134405595Y-118879880D02*
X134405595Y-117879880D01*
X134024642Y-117879880D01*
X133929404Y-117927500D01*
X133881785Y-117975119D01*
X133834166Y-118070357D01*
X133834166Y-118213214D01*
X133881785Y-118308452D01*
X133929404Y-118356071D01*
X134024642Y-118403690D01*
X134405595Y-118403690D01*
X132929404Y-117879880D02*
X133405595Y-117879880D01*
X133453214Y-118356071D01*
X133405595Y-118308452D01*
X133310357Y-118260833D01*
X133072261Y-118260833D01*
X132977023Y-118308452D01*
X132929404Y-118356071D01*
X132881785Y-118451309D01*
X132881785Y-118689404D01*
X132929404Y-118784642D01*
X132977023Y-118832261D01*
X133072261Y-118879880D01*
X133310357Y-118879880D01*
X133405595Y-118832261D01*
X133453214Y-118784642D01*
X131405238Y-118879880D02*
X131976666Y-118879880D01*
X131690952Y-118879880D02*
X131690952Y-117879880D01*
X131786190Y-118022738D01*
X131881428Y-118117976D01*
X131976666Y-118165595D01*
X130786190Y-117879880D02*
X130690952Y-117879880D01*
X130595714Y-117927500D01*
X130548095Y-117975119D01*
X130500476Y-118070357D01*
X130452857Y-118260833D01*
X130452857Y-118498928D01*
X130500476Y-118689404D01*
X130548095Y-118784642D01*
X130595714Y-118832261D01*
X130690952Y-118879880D01*
X130786190Y-118879880D01*
X130881428Y-118832261D01*
X130929047Y-118784642D01*
X130976666Y-118689404D01*
X131024285Y-118498928D01*
X131024285Y-118260833D01*
X130976666Y-118070357D01*
X130929047Y-117975119D01*
X130881428Y-117927500D01*
X130786190Y-117879880D01*
X130024285Y-118879880D02*
X130024285Y-117879880D01*
X129929047Y-118498928D02*
X129643333Y-118879880D01*
X129643333Y-118213214D02*
X130024285Y-118594166D01*
X143914880Y-77660595D02*
X144724404Y-77660595D01*
X144819642Y-77708214D01*
X144867261Y-77755833D01*
X144914880Y-77851071D01*
X144914880Y-78041547D01*
X144867261Y-78136785D01*
X144819642Y-78184404D01*
X144724404Y-78232023D01*
X143914880Y-78232023D01*
X144010119Y-78660595D02*
X143962500Y-78708214D01*
X143914880Y-78803452D01*
X143914880Y-79041547D01*
X143962500Y-79136785D01*
X144010119Y-79184404D01*
X144105357Y-79232023D01*
X144200595Y-79232023D01*
X144343452Y-79184404D01*
X144914880Y-78612976D01*
X144914880Y-79232023D01*
X143914880Y-80193214D02*
X143914880Y-80764642D01*
X144914880Y-80478928D02*
X143914880Y-80478928D01*
X144914880Y-81097976D02*
X143914880Y-81097976D01*
X143914880Y-81478928D01*
X143962500Y-81574166D01*
X144010119Y-81621785D01*
X144105357Y-81669404D01*
X144248214Y-81669404D01*
X144343452Y-81621785D01*
X144391071Y-81574166D01*
X144438690Y-81478928D01*
X144438690Y-81097976D01*
X144867261Y-82050357D02*
X144914880Y-82193214D01*
X144914880Y-82431309D01*
X144867261Y-82526547D01*
X144819642Y-82574166D01*
X144724404Y-82621785D01*
X144629166Y-82621785D01*
X144533928Y-82574166D01*
X144486309Y-82526547D01*
X144438690Y-82431309D01*
X144391071Y-82240833D01*
X144343452Y-82145595D01*
X144295833Y-82097976D01*
X144200595Y-82050357D01*
X144105357Y-82050357D01*
X144010119Y-82097976D01*
X143962500Y-82145595D01*
X143914880Y-82240833D01*
X143914880Y-82478928D01*
X143962500Y-82621785D01*
X143914880Y-82955119D02*
X143914880Y-83621785D01*
X144914880Y-83193214D01*
X144914880Y-84050357D02*
X144914880Y-84240833D01*
X144867261Y-84336071D01*
X144819642Y-84383690D01*
X144676785Y-84478928D01*
X144486309Y-84526547D01*
X144105357Y-84526547D01*
X144010119Y-84478928D01*
X143962500Y-84431309D01*
X143914880Y-84336071D01*
X143914880Y-84145595D01*
X143962500Y-84050357D01*
X144010119Y-84002738D01*
X144105357Y-83955119D01*
X144343452Y-83955119D01*
X144438690Y-84002738D01*
X144486309Y-84050357D01*
X144533928Y-84145595D01*
X144533928Y-84336071D01*
X144486309Y-84431309D01*
X144438690Y-84478928D01*
X144343452Y-84526547D01*
X143914880Y-84859880D02*
X143914880Y-85478928D01*
X144295833Y-85145595D01*
X144295833Y-85288452D01*
X144343452Y-85383690D01*
X144391071Y-85431309D01*
X144486309Y-85478928D01*
X144724404Y-85478928D01*
X144819642Y-85431309D01*
X144867261Y-85383690D01*
X144914880Y-85288452D01*
X144914880Y-85002738D01*
X144867261Y-84907500D01*
X144819642Y-84859880D01*
X143914880Y-85812261D02*
X143914880Y-86431309D01*
X144295833Y-86097976D01*
X144295833Y-86240833D01*
X144343452Y-86336071D01*
X144391071Y-86383690D01*
X144486309Y-86431309D01*
X144724404Y-86431309D01*
X144819642Y-86383690D01*
X144867261Y-86336071D01*
X144914880Y-86240833D01*
X144914880Y-85955119D01*
X144867261Y-85859880D01*
X144819642Y-85812261D01*
X143914880Y-86764642D02*
X143914880Y-87383690D01*
X144295833Y-87050357D01*
X144295833Y-87193214D01*
X144343452Y-87288452D01*
X144391071Y-87336071D01*
X144486309Y-87383690D01*
X144724404Y-87383690D01*
X144819642Y-87336071D01*
X144867261Y-87288452D01*
X144914880Y-87193214D01*
X144914880Y-86907500D01*
X144867261Y-86812261D01*
X144819642Y-86764642D01*
X144533928Y-87812261D02*
X144533928Y-88574166D01*
X144391071Y-89050357D02*
X144391071Y-89383690D01*
X144914880Y-89526547D02*
X144914880Y-89050357D01*
X143914880Y-89050357D01*
X143914880Y-89526547D01*
X144914880Y-89955119D02*
X143914880Y-89955119D01*
X143914880Y-90336071D01*
X143962500Y-90431309D01*
X144010119Y-90478928D01*
X144105357Y-90526547D01*
X144248214Y-90526547D01*
X144343452Y-90478928D01*
X144391071Y-90431309D01*
X144438690Y-90336071D01*
X144438690Y-89955119D01*
M02*
