G04 #@! TF.GenerationSoftware,KiCad,Pcbnew,(5.1.0)-1*
G04 #@! TF.CreationDate,2020-08-07T11:47:51-07:00*
G04 #@! TF.ProjectId,MAX7_Proto,4d415837-5f50-4726-9f74-6f2e6b696361,rev?*
G04 #@! TF.SameCoordinates,Original*
G04 #@! TF.FileFunction,Soldermask,Top*
G04 #@! TF.FilePolarity,Negative*
%FSLAX46Y46*%
G04 Gerber Fmt 4.6, Leading zero omitted, Abs format (unit mm)*
G04 Created by KiCad (PCBNEW (5.1.0)-1) date 2020-08-07 11:47:51*
%MOMM*%
%LPD*%
G04 APERTURE LIST*
%ADD10C,0.100000*%
G04 APERTURE END LIST*
D10*
G36*
X138609294Y-126098633D02*
G01*
X138781695Y-126150931D01*
X138940583Y-126235858D01*
X139079849Y-126350151D01*
X139194142Y-126489417D01*
X139279069Y-126648305D01*
X139331367Y-126820706D01*
X139349025Y-127000000D01*
X139331367Y-127179294D01*
X139279069Y-127351695D01*
X139194142Y-127510583D01*
X139079849Y-127649849D01*
X138940583Y-127764142D01*
X138781695Y-127849069D01*
X138609294Y-127901367D01*
X138474931Y-127914600D01*
X138385069Y-127914600D01*
X138250706Y-127901367D01*
X138078305Y-127849069D01*
X137919417Y-127764142D01*
X137780151Y-127649849D01*
X137665858Y-127510583D01*
X137580931Y-127351695D01*
X137528633Y-127179294D01*
X137510975Y-127000000D01*
X137528633Y-126820706D01*
X137580931Y-126648305D01*
X137665858Y-126489417D01*
X137780151Y-126350151D01*
X137919417Y-126235858D01*
X138078305Y-126150931D01*
X138250706Y-126098633D01*
X138385069Y-126085400D01*
X138474931Y-126085400D01*
X138609294Y-126098633D01*
X138609294Y-126098633D01*
G37*
G36*
X136069294Y-126098633D02*
G01*
X136241695Y-126150931D01*
X136400583Y-126235858D01*
X136539849Y-126350151D01*
X136654142Y-126489417D01*
X136739069Y-126648305D01*
X136791367Y-126820706D01*
X136809025Y-127000000D01*
X136791367Y-127179294D01*
X136739069Y-127351695D01*
X136654142Y-127510583D01*
X136539849Y-127649849D01*
X136400583Y-127764142D01*
X136241695Y-127849069D01*
X136069294Y-127901367D01*
X135934931Y-127914600D01*
X135845069Y-127914600D01*
X135710706Y-127901367D01*
X135538305Y-127849069D01*
X135379417Y-127764142D01*
X135240151Y-127649849D01*
X135125858Y-127510583D01*
X135040931Y-127351695D01*
X134988633Y-127179294D01*
X134970975Y-127000000D01*
X134988633Y-126820706D01*
X135040931Y-126648305D01*
X135125858Y-126489417D01*
X135240151Y-126350151D01*
X135379417Y-126235858D01*
X135538305Y-126150931D01*
X135710706Y-126098633D01*
X135845069Y-126085400D01*
X135934931Y-126085400D01*
X136069294Y-126098633D01*
X136069294Y-126098633D01*
G37*
G36*
X128380443Y-124835519D02*
G01*
X128446627Y-124842037D01*
X128616466Y-124893557D01*
X128772991Y-124977222D01*
X128808729Y-125006552D01*
X128910186Y-125089814D01*
X128993448Y-125191271D01*
X129022778Y-125227009D01*
X129106443Y-125383534D01*
X129157963Y-125553373D01*
X129175359Y-125730000D01*
X129157963Y-125906627D01*
X129106443Y-126076466D01*
X129022778Y-126232991D01*
X129020425Y-126235858D01*
X128910186Y-126370186D01*
X128808729Y-126453448D01*
X128772991Y-126482778D01*
X128616466Y-126566443D01*
X128446627Y-126617963D01*
X128380442Y-126624482D01*
X128314260Y-126631000D01*
X128225740Y-126631000D01*
X128159558Y-126624482D01*
X128093373Y-126617963D01*
X127923534Y-126566443D01*
X127767009Y-126482778D01*
X127731271Y-126453448D01*
X127629814Y-126370186D01*
X127519575Y-126235858D01*
X127517222Y-126232991D01*
X127433557Y-126076466D01*
X127382037Y-125906627D01*
X127364641Y-125730000D01*
X127382037Y-125553373D01*
X127433557Y-125383534D01*
X127517222Y-125227009D01*
X127546552Y-125191271D01*
X127629814Y-125089814D01*
X127731271Y-125006552D01*
X127767009Y-124977222D01*
X127923534Y-124893557D01*
X128093373Y-124842037D01*
X128159557Y-124835519D01*
X128225740Y-124829000D01*
X128314260Y-124829000D01*
X128380443Y-124835519D01*
X128380443Y-124835519D01*
G37*
G36*
X146160443Y-124835519D02*
G01*
X146226627Y-124842037D01*
X146396466Y-124893557D01*
X146552991Y-124977222D01*
X146588729Y-125006552D01*
X146690186Y-125089814D01*
X146773448Y-125191271D01*
X146802778Y-125227009D01*
X146886443Y-125383534D01*
X146937963Y-125553373D01*
X146955359Y-125730000D01*
X146937963Y-125906627D01*
X146886443Y-126076466D01*
X146802778Y-126232991D01*
X146800425Y-126235858D01*
X146690186Y-126370186D01*
X146588729Y-126453448D01*
X146552991Y-126482778D01*
X146396466Y-126566443D01*
X146226627Y-126617963D01*
X146160442Y-126624482D01*
X146094260Y-126631000D01*
X146005740Y-126631000D01*
X145939558Y-126624482D01*
X145873373Y-126617963D01*
X145703534Y-126566443D01*
X145547009Y-126482778D01*
X145511271Y-126453448D01*
X145409814Y-126370186D01*
X145299575Y-126235858D01*
X145297222Y-126232991D01*
X145213557Y-126076466D01*
X145162037Y-125906627D01*
X145144641Y-125730000D01*
X145162037Y-125553373D01*
X145213557Y-125383534D01*
X145297222Y-125227009D01*
X145326552Y-125191271D01*
X145409814Y-125089814D01*
X145511271Y-125006552D01*
X145547009Y-124977222D01*
X145703534Y-124893557D01*
X145873373Y-124842037D01*
X145939557Y-124835519D01*
X146005740Y-124829000D01*
X146094260Y-124829000D01*
X146160443Y-124835519D01*
X146160443Y-124835519D01*
G37*
G36*
X138609294Y-123558633D02*
G01*
X138781695Y-123610931D01*
X138940583Y-123695858D01*
X139079849Y-123810151D01*
X139194142Y-123949417D01*
X139279069Y-124108305D01*
X139331367Y-124280706D01*
X139349025Y-124460000D01*
X139331367Y-124639294D01*
X139279069Y-124811695D01*
X139194142Y-124970583D01*
X139079849Y-125109849D01*
X138940583Y-125224142D01*
X138781695Y-125309069D01*
X138609294Y-125361367D01*
X138474931Y-125374600D01*
X138385069Y-125374600D01*
X138250706Y-125361367D01*
X138078305Y-125309069D01*
X137919417Y-125224142D01*
X137780151Y-125109849D01*
X137665858Y-124970583D01*
X137580931Y-124811695D01*
X137528633Y-124639294D01*
X137510975Y-124460000D01*
X137528633Y-124280706D01*
X137580931Y-124108305D01*
X137665858Y-123949417D01*
X137780151Y-123810151D01*
X137919417Y-123695858D01*
X138078305Y-123610931D01*
X138250706Y-123558633D01*
X138385069Y-123545400D01*
X138474931Y-123545400D01*
X138609294Y-123558633D01*
X138609294Y-123558633D01*
G37*
G36*
X136069294Y-123558633D02*
G01*
X136241695Y-123610931D01*
X136400583Y-123695858D01*
X136539849Y-123810151D01*
X136654142Y-123949417D01*
X136739069Y-124108305D01*
X136791367Y-124280706D01*
X136809025Y-124460000D01*
X136791367Y-124639294D01*
X136739069Y-124811695D01*
X136654142Y-124970583D01*
X136539849Y-125109849D01*
X136400583Y-125224142D01*
X136241695Y-125309069D01*
X136069294Y-125361367D01*
X135934931Y-125374600D01*
X135845069Y-125374600D01*
X135710706Y-125361367D01*
X135538305Y-125309069D01*
X135379417Y-125224142D01*
X135240151Y-125109849D01*
X135125858Y-124970583D01*
X135040931Y-124811695D01*
X134988633Y-124639294D01*
X134970975Y-124460000D01*
X134988633Y-124280706D01*
X135040931Y-124108305D01*
X135125858Y-123949417D01*
X135240151Y-123810151D01*
X135379417Y-123695858D01*
X135538305Y-123610931D01*
X135710706Y-123558633D01*
X135845069Y-123545400D01*
X135934931Y-123545400D01*
X136069294Y-123558633D01*
X136069294Y-123558633D01*
G37*
G36*
X146160443Y-122295519D02*
G01*
X146226627Y-122302037D01*
X146396466Y-122353557D01*
X146552991Y-122437222D01*
X146588729Y-122466552D01*
X146690186Y-122549814D01*
X146773448Y-122651271D01*
X146802778Y-122687009D01*
X146886443Y-122843534D01*
X146937963Y-123013373D01*
X146955359Y-123190000D01*
X146937963Y-123366627D01*
X146886443Y-123536466D01*
X146802778Y-123692991D01*
X146800425Y-123695858D01*
X146690186Y-123830186D01*
X146588729Y-123913448D01*
X146552991Y-123942778D01*
X146396466Y-124026443D01*
X146226627Y-124077963D01*
X146160442Y-124084482D01*
X146094260Y-124091000D01*
X146005740Y-124091000D01*
X145939558Y-124084482D01*
X145873373Y-124077963D01*
X145703534Y-124026443D01*
X145547009Y-123942778D01*
X145511271Y-123913448D01*
X145409814Y-123830186D01*
X145299575Y-123695858D01*
X145297222Y-123692991D01*
X145213557Y-123536466D01*
X145162037Y-123366627D01*
X145144641Y-123190000D01*
X145162037Y-123013373D01*
X145213557Y-122843534D01*
X145297222Y-122687009D01*
X145326552Y-122651271D01*
X145409814Y-122549814D01*
X145511271Y-122466552D01*
X145547009Y-122437222D01*
X145703534Y-122353557D01*
X145873373Y-122302037D01*
X145939557Y-122295519D01*
X146005740Y-122289000D01*
X146094260Y-122289000D01*
X146160443Y-122295519D01*
X146160443Y-122295519D01*
G37*
G36*
X128380443Y-122295519D02*
G01*
X128446627Y-122302037D01*
X128616466Y-122353557D01*
X128772991Y-122437222D01*
X128808729Y-122466552D01*
X128910186Y-122549814D01*
X128993448Y-122651271D01*
X129022778Y-122687009D01*
X129106443Y-122843534D01*
X129157963Y-123013373D01*
X129175359Y-123190000D01*
X129157963Y-123366627D01*
X129106443Y-123536466D01*
X129022778Y-123692991D01*
X129020425Y-123695858D01*
X128910186Y-123830186D01*
X128808729Y-123913448D01*
X128772991Y-123942778D01*
X128616466Y-124026443D01*
X128446627Y-124077963D01*
X128380442Y-124084482D01*
X128314260Y-124091000D01*
X128225740Y-124091000D01*
X128159558Y-124084482D01*
X128093373Y-124077963D01*
X127923534Y-124026443D01*
X127767009Y-123942778D01*
X127731271Y-123913448D01*
X127629814Y-123830186D01*
X127519575Y-123695858D01*
X127517222Y-123692991D01*
X127433557Y-123536466D01*
X127382037Y-123366627D01*
X127364641Y-123190000D01*
X127382037Y-123013373D01*
X127433557Y-122843534D01*
X127517222Y-122687009D01*
X127546552Y-122651271D01*
X127629814Y-122549814D01*
X127731271Y-122466552D01*
X127767009Y-122437222D01*
X127923534Y-122353557D01*
X128093373Y-122302037D01*
X128159557Y-122295519D01*
X128225740Y-122289000D01*
X128314260Y-122289000D01*
X128380443Y-122295519D01*
X128380443Y-122295519D01*
G37*
G36*
X138609294Y-121018633D02*
G01*
X138781695Y-121070931D01*
X138940583Y-121155858D01*
X139079849Y-121270151D01*
X139194142Y-121409417D01*
X139279069Y-121568305D01*
X139331367Y-121740706D01*
X139349025Y-121920000D01*
X139331367Y-122099294D01*
X139279069Y-122271695D01*
X139194142Y-122430583D01*
X139079849Y-122569849D01*
X138940583Y-122684142D01*
X138781695Y-122769069D01*
X138609294Y-122821367D01*
X138474931Y-122834600D01*
X138385069Y-122834600D01*
X138250706Y-122821367D01*
X138078305Y-122769069D01*
X137919417Y-122684142D01*
X137780151Y-122569849D01*
X137665858Y-122430583D01*
X137580931Y-122271695D01*
X137528633Y-122099294D01*
X137510975Y-121920000D01*
X137528633Y-121740706D01*
X137580931Y-121568305D01*
X137665858Y-121409417D01*
X137780151Y-121270151D01*
X137919417Y-121155858D01*
X138078305Y-121070931D01*
X138250706Y-121018633D01*
X138385069Y-121005400D01*
X138474931Y-121005400D01*
X138609294Y-121018633D01*
X138609294Y-121018633D01*
G37*
G36*
X136069294Y-121018633D02*
G01*
X136241695Y-121070931D01*
X136400583Y-121155858D01*
X136539849Y-121270151D01*
X136654142Y-121409417D01*
X136739069Y-121568305D01*
X136791367Y-121740706D01*
X136809025Y-121920000D01*
X136791367Y-122099294D01*
X136739069Y-122271695D01*
X136654142Y-122430583D01*
X136539849Y-122569849D01*
X136400583Y-122684142D01*
X136241695Y-122769069D01*
X136069294Y-122821367D01*
X135934931Y-122834600D01*
X135845069Y-122834600D01*
X135710706Y-122821367D01*
X135538305Y-122769069D01*
X135379417Y-122684142D01*
X135240151Y-122569849D01*
X135125858Y-122430583D01*
X135040931Y-122271695D01*
X134988633Y-122099294D01*
X134970975Y-121920000D01*
X134988633Y-121740706D01*
X135040931Y-121568305D01*
X135125858Y-121409417D01*
X135240151Y-121270151D01*
X135379417Y-121155858D01*
X135538305Y-121070931D01*
X135710706Y-121018633D01*
X135845069Y-121005400D01*
X135934931Y-121005400D01*
X136069294Y-121018633D01*
X136069294Y-121018633D01*
G37*
G36*
X128380442Y-119755518D02*
G01*
X128446627Y-119762037D01*
X128616466Y-119813557D01*
X128772991Y-119897222D01*
X128808729Y-119926552D01*
X128910186Y-120009814D01*
X128993448Y-120111271D01*
X129022778Y-120147009D01*
X129106443Y-120303534D01*
X129157963Y-120473373D01*
X129175359Y-120650000D01*
X129157963Y-120826627D01*
X129106443Y-120996466D01*
X129022778Y-121152991D01*
X129020425Y-121155858D01*
X128910186Y-121290186D01*
X128808729Y-121373448D01*
X128772991Y-121402778D01*
X128616466Y-121486443D01*
X128446627Y-121537963D01*
X128380443Y-121544481D01*
X128314260Y-121551000D01*
X128225740Y-121551000D01*
X128159557Y-121544481D01*
X128093373Y-121537963D01*
X127923534Y-121486443D01*
X127767009Y-121402778D01*
X127731271Y-121373448D01*
X127629814Y-121290186D01*
X127519575Y-121155858D01*
X127517222Y-121152991D01*
X127433557Y-120996466D01*
X127382037Y-120826627D01*
X127364641Y-120650000D01*
X127382037Y-120473373D01*
X127433557Y-120303534D01*
X127517222Y-120147009D01*
X127546552Y-120111271D01*
X127629814Y-120009814D01*
X127731271Y-119926552D01*
X127767009Y-119897222D01*
X127923534Y-119813557D01*
X128093373Y-119762037D01*
X128159558Y-119755518D01*
X128225740Y-119749000D01*
X128314260Y-119749000D01*
X128380442Y-119755518D01*
X128380442Y-119755518D01*
G37*
G36*
X146160442Y-119755518D02*
G01*
X146226627Y-119762037D01*
X146396466Y-119813557D01*
X146552991Y-119897222D01*
X146588729Y-119926552D01*
X146690186Y-120009814D01*
X146773448Y-120111271D01*
X146802778Y-120147009D01*
X146886443Y-120303534D01*
X146937963Y-120473373D01*
X146955359Y-120650000D01*
X146937963Y-120826627D01*
X146886443Y-120996466D01*
X146802778Y-121152991D01*
X146800425Y-121155858D01*
X146690186Y-121290186D01*
X146588729Y-121373448D01*
X146552991Y-121402778D01*
X146396466Y-121486443D01*
X146226627Y-121537963D01*
X146160443Y-121544481D01*
X146094260Y-121551000D01*
X146005740Y-121551000D01*
X145939557Y-121544481D01*
X145873373Y-121537963D01*
X145703534Y-121486443D01*
X145547009Y-121402778D01*
X145511271Y-121373448D01*
X145409814Y-121290186D01*
X145299575Y-121155858D01*
X145297222Y-121152991D01*
X145213557Y-120996466D01*
X145162037Y-120826627D01*
X145144641Y-120650000D01*
X145162037Y-120473373D01*
X145213557Y-120303534D01*
X145297222Y-120147009D01*
X145326552Y-120111271D01*
X145409814Y-120009814D01*
X145511271Y-119926552D01*
X145547009Y-119897222D01*
X145703534Y-119813557D01*
X145873373Y-119762037D01*
X145939558Y-119755518D01*
X146005740Y-119749000D01*
X146094260Y-119749000D01*
X146160442Y-119755518D01*
X146160442Y-119755518D01*
G37*
G36*
X138609294Y-118478633D02*
G01*
X138781695Y-118530931D01*
X138940583Y-118615858D01*
X139079849Y-118730151D01*
X139194142Y-118869417D01*
X139279069Y-119028305D01*
X139331367Y-119200706D01*
X139349025Y-119380000D01*
X139331367Y-119559294D01*
X139279069Y-119731695D01*
X139194142Y-119890583D01*
X139079849Y-120029849D01*
X138940583Y-120144142D01*
X138781695Y-120229069D01*
X138609294Y-120281367D01*
X138474931Y-120294600D01*
X138385069Y-120294600D01*
X138250706Y-120281367D01*
X138078305Y-120229069D01*
X137919417Y-120144142D01*
X137780151Y-120029849D01*
X137665858Y-119890583D01*
X137580931Y-119731695D01*
X137528633Y-119559294D01*
X137510975Y-119380000D01*
X137528633Y-119200706D01*
X137580931Y-119028305D01*
X137665858Y-118869417D01*
X137780151Y-118730151D01*
X137919417Y-118615858D01*
X138078305Y-118530931D01*
X138250706Y-118478633D01*
X138385069Y-118465400D01*
X138474931Y-118465400D01*
X138609294Y-118478633D01*
X138609294Y-118478633D01*
G37*
G36*
X136069294Y-118478633D02*
G01*
X136241695Y-118530931D01*
X136400583Y-118615858D01*
X136539849Y-118730151D01*
X136654142Y-118869417D01*
X136739069Y-119028305D01*
X136791367Y-119200706D01*
X136809025Y-119380000D01*
X136791367Y-119559294D01*
X136739069Y-119731695D01*
X136654142Y-119890583D01*
X136539849Y-120029849D01*
X136400583Y-120144142D01*
X136241695Y-120229069D01*
X136069294Y-120281367D01*
X135934931Y-120294600D01*
X135845069Y-120294600D01*
X135710706Y-120281367D01*
X135538305Y-120229069D01*
X135379417Y-120144142D01*
X135240151Y-120029849D01*
X135125858Y-119890583D01*
X135040931Y-119731695D01*
X134988633Y-119559294D01*
X134970975Y-119380000D01*
X134988633Y-119200706D01*
X135040931Y-119028305D01*
X135125858Y-118869417D01*
X135240151Y-118730151D01*
X135379417Y-118615858D01*
X135538305Y-118530931D01*
X135710706Y-118478633D01*
X135845069Y-118465400D01*
X135934931Y-118465400D01*
X136069294Y-118478633D01*
X136069294Y-118478633D01*
G37*
G36*
X128380443Y-117215519D02*
G01*
X128446627Y-117222037D01*
X128616466Y-117273557D01*
X128772991Y-117357222D01*
X128808729Y-117386552D01*
X128910186Y-117469814D01*
X128993448Y-117571271D01*
X129022778Y-117607009D01*
X129106443Y-117763534D01*
X129157963Y-117933373D01*
X129175359Y-118110000D01*
X129157963Y-118286627D01*
X129106443Y-118456466D01*
X129022778Y-118612991D01*
X129020425Y-118615858D01*
X128910186Y-118750186D01*
X128808729Y-118833448D01*
X128772991Y-118862778D01*
X128616466Y-118946443D01*
X128446627Y-118997963D01*
X128380443Y-119004481D01*
X128314260Y-119011000D01*
X128225740Y-119011000D01*
X128159557Y-119004481D01*
X128093373Y-118997963D01*
X127923534Y-118946443D01*
X127767009Y-118862778D01*
X127731271Y-118833448D01*
X127629814Y-118750186D01*
X127519575Y-118615858D01*
X127517222Y-118612991D01*
X127433557Y-118456466D01*
X127382037Y-118286627D01*
X127364641Y-118110000D01*
X127382037Y-117933373D01*
X127433557Y-117763534D01*
X127517222Y-117607009D01*
X127546552Y-117571271D01*
X127629814Y-117469814D01*
X127731271Y-117386552D01*
X127767009Y-117357222D01*
X127923534Y-117273557D01*
X128093373Y-117222037D01*
X128159557Y-117215519D01*
X128225740Y-117209000D01*
X128314260Y-117209000D01*
X128380443Y-117215519D01*
X128380443Y-117215519D01*
G37*
G36*
X146160443Y-117215519D02*
G01*
X146226627Y-117222037D01*
X146396466Y-117273557D01*
X146552991Y-117357222D01*
X146588729Y-117386552D01*
X146690186Y-117469814D01*
X146773448Y-117571271D01*
X146802778Y-117607009D01*
X146886443Y-117763534D01*
X146937963Y-117933373D01*
X146955359Y-118110000D01*
X146937963Y-118286627D01*
X146886443Y-118456466D01*
X146802778Y-118612991D01*
X146800425Y-118615858D01*
X146690186Y-118750186D01*
X146588729Y-118833448D01*
X146552991Y-118862778D01*
X146396466Y-118946443D01*
X146226627Y-118997963D01*
X146160443Y-119004481D01*
X146094260Y-119011000D01*
X146005740Y-119011000D01*
X145939557Y-119004481D01*
X145873373Y-118997963D01*
X145703534Y-118946443D01*
X145547009Y-118862778D01*
X145511271Y-118833448D01*
X145409814Y-118750186D01*
X145299575Y-118615858D01*
X145297222Y-118612991D01*
X145213557Y-118456466D01*
X145162037Y-118286627D01*
X145144641Y-118110000D01*
X145162037Y-117933373D01*
X145213557Y-117763534D01*
X145297222Y-117607009D01*
X145326552Y-117571271D01*
X145409814Y-117469814D01*
X145511271Y-117386552D01*
X145547009Y-117357222D01*
X145703534Y-117273557D01*
X145873373Y-117222037D01*
X145939557Y-117215519D01*
X146005740Y-117209000D01*
X146094260Y-117209000D01*
X146160443Y-117215519D01*
X146160443Y-117215519D01*
G37*
G36*
X138609294Y-115938633D02*
G01*
X138781695Y-115990931D01*
X138940583Y-116075858D01*
X139079849Y-116190151D01*
X139194142Y-116329417D01*
X139279069Y-116488305D01*
X139331367Y-116660706D01*
X139349025Y-116840000D01*
X139331367Y-117019294D01*
X139279069Y-117191695D01*
X139194142Y-117350583D01*
X139079849Y-117489849D01*
X138940583Y-117604142D01*
X138781695Y-117689069D01*
X138609294Y-117741367D01*
X138474931Y-117754600D01*
X138385069Y-117754600D01*
X138250706Y-117741367D01*
X138078305Y-117689069D01*
X137919417Y-117604142D01*
X137780151Y-117489849D01*
X137665858Y-117350583D01*
X137580931Y-117191695D01*
X137528633Y-117019294D01*
X137510975Y-116840000D01*
X137528633Y-116660706D01*
X137580931Y-116488305D01*
X137665858Y-116329417D01*
X137780151Y-116190151D01*
X137919417Y-116075858D01*
X138078305Y-115990931D01*
X138250706Y-115938633D01*
X138385069Y-115925400D01*
X138474931Y-115925400D01*
X138609294Y-115938633D01*
X138609294Y-115938633D01*
G37*
G36*
X136804600Y-117754600D02*
G01*
X134975400Y-117754600D01*
X134975400Y-115925400D01*
X136804600Y-115925400D01*
X136804600Y-117754600D01*
X136804600Y-117754600D01*
G37*
G36*
X146160443Y-114675519D02*
G01*
X146226627Y-114682037D01*
X146396466Y-114733557D01*
X146552991Y-114817222D01*
X146588729Y-114846552D01*
X146690186Y-114929814D01*
X146773448Y-115031271D01*
X146802778Y-115067009D01*
X146886443Y-115223534D01*
X146937963Y-115393373D01*
X146955359Y-115570000D01*
X146937963Y-115746627D01*
X146886443Y-115916466D01*
X146802778Y-116072991D01*
X146800425Y-116075858D01*
X146690186Y-116210186D01*
X146588729Y-116293448D01*
X146552991Y-116322778D01*
X146396466Y-116406443D01*
X146226627Y-116457963D01*
X146160442Y-116464482D01*
X146094260Y-116471000D01*
X146005740Y-116471000D01*
X145939558Y-116464482D01*
X145873373Y-116457963D01*
X145703534Y-116406443D01*
X145547009Y-116322778D01*
X145511271Y-116293448D01*
X145409814Y-116210186D01*
X145299575Y-116075858D01*
X145297222Y-116072991D01*
X145213557Y-115916466D01*
X145162037Y-115746627D01*
X145144641Y-115570000D01*
X145162037Y-115393373D01*
X145213557Y-115223534D01*
X145297222Y-115067009D01*
X145326552Y-115031271D01*
X145409814Y-114929814D01*
X145511271Y-114846552D01*
X145547009Y-114817222D01*
X145703534Y-114733557D01*
X145873373Y-114682037D01*
X145939557Y-114675519D01*
X146005740Y-114669000D01*
X146094260Y-114669000D01*
X146160443Y-114675519D01*
X146160443Y-114675519D01*
G37*
G36*
X128380443Y-114675519D02*
G01*
X128446627Y-114682037D01*
X128616466Y-114733557D01*
X128772991Y-114817222D01*
X128808729Y-114846552D01*
X128910186Y-114929814D01*
X128993448Y-115031271D01*
X129022778Y-115067009D01*
X129106443Y-115223534D01*
X129157963Y-115393373D01*
X129175359Y-115570000D01*
X129157963Y-115746627D01*
X129106443Y-115916466D01*
X129022778Y-116072991D01*
X129020425Y-116075858D01*
X128910186Y-116210186D01*
X128808729Y-116293448D01*
X128772991Y-116322778D01*
X128616466Y-116406443D01*
X128446627Y-116457963D01*
X128380442Y-116464482D01*
X128314260Y-116471000D01*
X128225740Y-116471000D01*
X128159558Y-116464482D01*
X128093373Y-116457963D01*
X127923534Y-116406443D01*
X127767009Y-116322778D01*
X127731271Y-116293448D01*
X127629814Y-116210186D01*
X127519575Y-116075858D01*
X127517222Y-116072991D01*
X127433557Y-115916466D01*
X127382037Y-115746627D01*
X127364641Y-115570000D01*
X127382037Y-115393373D01*
X127433557Y-115223534D01*
X127517222Y-115067009D01*
X127546552Y-115031271D01*
X127629814Y-114929814D01*
X127731271Y-114846552D01*
X127767009Y-114817222D01*
X127923534Y-114733557D01*
X128093373Y-114682037D01*
X128159557Y-114675519D01*
X128225740Y-114669000D01*
X128314260Y-114669000D01*
X128380443Y-114675519D01*
X128380443Y-114675519D01*
G37*
G36*
X146160443Y-112135519D02*
G01*
X146226627Y-112142037D01*
X146396466Y-112193557D01*
X146552991Y-112277222D01*
X146588729Y-112306552D01*
X146690186Y-112389814D01*
X146773448Y-112491271D01*
X146802778Y-112527009D01*
X146886443Y-112683534D01*
X146937963Y-112853373D01*
X146955359Y-113030000D01*
X146937963Y-113206627D01*
X146886443Y-113376466D01*
X146802778Y-113532991D01*
X146773448Y-113568729D01*
X146690186Y-113670186D01*
X146588729Y-113753448D01*
X146552991Y-113782778D01*
X146396466Y-113866443D01*
X146226627Y-113917963D01*
X146160443Y-113924481D01*
X146094260Y-113931000D01*
X146005740Y-113931000D01*
X145939557Y-113924481D01*
X145873373Y-113917963D01*
X145703534Y-113866443D01*
X145547009Y-113782778D01*
X145511271Y-113753448D01*
X145409814Y-113670186D01*
X145326552Y-113568729D01*
X145297222Y-113532991D01*
X145213557Y-113376466D01*
X145162037Y-113206627D01*
X145144641Y-113030000D01*
X145162037Y-112853373D01*
X145213557Y-112683534D01*
X145297222Y-112527009D01*
X145326552Y-112491271D01*
X145409814Y-112389814D01*
X145511271Y-112306552D01*
X145547009Y-112277222D01*
X145703534Y-112193557D01*
X145873373Y-112142037D01*
X145939557Y-112135519D01*
X146005740Y-112129000D01*
X146094260Y-112129000D01*
X146160443Y-112135519D01*
X146160443Y-112135519D01*
G37*
G36*
X128380443Y-112135519D02*
G01*
X128446627Y-112142037D01*
X128616466Y-112193557D01*
X128772991Y-112277222D01*
X128808729Y-112306552D01*
X128910186Y-112389814D01*
X128993448Y-112491271D01*
X129022778Y-112527009D01*
X129106443Y-112683534D01*
X129157963Y-112853373D01*
X129175359Y-113030000D01*
X129157963Y-113206627D01*
X129106443Y-113376466D01*
X129022778Y-113532991D01*
X128993448Y-113568729D01*
X128910186Y-113670186D01*
X128808729Y-113753448D01*
X128772991Y-113782778D01*
X128616466Y-113866443D01*
X128446627Y-113917963D01*
X128380443Y-113924481D01*
X128314260Y-113931000D01*
X128225740Y-113931000D01*
X128159557Y-113924481D01*
X128093373Y-113917963D01*
X127923534Y-113866443D01*
X127767009Y-113782778D01*
X127731271Y-113753448D01*
X127629814Y-113670186D01*
X127546552Y-113568729D01*
X127517222Y-113532991D01*
X127433557Y-113376466D01*
X127382037Y-113206627D01*
X127364641Y-113030000D01*
X127382037Y-112853373D01*
X127433557Y-112683534D01*
X127517222Y-112527009D01*
X127546552Y-112491271D01*
X127629814Y-112389814D01*
X127731271Y-112306552D01*
X127767009Y-112277222D01*
X127923534Y-112193557D01*
X128093373Y-112142037D01*
X128159557Y-112135519D01*
X128225740Y-112129000D01*
X128314260Y-112129000D01*
X128380443Y-112135519D01*
X128380443Y-112135519D01*
G37*
G36*
X146160442Y-109595518D02*
G01*
X146226627Y-109602037D01*
X146396466Y-109653557D01*
X146552991Y-109737222D01*
X146588729Y-109766552D01*
X146690186Y-109849814D01*
X146773448Y-109951271D01*
X146802778Y-109987009D01*
X146886443Y-110143534D01*
X146937963Y-110313373D01*
X146955359Y-110490000D01*
X146937963Y-110666627D01*
X146886443Y-110836466D01*
X146802778Y-110992991D01*
X146773448Y-111028729D01*
X146690186Y-111130186D01*
X146588729Y-111213448D01*
X146552991Y-111242778D01*
X146396466Y-111326443D01*
X146226627Y-111377963D01*
X146160443Y-111384481D01*
X146094260Y-111391000D01*
X146005740Y-111391000D01*
X145939557Y-111384481D01*
X145873373Y-111377963D01*
X145703534Y-111326443D01*
X145547009Y-111242778D01*
X145511271Y-111213448D01*
X145409814Y-111130186D01*
X145326552Y-111028729D01*
X145297222Y-110992991D01*
X145213557Y-110836466D01*
X145162037Y-110666627D01*
X145144641Y-110490000D01*
X145162037Y-110313373D01*
X145213557Y-110143534D01*
X145297222Y-109987009D01*
X145326552Y-109951271D01*
X145409814Y-109849814D01*
X145511271Y-109766552D01*
X145547009Y-109737222D01*
X145703534Y-109653557D01*
X145873373Y-109602037D01*
X145939558Y-109595518D01*
X146005740Y-109589000D01*
X146094260Y-109589000D01*
X146160442Y-109595518D01*
X146160442Y-109595518D01*
G37*
G36*
X128380442Y-109595518D02*
G01*
X128446627Y-109602037D01*
X128616466Y-109653557D01*
X128772991Y-109737222D01*
X128808729Y-109766552D01*
X128910186Y-109849814D01*
X128993448Y-109951271D01*
X129022778Y-109987009D01*
X129106443Y-110143534D01*
X129157963Y-110313373D01*
X129175359Y-110490000D01*
X129157963Y-110666627D01*
X129106443Y-110836466D01*
X129022778Y-110992991D01*
X128993448Y-111028729D01*
X128910186Y-111130186D01*
X128808729Y-111213448D01*
X128772991Y-111242778D01*
X128616466Y-111326443D01*
X128446627Y-111377963D01*
X128380443Y-111384481D01*
X128314260Y-111391000D01*
X128225740Y-111391000D01*
X128159557Y-111384481D01*
X128093373Y-111377963D01*
X127923534Y-111326443D01*
X127767009Y-111242778D01*
X127731271Y-111213448D01*
X127629814Y-111130186D01*
X127546552Y-111028729D01*
X127517222Y-110992991D01*
X127433557Y-110836466D01*
X127382037Y-110666627D01*
X127364641Y-110490000D01*
X127382037Y-110313373D01*
X127433557Y-110143534D01*
X127517222Y-109987009D01*
X127546552Y-109951271D01*
X127629814Y-109849814D01*
X127731271Y-109766552D01*
X127767009Y-109737222D01*
X127923534Y-109653557D01*
X128093373Y-109602037D01*
X128159558Y-109595518D01*
X128225740Y-109589000D01*
X128314260Y-109589000D01*
X128380442Y-109595518D01*
X128380442Y-109595518D01*
G37*
G36*
X144815845Y-103137958D02*
G01*
X144266424Y-103687379D01*
X143700738Y-104253064D01*
X143207177Y-104746626D01*
X140306626Y-107647177D01*
X139740940Y-108212862D01*
X139247379Y-108706424D01*
X138697958Y-109255845D01*
X137565173Y-108123060D01*
X138026206Y-107662027D01*
X138042471Y-107645763D01*
X138042480Y-107645752D01*
X139245954Y-106442278D01*
X139245965Y-106442269D01*
X139262230Y-106426005D01*
X139262229Y-106426004D01*
X139723262Y-105964971D01*
X139723263Y-105964972D01*
X139739527Y-105948707D01*
X139739536Y-105948696D01*
X140377325Y-105310907D01*
X140377336Y-105310898D01*
X140393601Y-105294634D01*
X140393600Y-105294633D01*
X140854633Y-104833600D01*
X140854634Y-104833601D01*
X140870898Y-104817336D01*
X140870907Y-104817325D01*
X141508696Y-104179536D01*
X141508707Y-104179527D01*
X141524972Y-104163263D01*
X141524971Y-104163262D01*
X141986004Y-103702229D01*
X141986005Y-103702230D01*
X142002269Y-103685965D01*
X142002278Y-103685954D01*
X143205752Y-102482480D01*
X143205763Y-102482471D01*
X143222027Y-102466206D01*
X143683060Y-102005173D01*
X144815845Y-103137958D01*
X144815845Y-103137958D01*
G37*
G36*
X131114238Y-102482471D02*
G01*
X131114244Y-102482476D01*
X132317727Y-103685959D01*
X132317732Y-103685965D01*
X132811294Y-104179527D01*
X132811300Y-104179532D01*
X133449098Y-104817330D01*
X133449103Y-104817336D01*
X133942665Y-105310898D01*
X133942671Y-105310903D01*
X134580469Y-105948701D01*
X134580474Y-105948707D01*
X135074036Y-106442269D01*
X135074042Y-106442274D01*
X136277525Y-107645757D01*
X136277530Y-107645763D01*
X136754827Y-108123060D01*
X135622042Y-109255845D01*
X135072627Y-108706430D01*
X135072622Y-108706424D01*
X134013375Y-107647177D01*
X134013369Y-107647172D01*
X133375571Y-107009374D01*
X133375566Y-107009368D01*
X132882004Y-106515806D01*
X132881998Y-106515801D01*
X132244200Y-105878003D01*
X132244195Y-105877997D01*
X131750633Y-105384435D01*
X131750627Y-105384430D01*
X131112829Y-104746632D01*
X131112824Y-104746626D01*
X130053577Y-103687379D01*
X130053571Y-103687374D01*
X129504155Y-103137958D01*
X130636940Y-102005173D01*
X131114238Y-102482471D01*
X131114238Y-102482471D01*
G37*
G36*
X128380442Y-107055518D02*
G01*
X128446627Y-107062037D01*
X128616466Y-107113557D01*
X128772991Y-107197222D01*
X128808729Y-107226552D01*
X128910186Y-107309814D01*
X128993448Y-107411271D01*
X129022778Y-107447009D01*
X129106443Y-107603534D01*
X129157963Y-107773373D01*
X129175359Y-107950000D01*
X129157963Y-108126627D01*
X129106443Y-108296466D01*
X129022778Y-108452991D01*
X128993448Y-108488729D01*
X128910186Y-108590186D01*
X128808729Y-108673448D01*
X128772991Y-108702778D01*
X128616466Y-108786443D01*
X128446627Y-108837963D01*
X128380442Y-108844482D01*
X128314260Y-108851000D01*
X128225740Y-108851000D01*
X128159558Y-108844482D01*
X128093373Y-108837963D01*
X127923534Y-108786443D01*
X127767009Y-108702778D01*
X127731271Y-108673448D01*
X127629814Y-108590186D01*
X127546552Y-108488729D01*
X127517222Y-108452991D01*
X127433557Y-108296466D01*
X127382037Y-108126627D01*
X127364641Y-107950000D01*
X127382037Y-107773373D01*
X127433557Y-107603534D01*
X127517222Y-107447009D01*
X127546552Y-107411271D01*
X127629814Y-107309814D01*
X127731271Y-107226552D01*
X127767009Y-107197222D01*
X127923534Y-107113557D01*
X128093373Y-107062037D01*
X128159558Y-107055518D01*
X128225740Y-107049000D01*
X128314260Y-107049000D01*
X128380442Y-107055518D01*
X128380442Y-107055518D01*
G37*
G36*
X146160442Y-107055518D02*
G01*
X146226627Y-107062037D01*
X146396466Y-107113557D01*
X146552991Y-107197222D01*
X146588729Y-107226552D01*
X146690186Y-107309814D01*
X146773448Y-107411271D01*
X146802778Y-107447009D01*
X146886443Y-107603534D01*
X146937963Y-107773373D01*
X146955359Y-107950000D01*
X146937963Y-108126627D01*
X146886443Y-108296466D01*
X146802778Y-108452991D01*
X146773448Y-108488729D01*
X146690186Y-108590186D01*
X146588729Y-108673448D01*
X146552991Y-108702778D01*
X146396466Y-108786443D01*
X146226627Y-108837963D01*
X146160442Y-108844482D01*
X146094260Y-108851000D01*
X146005740Y-108851000D01*
X145939558Y-108844482D01*
X145873373Y-108837963D01*
X145703534Y-108786443D01*
X145547009Y-108702778D01*
X145511271Y-108673448D01*
X145409814Y-108590186D01*
X145326552Y-108488729D01*
X145297222Y-108452991D01*
X145213557Y-108296466D01*
X145162037Y-108126627D01*
X145144641Y-107950000D01*
X145162037Y-107773373D01*
X145213557Y-107603534D01*
X145297222Y-107447009D01*
X145326552Y-107411271D01*
X145409814Y-107309814D01*
X145511271Y-107226552D01*
X145547009Y-107197222D01*
X145703534Y-107113557D01*
X145873373Y-107062037D01*
X145939558Y-107055518D01*
X146005740Y-107049000D01*
X146094260Y-107049000D01*
X146160442Y-107055518D01*
X146160442Y-107055518D01*
G37*
G36*
X146160443Y-104515519D02*
G01*
X146226627Y-104522037D01*
X146396466Y-104573557D01*
X146552991Y-104657222D01*
X146588729Y-104686552D01*
X146690186Y-104769814D01*
X146743693Y-104835014D01*
X146802778Y-104907009D01*
X146886443Y-105063534D01*
X146937963Y-105233373D01*
X146955359Y-105410000D01*
X146937963Y-105586627D01*
X146886443Y-105756466D01*
X146802778Y-105912991D01*
X146773475Y-105948696D01*
X146690186Y-106050186D01*
X146588729Y-106133448D01*
X146552991Y-106162778D01*
X146396466Y-106246443D01*
X146226627Y-106297963D01*
X146160442Y-106304482D01*
X146094260Y-106311000D01*
X146005740Y-106311000D01*
X145939558Y-106304482D01*
X145873373Y-106297963D01*
X145703534Y-106246443D01*
X145547009Y-106162778D01*
X145511271Y-106133448D01*
X145409814Y-106050186D01*
X145326525Y-105948696D01*
X145297222Y-105912991D01*
X145213557Y-105756466D01*
X145162037Y-105586627D01*
X145144641Y-105410000D01*
X145162037Y-105233373D01*
X145213557Y-105063534D01*
X145297222Y-104907009D01*
X145356307Y-104835014D01*
X145409814Y-104769814D01*
X145511271Y-104686552D01*
X145547009Y-104657222D01*
X145703534Y-104573557D01*
X145873373Y-104522037D01*
X145939557Y-104515519D01*
X146005740Y-104509000D01*
X146094260Y-104509000D01*
X146160443Y-104515519D01*
X146160443Y-104515519D01*
G37*
G36*
X128380443Y-104515519D02*
G01*
X128446627Y-104522037D01*
X128616466Y-104573557D01*
X128772991Y-104657222D01*
X128808729Y-104686552D01*
X128910186Y-104769814D01*
X128963693Y-104835014D01*
X129022778Y-104907009D01*
X129106443Y-105063534D01*
X129157963Y-105233373D01*
X129175359Y-105410000D01*
X129157963Y-105586627D01*
X129106443Y-105756466D01*
X129022778Y-105912991D01*
X128993475Y-105948696D01*
X128910186Y-106050186D01*
X128808729Y-106133448D01*
X128772991Y-106162778D01*
X128616466Y-106246443D01*
X128446627Y-106297963D01*
X128380442Y-106304482D01*
X128314260Y-106311000D01*
X128225740Y-106311000D01*
X128159558Y-106304482D01*
X128093373Y-106297963D01*
X127923534Y-106246443D01*
X127767009Y-106162778D01*
X127731271Y-106133448D01*
X127629814Y-106050186D01*
X127546525Y-105948696D01*
X127517222Y-105912991D01*
X127433557Y-105756466D01*
X127382037Y-105586627D01*
X127364641Y-105410000D01*
X127382037Y-105233373D01*
X127433557Y-105063534D01*
X127517222Y-104907009D01*
X127576307Y-104835014D01*
X127629814Y-104769814D01*
X127731271Y-104686552D01*
X127767009Y-104657222D01*
X127923534Y-104573557D01*
X128093373Y-104522037D01*
X128159557Y-104515519D01*
X128225740Y-104509000D01*
X128314260Y-104509000D01*
X128380443Y-104515519D01*
X128380443Y-104515519D01*
G37*
G36*
X128380442Y-101975518D02*
G01*
X128446627Y-101982037D01*
X128616466Y-102033557D01*
X128772991Y-102117222D01*
X128808729Y-102146552D01*
X128910186Y-102229814D01*
X128993448Y-102331271D01*
X129022778Y-102367009D01*
X129106443Y-102523534D01*
X129157963Y-102693373D01*
X129175359Y-102870000D01*
X129157963Y-103046627D01*
X129106443Y-103216466D01*
X129022778Y-103372991D01*
X128993448Y-103408729D01*
X128910186Y-103510186D01*
X128808729Y-103593448D01*
X128772991Y-103622778D01*
X128772989Y-103622779D01*
X128621705Y-103703643D01*
X128616466Y-103706443D01*
X128446627Y-103757963D01*
X128380443Y-103764481D01*
X128314260Y-103771000D01*
X128225740Y-103771000D01*
X128159557Y-103764481D01*
X128093373Y-103757963D01*
X127923534Y-103706443D01*
X127918296Y-103703643D01*
X127767011Y-103622779D01*
X127767009Y-103622778D01*
X127731271Y-103593448D01*
X127629814Y-103510186D01*
X127546552Y-103408729D01*
X127517222Y-103372991D01*
X127433557Y-103216466D01*
X127382037Y-103046627D01*
X127364641Y-102870000D01*
X127382037Y-102693373D01*
X127433557Y-102523534D01*
X127517222Y-102367009D01*
X127546552Y-102331271D01*
X127629814Y-102229814D01*
X127731271Y-102146552D01*
X127767009Y-102117222D01*
X127923534Y-102033557D01*
X128093373Y-101982037D01*
X128159558Y-101975518D01*
X128225740Y-101969000D01*
X128314260Y-101969000D01*
X128380442Y-101975518D01*
X128380442Y-101975518D01*
G37*
G36*
X146160442Y-101975518D02*
G01*
X146226627Y-101982037D01*
X146396466Y-102033557D01*
X146552991Y-102117222D01*
X146588729Y-102146552D01*
X146690186Y-102229814D01*
X146773448Y-102331271D01*
X146802778Y-102367009D01*
X146886443Y-102523534D01*
X146937963Y-102693373D01*
X146955359Y-102870000D01*
X146937963Y-103046627D01*
X146886443Y-103216466D01*
X146802778Y-103372991D01*
X146773448Y-103408729D01*
X146690186Y-103510186D01*
X146588729Y-103593448D01*
X146552991Y-103622778D01*
X146552989Y-103622779D01*
X146401705Y-103703643D01*
X146396466Y-103706443D01*
X146226627Y-103757963D01*
X146160443Y-103764481D01*
X146094260Y-103771000D01*
X146005740Y-103771000D01*
X145939557Y-103764481D01*
X145873373Y-103757963D01*
X145703534Y-103706443D01*
X145698296Y-103703643D01*
X145547011Y-103622779D01*
X145547009Y-103622778D01*
X145511271Y-103593448D01*
X145409814Y-103510186D01*
X145326552Y-103408729D01*
X145297222Y-103372991D01*
X145213557Y-103216466D01*
X145162037Y-103046627D01*
X145144641Y-102870000D01*
X145162037Y-102693373D01*
X145213557Y-102523534D01*
X145297222Y-102367009D01*
X145326552Y-102331271D01*
X145409814Y-102229814D01*
X145511271Y-102146552D01*
X145547009Y-102117222D01*
X145703534Y-102033557D01*
X145873373Y-101982037D01*
X145939558Y-101975518D01*
X146005740Y-101969000D01*
X146094260Y-101969000D01*
X146160442Y-101975518D01*
X146160442Y-101975518D01*
G37*
G36*
X128380443Y-99435519D02*
G01*
X128446627Y-99442037D01*
X128616466Y-99493557D01*
X128616468Y-99493558D01*
X128694728Y-99535389D01*
X128772991Y-99577222D01*
X128808729Y-99606552D01*
X128910186Y-99689814D01*
X128993448Y-99791271D01*
X129022778Y-99827009D01*
X129106443Y-99983534D01*
X129157963Y-100153373D01*
X129175359Y-100330000D01*
X129157963Y-100506627D01*
X129106443Y-100676466D01*
X129022778Y-100832991D01*
X128993448Y-100868729D01*
X128910186Y-100970186D01*
X128808729Y-101053448D01*
X128772991Y-101082778D01*
X128616466Y-101166443D01*
X128446627Y-101217963D01*
X128380443Y-101224481D01*
X128314260Y-101231000D01*
X128225740Y-101231000D01*
X128159558Y-101224482D01*
X128093373Y-101217963D01*
X127923534Y-101166443D01*
X127767009Y-101082778D01*
X127731271Y-101053448D01*
X127629814Y-100970186D01*
X127546552Y-100868729D01*
X127517222Y-100832991D01*
X127433557Y-100676466D01*
X127382037Y-100506627D01*
X127364641Y-100330000D01*
X127382037Y-100153373D01*
X127433557Y-99983534D01*
X127517222Y-99827009D01*
X127546552Y-99791271D01*
X127629814Y-99689814D01*
X127731271Y-99606552D01*
X127767009Y-99577222D01*
X127845272Y-99535389D01*
X127923532Y-99493558D01*
X127923534Y-99493557D01*
X128093373Y-99442037D01*
X128159558Y-99435518D01*
X128225740Y-99429000D01*
X128314260Y-99429000D01*
X128380443Y-99435519D01*
X128380443Y-99435519D01*
G37*
G36*
X146160443Y-99435519D02*
G01*
X146226627Y-99442037D01*
X146396466Y-99493557D01*
X146396468Y-99493558D01*
X146474728Y-99535389D01*
X146552991Y-99577222D01*
X146588729Y-99606552D01*
X146690186Y-99689814D01*
X146773448Y-99791271D01*
X146802778Y-99827009D01*
X146886443Y-99983534D01*
X146937963Y-100153373D01*
X146955359Y-100330000D01*
X146937963Y-100506627D01*
X146886443Y-100676466D01*
X146802778Y-100832991D01*
X146773448Y-100868729D01*
X146690186Y-100970186D01*
X146588729Y-101053448D01*
X146552991Y-101082778D01*
X146396466Y-101166443D01*
X146226627Y-101217963D01*
X146160443Y-101224481D01*
X146094260Y-101231000D01*
X146005740Y-101231000D01*
X145939558Y-101224482D01*
X145873373Y-101217963D01*
X145703534Y-101166443D01*
X145547009Y-101082778D01*
X145511271Y-101053448D01*
X145409814Y-100970186D01*
X145326552Y-100868729D01*
X145297222Y-100832991D01*
X145213557Y-100676466D01*
X145162037Y-100506627D01*
X145144641Y-100330000D01*
X145162037Y-100153373D01*
X145213557Y-99983534D01*
X145297222Y-99827009D01*
X145326552Y-99791271D01*
X145409814Y-99689814D01*
X145511271Y-99606552D01*
X145547009Y-99577222D01*
X145625272Y-99535389D01*
X145703532Y-99493558D01*
X145703534Y-99493557D01*
X145873373Y-99442037D01*
X145939558Y-99435518D01*
X146005740Y-99429000D01*
X146094260Y-99429000D01*
X146160443Y-99435519D01*
X146160443Y-99435519D01*
G37*
G36*
X136754827Y-95076940D02*
G01*
X136277530Y-95554238D01*
X131114238Y-100717530D01*
X130636940Y-101194827D01*
X129504155Y-100062042D01*
X130053566Y-99512631D01*
X130053577Y-99512622D01*
X130069841Y-99496357D01*
X131096559Y-98469639D01*
X131112824Y-98453375D01*
X131112833Y-98453364D01*
X131750622Y-97815575D01*
X131750633Y-97815566D01*
X131766898Y-97799302D01*
X131766897Y-97799301D01*
X132227930Y-97338268D01*
X132227931Y-97338269D01*
X132244195Y-97322004D01*
X132244204Y-97321993D01*
X132881993Y-96684204D01*
X132882004Y-96684195D01*
X132898269Y-96667931D01*
X132898268Y-96667930D01*
X133359301Y-96206897D01*
X133359302Y-96206898D01*
X133375566Y-96190633D01*
X133375575Y-96190622D01*
X134013364Y-95552833D01*
X134013375Y-95552824D01*
X134029639Y-95536559D01*
X135056357Y-94509841D01*
X135072622Y-94493577D01*
X135072631Y-94493566D01*
X135622042Y-93944155D01*
X136754827Y-95076940D01*
X136754827Y-95076940D01*
G37*
G36*
X139247374Y-94493571D02*
G01*
X139247379Y-94493577D01*
X140306626Y-95552824D01*
X140306632Y-95552829D01*
X140944430Y-96190627D01*
X140944435Y-96190633D01*
X141437997Y-96684195D01*
X141438003Y-96684200D01*
X142075801Y-97321998D01*
X142075806Y-97322004D01*
X142569368Y-97815566D01*
X142569374Y-97815571D01*
X143207172Y-98453369D01*
X143207177Y-98453375D01*
X144266424Y-99512622D01*
X144266430Y-99512627D01*
X144815845Y-100062042D01*
X143683060Y-101194827D01*
X143205763Y-100717530D01*
X143205757Y-100717525D01*
X142002274Y-99514042D01*
X142002269Y-99514036D01*
X141508707Y-99020474D01*
X141508701Y-99020469D01*
X140870903Y-98382671D01*
X140870898Y-98382665D01*
X140377336Y-97889103D01*
X140377330Y-97889098D01*
X139739532Y-97251300D01*
X139739527Y-97251294D01*
X139245965Y-96757732D01*
X139245959Y-96757727D01*
X138042476Y-95554244D01*
X138042471Y-95554238D01*
X137565173Y-95076940D01*
X138697958Y-93944155D01*
X139247374Y-94493571D01*
X139247374Y-94493571D01*
G37*
G36*
X146160442Y-96895518D02*
G01*
X146226627Y-96902037D01*
X146396466Y-96953557D01*
X146552991Y-97037222D01*
X146588729Y-97066552D01*
X146690186Y-97149814D01*
X146760119Y-97235029D01*
X146802778Y-97287009D01*
X146886443Y-97443534D01*
X146937963Y-97613373D01*
X146955359Y-97790000D01*
X146937963Y-97966627D01*
X146886443Y-98136466D01*
X146802778Y-98292991D01*
X146773448Y-98328729D01*
X146690186Y-98430186D01*
X146588729Y-98513448D01*
X146552991Y-98542778D01*
X146396466Y-98626443D01*
X146226627Y-98677963D01*
X146160442Y-98684482D01*
X146094260Y-98691000D01*
X146005740Y-98691000D01*
X145939558Y-98684482D01*
X145873373Y-98677963D01*
X145703534Y-98626443D01*
X145547009Y-98542778D01*
X145511271Y-98513448D01*
X145409814Y-98430186D01*
X145326552Y-98328729D01*
X145297222Y-98292991D01*
X145213557Y-98136466D01*
X145162037Y-97966627D01*
X145144641Y-97790000D01*
X145162037Y-97613373D01*
X145213557Y-97443534D01*
X145297222Y-97287009D01*
X145339881Y-97235029D01*
X145409814Y-97149814D01*
X145511271Y-97066552D01*
X145547009Y-97037222D01*
X145703534Y-96953557D01*
X145873373Y-96902037D01*
X145939558Y-96895518D01*
X146005740Y-96889000D01*
X146094260Y-96889000D01*
X146160442Y-96895518D01*
X146160442Y-96895518D01*
G37*
G36*
X128380442Y-96895518D02*
G01*
X128446627Y-96902037D01*
X128616466Y-96953557D01*
X128772991Y-97037222D01*
X128808729Y-97066552D01*
X128910186Y-97149814D01*
X128980119Y-97235029D01*
X129022778Y-97287009D01*
X129106443Y-97443534D01*
X129157963Y-97613373D01*
X129175359Y-97790000D01*
X129157963Y-97966627D01*
X129106443Y-98136466D01*
X129022778Y-98292991D01*
X128993448Y-98328729D01*
X128910186Y-98430186D01*
X128808729Y-98513448D01*
X128772991Y-98542778D01*
X128616466Y-98626443D01*
X128446627Y-98677963D01*
X128380442Y-98684482D01*
X128314260Y-98691000D01*
X128225740Y-98691000D01*
X128159558Y-98684482D01*
X128093373Y-98677963D01*
X127923534Y-98626443D01*
X127767009Y-98542778D01*
X127731271Y-98513448D01*
X127629814Y-98430186D01*
X127546552Y-98328729D01*
X127517222Y-98292991D01*
X127433557Y-98136466D01*
X127382037Y-97966627D01*
X127364641Y-97790000D01*
X127382037Y-97613373D01*
X127433557Y-97443534D01*
X127517222Y-97287009D01*
X127559881Y-97235029D01*
X127629814Y-97149814D01*
X127731271Y-97066552D01*
X127767009Y-97037222D01*
X127923534Y-96953557D01*
X128093373Y-96902037D01*
X128159558Y-96895518D01*
X128225740Y-96889000D01*
X128314260Y-96889000D01*
X128380442Y-96895518D01*
X128380442Y-96895518D01*
G37*
G36*
X146160442Y-94355518D02*
G01*
X146226627Y-94362037D01*
X146396466Y-94413557D01*
X146552991Y-94497222D01*
X146568367Y-94509841D01*
X146690186Y-94609814D01*
X146773448Y-94711271D01*
X146802778Y-94747009D01*
X146886443Y-94903534D01*
X146937963Y-95073373D01*
X146955359Y-95250000D01*
X146937963Y-95426627D01*
X146886443Y-95596466D01*
X146802778Y-95752991D01*
X146773448Y-95788729D01*
X146690186Y-95890186D01*
X146588729Y-95973448D01*
X146552991Y-96002778D01*
X146396466Y-96086443D01*
X146226627Y-96137963D01*
X146160443Y-96144481D01*
X146094260Y-96151000D01*
X146005740Y-96151000D01*
X145939558Y-96144482D01*
X145873373Y-96137963D01*
X145703534Y-96086443D01*
X145547009Y-96002778D01*
X145511271Y-95973448D01*
X145409814Y-95890186D01*
X145326552Y-95788729D01*
X145297222Y-95752991D01*
X145213557Y-95596466D01*
X145162037Y-95426627D01*
X145144641Y-95250000D01*
X145162037Y-95073373D01*
X145213557Y-94903534D01*
X145297222Y-94747009D01*
X145326552Y-94711271D01*
X145409814Y-94609814D01*
X145531633Y-94509841D01*
X145547009Y-94497222D01*
X145703534Y-94413557D01*
X145873373Y-94362037D01*
X145939557Y-94355519D01*
X146005740Y-94349000D01*
X146094260Y-94349000D01*
X146160442Y-94355518D01*
X146160442Y-94355518D01*
G37*
G36*
X128380442Y-94355518D02*
G01*
X128446627Y-94362037D01*
X128616466Y-94413557D01*
X128772991Y-94497222D01*
X128788367Y-94509841D01*
X128910186Y-94609814D01*
X128993448Y-94711271D01*
X129022778Y-94747009D01*
X129106443Y-94903534D01*
X129157963Y-95073373D01*
X129175359Y-95250000D01*
X129157963Y-95426627D01*
X129106443Y-95596466D01*
X129022778Y-95752991D01*
X128993448Y-95788729D01*
X128910186Y-95890186D01*
X128808729Y-95973448D01*
X128772991Y-96002778D01*
X128616466Y-96086443D01*
X128446627Y-96137963D01*
X128380443Y-96144481D01*
X128314260Y-96151000D01*
X128225740Y-96151000D01*
X128159558Y-96144482D01*
X128093373Y-96137963D01*
X127923534Y-96086443D01*
X127767009Y-96002778D01*
X127731271Y-95973448D01*
X127629814Y-95890186D01*
X127546552Y-95788729D01*
X127517222Y-95752991D01*
X127433557Y-95596466D01*
X127382037Y-95426627D01*
X127364641Y-95250000D01*
X127382037Y-95073373D01*
X127433557Y-94903534D01*
X127517222Y-94747009D01*
X127546552Y-94711271D01*
X127629814Y-94609814D01*
X127751633Y-94509841D01*
X127767009Y-94497222D01*
X127923534Y-94413557D01*
X128093373Y-94362037D01*
X128159557Y-94355519D01*
X128225740Y-94349000D01*
X128314260Y-94349000D01*
X128380442Y-94355518D01*
X128380442Y-94355518D01*
G37*
G36*
X146160442Y-91815518D02*
G01*
X146226627Y-91822037D01*
X146396466Y-91873557D01*
X146552991Y-91957222D01*
X146588729Y-91986552D01*
X146690186Y-92069814D01*
X146773448Y-92171271D01*
X146802778Y-92207009D01*
X146886443Y-92363534D01*
X146937963Y-92533373D01*
X146955359Y-92710000D01*
X146937963Y-92886627D01*
X146886443Y-93056466D01*
X146802778Y-93212991D01*
X146773448Y-93248729D01*
X146690186Y-93350186D01*
X146588729Y-93433448D01*
X146552991Y-93462778D01*
X146396466Y-93546443D01*
X146226627Y-93597963D01*
X146160442Y-93604482D01*
X146094260Y-93611000D01*
X146005740Y-93611000D01*
X145939557Y-93604481D01*
X145873373Y-93597963D01*
X145703534Y-93546443D01*
X145547009Y-93462778D01*
X145511271Y-93433448D01*
X145409814Y-93350186D01*
X145326552Y-93248729D01*
X145297222Y-93212991D01*
X145213557Y-93056466D01*
X145162037Y-92886627D01*
X145144641Y-92710000D01*
X145162037Y-92533373D01*
X145213557Y-92363534D01*
X145297222Y-92207009D01*
X145326552Y-92171271D01*
X145409814Y-92069814D01*
X145511271Y-91986552D01*
X145547009Y-91957222D01*
X145703534Y-91873557D01*
X145873373Y-91822037D01*
X145939558Y-91815518D01*
X146005740Y-91809000D01*
X146094260Y-91809000D01*
X146160442Y-91815518D01*
X146160442Y-91815518D01*
G37*
G36*
X128380442Y-91815518D02*
G01*
X128446627Y-91822037D01*
X128616466Y-91873557D01*
X128772991Y-91957222D01*
X128808729Y-91986552D01*
X128910186Y-92069814D01*
X128993448Y-92171271D01*
X129022778Y-92207009D01*
X129106443Y-92363534D01*
X129157963Y-92533373D01*
X129175359Y-92710000D01*
X129157963Y-92886627D01*
X129106443Y-93056466D01*
X129022778Y-93212991D01*
X128993448Y-93248729D01*
X128910186Y-93350186D01*
X128808729Y-93433448D01*
X128772991Y-93462778D01*
X128616466Y-93546443D01*
X128446627Y-93597963D01*
X128380442Y-93604482D01*
X128314260Y-93611000D01*
X128225740Y-93611000D01*
X128159557Y-93604481D01*
X128093373Y-93597963D01*
X127923534Y-93546443D01*
X127767009Y-93462778D01*
X127731271Y-93433448D01*
X127629814Y-93350186D01*
X127546552Y-93248729D01*
X127517222Y-93212991D01*
X127433557Y-93056466D01*
X127382037Y-92886627D01*
X127364641Y-92710000D01*
X127382037Y-92533373D01*
X127433557Y-92363534D01*
X127517222Y-92207009D01*
X127546552Y-92171271D01*
X127629814Y-92069814D01*
X127731271Y-91986552D01*
X127767009Y-91957222D01*
X127923534Y-91873557D01*
X128093373Y-91822037D01*
X128159558Y-91815518D01*
X128225740Y-91809000D01*
X128314260Y-91809000D01*
X128380442Y-91815518D01*
X128380442Y-91815518D01*
G37*
G36*
X146160443Y-89275519D02*
G01*
X146226627Y-89282037D01*
X146396466Y-89333557D01*
X146552991Y-89417222D01*
X146583768Y-89442480D01*
X146690186Y-89529814D01*
X146773448Y-89631271D01*
X146802778Y-89667009D01*
X146886443Y-89823534D01*
X146937963Y-89993373D01*
X146955359Y-90170000D01*
X146937963Y-90346627D01*
X146886443Y-90516466D01*
X146802778Y-90672991D01*
X146773448Y-90708729D01*
X146690186Y-90810186D01*
X146588729Y-90893448D01*
X146552991Y-90922778D01*
X146396466Y-91006443D01*
X146226627Y-91057963D01*
X146160442Y-91064482D01*
X146094260Y-91071000D01*
X146005740Y-91071000D01*
X145939558Y-91064482D01*
X145873373Y-91057963D01*
X145703534Y-91006443D01*
X145547009Y-90922778D01*
X145511271Y-90893448D01*
X145409814Y-90810186D01*
X145326552Y-90708729D01*
X145297222Y-90672991D01*
X145213557Y-90516466D01*
X145162037Y-90346627D01*
X145144641Y-90170000D01*
X145162037Y-89993373D01*
X145213557Y-89823534D01*
X145297222Y-89667009D01*
X145326552Y-89631271D01*
X145409814Y-89529814D01*
X145516232Y-89442480D01*
X145547009Y-89417222D01*
X145703534Y-89333557D01*
X145873373Y-89282037D01*
X145939557Y-89275519D01*
X146005740Y-89269000D01*
X146094260Y-89269000D01*
X146160443Y-89275519D01*
X146160443Y-89275519D01*
G37*
G36*
X128380443Y-89275519D02*
G01*
X128446627Y-89282037D01*
X128616466Y-89333557D01*
X128772991Y-89417222D01*
X128803768Y-89442480D01*
X128910186Y-89529814D01*
X128993448Y-89631271D01*
X129022778Y-89667009D01*
X129106443Y-89823534D01*
X129157963Y-89993373D01*
X129175359Y-90170000D01*
X129157963Y-90346627D01*
X129106443Y-90516466D01*
X129022778Y-90672991D01*
X128993448Y-90708729D01*
X128910186Y-90810186D01*
X128808729Y-90893448D01*
X128772991Y-90922778D01*
X128616466Y-91006443D01*
X128446627Y-91057963D01*
X128380442Y-91064482D01*
X128314260Y-91071000D01*
X128225740Y-91071000D01*
X128159558Y-91064482D01*
X128093373Y-91057963D01*
X127923534Y-91006443D01*
X127767009Y-90922778D01*
X127731271Y-90893448D01*
X127629814Y-90810186D01*
X127546552Y-90708729D01*
X127517222Y-90672991D01*
X127433557Y-90516466D01*
X127382037Y-90346627D01*
X127364641Y-90170000D01*
X127382037Y-89993373D01*
X127433557Y-89823534D01*
X127517222Y-89667009D01*
X127546552Y-89631271D01*
X127629814Y-89529814D01*
X127736232Y-89442480D01*
X127767009Y-89417222D01*
X127923534Y-89333557D01*
X128093373Y-89282037D01*
X128159557Y-89275519D01*
X128225740Y-89269000D01*
X128314260Y-89269000D01*
X128380443Y-89275519D01*
X128380443Y-89275519D01*
G37*
G36*
X134201000Y-89751000D02*
G01*
X132499000Y-89751000D01*
X132499000Y-88049000D01*
X134201000Y-88049000D01*
X134201000Y-89751000D01*
X134201000Y-89751000D01*
G37*
G36*
X141218228Y-88081703D02*
G01*
X141373100Y-88145853D01*
X141512481Y-88238985D01*
X141631015Y-88357519D01*
X141724147Y-88496900D01*
X141788297Y-88651772D01*
X141821000Y-88816184D01*
X141821000Y-88983816D01*
X141788297Y-89148228D01*
X141724147Y-89303100D01*
X141631015Y-89442481D01*
X141512481Y-89561015D01*
X141373100Y-89654147D01*
X141218228Y-89718297D01*
X141053816Y-89751000D01*
X140886184Y-89751000D01*
X140721772Y-89718297D01*
X140566900Y-89654147D01*
X140427519Y-89561015D01*
X140308985Y-89442481D01*
X140215853Y-89303100D01*
X140151703Y-89148228D01*
X140119000Y-88983816D01*
X140119000Y-88816184D01*
X140151703Y-88651772D01*
X140215853Y-88496900D01*
X140308985Y-88357519D01*
X140427519Y-88238985D01*
X140566900Y-88145853D01*
X140721772Y-88081703D01*
X140886184Y-88049000D01*
X141053816Y-88049000D01*
X141218228Y-88081703D01*
X141218228Y-88081703D01*
G37*
G36*
X146160442Y-86735518D02*
G01*
X146226627Y-86742037D01*
X146396466Y-86793557D01*
X146552991Y-86877222D01*
X146588729Y-86906552D01*
X146690186Y-86989814D01*
X146773448Y-87091271D01*
X146802778Y-87127009D01*
X146886443Y-87283534D01*
X146937963Y-87453373D01*
X146955359Y-87630000D01*
X146937963Y-87806627D01*
X146886443Y-87976466D01*
X146802778Y-88132991D01*
X146792223Y-88145852D01*
X146690186Y-88270186D01*
X146588729Y-88353448D01*
X146552991Y-88382778D01*
X146396466Y-88466443D01*
X146226627Y-88517963D01*
X146160442Y-88524482D01*
X146094260Y-88531000D01*
X146005740Y-88531000D01*
X145939558Y-88524482D01*
X145873373Y-88517963D01*
X145703534Y-88466443D01*
X145547009Y-88382778D01*
X145511271Y-88353448D01*
X145409814Y-88270186D01*
X145307777Y-88145852D01*
X145297222Y-88132991D01*
X145213557Y-87976466D01*
X145162037Y-87806627D01*
X145144641Y-87630000D01*
X145162037Y-87453373D01*
X145213557Y-87283534D01*
X145297222Y-87127009D01*
X145326552Y-87091271D01*
X145409814Y-86989814D01*
X145511271Y-86906552D01*
X145547009Y-86877222D01*
X145703534Y-86793557D01*
X145873373Y-86742037D01*
X145939558Y-86735518D01*
X146005740Y-86729000D01*
X146094260Y-86729000D01*
X146160442Y-86735518D01*
X146160442Y-86735518D01*
G37*
G36*
X128380442Y-86735518D02*
G01*
X128446627Y-86742037D01*
X128616466Y-86793557D01*
X128772991Y-86877222D01*
X128808729Y-86906552D01*
X128910186Y-86989814D01*
X128993448Y-87091271D01*
X129022778Y-87127009D01*
X129106443Y-87283534D01*
X129157963Y-87453373D01*
X129175359Y-87630000D01*
X129157963Y-87806627D01*
X129106443Y-87976466D01*
X129022778Y-88132991D01*
X129012223Y-88145852D01*
X128910186Y-88270186D01*
X128808729Y-88353448D01*
X128772991Y-88382778D01*
X128616466Y-88466443D01*
X128446627Y-88517963D01*
X128380442Y-88524482D01*
X128314260Y-88531000D01*
X128225740Y-88531000D01*
X128159558Y-88524482D01*
X128093373Y-88517963D01*
X127923534Y-88466443D01*
X127767009Y-88382778D01*
X127731271Y-88353448D01*
X127629814Y-88270186D01*
X127527777Y-88145852D01*
X127517222Y-88132991D01*
X127433557Y-87976466D01*
X127382037Y-87806627D01*
X127364641Y-87630000D01*
X127382037Y-87453373D01*
X127433557Y-87283534D01*
X127517222Y-87127009D01*
X127546552Y-87091271D01*
X127629814Y-86989814D01*
X127731271Y-86906552D01*
X127767009Y-86877222D01*
X127923534Y-86793557D01*
X128093373Y-86742037D01*
X128159558Y-86735518D01*
X128225740Y-86729000D01*
X128314260Y-86729000D01*
X128380442Y-86735518D01*
X128380442Y-86735518D01*
G37*
G36*
X146160442Y-84195518D02*
G01*
X146226627Y-84202037D01*
X146396466Y-84253557D01*
X146552991Y-84337222D01*
X146588729Y-84366552D01*
X146690186Y-84449814D01*
X146773448Y-84551271D01*
X146802778Y-84587009D01*
X146886443Y-84743534D01*
X146937963Y-84913373D01*
X146955359Y-85090000D01*
X146937963Y-85266627D01*
X146886443Y-85436466D01*
X146802778Y-85592991D01*
X146773448Y-85628729D01*
X146690186Y-85730186D01*
X146588729Y-85813448D01*
X146552991Y-85842778D01*
X146396466Y-85926443D01*
X146226627Y-85977963D01*
X146160442Y-85984482D01*
X146094260Y-85991000D01*
X146005740Y-85991000D01*
X145939558Y-85984482D01*
X145873373Y-85977963D01*
X145703534Y-85926443D01*
X145547009Y-85842778D01*
X145511271Y-85813448D01*
X145409814Y-85730186D01*
X145326552Y-85628729D01*
X145297222Y-85592991D01*
X145213557Y-85436466D01*
X145162037Y-85266627D01*
X145144641Y-85090000D01*
X145162037Y-84913373D01*
X145213557Y-84743534D01*
X145297222Y-84587009D01*
X145326552Y-84551271D01*
X145409814Y-84449814D01*
X145511271Y-84366552D01*
X145547009Y-84337222D01*
X145703534Y-84253557D01*
X145873373Y-84202037D01*
X145939558Y-84195518D01*
X146005740Y-84189000D01*
X146094260Y-84189000D01*
X146160442Y-84195518D01*
X146160442Y-84195518D01*
G37*
G36*
X128380442Y-84195518D02*
G01*
X128446627Y-84202037D01*
X128616466Y-84253557D01*
X128772991Y-84337222D01*
X128808729Y-84366552D01*
X128910186Y-84449814D01*
X128993448Y-84551271D01*
X129022778Y-84587009D01*
X129106443Y-84743534D01*
X129157963Y-84913373D01*
X129175359Y-85090000D01*
X129157963Y-85266627D01*
X129106443Y-85436466D01*
X129022778Y-85592991D01*
X128993448Y-85628729D01*
X128910186Y-85730186D01*
X128808729Y-85813448D01*
X128772991Y-85842778D01*
X128616466Y-85926443D01*
X128446627Y-85977963D01*
X128380442Y-85984482D01*
X128314260Y-85991000D01*
X128225740Y-85991000D01*
X128159558Y-85984482D01*
X128093373Y-85977963D01*
X127923534Y-85926443D01*
X127767009Y-85842778D01*
X127731271Y-85813448D01*
X127629814Y-85730186D01*
X127546552Y-85628729D01*
X127517222Y-85592991D01*
X127433557Y-85436466D01*
X127382037Y-85266627D01*
X127364641Y-85090000D01*
X127382037Y-84913373D01*
X127433557Y-84743534D01*
X127517222Y-84587009D01*
X127546552Y-84551271D01*
X127629814Y-84449814D01*
X127731271Y-84366552D01*
X127767009Y-84337222D01*
X127923534Y-84253557D01*
X128093373Y-84202037D01*
X128159558Y-84195518D01*
X128225740Y-84189000D01*
X128314260Y-84189000D01*
X128380442Y-84195518D01*
X128380442Y-84195518D01*
G37*
G36*
X128380443Y-81655519D02*
G01*
X128446627Y-81662037D01*
X128616466Y-81713557D01*
X128772991Y-81797222D01*
X128803768Y-81822480D01*
X128910186Y-81909814D01*
X128993448Y-82011271D01*
X129022778Y-82047009D01*
X129106443Y-82203534D01*
X129157963Y-82373373D01*
X129175359Y-82550000D01*
X129157963Y-82726627D01*
X129106443Y-82896466D01*
X129022778Y-83052991D01*
X128993448Y-83088729D01*
X128910186Y-83190186D01*
X128808729Y-83273448D01*
X128772991Y-83302778D01*
X128616466Y-83386443D01*
X128446627Y-83437963D01*
X128380443Y-83444481D01*
X128314260Y-83451000D01*
X128225740Y-83451000D01*
X128159557Y-83444481D01*
X128093373Y-83437963D01*
X127923534Y-83386443D01*
X127767009Y-83302778D01*
X127731271Y-83273448D01*
X127629814Y-83190186D01*
X127546552Y-83088729D01*
X127517222Y-83052991D01*
X127433557Y-82896466D01*
X127382037Y-82726627D01*
X127364641Y-82550000D01*
X127382037Y-82373373D01*
X127433557Y-82203534D01*
X127517222Y-82047009D01*
X127546552Y-82011271D01*
X127629814Y-81909814D01*
X127736232Y-81822480D01*
X127767009Y-81797222D01*
X127923534Y-81713557D01*
X128093373Y-81662037D01*
X128159557Y-81655519D01*
X128225740Y-81649000D01*
X128314260Y-81649000D01*
X128380443Y-81655519D01*
X128380443Y-81655519D01*
G37*
G36*
X146160443Y-81655519D02*
G01*
X146226627Y-81662037D01*
X146396466Y-81713557D01*
X146552991Y-81797222D01*
X146583768Y-81822480D01*
X146690186Y-81909814D01*
X146773448Y-82011271D01*
X146802778Y-82047009D01*
X146886443Y-82203534D01*
X146937963Y-82373373D01*
X146955359Y-82550000D01*
X146937963Y-82726627D01*
X146886443Y-82896466D01*
X146802778Y-83052991D01*
X146773448Y-83088729D01*
X146690186Y-83190186D01*
X146588729Y-83273448D01*
X146552991Y-83302778D01*
X146396466Y-83386443D01*
X146226627Y-83437963D01*
X146160443Y-83444481D01*
X146094260Y-83451000D01*
X146005740Y-83451000D01*
X145939557Y-83444481D01*
X145873373Y-83437963D01*
X145703534Y-83386443D01*
X145547009Y-83302778D01*
X145511271Y-83273448D01*
X145409814Y-83190186D01*
X145326552Y-83088729D01*
X145297222Y-83052991D01*
X145213557Y-82896466D01*
X145162037Y-82726627D01*
X145144641Y-82550000D01*
X145162037Y-82373373D01*
X145213557Y-82203534D01*
X145297222Y-82047009D01*
X145326552Y-82011271D01*
X145409814Y-81909814D01*
X145516232Y-81822480D01*
X145547009Y-81797222D01*
X145703534Y-81713557D01*
X145873373Y-81662037D01*
X145939557Y-81655519D01*
X146005740Y-81649000D01*
X146094260Y-81649000D01*
X146160443Y-81655519D01*
X146160443Y-81655519D01*
G37*
G36*
X141218228Y-80461703D02*
G01*
X141373100Y-80525853D01*
X141512481Y-80618985D01*
X141631015Y-80737519D01*
X141724147Y-80876900D01*
X141788297Y-81031772D01*
X141821000Y-81196184D01*
X141821000Y-81363816D01*
X141788297Y-81528228D01*
X141724147Y-81683100D01*
X141631015Y-81822481D01*
X141512481Y-81941015D01*
X141373100Y-82034147D01*
X141218228Y-82098297D01*
X141053816Y-82131000D01*
X140886184Y-82131000D01*
X140721772Y-82098297D01*
X140566900Y-82034147D01*
X140427519Y-81941015D01*
X140308985Y-81822481D01*
X140215853Y-81683100D01*
X140151703Y-81528228D01*
X140119000Y-81363816D01*
X140119000Y-81196184D01*
X140151703Y-81031772D01*
X140215853Y-80876900D01*
X140308985Y-80737519D01*
X140427519Y-80618985D01*
X140566900Y-80525853D01*
X140721772Y-80461703D01*
X140886184Y-80429000D01*
X141053816Y-80429000D01*
X141218228Y-80461703D01*
X141218228Y-80461703D01*
G37*
G36*
X133598228Y-80461703D02*
G01*
X133753100Y-80525853D01*
X133892481Y-80618985D01*
X134011015Y-80737519D01*
X134104147Y-80876900D01*
X134168297Y-81031772D01*
X134201000Y-81196184D01*
X134201000Y-81363816D01*
X134168297Y-81528228D01*
X134104147Y-81683100D01*
X134011015Y-81822481D01*
X133892481Y-81941015D01*
X133753100Y-82034147D01*
X133598228Y-82098297D01*
X133433816Y-82131000D01*
X133266184Y-82131000D01*
X133101772Y-82098297D01*
X132946900Y-82034147D01*
X132807519Y-81941015D01*
X132688985Y-81822481D01*
X132595853Y-81683100D01*
X132531703Y-81528228D01*
X132499000Y-81363816D01*
X132499000Y-81196184D01*
X132531703Y-81031772D01*
X132595853Y-80876900D01*
X132688985Y-80737519D01*
X132807519Y-80618985D01*
X132946900Y-80525853D01*
X133101772Y-80461703D01*
X133266184Y-80429000D01*
X133433816Y-80429000D01*
X133598228Y-80461703D01*
X133598228Y-80461703D01*
G37*
G36*
X128380443Y-79115519D02*
G01*
X128446627Y-79122037D01*
X128616466Y-79173557D01*
X128772991Y-79257222D01*
X128808729Y-79286552D01*
X128910186Y-79369814D01*
X128993448Y-79471271D01*
X129022778Y-79507009D01*
X129106443Y-79663534D01*
X129157963Y-79833373D01*
X129175359Y-80010000D01*
X129157963Y-80186627D01*
X129106443Y-80356466D01*
X129022778Y-80512991D01*
X129012223Y-80525852D01*
X128910186Y-80650186D01*
X128808729Y-80733448D01*
X128772991Y-80762778D01*
X128616466Y-80846443D01*
X128446627Y-80897963D01*
X128380442Y-80904482D01*
X128314260Y-80911000D01*
X128225740Y-80911000D01*
X128159558Y-80904482D01*
X128093373Y-80897963D01*
X127923534Y-80846443D01*
X127767009Y-80762778D01*
X127731271Y-80733448D01*
X127629814Y-80650186D01*
X127527777Y-80525852D01*
X127517222Y-80512991D01*
X127433557Y-80356466D01*
X127382037Y-80186627D01*
X127364641Y-80010000D01*
X127382037Y-79833373D01*
X127433557Y-79663534D01*
X127517222Y-79507009D01*
X127546552Y-79471271D01*
X127629814Y-79369814D01*
X127731271Y-79286552D01*
X127767009Y-79257222D01*
X127923534Y-79173557D01*
X128093373Y-79122037D01*
X128159557Y-79115519D01*
X128225740Y-79109000D01*
X128314260Y-79109000D01*
X128380443Y-79115519D01*
X128380443Y-79115519D01*
G37*
G36*
X146160443Y-79115519D02*
G01*
X146226627Y-79122037D01*
X146396466Y-79173557D01*
X146552991Y-79257222D01*
X146588729Y-79286552D01*
X146690186Y-79369814D01*
X146773448Y-79471271D01*
X146802778Y-79507009D01*
X146886443Y-79663534D01*
X146937963Y-79833373D01*
X146955359Y-80010000D01*
X146937963Y-80186627D01*
X146886443Y-80356466D01*
X146802778Y-80512991D01*
X146792223Y-80525852D01*
X146690186Y-80650186D01*
X146588729Y-80733448D01*
X146552991Y-80762778D01*
X146396466Y-80846443D01*
X146226627Y-80897963D01*
X146160442Y-80904482D01*
X146094260Y-80911000D01*
X146005740Y-80911000D01*
X145939558Y-80904482D01*
X145873373Y-80897963D01*
X145703534Y-80846443D01*
X145547009Y-80762778D01*
X145511271Y-80733448D01*
X145409814Y-80650186D01*
X145307777Y-80525852D01*
X145297222Y-80512991D01*
X145213557Y-80356466D01*
X145162037Y-80186627D01*
X145144641Y-80010000D01*
X145162037Y-79833373D01*
X145213557Y-79663534D01*
X145297222Y-79507009D01*
X145326552Y-79471271D01*
X145409814Y-79369814D01*
X145511271Y-79286552D01*
X145547009Y-79257222D01*
X145703534Y-79173557D01*
X145873373Y-79122037D01*
X145939557Y-79115519D01*
X146005740Y-79109000D01*
X146094260Y-79109000D01*
X146160443Y-79115519D01*
X146160443Y-79115519D01*
G37*
G36*
X129171000Y-78371000D02*
G01*
X127369000Y-78371000D01*
X127369000Y-76569000D01*
X129171000Y-76569000D01*
X129171000Y-78371000D01*
X129171000Y-78371000D01*
G37*
G36*
X146951000Y-78371000D02*
G01*
X145149000Y-78371000D01*
X145149000Y-76569000D01*
X146951000Y-76569000D01*
X146951000Y-78371000D01*
X146951000Y-78371000D01*
G37*
G36*
X134159499Y-76948445D02*
G01*
X134196995Y-76959820D01*
X134231554Y-76978292D01*
X134261847Y-77003153D01*
X134286708Y-77033446D01*
X134305180Y-77068005D01*
X134316555Y-77105501D01*
X134321000Y-77150638D01*
X134321000Y-77789362D01*
X134316555Y-77834499D01*
X134305180Y-77871995D01*
X134286708Y-77906554D01*
X134261847Y-77936847D01*
X134231554Y-77961708D01*
X134196995Y-77980180D01*
X134159499Y-77991555D01*
X134114362Y-77996000D01*
X133375638Y-77996000D01*
X133330501Y-77991555D01*
X133293005Y-77980180D01*
X133258446Y-77961708D01*
X133228153Y-77936847D01*
X133203292Y-77906554D01*
X133184820Y-77871995D01*
X133173445Y-77834499D01*
X133169000Y-77789362D01*
X133169000Y-77150638D01*
X133173445Y-77105501D01*
X133184820Y-77068005D01*
X133203292Y-77033446D01*
X133228153Y-77003153D01*
X133258446Y-76978292D01*
X133293005Y-76959820D01*
X133330501Y-76948445D01*
X133375638Y-76944000D01*
X134114362Y-76944000D01*
X134159499Y-76948445D01*
X134159499Y-76948445D01*
G37*
G36*
X140989499Y-76948445D02*
G01*
X141026995Y-76959820D01*
X141061554Y-76978292D01*
X141091847Y-77003153D01*
X141116708Y-77033446D01*
X141135180Y-77068005D01*
X141146555Y-77105501D01*
X141151000Y-77150638D01*
X141151000Y-77789362D01*
X141146555Y-77834499D01*
X141135180Y-77871995D01*
X141116708Y-77906554D01*
X141091847Y-77936847D01*
X141061554Y-77961708D01*
X141026995Y-77980180D01*
X140989499Y-77991555D01*
X140944362Y-77996000D01*
X140205638Y-77996000D01*
X140160501Y-77991555D01*
X140123005Y-77980180D01*
X140088446Y-77961708D01*
X140058153Y-77936847D01*
X140033292Y-77906554D01*
X140014820Y-77871995D01*
X140003445Y-77834499D01*
X139999000Y-77789362D01*
X139999000Y-77150638D01*
X140003445Y-77105501D01*
X140014820Y-77068005D01*
X140033292Y-77033446D01*
X140058153Y-77003153D01*
X140088446Y-76978292D01*
X140123005Y-76959820D01*
X140160501Y-76948445D01*
X140205638Y-76944000D01*
X140944362Y-76944000D01*
X140989499Y-76948445D01*
X140989499Y-76948445D01*
G37*
G36*
X139239499Y-76948445D02*
G01*
X139276995Y-76959820D01*
X139311554Y-76978292D01*
X139341847Y-77003153D01*
X139366708Y-77033446D01*
X139385180Y-77068005D01*
X139396555Y-77105501D01*
X139401000Y-77150638D01*
X139401000Y-77789362D01*
X139396555Y-77834499D01*
X139385180Y-77871995D01*
X139366708Y-77906554D01*
X139341847Y-77936847D01*
X139311554Y-77961708D01*
X139276995Y-77980180D01*
X139239499Y-77991555D01*
X139194362Y-77996000D01*
X138455638Y-77996000D01*
X138410501Y-77991555D01*
X138373005Y-77980180D01*
X138338446Y-77961708D01*
X138308153Y-77936847D01*
X138283292Y-77906554D01*
X138264820Y-77871995D01*
X138253445Y-77834499D01*
X138249000Y-77789362D01*
X138249000Y-77150638D01*
X138253445Y-77105501D01*
X138264820Y-77068005D01*
X138283292Y-77033446D01*
X138308153Y-77003153D01*
X138338446Y-76978292D01*
X138373005Y-76959820D01*
X138410501Y-76948445D01*
X138455638Y-76944000D01*
X139194362Y-76944000D01*
X139239499Y-76948445D01*
X139239499Y-76948445D01*
G37*
G36*
X135909499Y-76948445D02*
G01*
X135946995Y-76959820D01*
X135981554Y-76978292D01*
X136011847Y-77003153D01*
X136036708Y-77033446D01*
X136055180Y-77068005D01*
X136066555Y-77105501D01*
X136071000Y-77150638D01*
X136071000Y-77789362D01*
X136066555Y-77834499D01*
X136055180Y-77871995D01*
X136036708Y-77906554D01*
X136011847Y-77936847D01*
X135981554Y-77961708D01*
X135946995Y-77980180D01*
X135909499Y-77991555D01*
X135864362Y-77996000D01*
X135125638Y-77996000D01*
X135080501Y-77991555D01*
X135043005Y-77980180D01*
X135008446Y-77961708D01*
X134978153Y-77936847D01*
X134953292Y-77906554D01*
X134934820Y-77871995D01*
X134923445Y-77834499D01*
X134919000Y-77789362D01*
X134919000Y-77150638D01*
X134923445Y-77105501D01*
X134934820Y-77068005D01*
X134953292Y-77033446D01*
X134978153Y-77003153D01*
X135008446Y-76978292D01*
X135043005Y-76959820D01*
X135080501Y-76948445D01*
X135125638Y-76944000D01*
X135864362Y-76944000D01*
X135909499Y-76948445D01*
X135909499Y-76948445D01*
G37*
M02*
