G04 #@! TF.GenerationSoftware,KiCad,Pcbnew,(5.1.0)-1*
G04 #@! TF.CreationDate,2020-08-07T11:47:51-07:00*
G04 #@! TF.ProjectId,MAX7_Proto,4d415837-5f50-4726-9f74-6f2e6b696361,rev?*
G04 #@! TF.SameCoordinates,Original*
G04 #@! TF.FileFunction,Paste,Bot*
G04 #@! TF.FilePolarity,Positive*
%FSLAX46Y46*%
G04 Gerber Fmt 4.6, Leading zero omitted, Abs format (unit mm)*
G04 Created by KiCad (PCBNEW (5.1.0)-1) date 2020-08-07 11:47:51*
%MOMM*%
%LPD*%
G04 APERTURE LIST*
%ADD10C,0.100000*%
%ADD11C,0.950000*%
%ADD12C,1.350000*%
%ADD13R,1.560000X0.650000*%
G04 APERTURE END LIST*
D10*
G36*
X136595779Y-97316144D02*
G01*
X136618834Y-97319563D01*
X136641443Y-97325227D01*
X136663387Y-97333079D01*
X136684457Y-97343044D01*
X136704448Y-97355026D01*
X136723168Y-97368910D01*
X136740438Y-97384562D01*
X136756090Y-97401832D01*
X136769974Y-97420552D01*
X136781956Y-97440543D01*
X136791921Y-97461613D01*
X136799773Y-97483557D01*
X136805437Y-97506166D01*
X136808856Y-97529221D01*
X136810000Y-97552500D01*
X136810000Y-98027500D01*
X136808856Y-98050779D01*
X136805437Y-98073834D01*
X136799773Y-98096443D01*
X136791921Y-98118387D01*
X136781956Y-98139457D01*
X136769974Y-98159448D01*
X136756090Y-98178168D01*
X136740438Y-98195438D01*
X136723168Y-98211090D01*
X136704448Y-98224974D01*
X136684457Y-98236956D01*
X136663387Y-98246921D01*
X136641443Y-98254773D01*
X136618834Y-98260437D01*
X136595779Y-98263856D01*
X136572500Y-98265000D01*
X135997500Y-98265000D01*
X135974221Y-98263856D01*
X135951166Y-98260437D01*
X135928557Y-98254773D01*
X135906613Y-98246921D01*
X135885543Y-98236956D01*
X135865552Y-98224974D01*
X135846832Y-98211090D01*
X135829562Y-98195438D01*
X135813910Y-98178168D01*
X135800026Y-98159448D01*
X135788044Y-98139457D01*
X135778079Y-98118387D01*
X135770227Y-98096443D01*
X135764563Y-98073834D01*
X135761144Y-98050779D01*
X135760000Y-98027500D01*
X135760000Y-97552500D01*
X135761144Y-97529221D01*
X135764563Y-97506166D01*
X135770227Y-97483557D01*
X135778079Y-97461613D01*
X135788044Y-97440543D01*
X135800026Y-97420552D01*
X135813910Y-97401832D01*
X135829562Y-97384562D01*
X135846832Y-97368910D01*
X135865552Y-97355026D01*
X135885543Y-97343044D01*
X135906613Y-97333079D01*
X135928557Y-97325227D01*
X135951166Y-97319563D01*
X135974221Y-97316144D01*
X135997500Y-97315000D01*
X136572500Y-97315000D01*
X136595779Y-97316144D01*
X136595779Y-97316144D01*
G37*
D11*
X136285000Y-97790000D03*
D10*
G36*
X138345779Y-97316144D02*
G01*
X138368834Y-97319563D01*
X138391443Y-97325227D01*
X138413387Y-97333079D01*
X138434457Y-97343044D01*
X138454448Y-97355026D01*
X138473168Y-97368910D01*
X138490438Y-97384562D01*
X138506090Y-97401832D01*
X138519974Y-97420552D01*
X138531956Y-97440543D01*
X138541921Y-97461613D01*
X138549773Y-97483557D01*
X138555437Y-97506166D01*
X138558856Y-97529221D01*
X138560000Y-97552500D01*
X138560000Y-98027500D01*
X138558856Y-98050779D01*
X138555437Y-98073834D01*
X138549773Y-98096443D01*
X138541921Y-98118387D01*
X138531956Y-98139457D01*
X138519974Y-98159448D01*
X138506090Y-98178168D01*
X138490438Y-98195438D01*
X138473168Y-98211090D01*
X138454448Y-98224974D01*
X138434457Y-98236956D01*
X138413387Y-98246921D01*
X138391443Y-98254773D01*
X138368834Y-98260437D01*
X138345779Y-98263856D01*
X138322500Y-98265000D01*
X137747500Y-98265000D01*
X137724221Y-98263856D01*
X137701166Y-98260437D01*
X137678557Y-98254773D01*
X137656613Y-98246921D01*
X137635543Y-98236956D01*
X137615552Y-98224974D01*
X137596832Y-98211090D01*
X137579562Y-98195438D01*
X137563910Y-98178168D01*
X137550026Y-98159448D01*
X137538044Y-98139457D01*
X137528079Y-98118387D01*
X137520227Y-98096443D01*
X137514563Y-98073834D01*
X137511144Y-98050779D01*
X137510000Y-98027500D01*
X137510000Y-97552500D01*
X137511144Y-97529221D01*
X137514563Y-97506166D01*
X137520227Y-97483557D01*
X137528079Y-97461613D01*
X137538044Y-97440543D01*
X137550026Y-97420552D01*
X137563910Y-97401832D01*
X137579562Y-97384562D01*
X137596832Y-97368910D01*
X137615552Y-97355026D01*
X137635543Y-97343044D01*
X137656613Y-97333079D01*
X137678557Y-97325227D01*
X137701166Y-97319563D01*
X137724221Y-97316144D01*
X137747500Y-97315000D01*
X138322500Y-97315000D01*
X138345779Y-97316144D01*
X138345779Y-97316144D01*
G37*
D11*
X138035000Y-97790000D03*
D10*
G36*
X141230779Y-101951144D02*
G01*
X141253834Y-101954563D01*
X141276443Y-101960227D01*
X141298387Y-101968079D01*
X141319457Y-101978044D01*
X141339448Y-101990026D01*
X141358168Y-102003910D01*
X141375438Y-102019562D01*
X141391090Y-102036832D01*
X141404974Y-102055552D01*
X141416956Y-102075543D01*
X141426921Y-102096613D01*
X141434773Y-102118557D01*
X141440437Y-102141166D01*
X141443856Y-102164221D01*
X141445000Y-102187500D01*
X141445000Y-102762500D01*
X141443856Y-102785779D01*
X141440437Y-102808834D01*
X141434773Y-102831443D01*
X141426921Y-102853387D01*
X141416956Y-102874457D01*
X141404974Y-102894448D01*
X141391090Y-102913168D01*
X141375438Y-102930438D01*
X141358168Y-102946090D01*
X141339448Y-102959974D01*
X141319457Y-102971956D01*
X141298387Y-102981921D01*
X141276443Y-102989773D01*
X141253834Y-102995437D01*
X141230779Y-102998856D01*
X141207500Y-103000000D01*
X140732500Y-103000000D01*
X140709221Y-102998856D01*
X140686166Y-102995437D01*
X140663557Y-102989773D01*
X140641613Y-102981921D01*
X140620543Y-102971956D01*
X140600552Y-102959974D01*
X140581832Y-102946090D01*
X140564562Y-102930438D01*
X140548910Y-102913168D01*
X140535026Y-102894448D01*
X140523044Y-102874457D01*
X140513079Y-102853387D01*
X140505227Y-102831443D01*
X140499563Y-102808834D01*
X140496144Y-102785779D01*
X140495000Y-102762500D01*
X140495000Y-102187500D01*
X140496144Y-102164221D01*
X140499563Y-102141166D01*
X140505227Y-102118557D01*
X140513079Y-102096613D01*
X140523044Y-102075543D01*
X140535026Y-102055552D01*
X140548910Y-102036832D01*
X140564562Y-102019562D01*
X140581832Y-102003910D01*
X140600552Y-101990026D01*
X140620543Y-101978044D01*
X140641613Y-101968079D01*
X140663557Y-101960227D01*
X140686166Y-101954563D01*
X140709221Y-101951144D01*
X140732500Y-101950000D01*
X141207500Y-101950000D01*
X141230779Y-101951144D01*
X141230779Y-101951144D01*
G37*
D11*
X140970000Y-102475000D03*
D10*
G36*
X141230779Y-100201144D02*
G01*
X141253834Y-100204563D01*
X141276443Y-100210227D01*
X141298387Y-100218079D01*
X141319457Y-100228044D01*
X141339448Y-100240026D01*
X141358168Y-100253910D01*
X141375438Y-100269562D01*
X141391090Y-100286832D01*
X141404974Y-100305552D01*
X141416956Y-100325543D01*
X141426921Y-100346613D01*
X141434773Y-100368557D01*
X141440437Y-100391166D01*
X141443856Y-100414221D01*
X141445000Y-100437500D01*
X141445000Y-101012500D01*
X141443856Y-101035779D01*
X141440437Y-101058834D01*
X141434773Y-101081443D01*
X141426921Y-101103387D01*
X141416956Y-101124457D01*
X141404974Y-101144448D01*
X141391090Y-101163168D01*
X141375438Y-101180438D01*
X141358168Y-101196090D01*
X141339448Y-101209974D01*
X141319457Y-101221956D01*
X141298387Y-101231921D01*
X141276443Y-101239773D01*
X141253834Y-101245437D01*
X141230779Y-101248856D01*
X141207500Y-101250000D01*
X140732500Y-101250000D01*
X140709221Y-101248856D01*
X140686166Y-101245437D01*
X140663557Y-101239773D01*
X140641613Y-101231921D01*
X140620543Y-101221956D01*
X140600552Y-101209974D01*
X140581832Y-101196090D01*
X140564562Y-101180438D01*
X140548910Y-101163168D01*
X140535026Y-101144448D01*
X140523044Y-101124457D01*
X140513079Y-101103387D01*
X140505227Y-101081443D01*
X140499563Y-101058834D01*
X140496144Y-101035779D01*
X140495000Y-101012500D01*
X140495000Y-100437500D01*
X140496144Y-100414221D01*
X140499563Y-100391166D01*
X140505227Y-100368557D01*
X140513079Y-100346613D01*
X140523044Y-100325543D01*
X140535026Y-100305552D01*
X140548910Y-100286832D01*
X140564562Y-100269562D01*
X140581832Y-100253910D01*
X140600552Y-100240026D01*
X140620543Y-100228044D01*
X140641613Y-100218079D01*
X140663557Y-100210227D01*
X140686166Y-100204563D01*
X140709221Y-100201144D01*
X140732500Y-100200000D01*
X141207500Y-100200000D01*
X141230779Y-100201144D01*
X141230779Y-100201144D01*
G37*
D11*
X140970000Y-100725000D03*
D10*
G36*
X138690779Y-79881144D02*
G01*
X138713834Y-79884563D01*
X138736443Y-79890227D01*
X138758387Y-79898079D01*
X138779457Y-79908044D01*
X138799448Y-79920026D01*
X138818168Y-79933910D01*
X138835438Y-79949562D01*
X138851090Y-79966832D01*
X138864974Y-79985552D01*
X138876956Y-80005543D01*
X138886921Y-80026613D01*
X138894773Y-80048557D01*
X138900437Y-80071166D01*
X138903856Y-80094221D01*
X138905000Y-80117500D01*
X138905000Y-80692500D01*
X138903856Y-80715779D01*
X138900437Y-80738834D01*
X138894773Y-80761443D01*
X138886921Y-80783387D01*
X138876956Y-80804457D01*
X138864974Y-80824448D01*
X138851090Y-80843168D01*
X138835438Y-80860438D01*
X138818168Y-80876090D01*
X138799448Y-80889974D01*
X138779457Y-80901956D01*
X138758387Y-80911921D01*
X138736443Y-80919773D01*
X138713834Y-80925437D01*
X138690779Y-80928856D01*
X138667500Y-80930000D01*
X138192500Y-80930000D01*
X138169221Y-80928856D01*
X138146166Y-80925437D01*
X138123557Y-80919773D01*
X138101613Y-80911921D01*
X138080543Y-80901956D01*
X138060552Y-80889974D01*
X138041832Y-80876090D01*
X138024562Y-80860438D01*
X138008910Y-80843168D01*
X137995026Y-80824448D01*
X137983044Y-80804457D01*
X137973079Y-80783387D01*
X137965227Y-80761443D01*
X137959563Y-80738834D01*
X137956144Y-80715779D01*
X137955000Y-80692500D01*
X137955000Y-80117500D01*
X137956144Y-80094221D01*
X137959563Y-80071166D01*
X137965227Y-80048557D01*
X137973079Y-80026613D01*
X137983044Y-80005543D01*
X137995026Y-79985552D01*
X138008910Y-79966832D01*
X138024562Y-79949562D01*
X138041832Y-79933910D01*
X138060552Y-79920026D01*
X138080543Y-79908044D01*
X138101613Y-79898079D01*
X138123557Y-79890227D01*
X138146166Y-79884563D01*
X138169221Y-79881144D01*
X138192500Y-79880000D01*
X138667500Y-79880000D01*
X138690779Y-79881144D01*
X138690779Y-79881144D01*
G37*
D11*
X138430000Y-80405000D03*
D10*
G36*
X138690779Y-81631144D02*
G01*
X138713834Y-81634563D01*
X138736443Y-81640227D01*
X138758387Y-81648079D01*
X138779457Y-81658044D01*
X138799448Y-81670026D01*
X138818168Y-81683910D01*
X138835438Y-81699562D01*
X138851090Y-81716832D01*
X138864974Y-81735552D01*
X138876956Y-81755543D01*
X138886921Y-81776613D01*
X138894773Y-81798557D01*
X138900437Y-81821166D01*
X138903856Y-81844221D01*
X138905000Y-81867500D01*
X138905000Y-82442500D01*
X138903856Y-82465779D01*
X138900437Y-82488834D01*
X138894773Y-82511443D01*
X138886921Y-82533387D01*
X138876956Y-82554457D01*
X138864974Y-82574448D01*
X138851090Y-82593168D01*
X138835438Y-82610438D01*
X138818168Y-82626090D01*
X138799448Y-82639974D01*
X138779457Y-82651956D01*
X138758387Y-82661921D01*
X138736443Y-82669773D01*
X138713834Y-82675437D01*
X138690779Y-82678856D01*
X138667500Y-82680000D01*
X138192500Y-82680000D01*
X138169221Y-82678856D01*
X138146166Y-82675437D01*
X138123557Y-82669773D01*
X138101613Y-82661921D01*
X138080543Y-82651956D01*
X138060552Y-82639974D01*
X138041832Y-82626090D01*
X138024562Y-82610438D01*
X138008910Y-82593168D01*
X137995026Y-82574448D01*
X137983044Y-82554457D01*
X137973079Y-82533387D01*
X137965227Y-82511443D01*
X137959563Y-82488834D01*
X137956144Y-82465779D01*
X137955000Y-82442500D01*
X137955000Y-81867500D01*
X137956144Y-81844221D01*
X137959563Y-81821166D01*
X137965227Y-81798557D01*
X137973079Y-81776613D01*
X137983044Y-81755543D01*
X137995026Y-81735552D01*
X138008910Y-81716832D01*
X138024562Y-81699562D01*
X138041832Y-81683910D01*
X138060552Y-81670026D01*
X138080543Y-81658044D01*
X138101613Y-81648079D01*
X138123557Y-81640227D01*
X138146166Y-81634563D01*
X138169221Y-81631144D01*
X138192500Y-81630000D01*
X138667500Y-81630000D01*
X138690779Y-81631144D01*
X138690779Y-81631144D01*
G37*
D11*
X138430000Y-82155000D03*
D10*
G36*
X133265779Y-83346144D02*
G01*
X133288834Y-83349563D01*
X133311443Y-83355227D01*
X133333387Y-83363079D01*
X133354457Y-83373044D01*
X133374448Y-83385026D01*
X133393168Y-83398910D01*
X133410438Y-83414562D01*
X133426090Y-83431832D01*
X133439974Y-83450552D01*
X133451956Y-83470543D01*
X133461921Y-83491613D01*
X133469773Y-83513557D01*
X133475437Y-83536166D01*
X133478856Y-83559221D01*
X133480000Y-83582500D01*
X133480000Y-84057500D01*
X133478856Y-84080779D01*
X133475437Y-84103834D01*
X133469773Y-84126443D01*
X133461921Y-84148387D01*
X133451956Y-84169457D01*
X133439974Y-84189448D01*
X133426090Y-84208168D01*
X133410438Y-84225438D01*
X133393168Y-84241090D01*
X133374448Y-84254974D01*
X133354457Y-84266956D01*
X133333387Y-84276921D01*
X133311443Y-84284773D01*
X133288834Y-84290437D01*
X133265779Y-84293856D01*
X133242500Y-84295000D01*
X132667500Y-84295000D01*
X132644221Y-84293856D01*
X132621166Y-84290437D01*
X132598557Y-84284773D01*
X132576613Y-84276921D01*
X132555543Y-84266956D01*
X132535552Y-84254974D01*
X132516832Y-84241090D01*
X132499562Y-84225438D01*
X132483910Y-84208168D01*
X132470026Y-84189448D01*
X132458044Y-84169457D01*
X132448079Y-84148387D01*
X132440227Y-84126443D01*
X132434563Y-84103834D01*
X132431144Y-84080779D01*
X132430000Y-84057500D01*
X132430000Y-83582500D01*
X132431144Y-83559221D01*
X132434563Y-83536166D01*
X132440227Y-83513557D01*
X132448079Y-83491613D01*
X132458044Y-83470543D01*
X132470026Y-83450552D01*
X132483910Y-83431832D01*
X132499562Y-83414562D01*
X132516832Y-83398910D01*
X132535552Y-83385026D01*
X132555543Y-83373044D01*
X132576613Y-83363079D01*
X132598557Y-83355227D01*
X132621166Y-83349563D01*
X132644221Y-83346144D01*
X132667500Y-83345000D01*
X133242500Y-83345000D01*
X133265779Y-83346144D01*
X133265779Y-83346144D01*
G37*
D11*
X132955000Y-83820000D03*
D10*
G36*
X131515779Y-83346144D02*
G01*
X131538834Y-83349563D01*
X131561443Y-83355227D01*
X131583387Y-83363079D01*
X131604457Y-83373044D01*
X131624448Y-83385026D01*
X131643168Y-83398910D01*
X131660438Y-83414562D01*
X131676090Y-83431832D01*
X131689974Y-83450552D01*
X131701956Y-83470543D01*
X131711921Y-83491613D01*
X131719773Y-83513557D01*
X131725437Y-83536166D01*
X131728856Y-83559221D01*
X131730000Y-83582500D01*
X131730000Y-84057500D01*
X131728856Y-84080779D01*
X131725437Y-84103834D01*
X131719773Y-84126443D01*
X131711921Y-84148387D01*
X131701956Y-84169457D01*
X131689974Y-84189448D01*
X131676090Y-84208168D01*
X131660438Y-84225438D01*
X131643168Y-84241090D01*
X131624448Y-84254974D01*
X131604457Y-84266956D01*
X131583387Y-84276921D01*
X131561443Y-84284773D01*
X131538834Y-84290437D01*
X131515779Y-84293856D01*
X131492500Y-84295000D01*
X130917500Y-84295000D01*
X130894221Y-84293856D01*
X130871166Y-84290437D01*
X130848557Y-84284773D01*
X130826613Y-84276921D01*
X130805543Y-84266956D01*
X130785552Y-84254974D01*
X130766832Y-84241090D01*
X130749562Y-84225438D01*
X130733910Y-84208168D01*
X130720026Y-84189448D01*
X130708044Y-84169457D01*
X130698079Y-84148387D01*
X130690227Y-84126443D01*
X130684563Y-84103834D01*
X130681144Y-84080779D01*
X130680000Y-84057500D01*
X130680000Y-83582500D01*
X130681144Y-83559221D01*
X130684563Y-83536166D01*
X130690227Y-83513557D01*
X130698079Y-83491613D01*
X130708044Y-83470543D01*
X130720026Y-83450552D01*
X130733910Y-83431832D01*
X130749562Y-83414562D01*
X130766832Y-83398910D01*
X130785552Y-83385026D01*
X130805543Y-83373044D01*
X130826613Y-83363079D01*
X130848557Y-83355227D01*
X130871166Y-83349563D01*
X130894221Y-83346144D01*
X130917500Y-83345000D01*
X131492500Y-83345000D01*
X131515779Y-83346144D01*
X131515779Y-83346144D01*
G37*
D11*
X131205000Y-83820000D03*
D10*
G36*
X133610779Y-100201144D02*
G01*
X133633834Y-100204563D01*
X133656443Y-100210227D01*
X133678387Y-100218079D01*
X133699457Y-100228044D01*
X133719448Y-100240026D01*
X133738168Y-100253910D01*
X133755438Y-100269562D01*
X133771090Y-100286832D01*
X133784974Y-100305552D01*
X133796956Y-100325543D01*
X133806921Y-100346613D01*
X133814773Y-100368557D01*
X133820437Y-100391166D01*
X133823856Y-100414221D01*
X133825000Y-100437500D01*
X133825000Y-101012500D01*
X133823856Y-101035779D01*
X133820437Y-101058834D01*
X133814773Y-101081443D01*
X133806921Y-101103387D01*
X133796956Y-101124457D01*
X133784974Y-101144448D01*
X133771090Y-101163168D01*
X133755438Y-101180438D01*
X133738168Y-101196090D01*
X133719448Y-101209974D01*
X133699457Y-101221956D01*
X133678387Y-101231921D01*
X133656443Y-101239773D01*
X133633834Y-101245437D01*
X133610779Y-101248856D01*
X133587500Y-101250000D01*
X133112500Y-101250000D01*
X133089221Y-101248856D01*
X133066166Y-101245437D01*
X133043557Y-101239773D01*
X133021613Y-101231921D01*
X133000543Y-101221956D01*
X132980552Y-101209974D01*
X132961832Y-101196090D01*
X132944562Y-101180438D01*
X132928910Y-101163168D01*
X132915026Y-101144448D01*
X132903044Y-101124457D01*
X132893079Y-101103387D01*
X132885227Y-101081443D01*
X132879563Y-101058834D01*
X132876144Y-101035779D01*
X132875000Y-101012500D01*
X132875000Y-100437500D01*
X132876144Y-100414221D01*
X132879563Y-100391166D01*
X132885227Y-100368557D01*
X132893079Y-100346613D01*
X132903044Y-100325543D01*
X132915026Y-100305552D01*
X132928910Y-100286832D01*
X132944562Y-100269562D01*
X132961832Y-100253910D01*
X132980552Y-100240026D01*
X133000543Y-100228044D01*
X133021613Y-100218079D01*
X133043557Y-100210227D01*
X133066166Y-100204563D01*
X133089221Y-100201144D01*
X133112500Y-100200000D01*
X133587500Y-100200000D01*
X133610779Y-100201144D01*
X133610779Y-100201144D01*
G37*
D11*
X133350000Y-100725000D03*
D10*
G36*
X133610779Y-101951144D02*
G01*
X133633834Y-101954563D01*
X133656443Y-101960227D01*
X133678387Y-101968079D01*
X133699457Y-101978044D01*
X133719448Y-101990026D01*
X133738168Y-102003910D01*
X133755438Y-102019562D01*
X133771090Y-102036832D01*
X133784974Y-102055552D01*
X133796956Y-102075543D01*
X133806921Y-102096613D01*
X133814773Y-102118557D01*
X133820437Y-102141166D01*
X133823856Y-102164221D01*
X133825000Y-102187500D01*
X133825000Y-102762500D01*
X133823856Y-102785779D01*
X133820437Y-102808834D01*
X133814773Y-102831443D01*
X133806921Y-102853387D01*
X133796956Y-102874457D01*
X133784974Y-102894448D01*
X133771090Y-102913168D01*
X133755438Y-102930438D01*
X133738168Y-102946090D01*
X133719448Y-102959974D01*
X133699457Y-102971956D01*
X133678387Y-102981921D01*
X133656443Y-102989773D01*
X133633834Y-102995437D01*
X133610779Y-102998856D01*
X133587500Y-103000000D01*
X133112500Y-103000000D01*
X133089221Y-102998856D01*
X133066166Y-102995437D01*
X133043557Y-102989773D01*
X133021613Y-102981921D01*
X133000543Y-102971956D01*
X132980552Y-102959974D01*
X132961832Y-102946090D01*
X132944562Y-102930438D01*
X132928910Y-102913168D01*
X132915026Y-102894448D01*
X132903044Y-102874457D01*
X132893079Y-102853387D01*
X132885227Y-102831443D01*
X132879563Y-102808834D01*
X132876144Y-102785779D01*
X132875000Y-102762500D01*
X132875000Y-102187500D01*
X132876144Y-102164221D01*
X132879563Y-102141166D01*
X132885227Y-102118557D01*
X132893079Y-102096613D01*
X132903044Y-102075543D01*
X132915026Y-102055552D01*
X132928910Y-102036832D01*
X132944562Y-102019562D01*
X132961832Y-102003910D01*
X132980552Y-101990026D01*
X133000543Y-101978044D01*
X133021613Y-101968079D01*
X133043557Y-101960227D01*
X133066166Y-101954563D01*
X133089221Y-101951144D01*
X133112500Y-101950000D01*
X133587500Y-101950000D01*
X133610779Y-101951144D01*
X133610779Y-101951144D01*
G37*
D11*
X133350000Y-102475000D03*
D10*
G36*
X138345779Y-104936144D02*
G01*
X138368834Y-104939563D01*
X138391443Y-104945227D01*
X138413387Y-104953079D01*
X138434457Y-104963044D01*
X138454448Y-104975026D01*
X138473168Y-104988910D01*
X138490438Y-105004562D01*
X138506090Y-105021832D01*
X138519974Y-105040552D01*
X138531956Y-105060543D01*
X138541921Y-105081613D01*
X138549773Y-105103557D01*
X138555437Y-105126166D01*
X138558856Y-105149221D01*
X138560000Y-105172500D01*
X138560000Y-105647500D01*
X138558856Y-105670779D01*
X138555437Y-105693834D01*
X138549773Y-105716443D01*
X138541921Y-105738387D01*
X138531956Y-105759457D01*
X138519974Y-105779448D01*
X138506090Y-105798168D01*
X138490438Y-105815438D01*
X138473168Y-105831090D01*
X138454448Y-105844974D01*
X138434457Y-105856956D01*
X138413387Y-105866921D01*
X138391443Y-105874773D01*
X138368834Y-105880437D01*
X138345779Y-105883856D01*
X138322500Y-105885000D01*
X137747500Y-105885000D01*
X137724221Y-105883856D01*
X137701166Y-105880437D01*
X137678557Y-105874773D01*
X137656613Y-105866921D01*
X137635543Y-105856956D01*
X137615552Y-105844974D01*
X137596832Y-105831090D01*
X137579562Y-105815438D01*
X137563910Y-105798168D01*
X137550026Y-105779448D01*
X137538044Y-105759457D01*
X137528079Y-105738387D01*
X137520227Y-105716443D01*
X137514563Y-105693834D01*
X137511144Y-105670779D01*
X137510000Y-105647500D01*
X137510000Y-105172500D01*
X137511144Y-105149221D01*
X137514563Y-105126166D01*
X137520227Y-105103557D01*
X137528079Y-105081613D01*
X137538044Y-105060543D01*
X137550026Y-105040552D01*
X137563910Y-105021832D01*
X137579562Y-105004562D01*
X137596832Y-104988910D01*
X137615552Y-104975026D01*
X137635543Y-104963044D01*
X137656613Y-104953079D01*
X137678557Y-104945227D01*
X137701166Y-104939563D01*
X137724221Y-104936144D01*
X137747500Y-104935000D01*
X138322500Y-104935000D01*
X138345779Y-104936144D01*
X138345779Y-104936144D01*
G37*
D11*
X138035000Y-105410000D03*
D10*
G36*
X136595779Y-104936144D02*
G01*
X136618834Y-104939563D01*
X136641443Y-104945227D01*
X136663387Y-104953079D01*
X136684457Y-104963044D01*
X136704448Y-104975026D01*
X136723168Y-104988910D01*
X136740438Y-105004562D01*
X136756090Y-105021832D01*
X136769974Y-105040552D01*
X136781956Y-105060543D01*
X136791921Y-105081613D01*
X136799773Y-105103557D01*
X136805437Y-105126166D01*
X136808856Y-105149221D01*
X136810000Y-105172500D01*
X136810000Y-105647500D01*
X136808856Y-105670779D01*
X136805437Y-105693834D01*
X136799773Y-105716443D01*
X136791921Y-105738387D01*
X136781956Y-105759457D01*
X136769974Y-105779448D01*
X136756090Y-105798168D01*
X136740438Y-105815438D01*
X136723168Y-105831090D01*
X136704448Y-105844974D01*
X136684457Y-105856956D01*
X136663387Y-105866921D01*
X136641443Y-105874773D01*
X136618834Y-105880437D01*
X136595779Y-105883856D01*
X136572500Y-105885000D01*
X135997500Y-105885000D01*
X135974221Y-105883856D01*
X135951166Y-105880437D01*
X135928557Y-105874773D01*
X135906613Y-105866921D01*
X135885543Y-105856956D01*
X135865552Y-105844974D01*
X135846832Y-105831090D01*
X135829562Y-105815438D01*
X135813910Y-105798168D01*
X135800026Y-105779448D01*
X135788044Y-105759457D01*
X135778079Y-105738387D01*
X135770227Y-105716443D01*
X135764563Y-105693834D01*
X135761144Y-105670779D01*
X135760000Y-105647500D01*
X135760000Y-105172500D01*
X135761144Y-105149221D01*
X135764563Y-105126166D01*
X135770227Y-105103557D01*
X135778079Y-105081613D01*
X135788044Y-105060543D01*
X135800026Y-105040552D01*
X135813910Y-105021832D01*
X135829562Y-105004562D01*
X135846832Y-104988910D01*
X135865552Y-104975026D01*
X135885543Y-104963044D01*
X135906613Y-104953079D01*
X135928557Y-104945227D01*
X135951166Y-104939563D01*
X135974221Y-104936144D01*
X135997500Y-104935000D01*
X136572500Y-104935000D01*
X136595779Y-104936144D01*
X136595779Y-104936144D01*
G37*
D11*
X136285000Y-105410000D03*
D10*
G36*
X136150779Y-81631144D02*
G01*
X136173834Y-81634563D01*
X136196443Y-81640227D01*
X136218387Y-81648079D01*
X136239457Y-81658044D01*
X136259448Y-81670026D01*
X136278168Y-81683910D01*
X136295438Y-81699562D01*
X136311090Y-81716832D01*
X136324974Y-81735552D01*
X136336956Y-81755543D01*
X136346921Y-81776613D01*
X136354773Y-81798557D01*
X136360437Y-81821166D01*
X136363856Y-81844221D01*
X136365000Y-81867500D01*
X136365000Y-82442500D01*
X136363856Y-82465779D01*
X136360437Y-82488834D01*
X136354773Y-82511443D01*
X136346921Y-82533387D01*
X136336956Y-82554457D01*
X136324974Y-82574448D01*
X136311090Y-82593168D01*
X136295438Y-82610438D01*
X136278168Y-82626090D01*
X136259448Y-82639974D01*
X136239457Y-82651956D01*
X136218387Y-82661921D01*
X136196443Y-82669773D01*
X136173834Y-82675437D01*
X136150779Y-82678856D01*
X136127500Y-82680000D01*
X135652500Y-82680000D01*
X135629221Y-82678856D01*
X135606166Y-82675437D01*
X135583557Y-82669773D01*
X135561613Y-82661921D01*
X135540543Y-82651956D01*
X135520552Y-82639974D01*
X135501832Y-82626090D01*
X135484562Y-82610438D01*
X135468910Y-82593168D01*
X135455026Y-82574448D01*
X135443044Y-82554457D01*
X135433079Y-82533387D01*
X135425227Y-82511443D01*
X135419563Y-82488834D01*
X135416144Y-82465779D01*
X135415000Y-82442500D01*
X135415000Y-81867500D01*
X135416144Y-81844221D01*
X135419563Y-81821166D01*
X135425227Y-81798557D01*
X135433079Y-81776613D01*
X135443044Y-81755543D01*
X135455026Y-81735552D01*
X135468910Y-81716832D01*
X135484562Y-81699562D01*
X135501832Y-81683910D01*
X135520552Y-81670026D01*
X135540543Y-81658044D01*
X135561613Y-81648079D01*
X135583557Y-81640227D01*
X135606166Y-81634563D01*
X135629221Y-81631144D01*
X135652500Y-81630000D01*
X136127500Y-81630000D01*
X136150779Y-81631144D01*
X136150779Y-81631144D01*
G37*
D11*
X135890000Y-82155000D03*
D10*
G36*
X136150779Y-79881144D02*
G01*
X136173834Y-79884563D01*
X136196443Y-79890227D01*
X136218387Y-79898079D01*
X136239457Y-79908044D01*
X136259448Y-79920026D01*
X136278168Y-79933910D01*
X136295438Y-79949562D01*
X136311090Y-79966832D01*
X136324974Y-79985552D01*
X136336956Y-80005543D01*
X136346921Y-80026613D01*
X136354773Y-80048557D01*
X136360437Y-80071166D01*
X136363856Y-80094221D01*
X136365000Y-80117500D01*
X136365000Y-80692500D01*
X136363856Y-80715779D01*
X136360437Y-80738834D01*
X136354773Y-80761443D01*
X136346921Y-80783387D01*
X136336956Y-80804457D01*
X136324974Y-80824448D01*
X136311090Y-80843168D01*
X136295438Y-80860438D01*
X136278168Y-80876090D01*
X136259448Y-80889974D01*
X136239457Y-80901956D01*
X136218387Y-80911921D01*
X136196443Y-80919773D01*
X136173834Y-80925437D01*
X136150779Y-80928856D01*
X136127500Y-80930000D01*
X135652500Y-80930000D01*
X135629221Y-80928856D01*
X135606166Y-80925437D01*
X135583557Y-80919773D01*
X135561613Y-80911921D01*
X135540543Y-80901956D01*
X135520552Y-80889974D01*
X135501832Y-80876090D01*
X135484562Y-80860438D01*
X135468910Y-80843168D01*
X135455026Y-80824448D01*
X135443044Y-80804457D01*
X135433079Y-80783387D01*
X135425227Y-80761443D01*
X135419563Y-80738834D01*
X135416144Y-80715779D01*
X135415000Y-80692500D01*
X135415000Y-80117500D01*
X135416144Y-80094221D01*
X135419563Y-80071166D01*
X135425227Y-80048557D01*
X135433079Y-80026613D01*
X135443044Y-80005543D01*
X135455026Y-79985552D01*
X135468910Y-79966832D01*
X135484562Y-79949562D01*
X135501832Y-79933910D01*
X135520552Y-79920026D01*
X135540543Y-79908044D01*
X135561613Y-79898079D01*
X135583557Y-79890227D01*
X135606166Y-79884563D01*
X135629221Y-79881144D01*
X135652500Y-79880000D01*
X136127500Y-79880000D01*
X136150779Y-79881144D01*
X136150779Y-79881144D01*
G37*
D11*
X135890000Y-80405000D03*
D10*
G36*
X133912005Y-85686204D02*
G01*
X133936273Y-85689804D01*
X133960072Y-85695765D01*
X133983171Y-85704030D01*
X134005350Y-85714520D01*
X134026393Y-85727132D01*
X134046099Y-85741747D01*
X134064277Y-85758223D01*
X134080753Y-85776401D01*
X134095368Y-85796107D01*
X134107980Y-85817150D01*
X134118470Y-85839329D01*
X134126735Y-85862428D01*
X134132696Y-85886227D01*
X134136296Y-85910495D01*
X134137500Y-85934999D01*
X134137500Y-86785001D01*
X134136296Y-86809505D01*
X134132696Y-86833773D01*
X134126735Y-86857572D01*
X134118470Y-86880671D01*
X134107980Y-86902850D01*
X134095368Y-86923893D01*
X134080753Y-86943599D01*
X134064277Y-86961777D01*
X134046099Y-86978253D01*
X134026393Y-86992868D01*
X134005350Y-87005480D01*
X133983171Y-87015970D01*
X133960072Y-87024235D01*
X133936273Y-87030196D01*
X133912005Y-87033796D01*
X133887501Y-87035000D01*
X132812499Y-87035000D01*
X132787995Y-87033796D01*
X132763727Y-87030196D01*
X132739928Y-87024235D01*
X132716829Y-87015970D01*
X132694650Y-87005480D01*
X132673607Y-86992868D01*
X132653901Y-86978253D01*
X132635723Y-86961777D01*
X132619247Y-86943599D01*
X132604632Y-86923893D01*
X132592020Y-86902850D01*
X132581530Y-86880671D01*
X132573265Y-86857572D01*
X132567304Y-86833773D01*
X132563704Y-86809505D01*
X132562500Y-86785001D01*
X132562500Y-85934999D01*
X132563704Y-85910495D01*
X132567304Y-85886227D01*
X132573265Y-85862428D01*
X132581530Y-85839329D01*
X132592020Y-85817150D01*
X132604632Y-85796107D01*
X132619247Y-85776401D01*
X132635723Y-85758223D01*
X132653901Y-85741747D01*
X132673607Y-85727132D01*
X132694650Y-85714520D01*
X132716829Y-85704030D01*
X132739928Y-85695765D01*
X132763727Y-85689804D01*
X132787995Y-85686204D01*
X132812499Y-85685000D01*
X133887501Y-85685000D01*
X133912005Y-85686204D01*
X133912005Y-85686204D01*
G37*
D12*
X133350000Y-86360000D03*
D10*
G36*
X131037005Y-85686204D02*
G01*
X131061273Y-85689804D01*
X131085072Y-85695765D01*
X131108171Y-85704030D01*
X131130350Y-85714520D01*
X131151393Y-85727132D01*
X131171099Y-85741747D01*
X131189277Y-85758223D01*
X131205753Y-85776401D01*
X131220368Y-85796107D01*
X131232980Y-85817150D01*
X131243470Y-85839329D01*
X131251735Y-85862428D01*
X131257696Y-85886227D01*
X131261296Y-85910495D01*
X131262500Y-85934999D01*
X131262500Y-86785001D01*
X131261296Y-86809505D01*
X131257696Y-86833773D01*
X131251735Y-86857572D01*
X131243470Y-86880671D01*
X131232980Y-86902850D01*
X131220368Y-86923893D01*
X131205753Y-86943599D01*
X131189277Y-86961777D01*
X131171099Y-86978253D01*
X131151393Y-86992868D01*
X131130350Y-87005480D01*
X131108171Y-87015970D01*
X131085072Y-87024235D01*
X131061273Y-87030196D01*
X131037005Y-87033796D01*
X131012501Y-87035000D01*
X129937499Y-87035000D01*
X129912995Y-87033796D01*
X129888727Y-87030196D01*
X129864928Y-87024235D01*
X129841829Y-87015970D01*
X129819650Y-87005480D01*
X129798607Y-86992868D01*
X129778901Y-86978253D01*
X129760723Y-86961777D01*
X129744247Y-86943599D01*
X129729632Y-86923893D01*
X129717020Y-86902850D01*
X129706530Y-86880671D01*
X129698265Y-86857572D01*
X129692304Y-86833773D01*
X129688704Y-86809505D01*
X129687500Y-86785001D01*
X129687500Y-85934999D01*
X129688704Y-85910495D01*
X129692304Y-85886227D01*
X129698265Y-85862428D01*
X129706530Y-85839329D01*
X129717020Y-85817150D01*
X129729632Y-85796107D01*
X129744247Y-85776401D01*
X129760723Y-85758223D01*
X129778901Y-85741747D01*
X129798607Y-85727132D01*
X129819650Y-85714520D01*
X129841829Y-85704030D01*
X129864928Y-85695765D01*
X129888727Y-85689804D01*
X129912995Y-85686204D01*
X129937499Y-85685000D01*
X131012501Y-85685000D01*
X131037005Y-85686204D01*
X131037005Y-85686204D01*
G37*
D12*
X130475000Y-86360000D03*
D10*
G36*
X141419505Y-82866204D02*
G01*
X141443773Y-82869804D01*
X141467572Y-82875765D01*
X141490671Y-82884030D01*
X141512850Y-82894520D01*
X141533893Y-82907132D01*
X141553599Y-82921747D01*
X141571777Y-82938223D01*
X141588253Y-82956401D01*
X141602868Y-82976107D01*
X141615480Y-82997150D01*
X141625970Y-83019329D01*
X141634235Y-83042428D01*
X141640196Y-83066227D01*
X141643796Y-83090495D01*
X141645000Y-83114999D01*
X141645000Y-84190001D01*
X141643796Y-84214505D01*
X141640196Y-84238773D01*
X141634235Y-84262572D01*
X141625970Y-84285671D01*
X141615480Y-84307850D01*
X141602868Y-84328893D01*
X141588253Y-84348599D01*
X141571777Y-84366777D01*
X141553599Y-84383253D01*
X141533893Y-84397868D01*
X141512850Y-84410480D01*
X141490671Y-84420970D01*
X141467572Y-84429235D01*
X141443773Y-84435196D01*
X141419505Y-84438796D01*
X141395001Y-84440000D01*
X140544999Y-84440000D01*
X140520495Y-84438796D01*
X140496227Y-84435196D01*
X140472428Y-84429235D01*
X140449329Y-84420970D01*
X140427150Y-84410480D01*
X140406107Y-84397868D01*
X140386401Y-84383253D01*
X140368223Y-84366777D01*
X140351747Y-84348599D01*
X140337132Y-84328893D01*
X140324520Y-84307850D01*
X140314030Y-84285671D01*
X140305765Y-84262572D01*
X140299804Y-84238773D01*
X140296204Y-84214505D01*
X140295000Y-84190001D01*
X140295000Y-83114999D01*
X140296204Y-83090495D01*
X140299804Y-83066227D01*
X140305765Y-83042428D01*
X140314030Y-83019329D01*
X140324520Y-82997150D01*
X140337132Y-82976107D01*
X140351747Y-82956401D01*
X140368223Y-82938223D01*
X140386401Y-82921747D01*
X140406107Y-82907132D01*
X140427150Y-82894520D01*
X140449329Y-82884030D01*
X140472428Y-82875765D01*
X140496227Y-82869804D01*
X140520495Y-82866204D01*
X140544999Y-82865000D01*
X141395001Y-82865000D01*
X141419505Y-82866204D01*
X141419505Y-82866204D01*
G37*
D12*
X140970000Y-83652500D03*
D10*
G36*
X141419505Y-85741204D02*
G01*
X141443773Y-85744804D01*
X141467572Y-85750765D01*
X141490671Y-85759030D01*
X141512850Y-85769520D01*
X141533893Y-85782132D01*
X141553599Y-85796747D01*
X141571777Y-85813223D01*
X141588253Y-85831401D01*
X141602868Y-85851107D01*
X141615480Y-85872150D01*
X141625970Y-85894329D01*
X141634235Y-85917428D01*
X141640196Y-85941227D01*
X141643796Y-85965495D01*
X141645000Y-85989999D01*
X141645000Y-87065001D01*
X141643796Y-87089505D01*
X141640196Y-87113773D01*
X141634235Y-87137572D01*
X141625970Y-87160671D01*
X141615480Y-87182850D01*
X141602868Y-87203893D01*
X141588253Y-87223599D01*
X141571777Y-87241777D01*
X141553599Y-87258253D01*
X141533893Y-87272868D01*
X141512850Y-87285480D01*
X141490671Y-87295970D01*
X141467572Y-87304235D01*
X141443773Y-87310196D01*
X141419505Y-87313796D01*
X141395001Y-87315000D01*
X140544999Y-87315000D01*
X140520495Y-87313796D01*
X140496227Y-87310196D01*
X140472428Y-87304235D01*
X140449329Y-87295970D01*
X140427150Y-87285480D01*
X140406107Y-87272868D01*
X140386401Y-87258253D01*
X140368223Y-87241777D01*
X140351747Y-87223599D01*
X140337132Y-87203893D01*
X140324520Y-87182850D01*
X140314030Y-87160671D01*
X140305765Y-87137572D01*
X140299804Y-87113773D01*
X140296204Y-87089505D01*
X140295000Y-87065001D01*
X140295000Y-85989999D01*
X140296204Y-85965495D01*
X140299804Y-85941227D01*
X140305765Y-85917428D01*
X140314030Y-85894329D01*
X140324520Y-85872150D01*
X140337132Y-85851107D01*
X140351747Y-85831401D01*
X140368223Y-85813223D01*
X140386401Y-85796747D01*
X140406107Y-85782132D01*
X140427150Y-85769520D01*
X140449329Y-85759030D01*
X140472428Y-85750765D01*
X140496227Y-85744804D01*
X140520495Y-85741204D01*
X140544999Y-85740000D01*
X141395001Y-85740000D01*
X141419505Y-85741204D01*
X141419505Y-85741204D01*
G37*
D12*
X140970000Y-86527500D03*
D10*
G36*
X141675779Y-116366144D02*
G01*
X141698834Y-116369563D01*
X141721443Y-116375227D01*
X141743387Y-116383079D01*
X141764457Y-116393044D01*
X141784448Y-116405026D01*
X141803168Y-116418910D01*
X141820438Y-116434562D01*
X141836090Y-116451832D01*
X141849974Y-116470552D01*
X141861956Y-116490543D01*
X141871921Y-116511613D01*
X141879773Y-116533557D01*
X141885437Y-116556166D01*
X141888856Y-116579221D01*
X141890000Y-116602500D01*
X141890000Y-117077500D01*
X141888856Y-117100779D01*
X141885437Y-117123834D01*
X141879773Y-117146443D01*
X141871921Y-117168387D01*
X141861956Y-117189457D01*
X141849974Y-117209448D01*
X141836090Y-117228168D01*
X141820438Y-117245438D01*
X141803168Y-117261090D01*
X141784448Y-117274974D01*
X141764457Y-117286956D01*
X141743387Y-117296921D01*
X141721443Y-117304773D01*
X141698834Y-117310437D01*
X141675779Y-117313856D01*
X141652500Y-117315000D01*
X141077500Y-117315000D01*
X141054221Y-117313856D01*
X141031166Y-117310437D01*
X141008557Y-117304773D01*
X140986613Y-117296921D01*
X140965543Y-117286956D01*
X140945552Y-117274974D01*
X140926832Y-117261090D01*
X140909562Y-117245438D01*
X140893910Y-117228168D01*
X140880026Y-117209448D01*
X140868044Y-117189457D01*
X140858079Y-117168387D01*
X140850227Y-117146443D01*
X140844563Y-117123834D01*
X140841144Y-117100779D01*
X140840000Y-117077500D01*
X140840000Y-116602500D01*
X140841144Y-116579221D01*
X140844563Y-116556166D01*
X140850227Y-116533557D01*
X140858079Y-116511613D01*
X140868044Y-116490543D01*
X140880026Y-116470552D01*
X140893910Y-116451832D01*
X140909562Y-116434562D01*
X140926832Y-116418910D01*
X140945552Y-116405026D01*
X140965543Y-116393044D01*
X140986613Y-116383079D01*
X141008557Y-116375227D01*
X141031166Y-116369563D01*
X141054221Y-116366144D01*
X141077500Y-116365000D01*
X141652500Y-116365000D01*
X141675779Y-116366144D01*
X141675779Y-116366144D01*
G37*
D11*
X141365000Y-116840000D03*
D10*
G36*
X143425779Y-116366144D02*
G01*
X143448834Y-116369563D01*
X143471443Y-116375227D01*
X143493387Y-116383079D01*
X143514457Y-116393044D01*
X143534448Y-116405026D01*
X143553168Y-116418910D01*
X143570438Y-116434562D01*
X143586090Y-116451832D01*
X143599974Y-116470552D01*
X143611956Y-116490543D01*
X143621921Y-116511613D01*
X143629773Y-116533557D01*
X143635437Y-116556166D01*
X143638856Y-116579221D01*
X143640000Y-116602500D01*
X143640000Y-117077500D01*
X143638856Y-117100779D01*
X143635437Y-117123834D01*
X143629773Y-117146443D01*
X143621921Y-117168387D01*
X143611956Y-117189457D01*
X143599974Y-117209448D01*
X143586090Y-117228168D01*
X143570438Y-117245438D01*
X143553168Y-117261090D01*
X143534448Y-117274974D01*
X143514457Y-117286956D01*
X143493387Y-117296921D01*
X143471443Y-117304773D01*
X143448834Y-117310437D01*
X143425779Y-117313856D01*
X143402500Y-117315000D01*
X142827500Y-117315000D01*
X142804221Y-117313856D01*
X142781166Y-117310437D01*
X142758557Y-117304773D01*
X142736613Y-117296921D01*
X142715543Y-117286956D01*
X142695552Y-117274974D01*
X142676832Y-117261090D01*
X142659562Y-117245438D01*
X142643910Y-117228168D01*
X142630026Y-117209448D01*
X142618044Y-117189457D01*
X142608079Y-117168387D01*
X142600227Y-117146443D01*
X142594563Y-117123834D01*
X142591144Y-117100779D01*
X142590000Y-117077500D01*
X142590000Y-116602500D01*
X142591144Y-116579221D01*
X142594563Y-116556166D01*
X142600227Y-116533557D01*
X142608079Y-116511613D01*
X142618044Y-116490543D01*
X142630026Y-116470552D01*
X142643910Y-116451832D01*
X142659562Y-116434562D01*
X142676832Y-116418910D01*
X142695552Y-116405026D01*
X142715543Y-116393044D01*
X142736613Y-116383079D01*
X142758557Y-116375227D01*
X142781166Y-116369563D01*
X142804221Y-116366144D01*
X142827500Y-116365000D01*
X143402500Y-116365000D01*
X143425779Y-116366144D01*
X143425779Y-116366144D01*
G37*
D11*
X143115000Y-116840000D03*
D10*
G36*
X141675779Y-113826144D02*
G01*
X141698834Y-113829563D01*
X141721443Y-113835227D01*
X141743387Y-113843079D01*
X141764457Y-113853044D01*
X141784448Y-113865026D01*
X141803168Y-113878910D01*
X141820438Y-113894562D01*
X141836090Y-113911832D01*
X141849974Y-113930552D01*
X141861956Y-113950543D01*
X141871921Y-113971613D01*
X141879773Y-113993557D01*
X141885437Y-114016166D01*
X141888856Y-114039221D01*
X141890000Y-114062500D01*
X141890000Y-114537500D01*
X141888856Y-114560779D01*
X141885437Y-114583834D01*
X141879773Y-114606443D01*
X141871921Y-114628387D01*
X141861956Y-114649457D01*
X141849974Y-114669448D01*
X141836090Y-114688168D01*
X141820438Y-114705438D01*
X141803168Y-114721090D01*
X141784448Y-114734974D01*
X141764457Y-114746956D01*
X141743387Y-114756921D01*
X141721443Y-114764773D01*
X141698834Y-114770437D01*
X141675779Y-114773856D01*
X141652500Y-114775000D01*
X141077500Y-114775000D01*
X141054221Y-114773856D01*
X141031166Y-114770437D01*
X141008557Y-114764773D01*
X140986613Y-114756921D01*
X140965543Y-114746956D01*
X140945552Y-114734974D01*
X140926832Y-114721090D01*
X140909562Y-114705438D01*
X140893910Y-114688168D01*
X140880026Y-114669448D01*
X140868044Y-114649457D01*
X140858079Y-114628387D01*
X140850227Y-114606443D01*
X140844563Y-114583834D01*
X140841144Y-114560779D01*
X140840000Y-114537500D01*
X140840000Y-114062500D01*
X140841144Y-114039221D01*
X140844563Y-114016166D01*
X140850227Y-113993557D01*
X140858079Y-113971613D01*
X140868044Y-113950543D01*
X140880026Y-113930552D01*
X140893910Y-113911832D01*
X140909562Y-113894562D01*
X140926832Y-113878910D01*
X140945552Y-113865026D01*
X140965543Y-113853044D01*
X140986613Y-113843079D01*
X141008557Y-113835227D01*
X141031166Y-113829563D01*
X141054221Y-113826144D01*
X141077500Y-113825000D01*
X141652500Y-113825000D01*
X141675779Y-113826144D01*
X141675779Y-113826144D01*
G37*
D11*
X141365000Y-114300000D03*
D10*
G36*
X143425779Y-113826144D02*
G01*
X143448834Y-113829563D01*
X143471443Y-113835227D01*
X143493387Y-113843079D01*
X143514457Y-113853044D01*
X143534448Y-113865026D01*
X143553168Y-113878910D01*
X143570438Y-113894562D01*
X143586090Y-113911832D01*
X143599974Y-113930552D01*
X143611956Y-113950543D01*
X143621921Y-113971613D01*
X143629773Y-113993557D01*
X143635437Y-114016166D01*
X143638856Y-114039221D01*
X143640000Y-114062500D01*
X143640000Y-114537500D01*
X143638856Y-114560779D01*
X143635437Y-114583834D01*
X143629773Y-114606443D01*
X143621921Y-114628387D01*
X143611956Y-114649457D01*
X143599974Y-114669448D01*
X143586090Y-114688168D01*
X143570438Y-114705438D01*
X143553168Y-114721090D01*
X143534448Y-114734974D01*
X143514457Y-114746956D01*
X143493387Y-114756921D01*
X143471443Y-114764773D01*
X143448834Y-114770437D01*
X143425779Y-114773856D01*
X143402500Y-114775000D01*
X142827500Y-114775000D01*
X142804221Y-114773856D01*
X142781166Y-114770437D01*
X142758557Y-114764773D01*
X142736613Y-114756921D01*
X142715543Y-114746956D01*
X142695552Y-114734974D01*
X142676832Y-114721090D01*
X142659562Y-114705438D01*
X142643910Y-114688168D01*
X142630026Y-114669448D01*
X142618044Y-114649457D01*
X142608079Y-114628387D01*
X142600227Y-114606443D01*
X142594563Y-114583834D01*
X142591144Y-114560779D01*
X142590000Y-114537500D01*
X142590000Y-114062500D01*
X142591144Y-114039221D01*
X142594563Y-114016166D01*
X142600227Y-113993557D01*
X142608079Y-113971613D01*
X142618044Y-113950543D01*
X142630026Y-113930552D01*
X142643910Y-113911832D01*
X142659562Y-113894562D01*
X142676832Y-113878910D01*
X142695552Y-113865026D01*
X142715543Y-113853044D01*
X142736613Y-113843079D01*
X142758557Y-113835227D01*
X142781166Y-113829563D01*
X142804221Y-113826144D01*
X142827500Y-113825000D01*
X143402500Y-113825000D01*
X143425779Y-113826144D01*
X143425779Y-113826144D01*
G37*
D11*
X143115000Y-114300000D03*
D10*
G36*
X131515779Y-113826144D02*
G01*
X131538834Y-113829563D01*
X131561443Y-113835227D01*
X131583387Y-113843079D01*
X131604457Y-113853044D01*
X131624448Y-113865026D01*
X131643168Y-113878910D01*
X131660438Y-113894562D01*
X131676090Y-113911832D01*
X131689974Y-113930552D01*
X131701956Y-113950543D01*
X131711921Y-113971613D01*
X131719773Y-113993557D01*
X131725437Y-114016166D01*
X131728856Y-114039221D01*
X131730000Y-114062500D01*
X131730000Y-114537500D01*
X131728856Y-114560779D01*
X131725437Y-114583834D01*
X131719773Y-114606443D01*
X131711921Y-114628387D01*
X131701956Y-114649457D01*
X131689974Y-114669448D01*
X131676090Y-114688168D01*
X131660438Y-114705438D01*
X131643168Y-114721090D01*
X131624448Y-114734974D01*
X131604457Y-114746956D01*
X131583387Y-114756921D01*
X131561443Y-114764773D01*
X131538834Y-114770437D01*
X131515779Y-114773856D01*
X131492500Y-114775000D01*
X130917500Y-114775000D01*
X130894221Y-114773856D01*
X130871166Y-114770437D01*
X130848557Y-114764773D01*
X130826613Y-114756921D01*
X130805543Y-114746956D01*
X130785552Y-114734974D01*
X130766832Y-114721090D01*
X130749562Y-114705438D01*
X130733910Y-114688168D01*
X130720026Y-114669448D01*
X130708044Y-114649457D01*
X130698079Y-114628387D01*
X130690227Y-114606443D01*
X130684563Y-114583834D01*
X130681144Y-114560779D01*
X130680000Y-114537500D01*
X130680000Y-114062500D01*
X130681144Y-114039221D01*
X130684563Y-114016166D01*
X130690227Y-113993557D01*
X130698079Y-113971613D01*
X130708044Y-113950543D01*
X130720026Y-113930552D01*
X130733910Y-113911832D01*
X130749562Y-113894562D01*
X130766832Y-113878910D01*
X130785552Y-113865026D01*
X130805543Y-113853044D01*
X130826613Y-113843079D01*
X130848557Y-113835227D01*
X130871166Y-113829563D01*
X130894221Y-113826144D01*
X130917500Y-113825000D01*
X131492500Y-113825000D01*
X131515779Y-113826144D01*
X131515779Y-113826144D01*
G37*
D11*
X131205000Y-114300000D03*
D10*
G36*
X133265779Y-113826144D02*
G01*
X133288834Y-113829563D01*
X133311443Y-113835227D01*
X133333387Y-113843079D01*
X133354457Y-113853044D01*
X133374448Y-113865026D01*
X133393168Y-113878910D01*
X133410438Y-113894562D01*
X133426090Y-113911832D01*
X133439974Y-113930552D01*
X133451956Y-113950543D01*
X133461921Y-113971613D01*
X133469773Y-113993557D01*
X133475437Y-114016166D01*
X133478856Y-114039221D01*
X133480000Y-114062500D01*
X133480000Y-114537500D01*
X133478856Y-114560779D01*
X133475437Y-114583834D01*
X133469773Y-114606443D01*
X133461921Y-114628387D01*
X133451956Y-114649457D01*
X133439974Y-114669448D01*
X133426090Y-114688168D01*
X133410438Y-114705438D01*
X133393168Y-114721090D01*
X133374448Y-114734974D01*
X133354457Y-114746956D01*
X133333387Y-114756921D01*
X133311443Y-114764773D01*
X133288834Y-114770437D01*
X133265779Y-114773856D01*
X133242500Y-114775000D01*
X132667500Y-114775000D01*
X132644221Y-114773856D01*
X132621166Y-114770437D01*
X132598557Y-114764773D01*
X132576613Y-114756921D01*
X132555543Y-114746956D01*
X132535552Y-114734974D01*
X132516832Y-114721090D01*
X132499562Y-114705438D01*
X132483910Y-114688168D01*
X132470026Y-114669448D01*
X132458044Y-114649457D01*
X132448079Y-114628387D01*
X132440227Y-114606443D01*
X132434563Y-114583834D01*
X132431144Y-114560779D01*
X132430000Y-114537500D01*
X132430000Y-114062500D01*
X132431144Y-114039221D01*
X132434563Y-114016166D01*
X132440227Y-113993557D01*
X132448079Y-113971613D01*
X132458044Y-113950543D01*
X132470026Y-113930552D01*
X132483910Y-113911832D01*
X132499562Y-113894562D01*
X132516832Y-113878910D01*
X132535552Y-113865026D01*
X132555543Y-113853044D01*
X132576613Y-113843079D01*
X132598557Y-113835227D01*
X132621166Y-113829563D01*
X132644221Y-113826144D01*
X132667500Y-113825000D01*
X133242500Y-113825000D01*
X133265779Y-113826144D01*
X133265779Y-113826144D01*
G37*
D11*
X132955000Y-114300000D03*
D10*
G36*
X133265779Y-116366144D02*
G01*
X133288834Y-116369563D01*
X133311443Y-116375227D01*
X133333387Y-116383079D01*
X133354457Y-116393044D01*
X133374448Y-116405026D01*
X133393168Y-116418910D01*
X133410438Y-116434562D01*
X133426090Y-116451832D01*
X133439974Y-116470552D01*
X133451956Y-116490543D01*
X133461921Y-116511613D01*
X133469773Y-116533557D01*
X133475437Y-116556166D01*
X133478856Y-116579221D01*
X133480000Y-116602500D01*
X133480000Y-117077500D01*
X133478856Y-117100779D01*
X133475437Y-117123834D01*
X133469773Y-117146443D01*
X133461921Y-117168387D01*
X133451956Y-117189457D01*
X133439974Y-117209448D01*
X133426090Y-117228168D01*
X133410438Y-117245438D01*
X133393168Y-117261090D01*
X133374448Y-117274974D01*
X133354457Y-117286956D01*
X133333387Y-117296921D01*
X133311443Y-117304773D01*
X133288834Y-117310437D01*
X133265779Y-117313856D01*
X133242500Y-117315000D01*
X132667500Y-117315000D01*
X132644221Y-117313856D01*
X132621166Y-117310437D01*
X132598557Y-117304773D01*
X132576613Y-117296921D01*
X132555543Y-117286956D01*
X132535552Y-117274974D01*
X132516832Y-117261090D01*
X132499562Y-117245438D01*
X132483910Y-117228168D01*
X132470026Y-117209448D01*
X132458044Y-117189457D01*
X132448079Y-117168387D01*
X132440227Y-117146443D01*
X132434563Y-117123834D01*
X132431144Y-117100779D01*
X132430000Y-117077500D01*
X132430000Y-116602500D01*
X132431144Y-116579221D01*
X132434563Y-116556166D01*
X132440227Y-116533557D01*
X132448079Y-116511613D01*
X132458044Y-116490543D01*
X132470026Y-116470552D01*
X132483910Y-116451832D01*
X132499562Y-116434562D01*
X132516832Y-116418910D01*
X132535552Y-116405026D01*
X132555543Y-116393044D01*
X132576613Y-116383079D01*
X132598557Y-116375227D01*
X132621166Y-116369563D01*
X132644221Y-116366144D01*
X132667500Y-116365000D01*
X133242500Y-116365000D01*
X133265779Y-116366144D01*
X133265779Y-116366144D01*
G37*
D11*
X132955000Y-116840000D03*
D10*
G36*
X131515779Y-116366144D02*
G01*
X131538834Y-116369563D01*
X131561443Y-116375227D01*
X131583387Y-116383079D01*
X131604457Y-116393044D01*
X131624448Y-116405026D01*
X131643168Y-116418910D01*
X131660438Y-116434562D01*
X131676090Y-116451832D01*
X131689974Y-116470552D01*
X131701956Y-116490543D01*
X131711921Y-116511613D01*
X131719773Y-116533557D01*
X131725437Y-116556166D01*
X131728856Y-116579221D01*
X131730000Y-116602500D01*
X131730000Y-117077500D01*
X131728856Y-117100779D01*
X131725437Y-117123834D01*
X131719773Y-117146443D01*
X131711921Y-117168387D01*
X131701956Y-117189457D01*
X131689974Y-117209448D01*
X131676090Y-117228168D01*
X131660438Y-117245438D01*
X131643168Y-117261090D01*
X131624448Y-117274974D01*
X131604457Y-117286956D01*
X131583387Y-117296921D01*
X131561443Y-117304773D01*
X131538834Y-117310437D01*
X131515779Y-117313856D01*
X131492500Y-117315000D01*
X130917500Y-117315000D01*
X130894221Y-117313856D01*
X130871166Y-117310437D01*
X130848557Y-117304773D01*
X130826613Y-117296921D01*
X130805543Y-117286956D01*
X130785552Y-117274974D01*
X130766832Y-117261090D01*
X130749562Y-117245438D01*
X130733910Y-117228168D01*
X130720026Y-117209448D01*
X130708044Y-117189457D01*
X130698079Y-117168387D01*
X130690227Y-117146443D01*
X130684563Y-117123834D01*
X130681144Y-117100779D01*
X130680000Y-117077500D01*
X130680000Y-116602500D01*
X130681144Y-116579221D01*
X130684563Y-116556166D01*
X130690227Y-116533557D01*
X130698079Y-116511613D01*
X130708044Y-116490543D01*
X130720026Y-116470552D01*
X130733910Y-116451832D01*
X130749562Y-116434562D01*
X130766832Y-116418910D01*
X130785552Y-116405026D01*
X130805543Y-116393044D01*
X130826613Y-116383079D01*
X130848557Y-116375227D01*
X130871166Y-116369563D01*
X130894221Y-116366144D01*
X130917500Y-116365000D01*
X131492500Y-116365000D01*
X131515779Y-116366144D01*
X131515779Y-116366144D01*
G37*
D11*
X131205000Y-116840000D03*
D13*
X135810000Y-86040000D03*
X135810000Y-85090000D03*
X135810000Y-84140000D03*
X138510000Y-84140000D03*
X138510000Y-86040000D03*
M02*
