G04 #@! TF.GenerationSoftware,KiCad,Pcbnew,(5.1.0)-1*
G04 #@! TF.CreationDate,2020-08-07T11:47:51-07:00*
G04 #@! TF.ProjectId,MAX7_Proto,4d415837-5f50-4726-9f74-6f2e6b696361,rev?*
G04 #@! TF.SameCoordinates,Original*
G04 #@! TF.FileFunction,Copper,L2,Bot*
G04 #@! TF.FilePolarity,Positive*
%FSLAX46Y46*%
G04 Gerber Fmt 4.6, Leading zero omitted, Abs format (unit mm)*
G04 Created by KiCad (PCBNEW (5.1.0)-1) date 2020-08-07 11:47:51*
%MOMM*%
%LPD*%
G04 APERTURE LIST*
%ADD10R,1.600000X1.600000*%
%ADD11C,1.600000*%
%ADD12O,1.700000X1.700000*%
%ADD13R,1.700000X1.700000*%
%ADD14R,1.727200X1.727200*%
%ADD15O,1.727200X1.727200*%
%ADD16C,0.100000*%
%ADD17C,0.950000*%
%ADD18C,1.350000*%
%ADD19C,0.500000*%
%ADD20R,1.560000X0.650000*%
%ADD21C,0.800000*%
%ADD22C,0.500000*%
%ADD23C,0.250000*%
%ADD24C,0.254000*%
G04 APERTURE END LIST*
D10*
X133350000Y-88900000D03*
D11*
X133350000Y-81280000D03*
X140970000Y-81280000D03*
X140970000Y-88900000D03*
D12*
X128270000Y-125730000D03*
X128270000Y-123190000D03*
X128270000Y-120650000D03*
X128270000Y-118110000D03*
X128270000Y-115570000D03*
X128270000Y-113030000D03*
X128270000Y-110490000D03*
X128270000Y-107950000D03*
X128270000Y-105410000D03*
X128270000Y-102870000D03*
X128270000Y-100330000D03*
X128270000Y-97790000D03*
X128270000Y-95250000D03*
X128270000Y-92710000D03*
X128270000Y-90170000D03*
X128270000Y-87630000D03*
X128270000Y-85090000D03*
X128270000Y-82550000D03*
X128270000Y-80010000D03*
D13*
X128270000Y-77470000D03*
D14*
X135890000Y-116840000D03*
D15*
X138430000Y-116840000D03*
X135890000Y-119380000D03*
X138430000Y-119380000D03*
X135890000Y-121920000D03*
X138430000Y-121920000D03*
X135890000Y-124460000D03*
X138430000Y-124460000D03*
X135890000Y-127000000D03*
X138430000Y-127000000D03*
D16*
G36*
X136595779Y-97316144D02*
G01*
X136618834Y-97319563D01*
X136641443Y-97325227D01*
X136663387Y-97333079D01*
X136684457Y-97343044D01*
X136704448Y-97355026D01*
X136723168Y-97368910D01*
X136740438Y-97384562D01*
X136756090Y-97401832D01*
X136769974Y-97420552D01*
X136781956Y-97440543D01*
X136791921Y-97461613D01*
X136799773Y-97483557D01*
X136805437Y-97506166D01*
X136808856Y-97529221D01*
X136810000Y-97552500D01*
X136810000Y-98027500D01*
X136808856Y-98050779D01*
X136805437Y-98073834D01*
X136799773Y-98096443D01*
X136791921Y-98118387D01*
X136781956Y-98139457D01*
X136769974Y-98159448D01*
X136756090Y-98178168D01*
X136740438Y-98195438D01*
X136723168Y-98211090D01*
X136704448Y-98224974D01*
X136684457Y-98236956D01*
X136663387Y-98246921D01*
X136641443Y-98254773D01*
X136618834Y-98260437D01*
X136595779Y-98263856D01*
X136572500Y-98265000D01*
X135997500Y-98265000D01*
X135974221Y-98263856D01*
X135951166Y-98260437D01*
X135928557Y-98254773D01*
X135906613Y-98246921D01*
X135885543Y-98236956D01*
X135865552Y-98224974D01*
X135846832Y-98211090D01*
X135829562Y-98195438D01*
X135813910Y-98178168D01*
X135800026Y-98159448D01*
X135788044Y-98139457D01*
X135778079Y-98118387D01*
X135770227Y-98096443D01*
X135764563Y-98073834D01*
X135761144Y-98050779D01*
X135760000Y-98027500D01*
X135760000Y-97552500D01*
X135761144Y-97529221D01*
X135764563Y-97506166D01*
X135770227Y-97483557D01*
X135778079Y-97461613D01*
X135788044Y-97440543D01*
X135800026Y-97420552D01*
X135813910Y-97401832D01*
X135829562Y-97384562D01*
X135846832Y-97368910D01*
X135865552Y-97355026D01*
X135885543Y-97343044D01*
X135906613Y-97333079D01*
X135928557Y-97325227D01*
X135951166Y-97319563D01*
X135974221Y-97316144D01*
X135997500Y-97315000D01*
X136572500Y-97315000D01*
X136595779Y-97316144D01*
X136595779Y-97316144D01*
G37*
D17*
X136285000Y-97790000D03*
D16*
G36*
X138345779Y-97316144D02*
G01*
X138368834Y-97319563D01*
X138391443Y-97325227D01*
X138413387Y-97333079D01*
X138434457Y-97343044D01*
X138454448Y-97355026D01*
X138473168Y-97368910D01*
X138490438Y-97384562D01*
X138506090Y-97401832D01*
X138519974Y-97420552D01*
X138531956Y-97440543D01*
X138541921Y-97461613D01*
X138549773Y-97483557D01*
X138555437Y-97506166D01*
X138558856Y-97529221D01*
X138560000Y-97552500D01*
X138560000Y-98027500D01*
X138558856Y-98050779D01*
X138555437Y-98073834D01*
X138549773Y-98096443D01*
X138541921Y-98118387D01*
X138531956Y-98139457D01*
X138519974Y-98159448D01*
X138506090Y-98178168D01*
X138490438Y-98195438D01*
X138473168Y-98211090D01*
X138454448Y-98224974D01*
X138434457Y-98236956D01*
X138413387Y-98246921D01*
X138391443Y-98254773D01*
X138368834Y-98260437D01*
X138345779Y-98263856D01*
X138322500Y-98265000D01*
X137747500Y-98265000D01*
X137724221Y-98263856D01*
X137701166Y-98260437D01*
X137678557Y-98254773D01*
X137656613Y-98246921D01*
X137635543Y-98236956D01*
X137615552Y-98224974D01*
X137596832Y-98211090D01*
X137579562Y-98195438D01*
X137563910Y-98178168D01*
X137550026Y-98159448D01*
X137538044Y-98139457D01*
X137528079Y-98118387D01*
X137520227Y-98096443D01*
X137514563Y-98073834D01*
X137511144Y-98050779D01*
X137510000Y-98027500D01*
X137510000Y-97552500D01*
X137511144Y-97529221D01*
X137514563Y-97506166D01*
X137520227Y-97483557D01*
X137528079Y-97461613D01*
X137538044Y-97440543D01*
X137550026Y-97420552D01*
X137563910Y-97401832D01*
X137579562Y-97384562D01*
X137596832Y-97368910D01*
X137615552Y-97355026D01*
X137635543Y-97343044D01*
X137656613Y-97333079D01*
X137678557Y-97325227D01*
X137701166Y-97319563D01*
X137724221Y-97316144D01*
X137747500Y-97315000D01*
X138322500Y-97315000D01*
X138345779Y-97316144D01*
X138345779Y-97316144D01*
G37*
D17*
X138035000Y-97790000D03*
D16*
G36*
X141230779Y-101951144D02*
G01*
X141253834Y-101954563D01*
X141276443Y-101960227D01*
X141298387Y-101968079D01*
X141319457Y-101978044D01*
X141339448Y-101990026D01*
X141358168Y-102003910D01*
X141375438Y-102019562D01*
X141391090Y-102036832D01*
X141404974Y-102055552D01*
X141416956Y-102075543D01*
X141426921Y-102096613D01*
X141434773Y-102118557D01*
X141440437Y-102141166D01*
X141443856Y-102164221D01*
X141445000Y-102187500D01*
X141445000Y-102762500D01*
X141443856Y-102785779D01*
X141440437Y-102808834D01*
X141434773Y-102831443D01*
X141426921Y-102853387D01*
X141416956Y-102874457D01*
X141404974Y-102894448D01*
X141391090Y-102913168D01*
X141375438Y-102930438D01*
X141358168Y-102946090D01*
X141339448Y-102959974D01*
X141319457Y-102971956D01*
X141298387Y-102981921D01*
X141276443Y-102989773D01*
X141253834Y-102995437D01*
X141230779Y-102998856D01*
X141207500Y-103000000D01*
X140732500Y-103000000D01*
X140709221Y-102998856D01*
X140686166Y-102995437D01*
X140663557Y-102989773D01*
X140641613Y-102981921D01*
X140620543Y-102971956D01*
X140600552Y-102959974D01*
X140581832Y-102946090D01*
X140564562Y-102930438D01*
X140548910Y-102913168D01*
X140535026Y-102894448D01*
X140523044Y-102874457D01*
X140513079Y-102853387D01*
X140505227Y-102831443D01*
X140499563Y-102808834D01*
X140496144Y-102785779D01*
X140495000Y-102762500D01*
X140495000Y-102187500D01*
X140496144Y-102164221D01*
X140499563Y-102141166D01*
X140505227Y-102118557D01*
X140513079Y-102096613D01*
X140523044Y-102075543D01*
X140535026Y-102055552D01*
X140548910Y-102036832D01*
X140564562Y-102019562D01*
X140581832Y-102003910D01*
X140600552Y-101990026D01*
X140620543Y-101978044D01*
X140641613Y-101968079D01*
X140663557Y-101960227D01*
X140686166Y-101954563D01*
X140709221Y-101951144D01*
X140732500Y-101950000D01*
X141207500Y-101950000D01*
X141230779Y-101951144D01*
X141230779Y-101951144D01*
G37*
D17*
X140970000Y-102475000D03*
D16*
G36*
X141230779Y-100201144D02*
G01*
X141253834Y-100204563D01*
X141276443Y-100210227D01*
X141298387Y-100218079D01*
X141319457Y-100228044D01*
X141339448Y-100240026D01*
X141358168Y-100253910D01*
X141375438Y-100269562D01*
X141391090Y-100286832D01*
X141404974Y-100305552D01*
X141416956Y-100325543D01*
X141426921Y-100346613D01*
X141434773Y-100368557D01*
X141440437Y-100391166D01*
X141443856Y-100414221D01*
X141445000Y-100437500D01*
X141445000Y-101012500D01*
X141443856Y-101035779D01*
X141440437Y-101058834D01*
X141434773Y-101081443D01*
X141426921Y-101103387D01*
X141416956Y-101124457D01*
X141404974Y-101144448D01*
X141391090Y-101163168D01*
X141375438Y-101180438D01*
X141358168Y-101196090D01*
X141339448Y-101209974D01*
X141319457Y-101221956D01*
X141298387Y-101231921D01*
X141276443Y-101239773D01*
X141253834Y-101245437D01*
X141230779Y-101248856D01*
X141207500Y-101250000D01*
X140732500Y-101250000D01*
X140709221Y-101248856D01*
X140686166Y-101245437D01*
X140663557Y-101239773D01*
X140641613Y-101231921D01*
X140620543Y-101221956D01*
X140600552Y-101209974D01*
X140581832Y-101196090D01*
X140564562Y-101180438D01*
X140548910Y-101163168D01*
X140535026Y-101144448D01*
X140523044Y-101124457D01*
X140513079Y-101103387D01*
X140505227Y-101081443D01*
X140499563Y-101058834D01*
X140496144Y-101035779D01*
X140495000Y-101012500D01*
X140495000Y-100437500D01*
X140496144Y-100414221D01*
X140499563Y-100391166D01*
X140505227Y-100368557D01*
X140513079Y-100346613D01*
X140523044Y-100325543D01*
X140535026Y-100305552D01*
X140548910Y-100286832D01*
X140564562Y-100269562D01*
X140581832Y-100253910D01*
X140600552Y-100240026D01*
X140620543Y-100228044D01*
X140641613Y-100218079D01*
X140663557Y-100210227D01*
X140686166Y-100204563D01*
X140709221Y-100201144D01*
X140732500Y-100200000D01*
X141207500Y-100200000D01*
X141230779Y-100201144D01*
X141230779Y-100201144D01*
G37*
D17*
X140970000Y-100725000D03*
D13*
X146050000Y-77470000D03*
D12*
X146050000Y-80010000D03*
X146050000Y-82550000D03*
X146050000Y-85090000D03*
X146050000Y-87630000D03*
X146050000Y-90170000D03*
X146050000Y-92710000D03*
X146050000Y-95250000D03*
X146050000Y-97790000D03*
X146050000Y-100330000D03*
X146050000Y-102870000D03*
X146050000Y-105410000D03*
X146050000Y-107950000D03*
X146050000Y-110490000D03*
X146050000Y-113030000D03*
X146050000Y-115570000D03*
X146050000Y-118110000D03*
X146050000Y-120650000D03*
X146050000Y-123190000D03*
X146050000Y-125730000D03*
D16*
G36*
X138690779Y-79881144D02*
G01*
X138713834Y-79884563D01*
X138736443Y-79890227D01*
X138758387Y-79898079D01*
X138779457Y-79908044D01*
X138799448Y-79920026D01*
X138818168Y-79933910D01*
X138835438Y-79949562D01*
X138851090Y-79966832D01*
X138864974Y-79985552D01*
X138876956Y-80005543D01*
X138886921Y-80026613D01*
X138894773Y-80048557D01*
X138900437Y-80071166D01*
X138903856Y-80094221D01*
X138905000Y-80117500D01*
X138905000Y-80692500D01*
X138903856Y-80715779D01*
X138900437Y-80738834D01*
X138894773Y-80761443D01*
X138886921Y-80783387D01*
X138876956Y-80804457D01*
X138864974Y-80824448D01*
X138851090Y-80843168D01*
X138835438Y-80860438D01*
X138818168Y-80876090D01*
X138799448Y-80889974D01*
X138779457Y-80901956D01*
X138758387Y-80911921D01*
X138736443Y-80919773D01*
X138713834Y-80925437D01*
X138690779Y-80928856D01*
X138667500Y-80930000D01*
X138192500Y-80930000D01*
X138169221Y-80928856D01*
X138146166Y-80925437D01*
X138123557Y-80919773D01*
X138101613Y-80911921D01*
X138080543Y-80901956D01*
X138060552Y-80889974D01*
X138041832Y-80876090D01*
X138024562Y-80860438D01*
X138008910Y-80843168D01*
X137995026Y-80824448D01*
X137983044Y-80804457D01*
X137973079Y-80783387D01*
X137965227Y-80761443D01*
X137959563Y-80738834D01*
X137956144Y-80715779D01*
X137955000Y-80692500D01*
X137955000Y-80117500D01*
X137956144Y-80094221D01*
X137959563Y-80071166D01*
X137965227Y-80048557D01*
X137973079Y-80026613D01*
X137983044Y-80005543D01*
X137995026Y-79985552D01*
X138008910Y-79966832D01*
X138024562Y-79949562D01*
X138041832Y-79933910D01*
X138060552Y-79920026D01*
X138080543Y-79908044D01*
X138101613Y-79898079D01*
X138123557Y-79890227D01*
X138146166Y-79884563D01*
X138169221Y-79881144D01*
X138192500Y-79880000D01*
X138667500Y-79880000D01*
X138690779Y-79881144D01*
X138690779Y-79881144D01*
G37*
D17*
X138430000Y-80405000D03*
D16*
G36*
X138690779Y-81631144D02*
G01*
X138713834Y-81634563D01*
X138736443Y-81640227D01*
X138758387Y-81648079D01*
X138779457Y-81658044D01*
X138799448Y-81670026D01*
X138818168Y-81683910D01*
X138835438Y-81699562D01*
X138851090Y-81716832D01*
X138864974Y-81735552D01*
X138876956Y-81755543D01*
X138886921Y-81776613D01*
X138894773Y-81798557D01*
X138900437Y-81821166D01*
X138903856Y-81844221D01*
X138905000Y-81867500D01*
X138905000Y-82442500D01*
X138903856Y-82465779D01*
X138900437Y-82488834D01*
X138894773Y-82511443D01*
X138886921Y-82533387D01*
X138876956Y-82554457D01*
X138864974Y-82574448D01*
X138851090Y-82593168D01*
X138835438Y-82610438D01*
X138818168Y-82626090D01*
X138799448Y-82639974D01*
X138779457Y-82651956D01*
X138758387Y-82661921D01*
X138736443Y-82669773D01*
X138713834Y-82675437D01*
X138690779Y-82678856D01*
X138667500Y-82680000D01*
X138192500Y-82680000D01*
X138169221Y-82678856D01*
X138146166Y-82675437D01*
X138123557Y-82669773D01*
X138101613Y-82661921D01*
X138080543Y-82651956D01*
X138060552Y-82639974D01*
X138041832Y-82626090D01*
X138024562Y-82610438D01*
X138008910Y-82593168D01*
X137995026Y-82574448D01*
X137983044Y-82554457D01*
X137973079Y-82533387D01*
X137965227Y-82511443D01*
X137959563Y-82488834D01*
X137956144Y-82465779D01*
X137955000Y-82442500D01*
X137955000Y-81867500D01*
X137956144Y-81844221D01*
X137959563Y-81821166D01*
X137965227Y-81798557D01*
X137973079Y-81776613D01*
X137983044Y-81755543D01*
X137995026Y-81735552D01*
X138008910Y-81716832D01*
X138024562Y-81699562D01*
X138041832Y-81683910D01*
X138060552Y-81670026D01*
X138080543Y-81658044D01*
X138101613Y-81648079D01*
X138123557Y-81640227D01*
X138146166Y-81634563D01*
X138169221Y-81631144D01*
X138192500Y-81630000D01*
X138667500Y-81630000D01*
X138690779Y-81631144D01*
X138690779Y-81631144D01*
G37*
D17*
X138430000Y-82155000D03*
D16*
G36*
X133265779Y-83346144D02*
G01*
X133288834Y-83349563D01*
X133311443Y-83355227D01*
X133333387Y-83363079D01*
X133354457Y-83373044D01*
X133374448Y-83385026D01*
X133393168Y-83398910D01*
X133410438Y-83414562D01*
X133426090Y-83431832D01*
X133439974Y-83450552D01*
X133451956Y-83470543D01*
X133461921Y-83491613D01*
X133469773Y-83513557D01*
X133475437Y-83536166D01*
X133478856Y-83559221D01*
X133480000Y-83582500D01*
X133480000Y-84057500D01*
X133478856Y-84080779D01*
X133475437Y-84103834D01*
X133469773Y-84126443D01*
X133461921Y-84148387D01*
X133451956Y-84169457D01*
X133439974Y-84189448D01*
X133426090Y-84208168D01*
X133410438Y-84225438D01*
X133393168Y-84241090D01*
X133374448Y-84254974D01*
X133354457Y-84266956D01*
X133333387Y-84276921D01*
X133311443Y-84284773D01*
X133288834Y-84290437D01*
X133265779Y-84293856D01*
X133242500Y-84295000D01*
X132667500Y-84295000D01*
X132644221Y-84293856D01*
X132621166Y-84290437D01*
X132598557Y-84284773D01*
X132576613Y-84276921D01*
X132555543Y-84266956D01*
X132535552Y-84254974D01*
X132516832Y-84241090D01*
X132499562Y-84225438D01*
X132483910Y-84208168D01*
X132470026Y-84189448D01*
X132458044Y-84169457D01*
X132448079Y-84148387D01*
X132440227Y-84126443D01*
X132434563Y-84103834D01*
X132431144Y-84080779D01*
X132430000Y-84057500D01*
X132430000Y-83582500D01*
X132431144Y-83559221D01*
X132434563Y-83536166D01*
X132440227Y-83513557D01*
X132448079Y-83491613D01*
X132458044Y-83470543D01*
X132470026Y-83450552D01*
X132483910Y-83431832D01*
X132499562Y-83414562D01*
X132516832Y-83398910D01*
X132535552Y-83385026D01*
X132555543Y-83373044D01*
X132576613Y-83363079D01*
X132598557Y-83355227D01*
X132621166Y-83349563D01*
X132644221Y-83346144D01*
X132667500Y-83345000D01*
X133242500Y-83345000D01*
X133265779Y-83346144D01*
X133265779Y-83346144D01*
G37*
D17*
X132955000Y-83820000D03*
D16*
G36*
X131515779Y-83346144D02*
G01*
X131538834Y-83349563D01*
X131561443Y-83355227D01*
X131583387Y-83363079D01*
X131604457Y-83373044D01*
X131624448Y-83385026D01*
X131643168Y-83398910D01*
X131660438Y-83414562D01*
X131676090Y-83431832D01*
X131689974Y-83450552D01*
X131701956Y-83470543D01*
X131711921Y-83491613D01*
X131719773Y-83513557D01*
X131725437Y-83536166D01*
X131728856Y-83559221D01*
X131730000Y-83582500D01*
X131730000Y-84057500D01*
X131728856Y-84080779D01*
X131725437Y-84103834D01*
X131719773Y-84126443D01*
X131711921Y-84148387D01*
X131701956Y-84169457D01*
X131689974Y-84189448D01*
X131676090Y-84208168D01*
X131660438Y-84225438D01*
X131643168Y-84241090D01*
X131624448Y-84254974D01*
X131604457Y-84266956D01*
X131583387Y-84276921D01*
X131561443Y-84284773D01*
X131538834Y-84290437D01*
X131515779Y-84293856D01*
X131492500Y-84295000D01*
X130917500Y-84295000D01*
X130894221Y-84293856D01*
X130871166Y-84290437D01*
X130848557Y-84284773D01*
X130826613Y-84276921D01*
X130805543Y-84266956D01*
X130785552Y-84254974D01*
X130766832Y-84241090D01*
X130749562Y-84225438D01*
X130733910Y-84208168D01*
X130720026Y-84189448D01*
X130708044Y-84169457D01*
X130698079Y-84148387D01*
X130690227Y-84126443D01*
X130684563Y-84103834D01*
X130681144Y-84080779D01*
X130680000Y-84057500D01*
X130680000Y-83582500D01*
X130681144Y-83559221D01*
X130684563Y-83536166D01*
X130690227Y-83513557D01*
X130698079Y-83491613D01*
X130708044Y-83470543D01*
X130720026Y-83450552D01*
X130733910Y-83431832D01*
X130749562Y-83414562D01*
X130766832Y-83398910D01*
X130785552Y-83385026D01*
X130805543Y-83373044D01*
X130826613Y-83363079D01*
X130848557Y-83355227D01*
X130871166Y-83349563D01*
X130894221Y-83346144D01*
X130917500Y-83345000D01*
X131492500Y-83345000D01*
X131515779Y-83346144D01*
X131515779Y-83346144D01*
G37*
D17*
X131205000Y-83820000D03*
D16*
G36*
X133610779Y-100201144D02*
G01*
X133633834Y-100204563D01*
X133656443Y-100210227D01*
X133678387Y-100218079D01*
X133699457Y-100228044D01*
X133719448Y-100240026D01*
X133738168Y-100253910D01*
X133755438Y-100269562D01*
X133771090Y-100286832D01*
X133784974Y-100305552D01*
X133796956Y-100325543D01*
X133806921Y-100346613D01*
X133814773Y-100368557D01*
X133820437Y-100391166D01*
X133823856Y-100414221D01*
X133825000Y-100437500D01*
X133825000Y-101012500D01*
X133823856Y-101035779D01*
X133820437Y-101058834D01*
X133814773Y-101081443D01*
X133806921Y-101103387D01*
X133796956Y-101124457D01*
X133784974Y-101144448D01*
X133771090Y-101163168D01*
X133755438Y-101180438D01*
X133738168Y-101196090D01*
X133719448Y-101209974D01*
X133699457Y-101221956D01*
X133678387Y-101231921D01*
X133656443Y-101239773D01*
X133633834Y-101245437D01*
X133610779Y-101248856D01*
X133587500Y-101250000D01*
X133112500Y-101250000D01*
X133089221Y-101248856D01*
X133066166Y-101245437D01*
X133043557Y-101239773D01*
X133021613Y-101231921D01*
X133000543Y-101221956D01*
X132980552Y-101209974D01*
X132961832Y-101196090D01*
X132944562Y-101180438D01*
X132928910Y-101163168D01*
X132915026Y-101144448D01*
X132903044Y-101124457D01*
X132893079Y-101103387D01*
X132885227Y-101081443D01*
X132879563Y-101058834D01*
X132876144Y-101035779D01*
X132875000Y-101012500D01*
X132875000Y-100437500D01*
X132876144Y-100414221D01*
X132879563Y-100391166D01*
X132885227Y-100368557D01*
X132893079Y-100346613D01*
X132903044Y-100325543D01*
X132915026Y-100305552D01*
X132928910Y-100286832D01*
X132944562Y-100269562D01*
X132961832Y-100253910D01*
X132980552Y-100240026D01*
X133000543Y-100228044D01*
X133021613Y-100218079D01*
X133043557Y-100210227D01*
X133066166Y-100204563D01*
X133089221Y-100201144D01*
X133112500Y-100200000D01*
X133587500Y-100200000D01*
X133610779Y-100201144D01*
X133610779Y-100201144D01*
G37*
D17*
X133350000Y-100725000D03*
D16*
G36*
X133610779Y-101951144D02*
G01*
X133633834Y-101954563D01*
X133656443Y-101960227D01*
X133678387Y-101968079D01*
X133699457Y-101978044D01*
X133719448Y-101990026D01*
X133738168Y-102003910D01*
X133755438Y-102019562D01*
X133771090Y-102036832D01*
X133784974Y-102055552D01*
X133796956Y-102075543D01*
X133806921Y-102096613D01*
X133814773Y-102118557D01*
X133820437Y-102141166D01*
X133823856Y-102164221D01*
X133825000Y-102187500D01*
X133825000Y-102762500D01*
X133823856Y-102785779D01*
X133820437Y-102808834D01*
X133814773Y-102831443D01*
X133806921Y-102853387D01*
X133796956Y-102874457D01*
X133784974Y-102894448D01*
X133771090Y-102913168D01*
X133755438Y-102930438D01*
X133738168Y-102946090D01*
X133719448Y-102959974D01*
X133699457Y-102971956D01*
X133678387Y-102981921D01*
X133656443Y-102989773D01*
X133633834Y-102995437D01*
X133610779Y-102998856D01*
X133587500Y-103000000D01*
X133112500Y-103000000D01*
X133089221Y-102998856D01*
X133066166Y-102995437D01*
X133043557Y-102989773D01*
X133021613Y-102981921D01*
X133000543Y-102971956D01*
X132980552Y-102959974D01*
X132961832Y-102946090D01*
X132944562Y-102930438D01*
X132928910Y-102913168D01*
X132915026Y-102894448D01*
X132903044Y-102874457D01*
X132893079Y-102853387D01*
X132885227Y-102831443D01*
X132879563Y-102808834D01*
X132876144Y-102785779D01*
X132875000Y-102762500D01*
X132875000Y-102187500D01*
X132876144Y-102164221D01*
X132879563Y-102141166D01*
X132885227Y-102118557D01*
X132893079Y-102096613D01*
X132903044Y-102075543D01*
X132915026Y-102055552D01*
X132928910Y-102036832D01*
X132944562Y-102019562D01*
X132961832Y-102003910D01*
X132980552Y-101990026D01*
X133000543Y-101978044D01*
X133021613Y-101968079D01*
X133043557Y-101960227D01*
X133066166Y-101954563D01*
X133089221Y-101951144D01*
X133112500Y-101950000D01*
X133587500Y-101950000D01*
X133610779Y-101951144D01*
X133610779Y-101951144D01*
G37*
D17*
X133350000Y-102475000D03*
D16*
G36*
X138345779Y-104936144D02*
G01*
X138368834Y-104939563D01*
X138391443Y-104945227D01*
X138413387Y-104953079D01*
X138434457Y-104963044D01*
X138454448Y-104975026D01*
X138473168Y-104988910D01*
X138490438Y-105004562D01*
X138506090Y-105021832D01*
X138519974Y-105040552D01*
X138531956Y-105060543D01*
X138541921Y-105081613D01*
X138549773Y-105103557D01*
X138555437Y-105126166D01*
X138558856Y-105149221D01*
X138560000Y-105172500D01*
X138560000Y-105647500D01*
X138558856Y-105670779D01*
X138555437Y-105693834D01*
X138549773Y-105716443D01*
X138541921Y-105738387D01*
X138531956Y-105759457D01*
X138519974Y-105779448D01*
X138506090Y-105798168D01*
X138490438Y-105815438D01*
X138473168Y-105831090D01*
X138454448Y-105844974D01*
X138434457Y-105856956D01*
X138413387Y-105866921D01*
X138391443Y-105874773D01*
X138368834Y-105880437D01*
X138345779Y-105883856D01*
X138322500Y-105885000D01*
X137747500Y-105885000D01*
X137724221Y-105883856D01*
X137701166Y-105880437D01*
X137678557Y-105874773D01*
X137656613Y-105866921D01*
X137635543Y-105856956D01*
X137615552Y-105844974D01*
X137596832Y-105831090D01*
X137579562Y-105815438D01*
X137563910Y-105798168D01*
X137550026Y-105779448D01*
X137538044Y-105759457D01*
X137528079Y-105738387D01*
X137520227Y-105716443D01*
X137514563Y-105693834D01*
X137511144Y-105670779D01*
X137510000Y-105647500D01*
X137510000Y-105172500D01*
X137511144Y-105149221D01*
X137514563Y-105126166D01*
X137520227Y-105103557D01*
X137528079Y-105081613D01*
X137538044Y-105060543D01*
X137550026Y-105040552D01*
X137563910Y-105021832D01*
X137579562Y-105004562D01*
X137596832Y-104988910D01*
X137615552Y-104975026D01*
X137635543Y-104963044D01*
X137656613Y-104953079D01*
X137678557Y-104945227D01*
X137701166Y-104939563D01*
X137724221Y-104936144D01*
X137747500Y-104935000D01*
X138322500Y-104935000D01*
X138345779Y-104936144D01*
X138345779Y-104936144D01*
G37*
D17*
X138035000Y-105410000D03*
D16*
G36*
X136595779Y-104936144D02*
G01*
X136618834Y-104939563D01*
X136641443Y-104945227D01*
X136663387Y-104953079D01*
X136684457Y-104963044D01*
X136704448Y-104975026D01*
X136723168Y-104988910D01*
X136740438Y-105004562D01*
X136756090Y-105021832D01*
X136769974Y-105040552D01*
X136781956Y-105060543D01*
X136791921Y-105081613D01*
X136799773Y-105103557D01*
X136805437Y-105126166D01*
X136808856Y-105149221D01*
X136810000Y-105172500D01*
X136810000Y-105647500D01*
X136808856Y-105670779D01*
X136805437Y-105693834D01*
X136799773Y-105716443D01*
X136791921Y-105738387D01*
X136781956Y-105759457D01*
X136769974Y-105779448D01*
X136756090Y-105798168D01*
X136740438Y-105815438D01*
X136723168Y-105831090D01*
X136704448Y-105844974D01*
X136684457Y-105856956D01*
X136663387Y-105866921D01*
X136641443Y-105874773D01*
X136618834Y-105880437D01*
X136595779Y-105883856D01*
X136572500Y-105885000D01*
X135997500Y-105885000D01*
X135974221Y-105883856D01*
X135951166Y-105880437D01*
X135928557Y-105874773D01*
X135906613Y-105866921D01*
X135885543Y-105856956D01*
X135865552Y-105844974D01*
X135846832Y-105831090D01*
X135829562Y-105815438D01*
X135813910Y-105798168D01*
X135800026Y-105779448D01*
X135788044Y-105759457D01*
X135778079Y-105738387D01*
X135770227Y-105716443D01*
X135764563Y-105693834D01*
X135761144Y-105670779D01*
X135760000Y-105647500D01*
X135760000Y-105172500D01*
X135761144Y-105149221D01*
X135764563Y-105126166D01*
X135770227Y-105103557D01*
X135778079Y-105081613D01*
X135788044Y-105060543D01*
X135800026Y-105040552D01*
X135813910Y-105021832D01*
X135829562Y-105004562D01*
X135846832Y-104988910D01*
X135865552Y-104975026D01*
X135885543Y-104963044D01*
X135906613Y-104953079D01*
X135928557Y-104945227D01*
X135951166Y-104939563D01*
X135974221Y-104936144D01*
X135997500Y-104935000D01*
X136572500Y-104935000D01*
X136595779Y-104936144D01*
X136595779Y-104936144D01*
G37*
D17*
X136285000Y-105410000D03*
D16*
G36*
X136150779Y-81631144D02*
G01*
X136173834Y-81634563D01*
X136196443Y-81640227D01*
X136218387Y-81648079D01*
X136239457Y-81658044D01*
X136259448Y-81670026D01*
X136278168Y-81683910D01*
X136295438Y-81699562D01*
X136311090Y-81716832D01*
X136324974Y-81735552D01*
X136336956Y-81755543D01*
X136346921Y-81776613D01*
X136354773Y-81798557D01*
X136360437Y-81821166D01*
X136363856Y-81844221D01*
X136365000Y-81867500D01*
X136365000Y-82442500D01*
X136363856Y-82465779D01*
X136360437Y-82488834D01*
X136354773Y-82511443D01*
X136346921Y-82533387D01*
X136336956Y-82554457D01*
X136324974Y-82574448D01*
X136311090Y-82593168D01*
X136295438Y-82610438D01*
X136278168Y-82626090D01*
X136259448Y-82639974D01*
X136239457Y-82651956D01*
X136218387Y-82661921D01*
X136196443Y-82669773D01*
X136173834Y-82675437D01*
X136150779Y-82678856D01*
X136127500Y-82680000D01*
X135652500Y-82680000D01*
X135629221Y-82678856D01*
X135606166Y-82675437D01*
X135583557Y-82669773D01*
X135561613Y-82661921D01*
X135540543Y-82651956D01*
X135520552Y-82639974D01*
X135501832Y-82626090D01*
X135484562Y-82610438D01*
X135468910Y-82593168D01*
X135455026Y-82574448D01*
X135443044Y-82554457D01*
X135433079Y-82533387D01*
X135425227Y-82511443D01*
X135419563Y-82488834D01*
X135416144Y-82465779D01*
X135415000Y-82442500D01*
X135415000Y-81867500D01*
X135416144Y-81844221D01*
X135419563Y-81821166D01*
X135425227Y-81798557D01*
X135433079Y-81776613D01*
X135443044Y-81755543D01*
X135455026Y-81735552D01*
X135468910Y-81716832D01*
X135484562Y-81699562D01*
X135501832Y-81683910D01*
X135520552Y-81670026D01*
X135540543Y-81658044D01*
X135561613Y-81648079D01*
X135583557Y-81640227D01*
X135606166Y-81634563D01*
X135629221Y-81631144D01*
X135652500Y-81630000D01*
X136127500Y-81630000D01*
X136150779Y-81631144D01*
X136150779Y-81631144D01*
G37*
D17*
X135890000Y-82155000D03*
D16*
G36*
X136150779Y-79881144D02*
G01*
X136173834Y-79884563D01*
X136196443Y-79890227D01*
X136218387Y-79898079D01*
X136239457Y-79908044D01*
X136259448Y-79920026D01*
X136278168Y-79933910D01*
X136295438Y-79949562D01*
X136311090Y-79966832D01*
X136324974Y-79985552D01*
X136336956Y-80005543D01*
X136346921Y-80026613D01*
X136354773Y-80048557D01*
X136360437Y-80071166D01*
X136363856Y-80094221D01*
X136365000Y-80117500D01*
X136365000Y-80692500D01*
X136363856Y-80715779D01*
X136360437Y-80738834D01*
X136354773Y-80761443D01*
X136346921Y-80783387D01*
X136336956Y-80804457D01*
X136324974Y-80824448D01*
X136311090Y-80843168D01*
X136295438Y-80860438D01*
X136278168Y-80876090D01*
X136259448Y-80889974D01*
X136239457Y-80901956D01*
X136218387Y-80911921D01*
X136196443Y-80919773D01*
X136173834Y-80925437D01*
X136150779Y-80928856D01*
X136127500Y-80930000D01*
X135652500Y-80930000D01*
X135629221Y-80928856D01*
X135606166Y-80925437D01*
X135583557Y-80919773D01*
X135561613Y-80911921D01*
X135540543Y-80901956D01*
X135520552Y-80889974D01*
X135501832Y-80876090D01*
X135484562Y-80860438D01*
X135468910Y-80843168D01*
X135455026Y-80824448D01*
X135443044Y-80804457D01*
X135433079Y-80783387D01*
X135425227Y-80761443D01*
X135419563Y-80738834D01*
X135416144Y-80715779D01*
X135415000Y-80692500D01*
X135415000Y-80117500D01*
X135416144Y-80094221D01*
X135419563Y-80071166D01*
X135425227Y-80048557D01*
X135433079Y-80026613D01*
X135443044Y-80005543D01*
X135455026Y-79985552D01*
X135468910Y-79966832D01*
X135484562Y-79949562D01*
X135501832Y-79933910D01*
X135520552Y-79920026D01*
X135540543Y-79908044D01*
X135561613Y-79898079D01*
X135583557Y-79890227D01*
X135606166Y-79884563D01*
X135629221Y-79881144D01*
X135652500Y-79880000D01*
X136127500Y-79880000D01*
X136150779Y-79881144D01*
X136150779Y-79881144D01*
G37*
D17*
X135890000Y-80405000D03*
D16*
G36*
X133912005Y-85686204D02*
G01*
X133936273Y-85689804D01*
X133960072Y-85695765D01*
X133983171Y-85704030D01*
X134005350Y-85714520D01*
X134026393Y-85727132D01*
X134046099Y-85741747D01*
X134064277Y-85758223D01*
X134080753Y-85776401D01*
X134095368Y-85796107D01*
X134107980Y-85817150D01*
X134118470Y-85839329D01*
X134126735Y-85862428D01*
X134132696Y-85886227D01*
X134136296Y-85910495D01*
X134137500Y-85934999D01*
X134137500Y-86785001D01*
X134136296Y-86809505D01*
X134132696Y-86833773D01*
X134126735Y-86857572D01*
X134118470Y-86880671D01*
X134107980Y-86902850D01*
X134095368Y-86923893D01*
X134080753Y-86943599D01*
X134064277Y-86961777D01*
X134046099Y-86978253D01*
X134026393Y-86992868D01*
X134005350Y-87005480D01*
X133983171Y-87015970D01*
X133960072Y-87024235D01*
X133936273Y-87030196D01*
X133912005Y-87033796D01*
X133887501Y-87035000D01*
X132812499Y-87035000D01*
X132787995Y-87033796D01*
X132763727Y-87030196D01*
X132739928Y-87024235D01*
X132716829Y-87015970D01*
X132694650Y-87005480D01*
X132673607Y-86992868D01*
X132653901Y-86978253D01*
X132635723Y-86961777D01*
X132619247Y-86943599D01*
X132604632Y-86923893D01*
X132592020Y-86902850D01*
X132581530Y-86880671D01*
X132573265Y-86857572D01*
X132567304Y-86833773D01*
X132563704Y-86809505D01*
X132562500Y-86785001D01*
X132562500Y-85934999D01*
X132563704Y-85910495D01*
X132567304Y-85886227D01*
X132573265Y-85862428D01*
X132581530Y-85839329D01*
X132592020Y-85817150D01*
X132604632Y-85796107D01*
X132619247Y-85776401D01*
X132635723Y-85758223D01*
X132653901Y-85741747D01*
X132673607Y-85727132D01*
X132694650Y-85714520D01*
X132716829Y-85704030D01*
X132739928Y-85695765D01*
X132763727Y-85689804D01*
X132787995Y-85686204D01*
X132812499Y-85685000D01*
X133887501Y-85685000D01*
X133912005Y-85686204D01*
X133912005Y-85686204D01*
G37*
D18*
X133350000Y-86360000D03*
D16*
G36*
X131037005Y-85686204D02*
G01*
X131061273Y-85689804D01*
X131085072Y-85695765D01*
X131108171Y-85704030D01*
X131130350Y-85714520D01*
X131151393Y-85727132D01*
X131171099Y-85741747D01*
X131189277Y-85758223D01*
X131205753Y-85776401D01*
X131220368Y-85796107D01*
X131232980Y-85817150D01*
X131243470Y-85839329D01*
X131251735Y-85862428D01*
X131257696Y-85886227D01*
X131261296Y-85910495D01*
X131262500Y-85934999D01*
X131262500Y-86785001D01*
X131261296Y-86809505D01*
X131257696Y-86833773D01*
X131251735Y-86857572D01*
X131243470Y-86880671D01*
X131232980Y-86902850D01*
X131220368Y-86923893D01*
X131205753Y-86943599D01*
X131189277Y-86961777D01*
X131171099Y-86978253D01*
X131151393Y-86992868D01*
X131130350Y-87005480D01*
X131108171Y-87015970D01*
X131085072Y-87024235D01*
X131061273Y-87030196D01*
X131037005Y-87033796D01*
X131012501Y-87035000D01*
X129937499Y-87035000D01*
X129912995Y-87033796D01*
X129888727Y-87030196D01*
X129864928Y-87024235D01*
X129841829Y-87015970D01*
X129819650Y-87005480D01*
X129798607Y-86992868D01*
X129778901Y-86978253D01*
X129760723Y-86961777D01*
X129744247Y-86943599D01*
X129729632Y-86923893D01*
X129717020Y-86902850D01*
X129706530Y-86880671D01*
X129698265Y-86857572D01*
X129692304Y-86833773D01*
X129688704Y-86809505D01*
X129687500Y-86785001D01*
X129687500Y-85934999D01*
X129688704Y-85910495D01*
X129692304Y-85886227D01*
X129698265Y-85862428D01*
X129706530Y-85839329D01*
X129717020Y-85817150D01*
X129729632Y-85796107D01*
X129744247Y-85776401D01*
X129760723Y-85758223D01*
X129778901Y-85741747D01*
X129798607Y-85727132D01*
X129819650Y-85714520D01*
X129841829Y-85704030D01*
X129864928Y-85695765D01*
X129888727Y-85689804D01*
X129912995Y-85686204D01*
X129937499Y-85685000D01*
X131012501Y-85685000D01*
X131037005Y-85686204D01*
X131037005Y-85686204D01*
G37*
D18*
X130475000Y-86360000D03*
D16*
G36*
X141419505Y-82866204D02*
G01*
X141443773Y-82869804D01*
X141467572Y-82875765D01*
X141490671Y-82884030D01*
X141512850Y-82894520D01*
X141533893Y-82907132D01*
X141553599Y-82921747D01*
X141571777Y-82938223D01*
X141588253Y-82956401D01*
X141602868Y-82976107D01*
X141615480Y-82997150D01*
X141625970Y-83019329D01*
X141634235Y-83042428D01*
X141640196Y-83066227D01*
X141643796Y-83090495D01*
X141645000Y-83114999D01*
X141645000Y-84190001D01*
X141643796Y-84214505D01*
X141640196Y-84238773D01*
X141634235Y-84262572D01*
X141625970Y-84285671D01*
X141615480Y-84307850D01*
X141602868Y-84328893D01*
X141588253Y-84348599D01*
X141571777Y-84366777D01*
X141553599Y-84383253D01*
X141533893Y-84397868D01*
X141512850Y-84410480D01*
X141490671Y-84420970D01*
X141467572Y-84429235D01*
X141443773Y-84435196D01*
X141419505Y-84438796D01*
X141395001Y-84440000D01*
X140544999Y-84440000D01*
X140520495Y-84438796D01*
X140496227Y-84435196D01*
X140472428Y-84429235D01*
X140449329Y-84420970D01*
X140427150Y-84410480D01*
X140406107Y-84397868D01*
X140386401Y-84383253D01*
X140368223Y-84366777D01*
X140351747Y-84348599D01*
X140337132Y-84328893D01*
X140324520Y-84307850D01*
X140314030Y-84285671D01*
X140305765Y-84262572D01*
X140299804Y-84238773D01*
X140296204Y-84214505D01*
X140295000Y-84190001D01*
X140295000Y-83114999D01*
X140296204Y-83090495D01*
X140299804Y-83066227D01*
X140305765Y-83042428D01*
X140314030Y-83019329D01*
X140324520Y-82997150D01*
X140337132Y-82976107D01*
X140351747Y-82956401D01*
X140368223Y-82938223D01*
X140386401Y-82921747D01*
X140406107Y-82907132D01*
X140427150Y-82894520D01*
X140449329Y-82884030D01*
X140472428Y-82875765D01*
X140496227Y-82869804D01*
X140520495Y-82866204D01*
X140544999Y-82865000D01*
X141395001Y-82865000D01*
X141419505Y-82866204D01*
X141419505Y-82866204D01*
G37*
D18*
X140970000Y-83652500D03*
D16*
G36*
X141419505Y-85741204D02*
G01*
X141443773Y-85744804D01*
X141467572Y-85750765D01*
X141490671Y-85759030D01*
X141512850Y-85769520D01*
X141533893Y-85782132D01*
X141553599Y-85796747D01*
X141571777Y-85813223D01*
X141588253Y-85831401D01*
X141602868Y-85851107D01*
X141615480Y-85872150D01*
X141625970Y-85894329D01*
X141634235Y-85917428D01*
X141640196Y-85941227D01*
X141643796Y-85965495D01*
X141645000Y-85989999D01*
X141645000Y-87065001D01*
X141643796Y-87089505D01*
X141640196Y-87113773D01*
X141634235Y-87137572D01*
X141625970Y-87160671D01*
X141615480Y-87182850D01*
X141602868Y-87203893D01*
X141588253Y-87223599D01*
X141571777Y-87241777D01*
X141553599Y-87258253D01*
X141533893Y-87272868D01*
X141512850Y-87285480D01*
X141490671Y-87295970D01*
X141467572Y-87304235D01*
X141443773Y-87310196D01*
X141419505Y-87313796D01*
X141395001Y-87315000D01*
X140544999Y-87315000D01*
X140520495Y-87313796D01*
X140496227Y-87310196D01*
X140472428Y-87304235D01*
X140449329Y-87295970D01*
X140427150Y-87285480D01*
X140406107Y-87272868D01*
X140386401Y-87258253D01*
X140368223Y-87241777D01*
X140351747Y-87223599D01*
X140337132Y-87203893D01*
X140324520Y-87182850D01*
X140314030Y-87160671D01*
X140305765Y-87137572D01*
X140299804Y-87113773D01*
X140296204Y-87089505D01*
X140295000Y-87065001D01*
X140295000Y-85989999D01*
X140296204Y-85965495D01*
X140299804Y-85941227D01*
X140305765Y-85917428D01*
X140314030Y-85894329D01*
X140324520Y-85872150D01*
X140337132Y-85851107D01*
X140351747Y-85831401D01*
X140368223Y-85813223D01*
X140386401Y-85796747D01*
X140406107Y-85782132D01*
X140427150Y-85769520D01*
X140449329Y-85759030D01*
X140472428Y-85750765D01*
X140496227Y-85744804D01*
X140520495Y-85741204D01*
X140544999Y-85740000D01*
X141395001Y-85740000D01*
X141419505Y-85741204D01*
X141419505Y-85741204D01*
G37*
D18*
X140970000Y-86527500D03*
D19*
X137810000Y-88900000D03*
D16*
G36*
X137810000Y-88150602D02*
G01*
X137834534Y-88150602D01*
X137883365Y-88155412D01*
X137931490Y-88164984D01*
X137978445Y-88179228D01*
X138023778Y-88198005D01*
X138067051Y-88221136D01*
X138107850Y-88248396D01*
X138145779Y-88279524D01*
X138180476Y-88314221D01*
X138211604Y-88352150D01*
X138238864Y-88392949D01*
X138261995Y-88436222D01*
X138280772Y-88481555D01*
X138295016Y-88528510D01*
X138304588Y-88576635D01*
X138309398Y-88625466D01*
X138309398Y-88650000D01*
X138310000Y-88650000D01*
X138310000Y-89150000D01*
X138309398Y-89150000D01*
X138309398Y-89174534D01*
X138304588Y-89223365D01*
X138295016Y-89271490D01*
X138280772Y-89318445D01*
X138261995Y-89363778D01*
X138238864Y-89407051D01*
X138211604Y-89447850D01*
X138180476Y-89485779D01*
X138145779Y-89520476D01*
X138107850Y-89551604D01*
X138067051Y-89578864D01*
X138023778Y-89601995D01*
X137978445Y-89620772D01*
X137931490Y-89635016D01*
X137883365Y-89644588D01*
X137834534Y-89649398D01*
X137810000Y-89649398D01*
X137810000Y-89650000D01*
X137310000Y-89650000D01*
X137310000Y-88150000D01*
X137810000Y-88150000D01*
X137810000Y-88150602D01*
X137810000Y-88150602D01*
G37*
D19*
X136510000Y-88900000D03*
D16*
G36*
X137010000Y-89650000D02*
G01*
X136510000Y-89650000D01*
X136510000Y-89649398D01*
X136485466Y-89649398D01*
X136436635Y-89644588D01*
X136388510Y-89635016D01*
X136341555Y-89620772D01*
X136296222Y-89601995D01*
X136252949Y-89578864D01*
X136212150Y-89551604D01*
X136174221Y-89520476D01*
X136139524Y-89485779D01*
X136108396Y-89447850D01*
X136081136Y-89407051D01*
X136058005Y-89363778D01*
X136039228Y-89318445D01*
X136024984Y-89271490D01*
X136015412Y-89223365D01*
X136010602Y-89174534D01*
X136010602Y-89150000D01*
X136010000Y-89150000D01*
X136010000Y-88650000D01*
X136010602Y-88650000D01*
X136010602Y-88625466D01*
X136015412Y-88576635D01*
X136024984Y-88528510D01*
X136039228Y-88481555D01*
X136058005Y-88436222D01*
X136081136Y-88392949D01*
X136108396Y-88352150D01*
X136139524Y-88314221D01*
X136174221Y-88279524D01*
X136212150Y-88248396D01*
X136252949Y-88221136D01*
X136296222Y-88198005D01*
X136341555Y-88179228D01*
X136388510Y-88164984D01*
X136436635Y-88155412D01*
X136485466Y-88150602D01*
X136510000Y-88150602D01*
X136510000Y-88150000D01*
X137010000Y-88150000D01*
X137010000Y-89650000D01*
X137010000Y-89650000D01*
G37*
D19*
X142240000Y-95250000D03*
D16*
G36*
X142740000Y-96000000D02*
G01*
X142240000Y-96000000D01*
X142240000Y-95999398D01*
X142215466Y-95999398D01*
X142166635Y-95994588D01*
X142118510Y-95985016D01*
X142071555Y-95970772D01*
X142026222Y-95951995D01*
X141982949Y-95928864D01*
X141942150Y-95901604D01*
X141904221Y-95870476D01*
X141869524Y-95835779D01*
X141838396Y-95797850D01*
X141811136Y-95757051D01*
X141788005Y-95713778D01*
X141769228Y-95668445D01*
X141754984Y-95621490D01*
X141745412Y-95573365D01*
X141740602Y-95524534D01*
X141740602Y-95500000D01*
X141740000Y-95500000D01*
X141740000Y-95000000D01*
X141740602Y-95000000D01*
X141740602Y-94975466D01*
X141745412Y-94926635D01*
X141754984Y-94878510D01*
X141769228Y-94831555D01*
X141788005Y-94786222D01*
X141811136Y-94742949D01*
X141838396Y-94702150D01*
X141869524Y-94664221D01*
X141904221Y-94629524D01*
X141942150Y-94598396D01*
X141982949Y-94571136D01*
X142026222Y-94548005D01*
X142071555Y-94529228D01*
X142118510Y-94514984D01*
X142166635Y-94505412D01*
X142215466Y-94500602D01*
X142240000Y-94500602D01*
X142240000Y-94500000D01*
X142740000Y-94500000D01*
X142740000Y-96000000D01*
X142740000Y-96000000D01*
G37*
D19*
X143540000Y-95250000D03*
D16*
G36*
X143540000Y-94500602D02*
G01*
X143564534Y-94500602D01*
X143613365Y-94505412D01*
X143661490Y-94514984D01*
X143708445Y-94529228D01*
X143753778Y-94548005D01*
X143797051Y-94571136D01*
X143837850Y-94598396D01*
X143875779Y-94629524D01*
X143910476Y-94664221D01*
X143941604Y-94702150D01*
X143968864Y-94742949D01*
X143991995Y-94786222D01*
X144010772Y-94831555D01*
X144025016Y-94878510D01*
X144034588Y-94926635D01*
X144039398Y-94975466D01*
X144039398Y-95000000D01*
X144040000Y-95000000D01*
X144040000Y-95500000D01*
X144039398Y-95500000D01*
X144039398Y-95524534D01*
X144034588Y-95573365D01*
X144025016Y-95621490D01*
X144010772Y-95668445D01*
X143991995Y-95713778D01*
X143968864Y-95757051D01*
X143941604Y-95797850D01*
X143910476Y-95835779D01*
X143875779Y-95870476D01*
X143837850Y-95901604D01*
X143797051Y-95928864D01*
X143753778Y-95951995D01*
X143708445Y-95970772D01*
X143661490Y-95985016D01*
X143613365Y-95994588D01*
X143564534Y-95999398D01*
X143540000Y-95999398D01*
X143540000Y-96000000D01*
X143040000Y-96000000D01*
X143040000Y-94500000D01*
X143540000Y-94500000D01*
X143540000Y-94500602D01*
X143540000Y-94500602D01*
G37*
G36*
X141675779Y-116366144D02*
G01*
X141698834Y-116369563D01*
X141721443Y-116375227D01*
X141743387Y-116383079D01*
X141764457Y-116393044D01*
X141784448Y-116405026D01*
X141803168Y-116418910D01*
X141820438Y-116434562D01*
X141836090Y-116451832D01*
X141849974Y-116470552D01*
X141861956Y-116490543D01*
X141871921Y-116511613D01*
X141879773Y-116533557D01*
X141885437Y-116556166D01*
X141888856Y-116579221D01*
X141890000Y-116602500D01*
X141890000Y-117077500D01*
X141888856Y-117100779D01*
X141885437Y-117123834D01*
X141879773Y-117146443D01*
X141871921Y-117168387D01*
X141861956Y-117189457D01*
X141849974Y-117209448D01*
X141836090Y-117228168D01*
X141820438Y-117245438D01*
X141803168Y-117261090D01*
X141784448Y-117274974D01*
X141764457Y-117286956D01*
X141743387Y-117296921D01*
X141721443Y-117304773D01*
X141698834Y-117310437D01*
X141675779Y-117313856D01*
X141652500Y-117315000D01*
X141077500Y-117315000D01*
X141054221Y-117313856D01*
X141031166Y-117310437D01*
X141008557Y-117304773D01*
X140986613Y-117296921D01*
X140965543Y-117286956D01*
X140945552Y-117274974D01*
X140926832Y-117261090D01*
X140909562Y-117245438D01*
X140893910Y-117228168D01*
X140880026Y-117209448D01*
X140868044Y-117189457D01*
X140858079Y-117168387D01*
X140850227Y-117146443D01*
X140844563Y-117123834D01*
X140841144Y-117100779D01*
X140840000Y-117077500D01*
X140840000Y-116602500D01*
X140841144Y-116579221D01*
X140844563Y-116556166D01*
X140850227Y-116533557D01*
X140858079Y-116511613D01*
X140868044Y-116490543D01*
X140880026Y-116470552D01*
X140893910Y-116451832D01*
X140909562Y-116434562D01*
X140926832Y-116418910D01*
X140945552Y-116405026D01*
X140965543Y-116393044D01*
X140986613Y-116383079D01*
X141008557Y-116375227D01*
X141031166Y-116369563D01*
X141054221Y-116366144D01*
X141077500Y-116365000D01*
X141652500Y-116365000D01*
X141675779Y-116366144D01*
X141675779Y-116366144D01*
G37*
D17*
X141365000Y-116840000D03*
D16*
G36*
X143425779Y-116366144D02*
G01*
X143448834Y-116369563D01*
X143471443Y-116375227D01*
X143493387Y-116383079D01*
X143514457Y-116393044D01*
X143534448Y-116405026D01*
X143553168Y-116418910D01*
X143570438Y-116434562D01*
X143586090Y-116451832D01*
X143599974Y-116470552D01*
X143611956Y-116490543D01*
X143621921Y-116511613D01*
X143629773Y-116533557D01*
X143635437Y-116556166D01*
X143638856Y-116579221D01*
X143640000Y-116602500D01*
X143640000Y-117077500D01*
X143638856Y-117100779D01*
X143635437Y-117123834D01*
X143629773Y-117146443D01*
X143621921Y-117168387D01*
X143611956Y-117189457D01*
X143599974Y-117209448D01*
X143586090Y-117228168D01*
X143570438Y-117245438D01*
X143553168Y-117261090D01*
X143534448Y-117274974D01*
X143514457Y-117286956D01*
X143493387Y-117296921D01*
X143471443Y-117304773D01*
X143448834Y-117310437D01*
X143425779Y-117313856D01*
X143402500Y-117315000D01*
X142827500Y-117315000D01*
X142804221Y-117313856D01*
X142781166Y-117310437D01*
X142758557Y-117304773D01*
X142736613Y-117296921D01*
X142715543Y-117286956D01*
X142695552Y-117274974D01*
X142676832Y-117261090D01*
X142659562Y-117245438D01*
X142643910Y-117228168D01*
X142630026Y-117209448D01*
X142618044Y-117189457D01*
X142608079Y-117168387D01*
X142600227Y-117146443D01*
X142594563Y-117123834D01*
X142591144Y-117100779D01*
X142590000Y-117077500D01*
X142590000Y-116602500D01*
X142591144Y-116579221D01*
X142594563Y-116556166D01*
X142600227Y-116533557D01*
X142608079Y-116511613D01*
X142618044Y-116490543D01*
X142630026Y-116470552D01*
X142643910Y-116451832D01*
X142659562Y-116434562D01*
X142676832Y-116418910D01*
X142695552Y-116405026D01*
X142715543Y-116393044D01*
X142736613Y-116383079D01*
X142758557Y-116375227D01*
X142781166Y-116369563D01*
X142804221Y-116366144D01*
X142827500Y-116365000D01*
X143402500Y-116365000D01*
X143425779Y-116366144D01*
X143425779Y-116366144D01*
G37*
D17*
X143115000Y-116840000D03*
D16*
G36*
X141675779Y-113826144D02*
G01*
X141698834Y-113829563D01*
X141721443Y-113835227D01*
X141743387Y-113843079D01*
X141764457Y-113853044D01*
X141784448Y-113865026D01*
X141803168Y-113878910D01*
X141820438Y-113894562D01*
X141836090Y-113911832D01*
X141849974Y-113930552D01*
X141861956Y-113950543D01*
X141871921Y-113971613D01*
X141879773Y-113993557D01*
X141885437Y-114016166D01*
X141888856Y-114039221D01*
X141890000Y-114062500D01*
X141890000Y-114537500D01*
X141888856Y-114560779D01*
X141885437Y-114583834D01*
X141879773Y-114606443D01*
X141871921Y-114628387D01*
X141861956Y-114649457D01*
X141849974Y-114669448D01*
X141836090Y-114688168D01*
X141820438Y-114705438D01*
X141803168Y-114721090D01*
X141784448Y-114734974D01*
X141764457Y-114746956D01*
X141743387Y-114756921D01*
X141721443Y-114764773D01*
X141698834Y-114770437D01*
X141675779Y-114773856D01*
X141652500Y-114775000D01*
X141077500Y-114775000D01*
X141054221Y-114773856D01*
X141031166Y-114770437D01*
X141008557Y-114764773D01*
X140986613Y-114756921D01*
X140965543Y-114746956D01*
X140945552Y-114734974D01*
X140926832Y-114721090D01*
X140909562Y-114705438D01*
X140893910Y-114688168D01*
X140880026Y-114669448D01*
X140868044Y-114649457D01*
X140858079Y-114628387D01*
X140850227Y-114606443D01*
X140844563Y-114583834D01*
X140841144Y-114560779D01*
X140840000Y-114537500D01*
X140840000Y-114062500D01*
X140841144Y-114039221D01*
X140844563Y-114016166D01*
X140850227Y-113993557D01*
X140858079Y-113971613D01*
X140868044Y-113950543D01*
X140880026Y-113930552D01*
X140893910Y-113911832D01*
X140909562Y-113894562D01*
X140926832Y-113878910D01*
X140945552Y-113865026D01*
X140965543Y-113853044D01*
X140986613Y-113843079D01*
X141008557Y-113835227D01*
X141031166Y-113829563D01*
X141054221Y-113826144D01*
X141077500Y-113825000D01*
X141652500Y-113825000D01*
X141675779Y-113826144D01*
X141675779Y-113826144D01*
G37*
D17*
X141365000Y-114300000D03*
D16*
G36*
X143425779Y-113826144D02*
G01*
X143448834Y-113829563D01*
X143471443Y-113835227D01*
X143493387Y-113843079D01*
X143514457Y-113853044D01*
X143534448Y-113865026D01*
X143553168Y-113878910D01*
X143570438Y-113894562D01*
X143586090Y-113911832D01*
X143599974Y-113930552D01*
X143611956Y-113950543D01*
X143621921Y-113971613D01*
X143629773Y-113993557D01*
X143635437Y-114016166D01*
X143638856Y-114039221D01*
X143640000Y-114062500D01*
X143640000Y-114537500D01*
X143638856Y-114560779D01*
X143635437Y-114583834D01*
X143629773Y-114606443D01*
X143621921Y-114628387D01*
X143611956Y-114649457D01*
X143599974Y-114669448D01*
X143586090Y-114688168D01*
X143570438Y-114705438D01*
X143553168Y-114721090D01*
X143534448Y-114734974D01*
X143514457Y-114746956D01*
X143493387Y-114756921D01*
X143471443Y-114764773D01*
X143448834Y-114770437D01*
X143425779Y-114773856D01*
X143402500Y-114775000D01*
X142827500Y-114775000D01*
X142804221Y-114773856D01*
X142781166Y-114770437D01*
X142758557Y-114764773D01*
X142736613Y-114756921D01*
X142715543Y-114746956D01*
X142695552Y-114734974D01*
X142676832Y-114721090D01*
X142659562Y-114705438D01*
X142643910Y-114688168D01*
X142630026Y-114669448D01*
X142618044Y-114649457D01*
X142608079Y-114628387D01*
X142600227Y-114606443D01*
X142594563Y-114583834D01*
X142591144Y-114560779D01*
X142590000Y-114537500D01*
X142590000Y-114062500D01*
X142591144Y-114039221D01*
X142594563Y-114016166D01*
X142600227Y-113993557D01*
X142608079Y-113971613D01*
X142618044Y-113950543D01*
X142630026Y-113930552D01*
X142643910Y-113911832D01*
X142659562Y-113894562D01*
X142676832Y-113878910D01*
X142695552Y-113865026D01*
X142715543Y-113853044D01*
X142736613Y-113843079D01*
X142758557Y-113835227D01*
X142781166Y-113829563D01*
X142804221Y-113826144D01*
X142827500Y-113825000D01*
X143402500Y-113825000D01*
X143425779Y-113826144D01*
X143425779Y-113826144D01*
G37*
D17*
X143115000Y-114300000D03*
D16*
G36*
X131515779Y-113826144D02*
G01*
X131538834Y-113829563D01*
X131561443Y-113835227D01*
X131583387Y-113843079D01*
X131604457Y-113853044D01*
X131624448Y-113865026D01*
X131643168Y-113878910D01*
X131660438Y-113894562D01*
X131676090Y-113911832D01*
X131689974Y-113930552D01*
X131701956Y-113950543D01*
X131711921Y-113971613D01*
X131719773Y-113993557D01*
X131725437Y-114016166D01*
X131728856Y-114039221D01*
X131730000Y-114062500D01*
X131730000Y-114537500D01*
X131728856Y-114560779D01*
X131725437Y-114583834D01*
X131719773Y-114606443D01*
X131711921Y-114628387D01*
X131701956Y-114649457D01*
X131689974Y-114669448D01*
X131676090Y-114688168D01*
X131660438Y-114705438D01*
X131643168Y-114721090D01*
X131624448Y-114734974D01*
X131604457Y-114746956D01*
X131583387Y-114756921D01*
X131561443Y-114764773D01*
X131538834Y-114770437D01*
X131515779Y-114773856D01*
X131492500Y-114775000D01*
X130917500Y-114775000D01*
X130894221Y-114773856D01*
X130871166Y-114770437D01*
X130848557Y-114764773D01*
X130826613Y-114756921D01*
X130805543Y-114746956D01*
X130785552Y-114734974D01*
X130766832Y-114721090D01*
X130749562Y-114705438D01*
X130733910Y-114688168D01*
X130720026Y-114669448D01*
X130708044Y-114649457D01*
X130698079Y-114628387D01*
X130690227Y-114606443D01*
X130684563Y-114583834D01*
X130681144Y-114560779D01*
X130680000Y-114537500D01*
X130680000Y-114062500D01*
X130681144Y-114039221D01*
X130684563Y-114016166D01*
X130690227Y-113993557D01*
X130698079Y-113971613D01*
X130708044Y-113950543D01*
X130720026Y-113930552D01*
X130733910Y-113911832D01*
X130749562Y-113894562D01*
X130766832Y-113878910D01*
X130785552Y-113865026D01*
X130805543Y-113853044D01*
X130826613Y-113843079D01*
X130848557Y-113835227D01*
X130871166Y-113829563D01*
X130894221Y-113826144D01*
X130917500Y-113825000D01*
X131492500Y-113825000D01*
X131515779Y-113826144D01*
X131515779Y-113826144D01*
G37*
D17*
X131205000Y-114300000D03*
D16*
G36*
X133265779Y-113826144D02*
G01*
X133288834Y-113829563D01*
X133311443Y-113835227D01*
X133333387Y-113843079D01*
X133354457Y-113853044D01*
X133374448Y-113865026D01*
X133393168Y-113878910D01*
X133410438Y-113894562D01*
X133426090Y-113911832D01*
X133439974Y-113930552D01*
X133451956Y-113950543D01*
X133461921Y-113971613D01*
X133469773Y-113993557D01*
X133475437Y-114016166D01*
X133478856Y-114039221D01*
X133480000Y-114062500D01*
X133480000Y-114537500D01*
X133478856Y-114560779D01*
X133475437Y-114583834D01*
X133469773Y-114606443D01*
X133461921Y-114628387D01*
X133451956Y-114649457D01*
X133439974Y-114669448D01*
X133426090Y-114688168D01*
X133410438Y-114705438D01*
X133393168Y-114721090D01*
X133374448Y-114734974D01*
X133354457Y-114746956D01*
X133333387Y-114756921D01*
X133311443Y-114764773D01*
X133288834Y-114770437D01*
X133265779Y-114773856D01*
X133242500Y-114775000D01*
X132667500Y-114775000D01*
X132644221Y-114773856D01*
X132621166Y-114770437D01*
X132598557Y-114764773D01*
X132576613Y-114756921D01*
X132555543Y-114746956D01*
X132535552Y-114734974D01*
X132516832Y-114721090D01*
X132499562Y-114705438D01*
X132483910Y-114688168D01*
X132470026Y-114669448D01*
X132458044Y-114649457D01*
X132448079Y-114628387D01*
X132440227Y-114606443D01*
X132434563Y-114583834D01*
X132431144Y-114560779D01*
X132430000Y-114537500D01*
X132430000Y-114062500D01*
X132431144Y-114039221D01*
X132434563Y-114016166D01*
X132440227Y-113993557D01*
X132448079Y-113971613D01*
X132458044Y-113950543D01*
X132470026Y-113930552D01*
X132483910Y-113911832D01*
X132499562Y-113894562D01*
X132516832Y-113878910D01*
X132535552Y-113865026D01*
X132555543Y-113853044D01*
X132576613Y-113843079D01*
X132598557Y-113835227D01*
X132621166Y-113829563D01*
X132644221Y-113826144D01*
X132667500Y-113825000D01*
X133242500Y-113825000D01*
X133265779Y-113826144D01*
X133265779Y-113826144D01*
G37*
D17*
X132955000Y-114300000D03*
D16*
G36*
X133265779Y-116366144D02*
G01*
X133288834Y-116369563D01*
X133311443Y-116375227D01*
X133333387Y-116383079D01*
X133354457Y-116393044D01*
X133374448Y-116405026D01*
X133393168Y-116418910D01*
X133410438Y-116434562D01*
X133426090Y-116451832D01*
X133439974Y-116470552D01*
X133451956Y-116490543D01*
X133461921Y-116511613D01*
X133469773Y-116533557D01*
X133475437Y-116556166D01*
X133478856Y-116579221D01*
X133480000Y-116602500D01*
X133480000Y-117077500D01*
X133478856Y-117100779D01*
X133475437Y-117123834D01*
X133469773Y-117146443D01*
X133461921Y-117168387D01*
X133451956Y-117189457D01*
X133439974Y-117209448D01*
X133426090Y-117228168D01*
X133410438Y-117245438D01*
X133393168Y-117261090D01*
X133374448Y-117274974D01*
X133354457Y-117286956D01*
X133333387Y-117296921D01*
X133311443Y-117304773D01*
X133288834Y-117310437D01*
X133265779Y-117313856D01*
X133242500Y-117315000D01*
X132667500Y-117315000D01*
X132644221Y-117313856D01*
X132621166Y-117310437D01*
X132598557Y-117304773D01*
X132576613Y-117296921D01*
X132555543Y-117286956D01*
X132535552Y-117274974D01*
X132516832Y-117261090D01*
X132499562Y-117245438D01*
X132483910Y-117228168D01*
X132470026Y-117209448D01*
X132458044Y-117189457D01*
X132448079Y-117168387D01*
X132440227Y-117146443D01*
X132434563Y-117123834D01*
X132431144Y-117100779D01*
X132430000Y-117077500D01*
X132430000Y-116602500D01*
X132431144Y-116579221D01*
X132434563Y-116556166D01*
X132440227Y-116533557D01*
X132448079Y-116511613D01*
X132458044Y-116490543D01*
X132470026Y-116470552D01*
X132483910Y-116451832D01*
X132499562Y-116434562D01*
X132516832Y-116418910D01*
X132535552Y-116405026D01*
X132555543Y-116393044D01*
X132576613Y-116383079D01*
X132598557Y-116375227D01*
X132621166Y-116369563D01*
X132644221Y-116366144D01*
X132667500Y-116365000D01*
X133242500Y-116365000D01*
X133265779Y-116366144D01*
X133265779Y-116366144D01*
G37*
D17*
X132955000Y-116840000D03*
D16*
G36*
X131515779Y-116366144D02*
G01*
X131538834Y-116369563D01*
X131561443Y-116375227D01*
X131583387Y-116383079D01*
X131604457Y-116393044D01*
X131624448Y-116405026D01*
X131643168Y-116418910D01*
X131660438Y-116434562D01*
X131676090Y-116451832D01*
X131689974Y-116470552D01*
X131701956Y-116490543D01*
X131711921Y-116511613D01*
X131719773Y-116533557D01*
X131725437Y-116556166D01*
X131728856Y-116579221D01*
X131730000Y-116602500D01*
X131730000Y-117077500D01*
X131728856Y-117100779D01*
X131725437Y-117123834D01*
X131719773Y-117146443D01*
X131711921Y-117168387D01*
X131701956Y-117189457D01*
X131689974Y-117209448D01*
X131676090Y-117228168D01*
X131660438Y-117245438D01*
X131643168Y-117261090D01*
X131624448Y-117274974D01*
X131604457Y-117286956D01*
X131583387Y-117296921D01*
X131561443Y-117304773D01*
X131538834Y-117310437D01*
X131515779Y-117313856D01*
X131492500Y-117315000D01*
X130917500Y-117315000D01*
X130894221Y-117313856D01*
X130871166Y-117310437D01*
X130848557Y-117304773D01*
X130826613Y-117296921D01*
X130805543Y-117286956D01*
X130785552Y-117274974D01*
X130766832Y-117261090D01*
X130749562Y-117245438D01*
X130733910Y-117228168D01*
X130720026Y-117209448D01*
X130708044Y-117189457D01*
X130698079Y-117168387D01*
X130690227Y-117146443D01*
X130684563Y-117123834D01*
X130681144Y-117100779D01*
X130680000Y-117077500D01*
X130680000Y-116602500D01*
X130681144Y-116579221D01*
X130684563Y-116556166D01*
X130690227Y-116533557D01*
X130698079Y-116511613D01*
X130708044Y-116490543D01*
X130720026Y-116470552D01*
X130733910Y-116451832D01*
X130749562Y-116434562D01*
X130766832Y-116418910D01*
X130785552Y-116405026D01*
X130805543Y-116393044D01*
X130826613Y-116383079D01*
X130848557Y-116375227D01*
X130871166Y-116369563D01*
X130894221Y-116366144D01*
X130917500Y-116365000D01*
X131492500Y-116365000D01*
X131515779Y-116366144D01*
X131515779Y-116366144D01*
G37*
D17*
X131205000Y-116840000D03*
D20*
X135810000Y-86040000D03*
X135810000Y-85090000D03*
X135810000Y-84140000D03*
X138510000Y-84140000D03*
X138510000Y-86040000D03*
D21*
X140970000Y-99695000D03*
X133350000Y-103505000D03*
X139065000Y-105410000D03*
X135255000Y-97790000D03*
X140970000Y-85090000D03*
X137160000Y-85090000D03*
X137160000Y-80645000D03*
X131445010Y-82550000D03*
X132080000Y-85090000D03*
X132400000Y-100200000D03*
X134400000Y-104865000D03*
X141000000Y-103800000D03*
X139200000Y-97800000D03*
X140024230Y-114286540D03*
X140652500Y-78740000D03*
X131196815Y-96768185D03*
X133350000Y-92075000D03*
D22*
X140970000Y-100725000D02*
X140970000Y-99695000D01*
X133350000Y-103505000D02*
X133350000Y-102475000D01*
X138035000Y-105410000D02*
X139065000Y-105410000D01*
X136285000Y-97790000D02*
X135255000Y-97790000D01*
X140970000Y-85090000D02*
X140970000Y-83652500D01*
X135810000Y-85090000D02*
X137160000Y-85090000D01*
X140970000Y-85090000D02*
X137160000Y-85090000D01*
X137400000Y-80405000D02*
X137160000Y-80645000D01*
X138430000Y-80405000D02*
X137400000Y-80405000D01*
X136920000Y-80405000D02*
X137160000Y-80645000D01*
X135890000Y-80405000D02*
X136920000Y-80405000D01*
X137160000Y-80645000D02*
X137160000Y-85090000D01*
X131205000Y-82790010D02*
X131445010Y-82550000D01*
X131205000Y-83820000D02*
X131205000Y-82790010D01*
X141365000Y-116840000D02*
X138430000Y-116840000D01*
X141365000Y-124065000D02*
X138430000Y-127000000D01*
X141365000Y-116840000D02*
X141365000Y-124065000D01*
X132080000Y-85090000D02*
X131127500Y-85090000D01*
X130970000Y-85090000D02*
X131127500Y-85090000D01*
X130475000Y-85585000D02*
X130970000Y-85090000D01*
X130475000Y-86360000D02*
X130475000Y-85585000D01*
X131205000Y-84855000D02*
X131205000Y-83820000D01*
X130970000Y-85090000D02*
X131205000Y-84855000D01*
X133350000Y-81280000D02*
X133350000Y-77470000D01*
X128270000Y-77470000D02*
X133350000Y-77470000D01*
X133350000Y-77470000D02*
X146050000Y-77470000D01*
X135810000Y-88200000D02*
X136510000Y-88900000D01*
X135810000Y-86040000D02*
X135810000Y-88200000D01*
X134225000Y-82155000D02*
X133350000Y-81280000D01*
X135890000Y-82155000D02*
X134225000Y-82155000D01*
X132955000Y-83820000D02*
X132955000Y-82945000D01*
X133350000Y-82550000D02*
X133350000Y-81280000D01*
X132955000Y-82945000D02*
X133350000Y-82550000D01*
X132955000Y-84395000D02*
X133350000Y-84790000D01*
X132955000Y-83820000D02*
X132955000Y-84395000D01*
X133350000Y-84790000D02*
X133350000Y-86360000D01*
X133670000Y-86040000D02*
X133350000Y-86360000D01*
X135810000Y-86040000D02*
X133670000Y-86040000D01*
X134210000Y-83820000D02*
X132955000Y-83820000D01*
X135810000Y-84140000D02*
X134530000Y-84140000D01*
X134530000Y-84140000D02*
X134210000Y-83820000D01*
X132925000Y-100725000D02*
X132400000Y-100200000D01*
X133350000Y-100725000D02*
X132925000Y-100725000D01*
X134945000Y-105410000D02*
X134400000Y-104865000D01*
X136285000Y-105410000D02*
X134945000Y-105410000D01*
X141000000Y-102505000D02*
X140970000Y-102475000D01*
X141000000Y-103800000D02*
X141000000Y-102505000D01*
X138045000Y-97800000D02*
X138035000Y-97790000D01*
X139200000Y-97800000D02*
X138045000Y-97800000D01*
X138510000Y-88200000D02*
X137810000Y-88900000D01*
X138510000Y-86040000D02*
X138510000Y-88200000D01*
X140482500Y-86040000D02*
X140970000Y-86527500D01*
X138510000Y-86040000D02*
X140482500Y-86040000D01*
X137810000Y-88900000D02*
X137810000Y-95870000D01*
X138035000Y-96095000D02*
X138035000Y-97790000D01*
X137810000Y-95870000D02*
X138035000Y-96095000D01*
X140970000Y-102475000D02*
X139305000Y-102475000D01*
X139305000Y-102475000D02*
X137795000Y-100965000D01*
X138035000Y-100725000D02*
X138035000Y-97790000D01*
X137795000Y-100965000D02*
X138035000Y-100725000D01*
X137795000Y-100965000D02*
X137555000Y-100725000D01*
X136285000Y-100725000D02*
X136285000Y-105410000D01*
X136285000Y-100725000D02*
X133350000Y-100725000D01*
X137555000Y-100725000D02*
X136285000Y-100725000D01*
X136285000Y-105410000D02*
X136285000Y-110547310D01*
X141351540Y-114286540D02*
X141365000Y-114300000D01*
X140024230Y-114286540D02*
X141351540Y-114286540D01*
D23*
X139700000Y-79692500D02*
X140652500Y-78740000D01*
X142240000Y-85257500D02*
X142240000Y-82867500D01*
X140970000Y-86527500D02*
X142240000Y-85257500D01*
X142240000Y-82867500D02*
X141777501Y-82405001D01*
X141777501Y-82405001D02*
X140429999Y-82405001D01*
X140429999Y-82405001D02*
X139700000Y-81675002D01*
X139700000Y-81675002D02*
X139700000Y-79692500D01*
D22*
X140970000Y-86527500D02*
X138597500Y-88900000D01*
X138597500Y-88900000D02*
X137810000Y-88900000D01*
X136285000Y-110547310D02*
X137328845Y-111591155D01*
X137328845Y-111591155D02*
X140024230Y-114286540D01*
X140010770Y-114300000D02*
X140024230Y-114286540D01*
X132955000Y-114300000D02*
X140010770Y-114300000D01*
X132955000Y-116840000D02*
X132955000Y-114300000D01*
D23*
X131205000Y-113425000D02*
X131205000Y-114300000D01*
X130810000Y-113030000D02*
X131205000Y-113425000D01*
X131196815Y-96768185D02*
X130810000Y-97155000D01*
X130810000Y-97155000D02*
X130810000Y-113030000D01*
X131205000Y-114300000D02*
X131205000Y-115012500D01*
X131205000Y-115012500D02*
X132055010Y-115862510D01*
X132055010Y-118085010D02*
X132055010Y-115862510D01*
X135890000Y-121920000D02*
X132055010Y-118085010D01*
X133350000Y-92075000D02*
X130175000Y-95250000D01*
X131205000Y-116840000D02*
X131205000Y-115965000D01*
X131205000Y-115965000D02*
X130175000Y-114935000D01*
X130175000Y-95250000D02*
X130175000Y-114935000D01*
X131205000Y-122315000D02*
X131205000Y-116840000D01*
X135890000Y-127000000D02*
X131205000Y-122315000D01*
X144385000Y-118110000D02*
X143115000Y-116840000D01*
X146050000Y-118110000D02*
X144385000Y-118110000D01*
X137160000Y-115570000D02*
X135890000Y-116840000D01*
X139382500Y-115570000D02*
X137160000Y-115570000D01*
X139700000Y-115887500D02*
X139382500Y-115570000D01*
X142737500Y-115887500D02*
X139700000Y-115887500D01*
X143115000Y-116840000D02*
X143115000Y-116265000D01*
X143115000Y-116265000D02*
X142737500Y-115887500D01*
X143115000Y-108345000D02*
X146050000Y-105410000D01*
X143115000Y-114300000D02*
X143115000Y-108345000D01*
X134620000Y-118110000D02*
X135890000Y-119380000D01*
X142162500Y-115252500D02*
X140017500Y-115252500D01*
X143115000Y-114300000D02*
X142162500Y-115252500D01*
X140017500Y-115252500D02*
X139700000Y-114935000D01*
X139700000Y-114935000D02*
X135255000Y-114935000D01*
X135255000Y-114935000D02*
X134620000Y-115570000D01*
X134620000Y-115570000D02*
X134620000Y-118110000D01*
X143540000Y-95250000D02*
X146050000Y-95250000D01*
X141605000Y-81280000D02*
X140970000Y-81280000D01*
X142875000Y-82550000D02*
X141605000Y-81280000D01*
X142875000Y-92075000D02*
X142875000Y-82550000D01*
X142240000Y-95250000D02*
X142240000Y-92710000D01*
X142240000Y-92710000D02*
X142875000Y-92075000D01*
D22*
X138430000Y-84060000D02*
X138510000Y-84140000D01*
X138430000Y-82155000D02*
X138430000Y-84060000D01*
D24*
G36*
X138637000Y-85913000D02*
G01*
X138657000Y-85913000D01*
X138657000Y-86167000D01*
X138637000Y-86167000D01*
X138637000Y-86841250D01*
X138795750Y-87000000D01*
X139290000Y-87003072D01*
X139414482Y-86990812D01*
X139534180Y-86954502D01*
X139644494Y-86895537D01*
X139659572Y-86883163D01*
X139656928Y-87315000D01*
X139669188Y-87439482D01*
X139705498Y-87559180D01*
X139764463Y-87669494D01*
X139843815Y-87766185D01*
X139940506Y-87845537D01*
X140050820Y-87904502D01*
X140170518Y-87940812D01*
X140186055Y-87942342D01*
X140184773Y-87943199D01*
X140013199Y-88114773D01*
X139878393Y-88316524D01*
X139785538Y-88540697D01*
X139738200Y-88778678D01*
X139738200Y-89021322D01*
X139785538Y-89259303D01*
X139878393Y-89483476D01*
X140013199Y-89685227D01*
X140184773Y-89856801D01*
X140386524Y-89991607D01*
X140610697Y-90084462D01*
X140848678Y-90131800D01*
X141091322Y-90131800D01*
X141329303Y-90084462D01*
X141553476Y-89991607D01*
X141755227Y-89856801D01*
X141926801Y-89685227D01*
X142061607Y-89483476D01*
X142113000Y-89359402D01*
X142113000Y-92049566D01*
X141865625Y-92296942D01*
X141844379Y-92314378D01*
X141826943Y-92335624D01*
X141774798Y-92399163D01*
X141723096Y-92495891D01*
X141691257Y-92600849D01*
X141680507Y-92710000D01*
X141683201Y-92737354D01*
X141683200Y-94251759D01*
X141681747Y-94252730D01*
X141615997Y-94306689D01*
X141546689Y-94375997D01*
X141492730Y-94441747D01*
X141438274Y-94523246D01*
X141398177Y-94598262D01*
X141360668Y-94688818D01*
X141335978Y-94770211D01*
X141316856Y-94866344D01*
X141308519Y-94950991D01*
X141308519Y-94975551D01*
X141306111Y-95000000D01*
X141306111Y-95500000D01*
X141308519Y-95524449D01*
X141308519Y-95549009D01*
X141316856Y-95633656D01*
X141335978Y-95729789D01*
X141360668Y-95811182D01*
X141398177Y-95901738D01*
X141438274Y-95976754D01*
X141492730Y-96058253D01*
X141546689Y-96124003D01*
X141615997Y-96193311D01*
X141681747Y-96247270D01*
X141763246Y-96301726D01*
X141838262Y-96341823D01*
X141928818Y-96379332D01*
X142010211Y-96404022D01*
X142106344Y-96423144D01*
X142190991Y-96431481D01*
X142215551Y-96431481D01*
X142240000Y-96433889D01*
X142740000Y-96433889D01*
X142824648Y-96425552D01*
X142890000Y-96405727D01*
X142955352Y-96425552D01*
X143040000Y-96433889D01*
X143244283Y-96433889D01*
X144018000Y-97207606D01*
X144018000Y-105992394D01*
X142150197Y-107860197D01*
X142134403Y-107879443D01*
X142122667Y-107901399D01*
X142115440Y-107925224D01*
X142113000Y-107950000D01*
X142113000Y-113229073D01*
X142014482Y-113199188D01*
X141890000Y-113186928D01*
X141650750Y-113190000D01*
X141492000Y-113348750D01*
X141492000Y-114173000D01*
X141512000Y-114173000D01*
X141512000Y-114427000D01*
X141492000Y-114427000D01*
X141492000Y-114447000D01*
X141238000Y-114447000D01*
X141238000Y-114427000D01*
X140363750Y-114427000D01*
X140205000Y-114585750D01*
X140203933Y-114651500D01*
X140113063Y-114560630D01*
X140095622Y-114539378D01*
X140010838Y-114469798D01*
X139914109Y-114418095D01*
X139809152Y-114386257D01*
X139727351Y-114378200D01*
X139727344Y-114378200D01*
X139700000Y-114375507D01*
X139672656Y-114378200D01*
X135282351Y-114378200D01*
X135255000Y-114375506D01*
X135227649Y-114378200D01*
X135145848Y-114386257D01*
X135040891Y-114418095D01*
X134944162Y-114469798D01*
X134859378Y-114539378D01*
X134841942Y-114560625D01*
X134594567Y-114808000D01*
X134114822Y-114808000D01*
X134118072Y-114775000D01*
X134115000Y-114585750D01*
X133956250Y-114427000D01*
X133082000Y-114427000D01*
X133082000Y-114447000D01*
X132828000Y-114447000D01*
X132828000Y-114427000D01*
X132808000Y-114427000D01*
X132808000Y-114173000D01*
X132828000Y-114173000D01*
X132828000Y-113348750D01*
X133082000Y-113348750D01*
X133082000Y-114173000D01*
X133956250Y-114173000D01*
X134115000Y-114014250D01*
X134118072Y-113825000D01*
X140201928Y-113825000D01*
X140205000Y-114014250D01*
X140363750Y-114173000D01*
X141238000Y-114173000D01*
X141238000Y-113348750D01*
X141079250Y-113190000D01*
X140840000Y-113186928D01*
X140715518Y-113199188D01*
X140595820Y-113235498D01*
X140485506Y-113294463D01*
X140388815Y-113373815D01*
X140309463Y-113470506D01*
X140250498Y-113580820D01*
X140214188Y-113700518D01*
X140201928Y-113825000D01*
X134118072Y-113825000D01*
X134105812Y-113700518D01*
X134069502Y-113580820D01*
X134010537Y-113470506D01*
X133931185Y-113373815D01*
X133834494Y-113294463D01*
X133724180Y-113235498D01*
X133604482Y-113199188D01*
X133480000Y-113186928D01*
X133240750Y-113190000D01*
X133082000Y-113348750D01*
X132828000Y-113348750D01*
X132669250Y-113190000D01*
X132430000Y-113186928D01*
X132305518Y-113199188D01*
X132185820Y-113235498D01*
X132075506Y-113294463D01*
X131978815Y-113373815D01*
X131899463Y-113470506D01*
X131876568Y-113513340D01*
X131865504Y-113504260D01*
X131762129Y-113449005D01*
X131764493Y-113424999D01*
X131761800Y-113397658D01*
X131761800Y-113397649D01*
X131753743Y-113315848D01*
X131721905Y-113210891D01*
X131670202Y-113114162D01*
X131600622Y-113029378D01*
X131579375Y-113011941D01*
X131572000Y-113004566D01*
X131572000Y-105885000D01*
X135121928Y-105885000D01*
X135134188Y-106009482D01*
X135170498Y-106129180D01*
X135229463Y-106239494D01*
X135308815Y-106336185D01*
X135405506Y-106415537D01*
X135515820Y-106474502D01*
X135635518Y-106510812D01*
X135760000Y-106523072D01*
X135999250Y-106520000D01*
X136158000Y-106361250D01*
X136158000Y-105537000D01*
X135283750Y-105537000D01*
X135125000Y-105695750D01*
X135121928Y-105885000D01*
X131572000Y-105885000D01*
X131572000Y-104935000D01*
X135121928Y-104935000D01*
X135125000Y-105124250D01*
X135283750Y-105283000D01*
X136158000Y-105283000D01*
X136158000Y-104458750D01*
X136412000Y-104458750D01*
X136412000Y-105283000D01*
X136432000Y-105283000D01*
X136432000Y-105537000D01*
X136412000Y-105537000D01*
X136412000Y-106361250D01*
X136570750Y-106520000D01*
X136810000Y-106523072D01*
X136934482Y-106510812D01*
X137054180Y-106474502D01*
X137164494Y-106415537D01*
X137261185Y-106336185D01*
X137340537Y-106239494D01*
X137363432Y-106196660D01*
X137374496Y-106205740D01*
X137490571Y-106267783D01*
X137616519Y-106305988D01*
X137747500Y-106318889D01*
X138322500Y-106318889D01*
X138453481Y-106305988D01*
X138579429Y-106267783D01*
X138695504Y-106205740D01*
X138734743Y-106173537D01*
X138822373Y-106209835D01*
X138983075Y-106241800D01*
X139146925Y-106241800D01*
X139307627Y-106209835D01*
X139459005Y-106147132D01*
X139595242Y-106056101D01*
X139711101Y-105940242D01*
X139802132Y-105804005D01*
X139864835Y-105652627D01*
X139896800Y-105491925D01*
X139896800Y-105328075D01*
X139864835Y-105167373D01*
X139802132Y-105015995D01*
X139711101Y-104879758D01*
X139595242Y-104763899D01*
X139459005Y-104672868D01*
X139307627Y-104610165D01*
X139146925Y-104578200D01*
X138983075Y-104578200D01*
X138822373Y-104610165D01*
X138734743Y-104646463D01*
X138695504Y-104614260D01*
X138579429Y-104552217D01*
X138453481Y-104514012D01*
X138322500Y-104501111D01*
X137747500Y-104501111D01*
X137616519Y-104514012D01*
X137490571Y-104552217D01*
X137374496Y-104614260D01*
X137363432Y-104623340D01*
X137340537Y-104580506D01*
X137261185Y-104483815D01*
X137164494Y-104404463D01*
X137054180Y-104345498D01*
X136934482Y-104309188D01*
X136810000Y-104296928D01*
X136570750Y-104300000D01*
X136412000Y-104458750D01*
X136158000Y-104458750D01*
X135999250Y-104300000D01*
X135760000Y-104296928D01*
X135635518Y-104309188D01*
X135515820Y-104345498D01*
X135405506Y-104404463D01*
X135308815Y-104483815D01*
X135229463Y-104580506D01*
X135170498Y-104690820D01*
X135134188Y-104810518D01*
X135121928Y-104935000D01*
X131572000Y-104935000D01*
X131572000Y-101250000D01*
X132236928Y-101250000D01*
X132249188Y-101374482D01*
X132285498Y-101494180D01*
X132344463Y-101604494D01*
X132423815Y-101701185D01*
X132520506Y-101780537D01*
X132563340Y-101803432D01*
X132554260Y-101814496D01*
X132492217Y-101930571D01*
X132454012Y-102056519D01*
X132441111Y-102187500D01*
X132441111Y-102762500D01*
X132454012Y-102893481D01*
X132492217Y-103019429D01*
X132554260Y-103135504D01*
X132586463Y-103174743D01*
X132550165Y-103262373D01*
X132518200Y-103423075D01*
X132518200Y-103586925D01*
X132550165Y-103747627D01*
X132612868Y-103899005D01*
X132703899Y-104035242D01*
X132819758Y-104151101D01*
X132955995Y-104242132D01*
X133107373Y-104304835D01*
X133268075Y-104336800D01*
X133431925Y-104336800D01*
X133592627Y-104304835D01*
X133744005Y-104242132D01*
X133880242Y-104151101D01*
X133996101Y-104035242D01*
X134087132Y-103899005D01*
X134149835Y-103747627D01*
X134181800Y-103586925D01*
X134181800Y-103423075D01*
X134149835Y-103262373D01*
X134113537Y-103174743D01*
X134145740Y-103135504D01*
X134207783Y-103019429D01*
X134213676Y-103000000D01*
X139856928Y-103000000D01*
X139869188Y-103124482D01*
X139905498Y-103244180D01*
X139964463Y-103354494D01*
X140043815Y-103451185D01*
X140140506Y-103530537D01*
X140250820Y-103589502D01*
X140370518Y-103625812D01*
X140495000Y-103638072D01*
X140684250Y-103635000D01*
X140843000Y-103476250D01*
X140843000Y-102602000D01*
X141097000Y-102602000D01*
X141097000Y-103476250D01*
X141255750Y-103635000D01*
X141445000Y-103638072D01*
X141569482Y-103625812D01*
X141689180Y-103589502D01*
X141799494Y-103530537D01*
X141896185Y-103451185D01*
X141975537Y-103354494D01*
X142034502Y-103244180D01*
X142070812Y-103124482D01*
X142083072Y-103000000D01*
X142080000Y-102760750D01*
X141921250Y-102602000D01*
X141097000Y-102602000D01*
X140843000Y-102602000D01*
X140018750Y-102602000D01*
X139860000Y-102760750D01*
X139856928Y-103000000D01*
X134213676Y-103000000D01*
X134245988Y-102893481D01*
X134258889Y-102762500D01*
X134258889Y-102187500D01*
X134245988Y-102056519D01*
X134213677Y-101950000D01*
X139856928Y-101950000D01*
X139860000Y-102189250D01*
X140018750Y-102348000D01*
X140843000Y-102348000D01*
X140843000Y-102328000D01*
X141097000Y-102328000D01*
X141097000Y-102348000D01*
X141921250Y-102348000D01*
X142080000Y-102189250D01*
X142083072Y-101950000D01*
X142070812Y-101825518D01*
X142034502Y-101705820D01*
X141975537Y-101595506D01*
X141896185Y-101498815D01*
X141799494Y-101419463D01*
X141756660Y-101396568D01*
X141765740Y-101385504D01*
X141827783Y-101269429D01*
X141865988Y-101143481D01*
X141878889Y-101012500D01*
X141878889Y-100437500D01*
X141865988Y-100306519D01*
X141827783Y-100180571D01*
X141765740Y-100064496D01*
X141733537Y-100025257D01*
X141769835Y-99937627D01*
X141801800Y-99776925D01*
X141801800Y-99613075D01*
X141769835Y-99452373D01*
X141707132Y-99300995D01*
X141616101Y-99164758D01*
X141500242Y-99048899D01*
X141364005Y-98957868D01*
X141212627Y-98895165D01*
X141051925Y-98863200D01*
X140888075Y-98863200D01*
X140727373Y-98895165D01*
X140575995Y-98957868D01*
X140439758Y-99048899D01*
X140323899Y-99164758D01*
X140232868Y-99300995D01*
X140170165Y-99452373D01*
X140138200Y-99613075D01*
X140138200Y-99776925D01*
X140170165Y-99937627D01*
X140206463Y-100025257D01*
X140174260Y-100064496D01*
X140112217Y-100180571D01*
X140074012Y-100306519D01*
X140061111Y-100437500D01*
X140061111Y-101012500D01*
X140074012Y-101143481D01*
X140112217Y-101269429D01*
X140174260Y-101385504D01*
X140183340Y-101396568D01*
X140140506Y-101419463D01*
X140043815Y-101498815D01*
X139964463Y-101595506D01*
X139905498Y-101705820D01*
X139869188Y-101825518D01*
X139856928Y-101950000D01*
X134213677Y-101950000D01*
X134207783Y-101930571D01*
X134145740Y-101814496D01*
X134136660Y-101803432D01*
X134179494Y-101780537D01*
X134276185Y-101701185D01*
X134355537Y-101604494D01*
X134414502Y-101494180D01*
X134450812Y-101374482D01*
X134463072Y-101250000D01*
X134460000Y-101010750D01*
X134301250Y-100852000D01*
X133477000Y-100852000D01*
X133477000Y-100872000D01*
X133223000Y-100872000D01*
X133223000Y-100852000D01*
X132398750Y-100852000D01*
X132240000Y-101010750D01*
X132236928Y-101250000D01*
X131572000Y-101250000D01*
X131572000Y-100200000D01*
X132236928Y-100200000D01*
X132240000Y-100439250D01*
X132398750Y-100598000D01*
X133223000Y-100598000D01*
X133223000Y-99723750D01*
X133477000Y-99723750D01*
X133477000Y-100598000D01*
X134301250Y-100598000D01*
X134460000Y-100439250D01*
X134463072Y-100200000D01*
X134450812Y-100075518D01*
X134414502Y-99955820D01*
X134355537Y-99845506D01*
X134276185Y-99748815D01*
X134179494Y-99669463D01*
X134069180Y-99610498D01*
X133949482Y-99574188D01*
X133825000Y-99561928D01*
X133635750Y-99565000D01*
X133477000Y-99723750D01*
X133223000Y-99723750D01*
X133064250Y-99565000D01*
X132875000Y-99561928D01*
X132750518Y-99574188D01*
X132630820Y-99610498D01*
X132520506Y-99669463D01*
X132423815Y-99748815D01*
X132344463Y-99845506D01*
X132285498Y-99955820D01*
X132249188Y-100075518D01*
X132236928Y-100200000D01*
X131572000Y-100200000D01*
X131572000Y-97708075D01*
X134423200Y-97708075D01*
X134423200Y-97871925D01*
X134455165Y-98032627D01*
X134517868Y-98184005D01*
X134608899Y-98320242D01*
X134724758Y-98436101D01*
X134860995Y-98527132D01*
X135012373Y-98589835D01*
X135173075Y-98621800D01*
X135336925Y-98621800D01*
X135497627Y-98589835D01*
X135585257Y-98553537D01*
X135624496Y-98585740D01*
X135740571Y-98647783D01*
X135866519Y-98685988D01*
X135997500Y-98698889D01*
X136572500Y-98698889D01*
X136703481Y-98685988D01*
X136829429Y-98647783D01*
X136945504Y-98585740D01*
X136956568Y-98576660D01*
X136979463Y-98619494D01*
X137058815Y-98716185D01*
X137155506Y-98795537D01*
X137265820Y-98854502D01*
X137385518Y-98890812D01*
X137510000Y-98903072D01*
X137749250Y-98900000D01*
X137908000Y-98741250D01*
X137908000Y-97917000D01*
X138162000Y-97917000D01*
X138162000Y-98741250D01*
X138320750Y-98900000D01*
X138560000Y-98903072D01*
X138684482Y-98890812D01*
X138804180Y-98854502D01*
X138914494Y-98795537D01*
X139011185Y-98716185D01*
X139090537Y-98619494D01*
X139149502Y-98509180D01*
X139185812Y-98389482D01*
X139198072Y-98265000D01*
X139195000Y-98075750D01*
X139036250Y-97917000D01*
X138162000Y-97917000D01*
X137908000Y-97917000D01*
X137888000Y-97917000D01*
X137888000Y-97663000D01*
X137908000Y-97663000D01*
X137908000Y-96838750D01*
X138162000Y-96838750D01*
X138162000Y-97663000D01*
X139036250Y-97663000D01*
X139195000Y-97504250D01*
X139198072Y-97315000D01*
X139185812Y-97190518D01*
X139149502Y-97070820D01*
X139090537Y-96960506D01*
X139011185Y-96863815D01*
X138914494Y-96784463D01*
X138804180Y-96725498D01*
X138684482Y-96689188D01*
X138560000Y-96676928D01*
X138320750Y-96680000D01*
X138162000Y-96838750D01*
X137908000Y-96838750D01*
X137749250Y-96680000D01*
X137510000Y-96676928D01*
X137385518Y-96689188D01*
X137265820Y-96725498D01*
X137155506Y-96784463D01*
X137058815Y-96863815D01*
X136979463Y-96960506D01*
X136956568Y-97003340D01*
X136945504Y-96994260D01*
X136829429Y-96932217D01*
X136703481Y-96894012D01*
X136572500Y-96881111D01*
X135997500Y-96881111D01*
X135866519Y-96894012D01*
X135740571Y-96932217D01*
X135624496Y-96994260D01*
X135585257Y-97026463D01*
X135497627Y-96990165D01*
X135336925Y-96958200D01*
X135173075Y-96958200D01*
X135012373Y-96990165D01*
X134860995Y-97052868D01*
X134724758Y-97143899D01*
X134608899Y-97259758D01*
X134517868Y-97395995D01*
X134455165Y-97547373D01*
X134423200Y-97708075D01*
X131572000Y-97708075D01*
X131572000Y-97513113D01*
X131590820Y-97505317D01*
X131727057Y-97414286D01*
X131842916Y-97298427D01*
X131933947Y-97162190D01*
X131996650Y-97010812D01*
X132028615Y-96850110D01*
X132028615Y-96686260D01*
X131996650Y-96525558D01*
X131933947Y-96374180D01*
X131842916Y-96237943D01*
X131727057Y-96122084D01*
X131590820Y-96031053D01*
X131572000Y-96023257D01*
X131572000Y-94640434D01*
X133305635Y-92906800D01*
X133431925Y-92906800D01*
X133592627Y-92874835D01*
X133744005Y-92812132D01*
X133880242Y-92721101D01*
X133996101Y-92605242D01*
X134087132Y-92469005D01*
X134149835Y-92317627D01*
X134181800Y-92156925D01*
X134181800Y-91993075D01*
X134149835Y-91832373D01*
X134087132Y-91680995D01*
X133996101Y-91544758D01*
X133880242Y-91428899D01*
X133744005Y-91337868D01*
X133592627Y-91275165D01*
X133431925Y-91243200D01*
X133268075Y-91243200D01*
X133107373Y-91275165D01*
X132955995Y-91337868D01*
X132819758Y-91428899D01*
X132703899Y-91544758D01*
X132612868Y-91680995D01*
X132550165Y-91832373D01*
X132518200Y-91993075D01*
X132518200Y-92119365D01*
X131572000Y-93065566D01*
X131572000Y-90932000D01*
X137795000Y-90932000D01*
X137819776Y-90929560D01*
X137843601Y-90922333D01*
X137865557Y-90910597D01*
X137884803Y-90894803D01*
X137900597Y-90875557D01*
X137912333Y-90853601D01*
X137919560Y-90829776D01*
X137922000Y-90805000D01*
X137922000Y-87001879D01*
X138224250Y-87000000D01*
X138383000Y-86841250D01*
X138383000Y-86167000D01*
X138363000Y-86167000D01*
X138363000Y-85913000D01*
X138383000Y-85913000D01*
X138383000Y-85893000D01*
X138637000Y-85893000D01*
X138637000Y-85913000D01*
X138637000Y-85913000D01*
G37*
X138637000Y-85913000D02*
X138657000Y-85913000D01*
X138657000Y-86167000D01*
X138637000Y-86167000D01*
X138637000Y-86841250D01*
X138795750Y-87000000D01*
X139290000Y-87003072D01*
X139414482Y-86990812D01*
X139534180Y-86954502D01*
X139644494Y-86895537D01*
X139659572Y-86883163D01*
X139656928Y-87315000D01*
X139669188Y-87439482D01*
X139705498Y-87559180D01*
X139764463Y-87669494D01*
X139843815Y-87766185D01*
X139940506Y-87845537D01*
X140050820Y-87904502D01*
X140170518Y-87940812D01*
X140186055Y-87942342D01*
X140184773Y-87943199D01*
X140013199Y-88114773D01*
X139878393Y-88316524D01*
X139785538Y-88540697D01*
X139738200Y-88778678D01*
X139738200Y-89021322D01*
X139785538Y-89259303D01*
X139878393Y-89483476D01*
X140013199Y-89685227D01*
X140184773Y-89856801D01*
X140386524Y-89991607D01*
X140610697Y-90084462D01*
X140848678Y-90131800D01*
X141091322Y-90131800D01*
X141329303Y-90084462D01*
X141553476Y-89991607D01*
X141755227Y-89856801D01*
X141926801Y-89685227D01*
X142061607Y-89483476D01*
X142113000Y-89359402D01*
X142113000Y-92049566D01*
X141865625Y-92296942D01*
X141844379Y-92314378D01*
X141826943Y-92335624D01*
X141774798Y-92399163D01*
X141723096Y-92495891D01*
X141691257Y-92600849D01*
X141680507Y-92710000D01*
X141683201Y-92737354D01*
X141683200Y-94251759D01*
X141681747Y-94252730D01*
X141615997Y-94306689D01*
X141546689Y-94375997D01*
X141492730Y-94441747D01*
X141438274Y-94523246D01*
X141398177Y-94598262D01*
X141360668Y-94688818D01*
X141335978Y-94770211D01*
X141316856Y-94866344D01*
X141308519Y-94950991D01*
X141308519Y-94975551D01*
X141306111Y-95000000D01*
X141306111Y-95500000D01*
X141308519Y-95524449D01*
X141308519Y-95549009D01*
X141316856Y-95633656D01*
X141335978Y-95729789D01*
X141360668Y-95811182D01*
X141398177Y-95901738D01*
X141438274Y-95976754D01*
X141492730Y-96058253D01*
X141546689Y-96124003D01*
X141615997Y-96193311D01*
X141681747Y-96247270D01*
X141763246Y-96301726D01*
X141838262Y-96341823D01*
X141928818Y-96379332D01*
X142010211Y-96404022D01*
X142106344Y-96423144D01*
X142190991Y-96431481D01*
X142215551Y-96431481D01*
X142240000Y-96433889D01*
X142740000Y-96433889D01*
X142824648Y-96425552D01*
X142890000Y-96405727D01*
X142955352Y-96425552D01*
X143040000Y-96433889D01*
X143244283Y-96433889D01*
X144018000Y-97207606D01*
X144018000Y-105992394D01*
X142150197Y-107860197D01*
X142134403Y-107879443D01*
X142122667Y-107901399D01*
X142115440Y-107925224D01*
X142113000Y-107950000D01*
X142113000Y-113229073D01*
X142014482Y-113199188D01*
X141890000Y-113186928D01*
X141650750Y-113190000D01*
X141492000Y-113348750D01*
X141492000Y-114173000D01*
X141512000Y-114173000D01*
X141512000Y-114427000D01*
X141492000Y-114427000D01*
X141492000Y-114447000D01*
X141238000Y-114447000D01*
X141238000Y-114427000D01*
X140363750Y-114427000D01*
X140205000Y-114585750D01*
X140203933Y-114651500D01*
X140113063Y-114560630D01*
X140095622Y-114539378D01*
X140010838Y-114469798D01*
X139914109Y-114418095D01*
X139809152Y-114386257D01*
X139727351Y-114378200D01*
X139727344Y-114378200D01*
X139700000Y-114375507D01*
X139672656Y-114378200D01*
X135282351Y-114378200D01*
X135255000Y-114375506D01*
X135227649Y-114378200D01*
X135145848Y-114386257D01*
X135040891Y-114418095D01*
X134944162Y-114469798D01*
X134859378Y-114539378D01*
X134841942Y-114560625D01*
X134594567Y-114808000D01*
X134114822Y-114808000D01*
X134118072Y-114775000D01*
X134115000Y-114585750D01*
X133956250Y-114427000D01*
X133082000Y-114427000D01*
X133082000Y-114447000D01*
X132828000Y-114447000D01*
X132828000Y-114427000D01*
X132808000Y-114427000D01*
X132808000Y-114173000D01*
X132828000Y-114173000D01*
X132828000Y-113348750D01*
X133082000Y-113348750D01*
X133082000Y-114173000D01*
X133956250Y-114173000D01*
X134115000Y-114014250D01*
X134118072Y-113825000D01*
X140201928Y-113825000D01*
X140205000Y-114014250D01*
X140363750Y-114173000D01*
X141238000Y-114173000D01*
X141238000Y-113348750D01*
X141079250Y-113190000D01*
X140840000Y-113186928D01*
X140715518Y-113199188D01*
X140595820Y-113235498D01*
X140485506Y-113294463D01*
X140388815Y-113373815D01*
X140309463Y-113470506D01*
X140250498Y-113580820D01*
X140214188Y-113700518D01*
X140201928Y-113825000D01*
X134118072Y-113825000D01*
X134105812Y-113700518D01*
X134069502Y-113580820D01*
X134010537Y-113470506D01*
X133931185Y-113373815D01*
X133834494Y-113294463D01*
X133724180Y-113235498D01*
X133604482Y-113199188D01*
X133480000Y-113186928D01*
X133240750Y-113190000D01*
X133082000Y-113348750D01*
X132828000Y-113348750D01*
X132669250Y-113190000D01*
X132430000Y-113186928D01*
X132305518Y-113199188D01*
X132185820Y-113235498D01*
X132075506Y-113294463D01*
X131978815Y-113373815D01*
X131899463Y-113470506D01*
X131876568Y-113513340D01*
X131865504Y-113504260D01*
X131762129Y-113449005D01*
X131764493Y-113424999D01*
X131761800Y-113397658D01*
X131761800Y-113397649D01*
X131753743Y-113315848D01*
X131721905Y-113210891D01*
X131670202Y-113114162D01*
X131600622Y-113029378D01*
X131579375Y-113011941D01*
X131572000Y-113004566D01*
X131572000Y-105885000D01*
X135121928Y-105885000D01*
X135134188Y-106009482D01*
X135170498Y-106129180D01*
X135229463Y-106239494D01*
X135308815Y-106336185D01*
X135405506Y-106415537D01*
X135515820Y-106474502D01*
X135635518Y-106510812D01*
X135760000Y-106523072D01*
X135999250Y-106520000D01*
X136158000Y-106361250D01*
X136158000Y-105537000D01*
X135283750Y-105537000D01*
X135125000Y-105695750D01*
X135121928Y-105885000D01*
X131572000Y-105885000D01*
X131572000Y-104935000D01*
X135121928Y-104935000D01*
X135125000Y-105124250D01*
X135283750Y-105283000D01*
X136158000Y-105283000D01*
X136158000Y-104458750D01*
X136412000Y-104458750D01*
X136412000Y-105283000D01*
X136432000Y-105283000D01*
X136432000Y-105537000D01*
X136412000Y-105537000D01*
X136412000Y-106361250D01*
X136570750Y-106520000D01*
X136810000Y-106523072D01*
X136934482Y-106510812D01*
X137054180Y-106474502D01*
X137164494Y-106415537D01*
X137261185Y-106336185D01*
X137340537Y-106239494D01*
X137363432Y-106196660D01*
X137374496Y-106205740D01*
X137490571Y-106267783D01*
X137616519Y-106305988D01*
X137747500Y-106318889D01*
X138322500Y-106318889D01*
X138453481Y-106305988D01*
X138579429Y-106267783D01*
X138695504Y-106205740D01*
X138734743Y-106173537D01*
X138822373Y-106209835D01*
X138983075Y-106241800D01*
X139146925Y-106241800D01*
X139307627Y-106209835D01*
X139459005Y-106147132D01*
X139595242Y-106056101D01*
X139711101Y-105940242D01*
X139802132Y-105804005D01*
X139864835Y-105652627D01*
X139896800Y-105491925D01*
X139896800Y-105328075D01*
X139864835Y-105167373D01*
X139802132Y-105015995D01*
X139711101Y-104879758D01*
X139595242Y-104763899D01*
X139459005Y-104672868D01*
X139307627Y-104610165D01*
X139146925Y-104578200D01*
X138983075Y-104578200D01*
X138822373Y-104610165D01*
X138734743Y-104646463D01*
X138695504Y-104614260D01*
X138579429Y-104552217D01*
X138453481Y-104514012D01*
X138322500Y-104501111D01*
X137747500Y-104501111D01*
X137616519Y-104514012D01*
X137490571Y-104552217D01*
X137374496Y-104614260D01*
X137363432Y-104623340D01*
X137340537Y-104580506D01*
X137261185Y-104483815D01*
X137164494Y-104404463D01*
X137054180Y-104345498D01*
X136934482Y-104309188D01*
X136810000Y-104296928D01*
X136570750Y-104300000D01*
X136412000Y-104458750D01*
X136158000Y-104458750D01*
X135999250Y-104300000D01*
X135760000Y-104296928D01*
X135635518Y-104309188D01*
X135515820Y-104345498D01*
X135405506Y-104404463D01*
X135308815Y-104483815D01*
X135229463Y-104580506D01*
X135170498Y-104690820D01*
X135134188Y-104810518D01*
X135121928Y-104935000D01*
X131572000Y-104935000D01*
X131572000Y-101250000D01*
X132236928Y-101250000D01*
X132249188Y-101374482D01*
X132285498Y-101494180D01*
X132344463Y-101604494D01*
X132423815Y-101701185D01*
X132520506Y-101780537D01*
X132563340Y-101803432D01*
X132554260Y-101814496D01*
X132492217Y-101930571D01*
X132454012Y-102056519D01*
X132441111Y-102187500D01*
X132441111Y-102762500D01*
X132454012Y-102893481D01*
X132492217Y-103019429D01*
X132554260Y-103135504D01*
X132586463Y-103174743D01*
X132550165Y-103262373D01*
X132518200Y-103423075D01*
X132518200Y-103586925D01*
X132550165Y-103747627D01*
X132612868Y-103899005D01*
X132703899Y-104035242D01*
X132819758Y-104151101D01*
X132955995Y-104242132D01*
X133107373Y-104304835D01*
X133268075Y-104336800D01*
X133431925Y-104336800D01*
X133592627Y-104304835D01*
X133744005Y-104242132D01*
X133880242Y-104151101D01*
X133996101Y-104035242D01*
X134087132Y-103899005D01*
X134149835Y-103747627D01*
X134181800Y-103586925D01*
X134181800Y-103423075D01*
X134149835Y-103262373D01*
X134113537Y-103174743D01*
X134145740Y-103135504D01*
X134207783Y-103019429D01*
X134213676Y-103000000D01*
X139856928Y-103000000D01*
X139869188Y-103124482D01*
X139905498Y-103244180D01*
X139964463Y-103354494D01*
X140043815Y-103451185D01*
X140140506Y-103530537D01*
X140250820Y-103589502D01*
X140370518Y-103625812D01*
X140495000Y-103638072D01*
X140684250Y-103635000D01*
X140843000Y-103476250D01*
X140843000Y-102602000D01*
X141097000Y-102602000D01*
X141097000Y-103476250D01*
X141255750Y-103635000D01*
X141445000Y-103638072D01*
X141569482Y-103625812D01*
X141689180Y-103589502D01*
X141799494Y-103530537D01*
X141896185Y-103451185D01*
X141975537Y-103354494D01*
X142034502Y-103244180D01*
X142070812Y-103124482D01*
X142083072Y-103000000D01*
X142080000Y-102760750D01*
X141921250Y-102602000D01*
X141097000Y-102602000D01*
X140843000Y-102602000D01*
X140018750Y-102602000D01*
X139860000Y-102760750D01*
X139856928Y-103000000D01*
X134213676Y-103000000D01*
X134245988Y-102893481D01*
X134258889Y-102762500D01*
X134258889Y-102187500D01*
X134245988Y-102056519D01*
X134213677Y-101950000D01*
X139856928Y-101950000D01*
X139860000Y-102189250D01*
X140018750Y-102348000D01*
X140843000Y-102348000D01*
X140843000Y-102328000D01*
X141097000Y-102328000D01*
X141097000Y-102348000D01*
X141921250Y-102348000D01*
X142080000Y-102189250D01*
X142083072Y-101950000D01*
X142070812Y-101825518D01*
X142034502Y-101705820D01*
X141975537Y-101595506D01*
X141896185Y-101498815D01*
X141799494Y-101419463D01*
X141756660Y-101396568D01*
X141765740Y-101385504D01*
X141827783Y-101269429D01*
X141865988Y-101143481D01*
X141878889Y-101012500D01*
X141878889Y-100437500D01*
X141865988Y-100306519D01*
X141827783Y-100180571D01*
X141765740Y-100064496D01*
X141733537Y-100025257D01*
X141769835Y-99937627D01*
X141801800Y-99776925D01*
X141801800Y-99613075D01*
X141769835Y-99452373D01*
X141707132Y-99300995D01*
X141616101Y-99164758D01*
X141500242Y-99048899D01*
X141364005Y-98957868D01*
X141212627Y-98895165D01*
X141051925Y-98863200D01*
X140888075Y-98863200D01*
X140727373Y-98895165D01*
X140575995Y-98957868D01*
X140439758Y-99048899D01*
X140323899Y-99164758D01*
X140232868Y-99300995D01*
X140170165Y-99452373D01*
X140138200Y-99613075D01*
X140138200Y-99776925D01*
X140170165Y-99937627D01*
X140206463Y-100025257D01*
X140174260Y-100064496D01*
X140112217Y-100180571D01*
X140074012Y-100306519D01*
X140061111Y-100437500D01*
X140061111Y-101012500D01*
X140074012Y-101143481D01*
X140112217Y-101269429D01*
X140174260Y-101385504D01*
X140183340Y-101396568D01*
X140140506Y-101419463D01*
X140043815Y-101498815D01*
X139964463Y-101595506D01*
X139905498Y-101705820D01*
X139869188Y-101825518D01*
X139856928Y-101950000D01*
X134213677Y-101950000D01*
X134207783Y-101930571D01*
X134145740Y-101814496D01*
X134136660Y-101803432D01*
X134179494Y-101780537D01*
X134276185Y-101701185D01*
X134355537Y-101604494D01*
X134414502Y-101494180D01*
X134450812Y-101374482D01*
X134463072Y-101250000D01*
X134460000Y-101010750D01*
X134301250Y-100852000D01*
X133477000Y-100852000D01*
X133477000Y-100872000D01*
X133223000Y-100872000D01*
X133223000Y-100852000D01*
X132398750Y-100852000D01*
X132240000Y-101010750D01*
X132236928Y-101250000D01*
X131572000Y-101250000D01*
X131572000Y-100200000D01*
X132236928Y-100200000D01*
X132240000Y-100439250D01*
X132398750Y-100598000D01*
X133223000Y-100598000D01*
X133223000Y-99723750D01*
X133477000Y-99723750D01*
X133477000Y-100598000D01*
X134301250Y-100598000D01*
X134460000Y-100439250D01*
X134463072Y-100200000D01*
X134450812Y-100075518D01*
X134414502Y-99955820D01*
X134355537Y-99845506D01*
X134276185Y-99748815D01*
X134179494Y-99669463D01*
X134069180Y-99610498D01*
X133949482Y-99574188D01*
X133825000Y-99561928D01*
X133635750Y-99565000D01*
X133477000Y-99723750D01*
X133223000Y-99723750D01*
X133064250Y-99565000D01*
X132875000Y-99561928D01*
X132750518Y-99574188D01*
X132630820Y-99610498D01*
X132520506Y-99669463D01*
X132423815Y-99748815D01*
X132344463Y-99845506D01*
X132285498Y-99955820D01*
X132249188Y-100075518D01*
X132236928Y-100200000D01*
X131572000Y-100200000D01*
X131572000Y-97708075D01*
X134423200Y-97708075D01*
X134423200Y-97871925D01*
X134455165Y-98032627D01*
X134517868Y-98184005D01*
X134608899Y-98320242D01*
X134724758Y-98436101D01*
X134860995Y-98527132D01*
X135012373Y-98589835D01*
X135173075Y-98621800D01*
X135336925Y-98621800D01*
X135497627Y-98589835D01*
X135585257Y-98553537D01*
X135624496Y-98585740D01*
X135740571Y-98647783D01*
X135866519Y-98685988D01*
X135997500Y-98698889D01*
X136572500Y-98698889D01*
X136703481Y-98685988D01*
X136829429Y-98647783D01*
X136945504Y-98585740D01*
X136956568Y-98576660D01*
X136979463Y-98619494D01*
X137058815Y-98716185D01*
X137155506Y-98795537D01*
X137265820Y-98854502D01*
X137385518Y-98890812D01*
X137510000Y-98903072D01*
X137749250Y-98900000D01*
X137908000Y-98741250D01*
X137908000Y-97917000D01*
X138162000Y-97917000D01*
X138162000Y-98741250D01*
X138320750Y-98900000D01*
X138560000Y-98903072D01*
X138684482Y-98890812D01*
X138804180Y-98854502D01*
X138914494Y-98795537D01*
X139011185Y-98716185D01*
X139090537Y-98619494D01*
X139149502Y-98509180D01*
X139185812Y-98389482D01*
X139198072Y-98265000D01*
X139195000Y-98075750D01*
X139036250Y-97917000D01*
X138162000Y-97917000D01*
X137908000Y-97917000D01*
X137888000Y-97917000D01*
X137888000Y-97663000D01*
X137908000Y-97663000D01*
X137908000Y-96838750D01*
X138162000Y-96838750D01*
X138162000Y-97663000D01*
X139036250Y-97663000D01*
X139195000Y-97504250D01*
X139198072Y-97315000D01*
X139185812Y-97190518D01*
X139149502Y-97070820D01*
X139090537Y-96960506D01*
X139011185Y-96863815D01*
X138914494Y-96784463D01*
X138804180Y-96725498D01*
X138684482Y-96689188D01*
X138560000Y-96676928D01*
X138320750Y-96680000D01*
X138162000Y-96838750D01*
X137908000Y-96838750D01*
X137749250Y-96680000D01*
X137510000Y-96676928D01*
X137385518Y-96689188D01*
X137265820Y-96725498D01*
X137155506Y-96784463D01*
X137058815Y-96863815D01*
X136979463Y-96960506D01*
X136956568Y-97003340D01*
X136945504Y-96994260D01*
X136829429Y-96932217D01*
X136703481Y-96894012D01*
X136572500Y-96881111D01*
X135997500Y-96881111D01*
X135866519Y-96894012D01*
X135740571Y-96932217D01*
X135624496Y-96994260D01*
X135585257Y-97026463D01*
X135497627Y-96990165D01*
X135336925Y-96958200D01*
X135173075Y-96958200D01*
X135012373Y-96990165D01*
X134860995Y-97052868D01*
X134724758Y-97143899D01*
X134608899Y-97259758D01*
X134517868Y-97395995D01*
X134455165Y-97547373D01*
X134423200Y-97708075D01*
X131572000Y-97708075D01*
X131572000Y-97513113D01*
X131590820Y-97505317D01*
X131727057Y-97414286D01*
X131842916Y-97298427D01*
X131933947Y-97162190D01*
X131996650Y-97010812D01*
X132028615Y-96850110D01*
X132028615Y-96686260D01*
X131996650Y-96525558D01*
X131933947Y-96374180D01*
X131842916Y-96237943D01*
X131727057Y-96122084D01*
X131590820Y-96031053D01*
X131572000Y-96023257D01*
X131572000Y-94640434D01*
X133305635Y-92906800D01*
X133431925Y-92906800D01*
X133592627Y-92874835D01*
X133744005Y-92812132D01*
X133880242Y-92721101D01*
X133996101Y-92605242D01*
X134087132Y-92469005D01*
X134149835Y-92317627D01*
X134181800Y-92156925D01*
X134181800Y-91993075D01*
X134149835Y-91832373D01*
X134087132Y-91680995D01*
X133996101Y-91544758D01*
X133880242Y-91428899D01*
X133744005Y-91337868D01*
X133592627Y-91275165D01*
X133431925Y-91243200D01*
X133268075Y-91243200D01*
X133107373Y-91275165D01*
X132955995Y-91337868D01*
X132819758Y-91428899D01*
X132703899Y-91544758D01*
X132612868Y-91680995D01*
X132550165Y-91832373D01*
X132518200Y-91993075D01*
X132518200Y-92119365D01*
X131572000Y-93065566D01*
X131572000Y-90932000D01*
X137795000Y-90932000D01*
X137819776Y-90929560D01*
X137843601Y-90922333D01*
X137865557Y-90910597D01*
X137884803Y-90894803D01*
X137900597Y-90875557D01*
X137912333Y-90853601D01*
X137919560Y-90829776D01*
X137922000Y-90805000D01*
X137922000Y-87001879D01*
X138224250Y-87000000D01*
X138383000Y-86841250D01*
X138383000Y-86167000D01*
X138363000Y-86167000D01*
X138363000Y-85913000D01*
X138383000Y-85913000D01*
X138383000Y-85893000D01*
X138637000Y-85893000D01*
X138637000Y-85913000D01*
G36*
X141097000Y-86400500D02*
G01*
X141117000Y-86400500D01*
X141117000Y-86654500D01*
X141097000Y-86654500D01*
X141097000Y-86674500D01*
X140843000Y-86674500D01*
X140843000Y-86654500D01*
X140823000Y-86654500D01*
X140823000Y-86400500D01*
X140843000Y-86400500D01*
X140843000Y-86380500D01*
X141097000Y-86380500D01*
X141097000Y-86400500D01*
X141097000Y-86400500D01*
G37*
X141097000Y-86400500D02*
X141117000Y-86400500D01*
X141117000Y-86654500D01*
X141097000Y-86654500D01*
X141097000Y-86674500D01*
X140843000Y-86674500D01*
X140843000Y-86654500D01*
X140823000Y-86654500D01*
X140823000Y-86400500D01*
X140843000Y-86400500D01*
X140843000Y-86380500D01*
X141097000Y-86380500D01*
X141097000Y-86400500D01*
G36*
X144565000Y-77184250D02*
G01*
X144723750Y-77343000D01*
X145923000Y-77343000D01*
X145923000Y-77323000D01*
X146177000Y-77323000D01*
X146177000Y-77343000D01*
X146197000Y-77343000D01*
X146197000Y-77597000D01*
X146177000Y-77597000D01*
X146177000Y-77617000D01*
X145923000Y-77617000D01*
X145923000Y-77597000D01*
X144723750Y-77597000D01*
X144565000Y-77755750D01*
X144561928Y-78320000D01*
X144574188Y-78444482D01*
X144610498Y-78564180D01*
X144669463Y-78674494D01*
X144748815Y-78771185D01*
X144845506Y-78850537D01*
X144955820Y-78909502D01*
X145075518Y-78945812D01*
X145200000Y-78958072D01*
X145312007Y-78957462D01*
X145139245Y-79099245D01*
X145017164Y-79248000D01*
X141313463Y-79248000D01*
X141389632Y-79134005D01*
X141452335Y-78982627D01*
X141484300Y-78821925D01*
X141484300Y-78658075D01*
X141452335Y-78497373D01*
X141389632Y-78345995D01*
X141298601Y-78209758D01*
X141182742Y-78093899D01*
X141046505Y-78002868D01*
X140895127Y-77940165D01*
X140734425Y-77908200D01*
X140570575Y-77908200D01*
X140409873Y-77940165D01*
X140258495Y-78002868D01*
X140122258Y-78093899D01*
X140006399Y-78209758D01*
X139915368Y-78345995D01*
X139852665Y-78497373D01*
X139820700Y-78658075D01*
X139820700Y-78784366D01*
X139357067Y-79248000D01*
X136525000Y-79248000D01*
X136500224Y-79250440D01*
X136476399Y-79257667D01*
X136454443Y-79269403D01*
X136435197Y-79285197D01*
X136419403Y-79304443D01*
X136407667Y-79326399D01*
X136400440Y-79350224D01*
X136398000Y-79375000D01*
X136398000Y-79504471D01*
X136384429Y-79497217D01*
X136258481Y-79459012D01*
X136127500Y-79446111D01*
X135652500Y-79446111D01*
X135521519Y-79459012D01*
X135395571Y-79497217D01*
X135279496Y-79559260D01*
X135177756Y-79642756D01*
X135094260Y-79744496D01*
X135032217Y-79860571D01*
X134994012Y-79986519D01*
X134981111Y-80117500D01*
X134981111Y-80692500D01*
X134994012Y-80823481D01*
X135032217Y-80949429D01*
X135094260Y-81065504D01*
X135103340Y-81076568D01*
X135060506Y-81099463D01*
X134963815Y-81178815D01*
X134884463Y-81275506D01*
X134825498Y-81385820D01*
X134789188Y-81505518D01*
X134776928Y-81630000D01*
X134780000Y-81869250D01*
X134938750Y-82028000D01*
X135763000Y-82028000D01*
X135763000Y-82008000D01*
X136017000Y-82008000D01*
X136017000Y-82028000D01*
X136037000Y-82028000D01*
X136037000Y-82282000D01*
X136017000Y-82282000D01*
X136017000Y-83156250D01*
X136068250Y-83207500D01*
X135937000Y-83338750D01*
X135937000Y-84013000D01*
X135957000Y-84013000D01*
X135957000Y-84267000D01*
X135937000Y-84267000D01*
X135937000Y-84287000D01*
X135683000Y-84287000D01*
X135683000Y-84267000D01*
X134553750Y-84267000D01*
X134395000Y-84425750D01*
X134391928Y-84465000D01*
X134404188Y-84589482D01*
X134440498Y-84709180D01*
X134499463Y-84819494D01*
X134578815Y-84916185D01*
X134596111Y-84930379D01*
X134596111Y-85242864D01*
X134588685Y-85233815D01*
X134491994Y-85154463D01*
X134381680Y-85095498D01*
X134261982Y-85059188D01*
X134137500Y-85046928D01*
X133635750Y-85050000D01*
X133477000Y-85208750D01*
X133477000Y-86233000D01*
X133497000Y-86233000D01*
X133497000Y-86487000D01*
X133477000Y-86487000D01*
X133477000Y-86507000D01*
X133223000Y-86507000D01*
X133223000Y-86487000D01*
X132086250Y-86487000D01*
X131927500Y-86645750D01*
X131924428Y-87035000D01*
X131936688Y-87159482D01*
X131972998Y-87279180D01*
X132031963Y-87389494D01*
X132111315Y-87486185D01*
X132208006Y-87565537D01*
X132318320Y-87624502D01*
X132438018Y-87660812D01*
X132520911Y-87668976D01*
X132465352Y-87674448D01*
X132383958Y-87699139D01*
X132308944Y-87739234D01*
X132243194Y-87793194D01*
X132189234Y-87858944D01*
X132149139Y-87933958D01*
X132124448Y-88015352D01*
X132116111Y-88100000D01*
X132116111Y-89700000D01*
X132124448Y-89784648D01*
X132149139Y-89866042D01*
X132189234Y-89941056D01*
X132243194Y-90006806D01*
X132287296Y-90043000D01*
X130302000Y-90043000D01*
X130302000Y-87468889D01*
X131012501Y-87468889D01*
X131145921Y-87455748D01*
X131274214Y-87416831D01*
X131392449Y-87353633D01*
X131496083Y-87268583D01*
X131581133Y-87164949D01*
X131644331Y-87046714D01*
X131683248Y-86918421D01*
X131696389Y-86785001D01*
X131696389Y-85934999D01*
X131685749Y-85826967D01*
X131685995Y-85827132D01*
X131837373Y-85889835D01*
X131926184Y-85907500D01*
X131927500Y-86074250D01*
X132086250Y-86233000D01*
X133223000Y-86233000D01*
X133223000Y-85208750D01*
X133064250Y-85050000D01*
X132911800Y-85049067D01*
X132911800Y-85008075D01*
X132879835Y-84847373D01*
X132828000Y-84722233D01*
X132828000Y-83947000D01*
X133082000Y-83947000D01*
X133082000Y-84771250D01*
X133240750Y-84930000D01*
X133480000Y-84933072D01*
X133604482Y-84920812D01*
X133724180Y-84884502D01*
X133834494Y-84825537D01*
X133931185Y-84746185D01*
X134010537Y-84649494D01*
X134069502Y-84539180D01*
X134105812Y-84419482D01*
X134118072Y-84295000D01*
X134115000Y-84105750D01*
X133956250Y-83947000D01*
X133082000Y-83947000D01*
X132828000Y-83947000D01*
X132808000Y-83947000D01*
X132808000Y-83815000D01*
X134391928Y-83815000D01*
X134395000Y-83854250D01*
X134553750Y-84013000D01*
X135683000Y-84013000D01*
X135683000Y-83338750D01*
X135631750Y-83287500D01*
X135763000Y-83156250D01*
X135763000Y-82282000D01*
X134938750Y-82282000D01*
X134780000Y-82440750D01*
X134776928Y-82680000D01*
X134789188Y-82804482D01*
X134825498Y-82924180D01*
X134884463Y-83034494D01*
X134963815Y-83131185D01*
X135020673Y-83177847D01*
X134905518Y-83189188D01*
X134785820Y-83225498D01*
X134675506Y-83284463D01*
X134578815Y-83363815D01*
X134499463Y-83460506D01*
X134440498Y-83570820D01*
X134404188Y-83690518D01*
X134391928Y-83815000D01*
X132808000Y-83815000D01*
X132808000Y-83693000D01*
X132828000Y-83693000D01*
X132828000Y-82868750D01*
X132669250Y-82710000D01*
X132430000Y-82706928D01*
X132305518Y-82719188D01*
X132256495Y-82734059D01*
X132276810Y-82631925D01*
X132276810Y-82468075D01*
X132244845Y-82307373D01*
X132230484Y-82272702D01*
X132536903Y-82272702D01*
X132608486Y-82516671D01*
X132863996Y-82637571D01*
X133138184Y-82706300D01*
X133239458Y-82711292D01*
X133082000Y-82868750D01*
X133082000Y-83693000D01*
X133956250Y-83693000D01*
X134115000Y-83534250D01*
X134118072Y-83345000D01*
X134105812Y-83220518D01*
X134069502Y-83100820D01*
X134010537Y-82990506D01*
X133931185Y-82893815D01*
X133834494Y-82814463D01*
X133724180Y-82755498D01*
X133604482Y-82719188D01*
X133498142Y-82708715D01*
X133700130Y-82678787D01*
X133966292Y-82583603D01*
X134091514Y-82516671D01*
X134163097Y-82272702D01*
X133350000Y-81459605D01*
X132536903Y-82272702D01*
X132230484Y-82272702D01*
X132182142Y-82155995D01*
X132091111Y-82019758D01*
X131975252Y-81903899D01*
X131839015Y-81812868D01*
X131687637Y-81750165D01*
X131526935Y-81718200D01*
X131363085Y-81718200D01*
X131202383Y-81750165D01*
X131051005Y-81812868D01*
X130914768Y-81903899D01*
X130798909Y-82019758D01*
X130707878Y-82155995D01*
X130645175Y-82307373D01*
X130618672Y-82440615D01*
X130572052Y-82527835D01*
X130544893Y-82617369D01*
X130533067Y-82656354D01*
X130528148Y-82706300D01*
X130519903Y-82790010D01*
X130523201Y-82823494D01*
X130523201Y-83041737D01*
X130442756Y-83107756D01*
X130359260Y-83209496D01*
X130302000Y-83316623D01*
X130302000Y-81350512D01*
X131909783Y-81350512D01*
X131951213Y-81630130D01*
X132046397Y-81896292D01*
X132113329Y-82021514D01*
X132357298Y-82093097D01*
X133170395Y-81280000D01*
X133529605Y-81280000D01*
X134342702Y-82093097D01*
X134586671Y-82021514D01*
X134707571Y-81766004D01*
X134776300Y-81491816D01*
X134790217Y-81209488D01*
X134748787Y-80929870D01*
X134653603Y-80663708D01*
X134586671Y-80538486D01*
X134342702Y-80466903D01*
X133529605Y-81280000D01*
X133170395Y-81280000D01*
X132357298Y-80466903D01*
X132113329Y-80538486D01*
X131992429Y-80793996D01*
X131923700Y-81068184D01*
X131909783Y-81350512D01*
X130302000Y-81350512D01*
X130302000Y-80287298D01*
X132536903Y-80287298D01*
X133350000Y-81100395D01*
X134163097Y-80287298D01*
X134091514Y-80043329D01*
X133836004Y-79922429D01*
X133561816Y-79853700D01*
X133279488Y-79839783D01*
X132999870Y-79881213D01*
X132733708Y-79976397D01*
X132608486Y-80043329D01*
X132536903Y-80287298D01*
X130302000Y-80287298D01*
X130302000Y-79375000D01*
X130299560Y-79350224D01*
X130292333Y-79326399D01*
X130280597Y-79304443D01*
X130264803Y-79285197D01*
X130245557Y-79269403D01*
X130223601Y-79257667D01*
X130199776Y-79250440D01*
X130175000Y-79248000D01*
X129302836Y-79248000D01*
X129180755Y-79099245D01*
X129007993Y-78957462D01*
X129120000Y-78958072D01*
X129244482Y-78945812D01*
X129364180Y-78909502D01*
X129474494Y-78850537D01*
X129571185Y-78771185D01*
X129650537Y-78674494D01*
X129709502Y-78564180D01*
X129745812Y-78444482D01*
X129758072Y-78320000D01*
X129755000Y-77755750D01*
X129596250Y-77597000D01*
X128397000Y-77597000D01*
X128397000Y-77617000D01*
X128143000Y-77617000D01*
X128143000Y-77597000D01*
X128123000Y-77597000D01*
X128123000Y-77343000D01*
X128143000Y-77343000D01*
X128143000Y-77323000D01*
X128397000Y-77323000D01*
X128397000Y-77343000D01*
X129596250Y-77343000D01*
X129755000Y-77184250D01*
X129757872Y-76656800D01*
X144562128Y-76656800D01*
X144565000Y-77184250D01*
X144565000Y-77184250D01*
G37*
X144565000Y-77184250D02*
X144723750Y-77343000D01*
X145923000Y-77343000D01*
X145923000Y-77323000D01*
X146177000Y-77323000D01*
X146177000Y-77343000D01*
X146197000Y-77343000D01*
X146197000Y-77597000D01*
X146177000Y-77597000D01*
X146177000Y-77617000D01*
X145923000Y-77617000D01*
X145923000Y-77597000D01*
X144723750Y-77597000D01*
X144565000Y-77755750D01*
X144561928Y-78320000D01*
X144574188Y-78444482D01*
X144610498Y-78564180D01*
X144669463Y-78674494D01*
X144748815Y-78771185D01*
X144845506Y-78850537D01*
X144955820Y-78909502D01*
X145075518Y-78945812D01*
X145200000Y-78958072D01*
X145312007Y-78957462D01*
X145139245Y-79099245D01*
X145017164Y-79248000D01*
X141313463Y-79248000D01*
X141389632Y-79134005D01*
X141452335Y-78982627D01*
X141484300Y-78821925D01*
X141484300Y-78658075D01*
X141452335Y-78497373D01*
X141389632Y-78345995D01*
X141298601Y-78209758D01*
X141182742Y-78093899D01*
X141046505Y-78002868D01*
X140895127Y-77940165D01*
X140734425Y-77908200D01*
X140570575Y-77908200D01*
X140409873Y-77940165D01*
X140258495Y-78002868D01*
X140122258Y-78093899D01*
X140006399Y-78209758D01*
X139915368Y-78345995D01*
X139852665Y-78497373D01*
X139820700Y-78658075D01*
X139820700Y-78784366D01*
X139357067Y-79248000D01*
X136525000Y-79248000D01*
X136500224Y-79250440D01*
X136476399Y-79257667D01*
X136454443Y-79269403D01*
X136435197Y-79285197D01*
X136419403Y-79304443D01*
X136407667Y-79326399D01*
X136400440Y-79350224D01*
X136398000Y-79375000D01*
X136398000Y-79504471D01*
X136384429Y-79497217D01*
X136258481Y-79459012D01*
X136127500Y-79446111D01*
X135652500Y-79446111D01*
X135521519Y-79459012D01*
X135395571Y-79497217D01*
X135279496Y-79559260D01*
X135177756Y-79642756D01*
X135094260Y-79744496D01*
X135032217Y-79860571D01*
X134994012Y-79986519D01*
X134981111Y-80117500D01*
X134981111Y-80692500D01*
X134994012Y-80823481D01*
X135032217Y-80949429D01*
X135094260Y-81065504D01*
X135103340Y-81076568D01*
X135060506Y-81099463D01*
X134963815Y-81178815D01*
X134884463Y-81275506D01*
X134825498Y-81385820D01*
X134789188Y-81505518D01*
X134776928Y-81630000D01*
X134780000Y-81869250D01*
X134938750Y-82028000D01*
X135763000Y-82028000D01*
X135763000Y-82008000D01*
X136017000Y-82008000D01*
X136017000Y-82028000D01*
X136037000Y-82028000D01*
X136037000Y-82282000D01*
X136017000Y-82282000D01*
X136017000Y-83156250D01*
X136068250Y-83207500D01*
X135937000Y-83338750D01*
X135937000Y-84013000D01*
X135957000Y-84013000D01*
X135957000Y-84267000D01*
X135937000Y-84267000D01*
X135937000Y-84287000D01*
X135683000Y-84287000D01*
X135683000Y-84267000D01*
X134553750Y-84267000D01*
X134395000Y-84425750D01*
X134391928Y-84465000D01*
X134404188Y-84589482D01*
X134440498Y-84709180D01*
X134499463Y-84819494D01*
X134578815Y-84916185D01*
X134596111Y-84930379D01*
X134596111Y-85242864D01*
X134588685Y-85233815D01*
X134491994Y-85154463D01*
X134381680Y-85095498D01*
X134261982Y-85059188D01*
X134137500Y-85046928D01*
X133635750Y-85050000D01*
X133477000Y-85208750D01*
X133477000Y-86233000D01*
X133497000Y-86233000D01*
X133497000Y-86487000D01*
X133477000Y-86487000D01*
X133477000Y-86507000D01*
X133223000Y-86507000D01*
X133223000Y-86487000D01*
X132086250Y-86487000D01*
X131927500Y-86645750D01*
X131924428Y-87035000D01*
X131936688Y-87159482D01*
X131972998Y-87279180D01*
X132031963Y-87389494D01*
X132111315Y-87486185D01*
X132208006Y-87565537D01*
X132318320Y-87624502D01*
X132438018Y-87660812D01*
X132520911Y-87668976D01*
X132465352Y-87674448D01*
X132383958Y-87699139D01*
X132308944Y-87739234D01*
X132243194Y-87793194D01*
X132189234Y-87858944D01*
X132149139Y-87933958D01*
X132124448Y-88015352D01*
X132116111Y-88100000D01*
X132116111Y-89700000D01*
X132124448Y-89784648D01*
X132149139Y-89866042D01*
X132189234Y-89941056D01*
X132243194Y-90006806D01*
X132287296Y-90043000D01*
X130302000Y-90043000D01*
X130302000Y-87468889D01*
X131012501Y-87468889D01*
X131145921Y-87455748D01*
X131274214Y-87416831D01*
X131392449Y-87353633D01*
X131496083Y-87268583D01*
X131581133Y-87164949D01*
X131644331Y-87046714D01*
X131683248Y-86918421D01*
X131696389Y-86785001D01*
X131696389Y-85934999D01*
X131685749Y-85826967D01*
X131685995Y-85827132D01*
X131837373Y-85889835D01*
X131926184Y-85907500D01*
X131927500Y-86074250D01*
X132086250Y-86233000D01*
X133223000Y-86233000D01*
X133223000Y-85208750D01*
X133064250Y-85050000D01*
X132911800Y-85049067D01*
X132911800Y-85008075D01*
X132879835Y-84847373D01*
X132828000Y-84722233D01*
X132828000Y-83947000D01*
X133082000Y-83947000D01*
X133082000Y-84771250D01*
X133240750Y-84930000D01*
X133480000Y-84933072D01*
X133604482Y-84920812D01*
X133724180Y-84884502D01*
X133834494Y-84825537D01*
X133931185Y-84746185D01*
X134010537Y-84649494D01*
X134069502Y-84539180D01*
X134105812Y-84419482D01*
X134118072Y-84295000D01*
X134115000Y-84105750D01*
X133956250Y-83947000D01*
X133082000Y-83947000D01*
X132828000Y-83947000D01*
X132808000Y-83947000D01*
X132808000Y-83815000D01*
X134391928Y-83815000D01*
X134395000Y-83854250D01*
X134553750Y-84013000D01*
X135683000Y-84013000D01*
X135683000Y-83338750D01*
X135631750Y-83287500D01*
X135763000Y-83156250D01*
X135763000Y-82282000D01*
X134938750Y-82282000D01*
X134780000Y-82440750D01*
X134776928Y-82680000D01*
X134789188Y-82804482D01*
X134825498Y-82924180D01*
X134884463Y-83034494D01*
X134963815Y-83131185D01*
X135020673Y-83177847D01*
X134905518Y-83189188D01*
X134785820Y-83225498D01*
X134675506Y-83284463D01*
X134578815Y-83363815D01*
X134499463Y-83460506D01*
X134440498Y-83570820D01*
X134404188Y-83690518D01*
X134391928Y-83815000D01*
X132808000Y-83815000D01*
X132808000Y-83693000D01*
X132828000Y-83693000D01*
X132828000Y-82868750D01*
X132669250Y-82710000D01*
X132430000Y-82706928D01*
X132305518Y-82719188D01*
X132256495Y-82734059D01*
X132276810Y-82631925D01*
X132276810Y-82468075D01*
X132244845Y-82307373D01*
X132230484Y-82272702D01*
X132536903Y-82272702D01*
X132608486Y-82516671D01*
X132863996Y-82637571D01*
X133138184Y-82706300D01*
X133239458Y-82711292D01*
X133082000Y-82868750D01*
X133082000Y-83693000D01*
X133956250Y-83693000D01*
X134115000Y-83534250D01*
X134118072Y-83345000D01*
X134105812Y-83220518D01*
X134069502Y-83100820D01*
X134010537Y-82990506D01*
X133931185Y-82893815D01*
X133834494Y-82814463D01*
X133724180Y-82755498D01*
X133604482Y-82719188D01*
X133498142Y-82708715D01*
X133700130Y-82678787D01*
X133966292Y-82583603D01*
X134091514Y-82516671D01*
X134163097Y-82272702D01*
X133350000Y-81459605D01*
X132536903Y-82272702D01*
X132230484Y-82272702D01*
X132182142Y-82155995D01*
X132091111Y-82019758D01*
X131975252Y-81903899D01*
X131839015Y-81812868D01*
X131687637Y-81750165D01*
X131526935Y-81718200D01*
X131363085Y-81718200D01*
X131202383Y-81750165D01*
X131051005Y-81812868D01*
X130914768Y-81903899D01*
X130798909Y-82019758D01*
X130707878Y-82155995D01*
X130645175Y-82307373D01*
X130618672Y-82440615D01*
X130572052Y-82527835D01*
X130544893Y-82617369D01*
X130533067Y-82656354D01*
X130528148Y-82706300D01*
X130519903Y-82790010D01*
X130523201Y-82823494D01*
X130523201Y-83041737D01*
X130442756Y-83107756D01*
X130359260Y-83209496D01*
X130302000Y-83316623D01*
X130302000Y-81350512D01*
X131909783Y-81350512D01*
X131951213Y-81630130D01*
X132046397Y-81896292D01*
X132113329Y-82021514D01*
X132357298Y-82093097D01*
X133170395Y-81280000D01*
X133529605Y-81280000D01*
X134342702Y-82093097D01*
X134586671Y-82021514D01*
X134707571Y-81766004D01*
X134776300Y-81491816D01*
X134790217Y-81209488D01*
X134748787Y-80929870D01*
X134653603Y-80663708D01*
X134586671Y-80538486D01*
X134342702Y-80466903D01*
X133529605Y-81280000D01*
X133170395Y-81280000D01*
X132357298Y-80466903D01*
X132113329Y-80538486D01*
X131992429Y-80793996D01*
X131923700Y-81068184D01*
X131909783Y-81350512D01*
X130302000Y-81350512D01*
X130302000Y-80287298D01*
X132536903Y-80287298D01*
X133350000Y-81100395D01*
X134163097Y-80287298D01*
X134091514Y-80043329D01*
X133836004Y-79922429D01*
X133561816Y-79853700D01*
X133279488Y-79839783D01*
X132999870Y-79881213D01*
X132733708Y-79976397D01*
X132608486Y-80043329D01*
X132536903Y-80287298D01*
X130302000Y-80287298D01*
X130302000Y-79375000D01*
X130299560Y-79350224D01*
X130292333Y-79326399D01*
X130280597Y-79304443D01*
X130264803Y-79285197D01*
X130245557Y-79269403D01*
X130223601Y-79257667D01*
X130199776Y-79250440D01*
X130175000Y-79248000D01*
X129302836Y-79248000D01*
X129180755Y-79099245D01*
X129007993Y-78957462D01*
X129120000Y-78958072D01*
X129244482Y-78945812D01*
X129364180Y-78909502D01*
X129474494Y-78850537D01*
X129571185Y-78771185D01*
X129650537Y-78674494D01*
X129709502Y-78564180D01*
X129745812Y-78444482D01*
X129758072Y-78320000D01*
X129755000Y-77755750D01*
X129596250Y-77597000D01*
X128397000Y-77597000D01*
X128397000Y-77617000D01*
X128143000Y-77617000D01*
X128143000Y-77597000D01*
X128123000Y-77597000D01*
X128123000Y-77343000D01*
X128143000Y-77343000D01*
X128143000Y-77323000D01*
X128397000Y-77323000D01*
X128397000Y-77343000D01*
X129596250Y-77343000D01*
X129755000Y-77184250D01*
X129757872Y-76656800D01*
X144562128Y-76656800D01*
X144565000Y-77184250D01*
G36*
X135937000Y-85913000D02*
G01*
X135957000Y-85913000D01*
X135957000Y-86167000D01*
X135937000Y-86167000D01*
X135937000Y-86841250D01*
X136095750Y-87000000D01*
X136398000Y-87001879D01*
X136398000Y-90043000D01*
X134412704Y-90043000D01*
X134456806Y-90006806D01*
X134510766Y-89941056D01*
X134550861Y-89866042D01*
X134575552Y-89784648D01*
X134583889Y-89700000D01*
X134583889Y-88100000D01*
X134575552Y-88015352D01*
X134550861Y-87933958D01*
X134510766Y-87858944D01*
X134456806Y-87793194D01*
X134391056Y-87739234D01*
X134316042Y-87699139D01*
X134234648Y-87674448D01*
X134179089Y-87668976D01*
X134261982Y-87660812D01*
X134381680Y-87624502D01*
X134491994Y-87565537D01*
X134588685Y-87486185D01*
X134668037Y-87389494D01*
X134727002Y-87279180D01*
X134763312Y-87159482D01*
X134775572Y-87035000D01*
X134774891Y-86948660D01*
X134785820Y-86954502D01*
X134905518Y-86990812D01*
X135030000Y-87003072D01*
X135524250Y-87000000D01*
X135683000Y-86841250D01*
X135683000Y-86167000D01*
X135663000Y-86167000D01*
X135663000Y-85913000D01*
X135683000Y-85913000D01*
X135683000Y-85893000D01*
X135937000Y-85893000D01*
X135937000Y-85913000D01*
X135937000Y-85913000D01*
G37*
X135937000Y-85913000D02*
X135957000Y-85913000D01*
X135957000Y-86167000D01*
X135937000Y-86167000D01*
X135937000Y-86841250D01*
X136095750Y-87000000D01*
X136398000Y-87001879D01*
X136398000Y-90043000D01*
X134412704Y-90043000D01*
X134456806Y-90006806D01*
X134510766Y-89941056D01*
X134550861Y-89866042D01*
X134575552Y-89784648D01*
X134583889Y-89700000D01*
X134583889Y-88100000D01*
X134575552Y-88015352D01*
X134550861Y-87933958D01*
X134510766Y-87858944D01*
X134456806Y-87793194D01*
X134391056Y-87739234D01*
X134316042Y-87699139D01*
X134234648Y-87674448D01*
X134179089Y-87668976D01*
X134261982Y-87660812D01*
X134381680Y-87624502D01*
X134491994Y-87565537D01*
X134588685Y-87486185D01*
X134668037Y-87389494D01*
X134727002Y-87279180D01*
X134763312Y-87159482D01*
X134775572Y-87035000D01*
X134774891Y-86948660D01*
X134785820Y-86954502D01*
X134905518Y-86990812D01*
X135030000Y-87003072D01*
X135524250Y-87000000D01*
X135683000Y-86841250D01*
X135683000Y-86167000D01*
X135663000Y-86167000D01*
X135663000Y-85913000D01*
X135683000Y-85913000D01*
X135683000Y-85893000D01*
X135937000Y-85893000D01*
X135937000Y-85913000D01*
M02*
