M48
; DRILL file {KiCad (5.1.0)-1} date 8/7/2020 11:47:55 AM
; FORMAT={-:-/ absolute / inch / decimal}
; #@! TF.CreationDate,2020-08-07T11:47:55-07:00
; #@! TF.GenerationSoftware,Kicad,Pcbnew,(5.1.0)-1
FMAT,2
INCH
T1C0.0157
T2C0.0315
T3C0.0394
T4C0.0400
%
G90
G05
T1
X5.1652Y-3.8098
X5.175Y-3.25
X5.2Y-3.35
X5.2126Y-3.9449
X5.25Y-3.625
X5.25Y-4.075
X5.2913Y-4.1285
X5.325Y-3.85
X5.4Y-3.175
X5.4Y-3.35
X5.475Y-4.15
X5.4803Y-3.8504
X5.5128Y-4.4995
X5.5375Y-3.1
X5.55Y-3.35
X5.55Y-3.925
X5.5512Y-4.0866
T2
X5.25Y-3.2
X5.25Y-3.5
X5.55Y-3.2
X5.55Y-3.5
T3
X5.05Y-3.05
X5.05Y-3.15
X5.05Y-3.25
X5.05Y-3.35
X5.05Y-3.45
X5.05Y-3.55
X5.05Y-3.65
X5.05Y-3.75
X5.05Y-3.85
X5.05Y-3.95
X5.05Y-4.05
X5.05Y-4.15
X5.05Y-4.25
X5.05Y-4.35
X5.05Y-4.45
X5.05Y-4.55
X5.05Y-4.65
X5.05Y-4.75
X5.05Y-4.85
X5.05Y-4.95
X5.75Y-3.05
X5.75Y-3.15
X5.75Y-3.25
X5.75Y-3.35
X5.75Y-3.45
X5.75Y-3.55
X5.75Y-3.65
X5.75Y-3.75
X5.75Y-3.85
X5.75Y-3.95
X5.75Y-4.05
X5.75Y-4.15
X5.75Y-4.25
X5.75Y-4.35
X5.75Y-4.45
X5.75Y-4.55
X5.75Y-4.65
X5.75Y-4.75
X5.75Y-4.85
X5.75Y-4.95
T4
X5.35Y-4.6
X5.35Y-4.7
X5.35Y-4.8
X5.35Y-4.9
X5.35Y-5.0
X5.45Y-4.6
X5.45Y-4.7
X5.45Y-4.8
X5.45Y-4.9
X5.45Y-5.0
T0
M30
